<svg width="15" height="14" viewBox="0 0 15 14" fill="none" xmlns="http://www.w3.org/2000/svg">
<path opacity="0.593634" d="M14.4166 3.19958L12.6666 0.282916C12.5611 0.107414 12.3714 0 12.1667 0H2.83334C2.6286 0 2.43886 0.107414 2.33342 0.282916L0.583424 3.19958C0.528876 3.29029 0.500004 3.39414 0.500004 3.49999C0.497749 4.78572 1.5377 5.8301 2.82342 5.83332H2.82809C3.40427 5.83479 3.96035 5.62164 4.38792 5.23541C5.27106 6.0336 6.6151 6.0336 7.49824 5.23541C8.38183 6.03536 9.7279 6.03536 10.6115 5.23541C11.2955 5.85251 12.2791 6.00833 13.1204 5.63287C13.9617 5.2574 14.5025 4.42126 14.5 3.49999C14.5 3.39414 14.4711 3.29029 14.4166 3.19958Z" fill="#3A416F"/>
<path d="M12.176 6.69955C11.6337 6.70001 11.0988 6.55766 10.6132 6.28369L10.6045 6.28833C9.77663 6.7569 8.81822 6.8308 7.94216 6.49361C7.79043 6.4357 7.64231 6.36623 7.49882 6.28568L7.49241 6.28899C6.66481 6.75789 5.70639 6.83157 4.83066 6.49361C4.67912 6.43569 4.5312 6.36623 4.38791 6.28568C3.90322 6.55889 3.36924 6.70057 2.82808 6.69955C2.63429 6.69745 2.44096 6.67752 2.25 6.63995V13.3215C2.25 13.6872 2.51117 13.9837 2.83333 13.9837H6.33333V10.0105H8.66666V13.9837H12.1666C12.4888 13.9837 12.75 13.6872 12.75 13.3215V6.6373C12.5605 6.67584 12.3685 6.69666 12.176 6.69955Z" fill="#3A416F"/>
</svg>
