<svg width="15" height="14" viewBox="0 0 15 14" fill="none" xmlns="http://www.w3.org/2000/svg">
<path d="M12.75 10.5V11.0833C12.75 11.7279 12.2279 12.25 11.5833 12.25H3.41667C2.77208 12.25 2.25 11.7279 2.25 11.0833V2.91667C2.25 2.27208 2.77208 1.75 3.41667 1.75H11.5833C12.2279 1.75 12.75 2.27208 12.75 2.91667V3.5H7.5C6.85542 3.5 6.33333 4.02208 6.33333 4.66667V9.33333C6.33333 9.97792 6.85542 10.5 7.5 10.5H12.75ZM7.5 9.33333H13.3333V4.66667H7.5V9.33333ZM9.83333 7.875C9.34917 7.875 8.95833 7.48417 8.95833 7C8.95833 6.51583 9.34917 6.125 9.83333 6.125C10.3175 6.125 10.7083 6.51583 10.7083 7C10.7083 7.48417 10.3175 7.875 9.83333 7.875Z" fill="#3A416F"/>
</svg>
