<svg width="13" height="16" viewBox="0 0 13 16" fill="none" xmlns="http://www.w3.org/2000/svg">
<path opacity="0.603585" d="M12.9991 13.8667H11.8131V1.26061H1.73242V0H12.4061C12.7334 0 12.9991 0.282376 12.9991 0.630303V13.8667Z" fill="#3A416F"/>
<path fill-rule="evenodd" clip-rule="evenodd" d="M0.625926 3.46655H10.6407C10.9863 3.46655 11.2667 3.73834 11.2667 4.07322V14.9932C11.2667 15.3281 10.9863 15.5999 10.6407 15.5999H0.625926C0.280415 15.5999 0 15.3281 0 14.9932V4.07322C0 3.73834 0.280415 3.46655 0.625926 3.46655ZM2.5037 12.5666H6.25926V11.3532H2.5037V12.5666ZM8.76296 10.1399H2.5037V8.92655H8.76296V10.1399ZM2.5037 7.71322H8.76296V6.49989H2.5037V7.71322Z" fill="#3A416F"/>
</svg>
