<svg width="15" height="15" viewBox="0 0 15 15" fill="none" xmlns="http://www.w3.org/2000/svg">
<path fill-rule="evenodd" clip-rule="evenodd" d="M14.3396 0.000833961C14.518 -0.00836115 14.6919 0.0588205 14.8178 0.18558C14.9436 0.312164 15.0096 0.486255 14.9994 0.664411C14.5005 9.43795 6.69027 12.7307 6.61172 12.7627C6.37759 12.8585 6.1089 12.8045 5.92992 12.6258L2.37513 9.07097C2.19729 8.89286 2.14289 8.62581 2.23689 8.39231C2.26831 8.31314 5.52461 0.460813 14.3396 0.000833961ZM8.31675 7.36416C8.78642 7.55866 9.32701 7.45107 9.68641 7.09155C10.177 6.60078 10.177 5.80525 9.68641 5.31448C9.32701 4.95496 8.78642 4.84737 8.31675 5.04187C7.84708 5.23637 7.54083 5.69466 7.54083 6.20301C7.54083 6.71137 7.84708 7.16966 8.31675 7.36416Z" fill="#3A416F"/>
<path d="M0.699395 11.7605C1.15035 11.3064 1.80966 11.1282 2.42797 11.2931C3.04629 11.458 3.52923 11.9409 3.69415 12.5593C3.85908 13.1776 3.68081 13.8369 3.22677 14.2878C2.52863 14.986 0 15.0004 0 15.0004C0 15.0004 0 12.458 0.699395 11.7605Z" fill="#3A416F"/>
<path opacity="0.59854" d="M6.50894 1.39014C4.71152 1.0773 2.87438 1.65974 1.58553 2.95105C1.24947 3.29023 0.957292 3.67023 0.715842 4.08215C0.570417 4.32908 0.610481 4.64312 0.813242 4.84564L2.0631 6.09613C3.2245 4.25295 4.73472 2.65436 6.50894 1.39014Z" fill="#3A416F"/>
<path opacity="0.59854" d="M13.6103 8.49219C13.9231 10.2896 13.3407 12.1268 12.0494 13.4156C11.7102 13.7517 11.3302 14.0438 10.9183 14.2853C10.6713 14.4307 10.3573 14.3907 10.1548 14.1879L8.9043 12.938C10.7475 11.7766 12.3461 10.2664 13.6103 8.49219Z" fill="#3A416F"/>
</svg>
