<svg width="14" height="10" viewBox="0 0 14 10" fill="none" xmlns="http://www.w3.org/2000/svg">
<path fill-rule="evenodd" clip-rule="evenodd" d="M8.16667 0.899902H13.4167C13.7393 0.899902 14 1.15413 14 1.46865V9.43115C14 9.74567 13.7393 9.9999 13.4167 9.9999H0.583333C0.26075 9.9999 0 9.74567 0 9.43115V3.74365C0 3.42913 0.26075 3.1749 0.583333 3.1749H5.83333C6.15592 3.1749 6.41667 3.42913 6.41667 3.74365V8.8624H7.58333V1.46865C7.58333 1.15413 7.84408 0.899902 8.16667 0.899902ZM2.33333 8.29365H4.08333V7.15615H2.33333V8.29365ZM4.08333 6.01865H2.33333V4.88115H4.08333V6.01865ZM9.91667 8.29365H11.6667V7.15615H9.91667V8.29365ZM11.6667 6.01865H9.91667V4.88115H11.6667V6.01865ZM9.91667 3.74365H11.6667V2.60615H9.91667V3.74365Z" fill="#3A416F"/>
</svg>
