<svg width="32" height="32" viewBox="0 0 32 32" fill="none" xmlns="http://www.w3.org/2000/svg">
<path d="M16 32C7.163 32 0 24.837 0 16C0 7.163 7.163 0 16 0C24.837 0 32 7.163 32 16C32 24.837 24.837 32 16 32ZM15.263 24.856V26.319H16V24.13H14.537V24.856H15.263ZM7.926 16.826H7.2V20.478H7.926V19.015H8.663V17.552H7.926V16.826ZM16.737 21.204V23.393H17.463V21.204H16.737ZM16 23.393V24.13H16.737V23.393H16ZM8.663 22.667V24.856H10.863V22.667H8.663ZM7.2 15.363V16.089H7.937V15.363H7.2ZM11.6 13.9V14.637H12.337V13.9H11.6ZM16 13.163V14.626H16.737V13.163H16ZM6.463 10.974V13.163H8.663V10.974H6.463ZM13.063 24.856V26.319H13.8V24.856H13.063ZM13.8 13.163H13.074V14.626H13.8V13.9H14.537V12.437H13.8V13.163ZM14.537 11.711V12.437H15.263V11.711H14.537ZM14.537 13.9V14.626H15.263V13.9H14.537ZM10.863 15.363V16.089H13.063V15.363H10.863ZM13.8 12.437V11.711H14.526V10.974H13.8V9.522H11.6V10.248H13.063V10.974H12.326V11.7H11.6V12.426H10.874V11.711H10.126V10.985H10.863V11.7H11.6V10.974H10.874V9.522H5V14.637H10.874V13.9H11.6V12.437H12.337V13.163H13.074V12.437H13.8ZM9.4 13.9H5.737V10.248H9.4V13.9ZM10.126 13.9V12.437H10.863V13.9H10.126ZM13.063 11.7V10.985H13.8V11.7H13.063ZM18.937 19.741V19.015H17.463V17.552H16.737V18.278H16.011V17.552H16.737V15.352H15.274V16.089H14.526V17.552H13.8V18.278H14.537V17.552H15.263V19.741H13.8V19.015H13.063V17.552H12.337V16.826H10.863V16.1H10.126V15.374H8.663V16.1H7.926V16.826H8.663V17.552H9.4V16.826H10.137V17.552H9.4V18.278H10.137V19.004H10.863V18.278H11.6V17.552H12.326V18.278H11.6V19.004H10.874V20.467H12.337V21.204H10.863V20.478H10.126V21.204H8.663V20.478H7.937V21.204H7.2V26.319H12.337V21.93H13.063V24.13H14.537V23.404H15.274V21.93H14.537V21.204H13.8V21.93H13.074V20.467H15.274V21.193H16.011V19.741H17.463V20.478H18.2V19.741H18.937ZM11.6 25.582H7.937V21.93H11.6V25.582ZM12.337 19.741H11.6V19.015H12.337V19.741ZM13.8 22.667H14.537V23.393H13.8V22.667ZM18.937 9.522V10.974H19.663V9.522H18.937ZM17.463 9.522H16.737V11.711H16V12.437H16.737V13.163H17.463V14.626H18.2V13.163H18.937V14.637H19.663V13.9H20.4V12.437H18.937V10.974H17.463V9.522ZM24.063 17.552H22.6V18.278H21.863V19.015H21.137V16.826H21.863V16.089H21.137V16.815H20.4V17.552H19.663V16.089H18.937V17.552H18.2V18.289L18.937 18.278H19.663V19.741H21.863V20.478H19.663V21.204H18.937V21.93H18.2V22.667H18.937V23.393H18.2V24.13H18.937V24.856H19.663V25.582H18.937V26.319H24.8V21.93H24.063V25.582H20.4V21.93H22.6V19.015H23.337V19.741H24.8V18.289H24.074V17.552H24.8V15.363H24.063V17.552ZM18.2 20.478V21.204H18.937V20.478H18.2ZM21.863 16.826V17.552H22.6V16.826H21.863ZM23.337 20.478V21.215H24.8V20.478H23.337ZM23.337 10.985V13.174H25.537V10.985H23.337ZM20.4 13.9V14.637H21.137V13.9H20.4ZM17.463 15.363V16.089H18.2V15.363H17.463ZM22.6 15.363V16.089H23.337V15.363H22.6ZM21.137 22.667V24.856H23.337V22.667H21.137ZM20.4 15.363V16.089H21.137V15.363H20.4ZM15.263 10.974V11.711H16V10.974H15.263ZM20.4 9.522V10.248H21.863V10.974H21.126V11.7H20.4V10.974H19.663V11.711H20.4V12.426H21.137V13.152H21.874V14.615H27V9.522H20.4ZM26.263 13.9H22.6V10.248H26.263V13.9ZM9.851 8.235C10.357 8.576 10.929 8.642 11.38 8.664C11.765 8.686 12.414 8.686 13.096 8.686C14.361 8.686 15.846 8.708 16 8.708C16.407 8.719 17.65 8.719 18.75 8.719C19.432 8.719 20.07 8.708 20.466 8.697C20.917 8.675 21.489 8.598 21.995 8.268C22.633 7.839 22.952 7.135 22.952 6.178C22.952 5.408 22.633 4.946 22.369 4.682C21.654 3.989 20.554 4.033 20.191 4.044H20.147C19.927 4.044 19.135 4.165 18.2 4.693C17.375 5.155 16.66 5.815 16.077 6.64L16.011 6.805L15.956 6.717C15.34 5.793 14.537 5.166 13.646 4.66C12.722 4.132 11.93 4.022 11.71 4.022H11.666C11.303 4.011 10.203 3.967 9.488 4.66C9.004 5.122 8.905 5.727 8.905 6.156C8.894 7.102 9.213 7.806 9.851 8.235ZM18.739 5.771C19.52 5.32 20.114 5.254 20.158 5.254H20.235C20.862 5.232 21.302 5.331 21.533 5.551C21.676 5.694 21.753 5.892 21.753 6.178C21.753 7.223 21.258 7.454 20.411 7.498C19.696 7.531 18.035 7.52 16.957 7.509C17.4005 6.79313 18.0123 6.19649 18.739 5.771ZM10.313 5.518C10.522 5.32 10.896 5.221 11.435 5.221H11.699C11.743 5.221 12.337 5.287 13.118 5.738C13.822 6.145 14.427 6.728 14.911 7.476C13.822 7.487 12.161 7.498 11.446 7.465C10.599 7.421 10.104 7.19 10.104 6.145C10.104 5.859 10.17 5.661 10.313 5.518ZM17.463 24.856H16.737V26.319H17.474V24.856H18.2V24.13H17.463V24.856Z" fill="#8095A9"/>
</svg>
