<svg width="16" height="16" viewBox="0 0 16 16" fill="none" xmlns="http://www.w3.org/2000/svg">
<path d="M11.2849 11.9495C11.1089 11.9495 10.94 11.8796 10.8155 11.7551C10.691 11.6306 10.6211 11.4617 10.6211 11.2857V5.31089H4.64629C4.47022 5.31089 4.30136 5.24094 4.17686 5.11644C4.05236 4.99194 3.98242 4.82309 3.98242 4.64702C3.98242 4.47095 4.05236 4.3021 4.17686 4.1776C4.30136 4.0531 4.47022 3.98315 4.64629 3.98315H11.2849C11.461 3.98315 11.6299 4.0531 11.7544 4.1776C11.8789 4.3021 11.9488 4.47095 11.9488 4.64702V11.2857C11.9488 11.4617 11.8789 11.6306 11.7544 11.7551C11.6299 11.8796 11.461 11.9495 11.2849 11.9495Z" fill="white"/>
<path d="M4.64615 11.9494C4.51487 11.9493 4.38654 11.9104 4.2774 11.8374C4.16825 11.7645 4.08318 11.6608 4.03295 11.5395C3.98271 11.4182 3.96957 11.2848 3.99517 11.156C4.02077 11.0273 4.08398 10.909 4.17679 10.8161L10.8154 4.17749C10.9403 4.05487 11.1086 3.98652 11.2836 3.98731C11.4586 3.9881 11.6262 4.05798 11.7499 4.18172C11.8737 4.30547 11.9435 4.47309 11.9443 4.64809C11.9451 4.8231 11.8768 4.99133 11.7542 5.1162L5.1155 11.7549C5.05394 11.8166 4.98078 11.8656 4.90023 11.899C4.81969 11.9323 4.73334 11.9495 4.64615 11.9494V11.9494Z" fill="white"/>
</svg>
