<svg width="16" height="16" viewBox="0 0 16 16" fill="none" xmlns="http://www.w3.org/2000/svg">
<rect width="15.9328" height="15.9328" fill="#001B36"/>
<path d="M11.2869 11.9498C11.1108 11.9498 10.942 11.8798 10.8175 11.7553C10.693 11.6308 10.623 11.462 10.623 11.2859V5.31113H4.64824C4.47217 5.31113 4.30332 5.24119 4.17882 5.11669C4.05432 4.99219 3.98438 4.82333 3.98438 4.64726C3.98438 4.4712 4.05432 4.30234 4.17882 4.17784C4.30332 4.05334 4.47217 3.9834 4.64824 3.9834H11.2869C11.463 3.9834 11.6318 4.05334 11.7563 4.17784C11.8808 4.30234 11.9508 4.4712 11.9508 4.64726V11.2859C11.9508 11.462 11.8808 11.6308 11.7563 11.7553C11.6318 11.8798 11.463 11.9498 11.2869 11.9498Z" fill="#F0B90B"/>
<path d="M4.6481 11.9497C4.51682 11.9497 4.3885 11.9108 4.27935 11.8378C4.1702 11.7649 4.08514 11.6612 4.0349 11.5399C3.98467 11.4186 3.97152 11.2852 3.99712 11.1564C4.02273 11.0276 4.08593 10.9094 4.17875 10.8165L10.8174 4.17786C10.9423 4.05524 11.1105 3.98689 11.2855 3.98768C11.4605 3.98847 11.6281 4.05834 11.7519 4.18209C11.8756 4.30584 11.9455 4.47345 11.9463 4.64846C11.9471 4.82346 11.8787 4.9917 11.7561 5.11656L5.11745 11.7552C5.05589 11.817 4.98274 11.8659 4.90219 11.8993C4.82164 11.9327 4.73529 11.9498 4.6481 11.9497V11.9497Z" fill="#F0B90B"/>
</svg>
