<svg width="60" height="60" viewBox="0 0 60 60" fill="none" xmlns="http://www.w3.org/2000/svg">
<circle cx="30" cy="30" r="30" fill="#20C997" fill-opacity="0.1"/>
<circle cx="30.0797" cy="30.0807" r="23.6461" fill="#20C997" fill-opacity="0.2"/>
<path d="M23.1494 21.6733C23.0082 21.6733 22.8927 21.7889 22.8927 21.9302V23.4716C22.8927 23.6129 23.0082 23.7285 23.1494 23.7285H35.4704C35.6116 23.7285 35.7271 23.6129 35.7271 23.4716V21.9302C35.7271 21.7889 35.6116 21.6733 35.4704 21.6733H23.1494ZM29.0532 26.2974H23.1494C23.0082 26.2974 22.8927 26.413 22.8927 26.5543V28.0956C22.8927 28.2369 23.0082 28.3525 23.1494 28.3525H29.0532C29.1944 28.3525 29.3099 28.2369 29.3099 28.0956V26.5543C29.3099 26.413 29.1944 26.2974 29.0532 26.2974ZM27.5131 41.0044H20.3258V18.398H38.294V28.6736C38.294 28.8149 38.4095 28.9305 38.5507 28.9305H40.3475C40.4887 28.9305 40.6042 28.8149 40.6042 28.6736V17.1135C40.6042 16.5451 40.1453 16.0859 39.5774 16.0859H19.0424C18.4745 16.0859 18.0156 16.5451 18.0156 17.1135V42.2889C18.0156 42.8573 18.4745 43.3165 19.0424 43.3165H27.5131C27.6543 43.3165 27.7698 43.2009 27.7698 43.0596V41.2613C27.7698 41.12 27.6543 41.0044 27.5131 41.0044ZM41.6309 38.1786H37.0105V37.0034C38.4961 36.5602 39.5774 35.1858 39.5774 33.5546C39.5774 31.5669 37.9699 29.9581 35.9838 29.9581C33.9977 29.9581 32.3902 31.5669 32.3902 33.5546C32.3902 35.1826 33.4715 36.5602 34.957 37.0034V38.1786H30.3367C30.0543 38.1786 29.8233 38.4098 29.8233 38.6924V43.5734C29.8233 43.8559 30.0543 44.0871 30.3367 44.0871H41.6309C41.9133 44.0871 42.1443 43.8559 42.1443 43.5734V38.6924C42.1443 38.4098 41.9133 38.1786 41.6309 38.1786ZM34.3795 33.5546C34.3795 32.6683 35.0982 31.949 35.9838 31.949C36.8694 31.949 37.5881 32.6683 37.5881 33.5546C37.5881 34.4409 36.8694 35.1602 35.9838 35.1602C35.0982 35.1602 34.3795 34.4409 34.3795 33.5546ZM40.155 42.0962H31.8126V40.1695H40.155V42.0962Z" fill="#28A745"/>
</svg>
