<svg width="184" height="126" viewBox="0 0 184 126" fill="none" xmlns="http://www.w3.org/2000/svg">
<g opacity="0.5" clip-path="url(#clip0)">
<path d="M8.59023 4.29C8.5922 5.14088 8.3417 5.97323 7.87041 6.68167C7.39912 7.39012 6.72825 7.94281 5.9427 8.2698C5.15716 8.5968 4.29226 8.68338 3.45748 8.51859C2.62271 8.35381 1.85559 7.94506 1.25322 7.3441C0.650852 6.74313 0.240323 5.97696 0.0735942 5.14257C-0.0931344 4.30818 -0.00856596 3.44308 0.316595 2.65678C0.641756 1.87047 1.19289 1.19831 1.90024 0.725381C2.60758 0.252447 3.43934 2.30094e-06 4.29022 0C5.42812 0.00262789 6.5188 0.455136 7.32435 1.25881C8.1299 2.06249 8.58495 3.15212 8.59023 4.29Z" fill="#8095A9"/>
<path d="M37.7304 4.29C37.7304 5.13848 37.4788 5.96791 37.0074 6.6734C36.536 7.37888 35.866 7.92874 35.0821 8.25344C34.2982 8.57814 33.4356 8.6631 32.6035 8.49757C31.7713 8.33204 31.0069 7.92346 30.4069 7.32349C29.8069 6.72352 29.3984 5.95912 29.2328 5.12694C29.0673 4.29476 29.1522 3.43218 29.4769 2.64829C29.8016 1.86439 30.3515 1.19439 31.057 0.722995C31.7625 0.251604 32.5919 0 33.4404 0C34.5774 0.00264105 35.667 0.45547 36.471 1.25943C37.2749 2.06339 37.7278 3.15303 37.7304 4.29Z" fill="#8095A9"/>
<path d="M66.8793 4.29C66.8813 5.14088 66.6308 5.97323 66.1595 6.68167C65.6882 7.39012 65.0173 7.94281 64.2318 8.2698C63.4462 8.5968 62.5813 8.68338 61.7465 8.51859C60.9118 8.35381 60.1446 7.94506 59.5423 7.3441C58.9399 6.74313 58.5294 5.97696 58.3627 5.14257C58.1959 4.30818 58.2805 3.44308 58.6057 2.65678C58.9308 1.87047 59.482 1.19831 60.1893 0.725381C60.8966 0.252447 61.7284 2.30094e-06 62.5793 0C63.7172 0.00262789 64.8079 0.455136 65.6134 1.25881C66.419 2.06249 66.874 3.15212 66.8793 4.29Z" fill="#8095A9"/>
<path d="M95.9999 4.29005C95.9999 5.13938 95.7478 5.96959 95.2755 6.67551C94.8032 7.38142 94.132 7.93126 93.347 8.25537C92.5619 8.57947 91.6983 8.66325 90.8656 8.49609C90.0329 8.32894 89.2685 7.91836 88.6694 7.31639C88.0702 6.71442 87.6632 5.94815 87.4999 5.11466C87.3367 4.28117 87.4245 3.41797 87.7523 2.63443C88.08 1.85089 88.633 1.18228 89.3411 0.713299C90.0492 0.244322 90.8806 -0.00391295 91.7299 4.6641e-05C92.8634 0.00795193 93.9479 0.463104 94.7476 1.2665C95.5472 2.06989 95.9973 3.15653 95.9999 4.29005Z" fill="#8095A9"/>
<path d="M125.17 4.29C125.172 5.14088 124.922 5.97323 124.45 6.68167C123.979 7.39012 123.308 7.94281 122.523 8.2698C121.737 8.5968 120.872 8.68338 120.038 8.51859C119.203 8.35381 118.436 7.94506 117.833 7.3441C117.231 6.74313 116.82 5.97696 116.654 5.14257C116.487 4.30818 116.572 3.44308 116.897 2.65678C117.222 1.87047 117.773 1.19831 118.48 0.725381C119.188 0.252447 120.019 2.30095e-06 120.87 0C122.009 -3.07922e-06 123.101 0.451658 123.907 1.2559C124.713 2.06015 125.168 3.1513 125.17 4.29Z" fill="#8095A9"/>
<path d="M154.31 4.29001C154.31 5.13764 154.059 5.96627 153.589 6.67132C153.118 7.37636 152.45 7.92623 151.667 8.2515C150.884 8.57678 150.022 8.6629 149.191 8.49898C148.359 8.33507 147.595 7.92847 146.994 7.3305C146.393 6.73253 145.983 5.97 145.815 5.13914C145.648 4.30828 145.73 3.44635 146.051 2.66211C146.373 1.87788 146.92 1.2065 147.623 0.732709C148.325 0.258922 149.153 0.0039633 150 1.1656e-05C150.565 -0.00130309 151.125 0.108618 151.647 0.3235C152.169 0.538381 152.644 0.854014 153.044 1.25238C153.444 1.65074 153.762 2.12403 153.979 2.64523C154.197 3.16643 154.309 3.72533 154.31 4.29001Z" fill="#8095A9"/>
<path d="M183.459 4.29001C183.461 5.14132 183.211 5.97406 182.739 6.68272C182.267 7.39138 181.596 7.94407 180.81 8.27077C180.023 8.59746 179.158 8.68346 178.323 8.51786C177.488 8.35227 176.721 7.94253 176.119 7.34056C175.517 6.73859 175.107 5.97149 174.942 5.13644C174.776 4.30139 174.862 3.43598 175.189 2.64985C175.515 1.86372 176.068 1.19225 176.777 0.720524C177.485 0.248795 178.318 -0.00196589 179.169 1.16062e-05C180.306 0.00265266 181.396 0.455482 182.2 1.25944C183.004 2.0634 183.457 3.15304 183.459 4.29001Z" fill="#8095A9"/>
<path d="M8.59023 33.4404C8.5922 34.2913 8.3417 35.1236 7.87041 35.8321C7.39912 36.5405 6.72825 37.0932 5.9427 37.4202C5.15716 37.7472 4.29226 37.8338 3.45748 37.669C2.62271 37.5042 1.85559 37.0955 1.25322 36.4945C0.650852 35.8935 0.240323 35.1274 0.0735942 34.293C-0.0931344 33.4586 -0.00856596 32.5935 0.316595 31.8072C0.641756 31.0209 1.19289 30.3487 1.90024 29.8758C2.60758 29.4028 3.43934 29.1504 4.29022 29.1504C5.42893 29.1504 6.52113 29.602 7.32725 30.4063C8.13337 31.2105 8.58758 32.3017 8.59023 33.4404Z" fill="#8095A9"/>
<path d="M37.7304 33.4404C37.7304 34.2889 37.4788 35.1183 37.0074 35.8238C36.536 36.5293 35.866 37.0791 35.0821 37.4038C34.2982 37.7285 33.4356 37.8135 32.6035 37.648C31.7713 37.4824 31.0069 37.0738 30.4069 36.4739C29.8069 35.8739 29.3984 35.1095 29.2328 34.2773C29.0673 33.4451 29.1522 32.5826 29.4769 31.7987C29.8016 31.0148 30.3515 30.3448 31.057 29.8734C31.7625 29.402 32.5919 29.1504 33.4404 29.1504C34.5782 29.1504 35.6693 29.6024 36.4739 30.4069C37.2784 31.2114 37.7304 32.3026 37.7304 33.4404Z" fill="#8095A9"/>
<path d="M66.8793 33.4404C66.8813 34.2913 66.6308 35.1236 66.1595 35.8321C65.6882 36.5405 65.0173 37.0932 64.2318 37.4202C63.4462 37.7472 62.5813 37.8338 61.7465 37.669C60.9118 37.5042 60.1446 37.0955 59.5423 36.4945C58.9399 35.8935 58.5294 35.1274 58.3627 34.293C58.1959 33.4586 58.2805 32.5935 58.6057 31.8072C58.9308 31.0209 59.482 30.3487 60.1893 29.8758C60.8966 29.4028 61.7284 29.1504 62.5793 29.1504C63.718 29.1504 64.8102 29.602 65.6163 30.4063C66.4224 31.2105 66.8766 32.3017 66.8793 33.4404Z" fill="#8095A9"/>
<path d="M95.9999 33.4404C95.9999 34.2889 95.7483 35.1183 95.2769 35.8238C94.8055 36.5293 94.1355 37.0791 93.3516 37.4038C92.5677 37.7285 91.7052 37.8135 90.873 37.648C90.0408 37.4824 89.2764 37.0738 88.6764 36.4739C88.0765 35.8739 87.6679 35.1095 87.5024 34.2773C87.3368 33.4451 87.4218 32.5826 87.7465 31.7987C88.0712 31.0148 88.621 30.3448 89.3265 29.8734C90.032 29.402 90.8614 29.1504 91.7099 29.1504C92.8477 29.1504 93.9389 29.6024 94.7434 30.4069C95.5479 31.2114 95.9999 32.3026 95.9999 33.4404Z" fill="#8095A9"/>
<path d="M125.17 33.4404C125.172 34.2913 124.922 35.1236 124.45 35.8321C123.979 36.5405 123.308 37.0932 122.523 37.4202C121.737 37.7472 120.872 37.8338 120.038 37.669C119.203 37.5042 118.436 37.0955 117.833 36.4945C117.231 35.8935 116.82 35.1274 116.654 34.293C116.487 33.4586 116.572 32.5935 116.897 31.8072C117.222 31.0209 117.773 30.3487 118.48 29.8758C119.188 29.4029 120.019 29.1504 120.87 29.1504C121.435 29.1491 121.993 29.2591 122.515 29.4741C123.037 29.6891 123.511 30.0049 123.91 30.4034C124.31 30.8019 124.627 31.2752 124.843 31.7964C125.059 32.3175 125.17 32.8762 125.17 33.4404Z" fill="#8095A9"/>
<path d="M154.31 33.4404C154.31 34.2881 154.059 35.1167 153.589 35.8217C153.118 36.5268 152.45 37.0767 151.667 37.4019C150.884 37.7272 150.022 37.8133 149.191 37.6494C148.359 37.4855 147.595 37.0789 146.994 36.4809C146.393 35.883 145.983 35.1204 145.815 34.2896C145.648 33.4587 145.73 32.5968 146.051 31.8125C146.373 31.0283 146.92 30.3569 147.623 29.8831C148.325 29.4093 149.153 29.1544 150 29.1504C150.566 29.1478 151.126 29.2568 151.648 29.4712C152.171 29.6856 152.646 30.0012 153.047 30.3999C153.447 30.7985 153.765 31.2723 153.982 31.7941C154.199 32.3159 154.31 32.8754 154.31 33.4404Z" fill="#8095A9"/>
<path d="M183.459 33.4404C183.461 34.2917 183.211 35.1244 182.739 35.8331C182.267 36.5418 181.596 37.0945 180.81 37.4212C180.023 37.7479 179.158 37.8339 178.323 37.6683C177.488 37.5027 176.721 37.0929 176.119 36.4909C175.517 35.889 175.107 35.1219 174.942 34.2868C174.776 33.4518 174.862 32.5864 175.189 31.8002C175.515 31.0141 176.068 30.3426 176.777 29.8709C177.485 29.3992 178.318 29.1484 179.169 29.1504C180.307 29.1504 181.398 29.6024 182.203 30.4069C183.007 31.2114 183.459 32.3026 183.459 33.4404Z" fill="#8095A9"/>
<path d="M8.59023 62.58C8.5922 63.4309 8.3417 64.2633 7.87041 64.9717C7.39912 65.6802 6.72825 66.2329 5.9427 66.5598C5.15716 66.8868 4.29226 66.9734 3.45748 66.8086C2.62271 66.6438 1.85559 66.2351 1.25322 65.6341C0.650852 65.0332 0.240323 64.267 0.0735942 63.4326C-0.0931344 62.5982 -0.00856596 61.7331 0.316595 60.9468C0.641756 60.1605 1.19289 59.4884 1.90024 59.0154C2.60758 58.5425 3.43934 58.29 4.29022 58.29C5.42812 58.2927 6.5188 58.7452 7.32435 59.5489C8.1299 60.3525 8.58495 61.4422 8.59023 62.58Z" fill="#8095A9"/>
<path d="M37.7304 62.58C37.7304 63.4285 37.4788 64.2579 37.0074 64.9634C36.536 65.6689 35.866 66.2188 35.0821 66.5435C34.2982 66.8682 33.4356 66.9531 32.6035 66.7876C31.7713 66.6221 31.0069 66.2135 30.4069 65.6135C29.8069 65.0136 29.3984 64.2492 29.2328 63.417C29.0673 62.5848 29.1522 61.7222 29.4769 60.9383C29.8016 60.1544 30.3515 59.4844 31.057 59.013C31.7625 58.5416 32.5919 58.29 33.4404 58.29C34.5774 58.2927 35.667 58.7455 36.471 59.5495C37.2749 60.3534 37.7278 61.4431 37.7304 62.58Z" fill="#8095A9"/>
<path d="M66.8793 62.58C66.8813 63.4309 66.6308 64.2633 66.1595 64.9717C65.6882 65.6802 65.0173 66.2329 64.2318 66.5598C63.4462 66.8868 62.5813 66.9734 61.7465 66.8086C60.9118 66.6438 60.1446 66.2351 59.5423 65.6341C58.9399 65.0332 58.5294 64.267 58.3627 63.4326C58.1959 62.5982 58.2805 61.7331 58.6057 60.9468C58.9308 60.1605 59.482 59.4884 60.1893 59.0154C60.8966 58.5425 61.7284 58.29 62.5793 58.29C63.7172 58.2927 64.8079 58.7452 65.6134 59.5489C66.419 60.3525 66.874 61.4422 66.8793 62.58Z" fill="#8095A9"/>
<path d="M95.9999 62.58C95.9999 63.4285 95.7483 64.2579 95.2769 64.9634C94.8055 65.6689 94.1355 66.2188 93.3516 66.5435C92.5677 66.8682 91.7052 66.9531 90.873 66.7876C90.0408 66.6221 89.2764 66.2135 88.6764 65.6135C88.0765 65.0136 87.6679 64.2492 87.5024 63.417C87.3368 62.5848 87.4218 61.7222 87.7465 60.9383C88.0712 60.1544 88.621 59.4844 89.3265 59.013C90.032 58.5416 90.8614 58.29 91.7099 58.29C92.8469 58.2927 93.9365 58.7455 94.7405 59.5495C95.5445 60.3534 95.9973 61.4431 95.9999 62.58Z" fill="#8095A9"/>
<path d="M120.87 66.87C123.239 66.87 125.16 64.9493 125.16 62.58C125.16 60.2107 123.239 58.29 120.87 58.29C118.501 58.29 116.58 60.2107 116.58 62.58C116.58 64.9493 118.501 66.87 120.87 66.87Z" fill="#8095A9"/>
<path d="M154.31 62.5801C154.31 63.4277 154.059 64.2563 153.589 64.9614C153.118 65.6664 152.45 66.2163 151.667 66.5415C150.884 66.8668 150.022 66.9529 149.191 66.789C148.359 66.6251 147.595 66.2185 146.994 65.6205C146.393 65.0226 145.983 64.26 145.815 63.4292C145.648 62.5983 145.73 61.7364 146.051 60.9521C146.373 60.1679 146.92 59.4965 147.623 59.0227C148.325 58.549 149.153 58.294 150 58.2901C150.565 58.2887 151.125 58.3987 151.647 58.6135C152.169 58.8284 152.644 59.1441 153.044 59.5424C153.444 59.9408 153.762 60.4141 153.979 60.9353C154.197 61.4565 154.309 62.0154 154.31 62.5801Z" fill="#8095A9"/>
<path d="M183.459 62.5801C183.461 63.4314 183.211 64.2641 182.739 64.9728C182.267 65.6814 181.596 66.2341 180.81 66.5608C180.023 66.8875 179.158 66.9735 178.323 66.8079C177.488 66.6423 176.721 66.2326 176.119 65.6306C175.517 65.0286 175.107 64.2615 174.942 63.4265C174.776 62.5914 174.862 61.726 175.189 60.9399C175.515 60.1538 176.068 59.4823 176.777 59.0106C177.485 58.5388 178.318 58.2881 179.169 58.2901C180.306 58.2927 181.396 58.7455 182.2 59.5495C183.004 60.3534 183.457 61.4431 183.459 62.5801Z" fill="#8095A9"/>
<path d="M8.59023 91.7304C8.5922 92.5813 8.3417 93.4137 7.87041 94.1221C7.39912 94.8305 6.72825 95.3832 5.9427 95.7102C5.15716 96.0372 4.29226 96.1238 3.45748 95.959C2.62271 95.7942 1.85559 95.3855 1.25322 94.7845C0.650852 94.1836 0.240323 93.4174 0.0735942 92.583C-0.0931344 91.7486 -0.00856596 90.8835 0.316595 90.0972C0.641756 89.3109 1.19289 88.6387 1.90024 88.1658C2.60758 87.6929 3.43934 87.4404 4.29022 87.4404C5.42893 87.4404 6.52113 87.8921 7.32725 88.6963C8.13337 89.5006 8.58758 90.5917 8.59023 91.7304Z" fill="#8095A9"/>
<path d="M37.7304 91.7304C37.7304 92.5789 37.4788 93.4083 37.0074 94.1138C36.536 94.8193 35.866 95.3692 35.0821 95.6939C34.2982 96.0186 33.4356 96.1035 32.6035 95.938C31.7713 95.7725 31.0069 95.3639 30.4069 94.7639C29.8069 94.1639 29.3984 93.3995 29.2328 92.5674C29.0673 91.7352 29.1522 90.8726 29.4769 90.0887C29.8016 89.3048 30.3515 88.6348 31.057 88.1634C31.7625 87.692 32.5919 87.4404 33.4404 87.4404C34.5782 87.4404 35.6693 87.8924 36.4739 88.6969C37.2784 89.5015 37.7304 90.5927 37.7304 91.7304Z" fill="#8095A9"/>
<path d="M66.8793 91.7304C66.8813 92.5813 66.6308 93.4137 66.1595 94.1221C65.6882 94.8305 65.0173 95.3832 64.2318 95.7102C63.4462 96.0372 62.5813 96.1238 61.7465 95.959C60.9118 95.7942 60.1446 95.3855 59.5423 94.7845C58.9399 94.1836 58.5294 93.4174 58.3627 92.583C58.1959 91.7486 58.2805 90.8835 58.6057 90.0972C58.9308 89.3109 59.482 88.6387 60.1893 88.1658C60.8966 87.6929 61.7284 87.4404 62.5793 87.4404C63.718 87.4404 64.8102 87.8921 65.6163 88.6963C66.4224 89.5006 66.8766 90.5917 66.8793 91.7304Z" fill="#8095A9"/>
<path d="M95.9999 91.7304C95.9999 92.5789 95.7483 93.4083 95.2769 94.1138C94.8055 94.8193 94.1355 95.3692 93.3516 95.6939C92.5677 96.0186 91.7052 96.1035 90.873 95.938C90.0408 95.7725 89.2764 95.3639 88.6764 94.7639C88.0765 94.1639 87.6679 93.3995 87.5024 92.5674C87.3368 91.7352 87.4218 90.8726 87.7465 90.0887C88.0712 89.3048 88.621 88.6348 89.3265 88.1634C90.032 87.692 90.8614 87.4404 91.7099 87.4404C92.8477 87.4404 93.9389 87.8924 94.7434 88.6969C95.5479 89.5015 95.9999 90.5927 95.9999 91.7304Z" fill="#8095A9"/>
<path d="M125.17 91.7304C125.172 92.5813 124.922 93.4137 124.45 94.1221C123.979 94.8306 123.308 95.3833 122.523 95.7102C121.737 96.0372 120.872 96.1238 120.038 95.959C119.203 95.7942 118.436 95.3855 117.833 94.7845C117.231 94.1836 116.82 93.4174 116.654 92.583C116.487 91.7486 116.572 90.8835 116.897 90.0972C117.222 89.3109 117.773 88.6388 118.48 88.1658C119.188 87.6929 120.019 87.4404 120.87 87.4404C121.435 87.4391 121.993 87.5491 122.515 87.7641C123.037 87.9791 123.511 88.2949 123.91 88.6934C124.31 89.0919 124.627 89.5653 124.843 90.0864C125.059 90.6076 125.17 91.1662 125.17 91.7304Z" fill="#8095A9"/>
<path d="M154.31 91.7305C154.31 92.5781 154.059 93.4067 153.589 94.1118C153.118 94.8168 152.45 95.3667 151.667 95.692C150.884 96.0172 150.022 96.1034 149.191 95.9394C148.359 95.7755 147.595 95.3689 146.994 94.771C146.393 94.173 145.983 93.4105 145.815 92.5796C145.648 91.7487 145.73 90.8868 146.051 90.1026C146.373 89.3183 146.92 88.647 147.623 88.1732C148.325 87.6994 149.153 87.4444 150 87.4405C150.566 87.4378 151.126 87.5469 151.648 87.7613C152.171 87.9757 152.646 88.2913 153.047 88.6899C153.447 89.0885 153.765 89.5623 153.982 90.0841C154.199 90.6059 154.31 91.1654 154.31 91.7305Z" fill="#8095A9"/>
<path d="M183.459 91.7304C183.461 92.5817 183.211 93.4145 182.739 94.1231C182.267 94.8318 181.596 95.3845 180.81 95.7112C180.023 96.0379 179.158 96.1239 178.323 95.9583C177.488 95.7927 176.721 95.383 176.119 94.781C175.517 94.179 175.107 93.4119 174.942 92.5769C174.776 91.7418 174.862 90.8764 175.189 90.0903C175.515 89.3041 176.068 88.6327 176.777 88.161C177.485 87.6892 178.318 87.4385 179.169 87.4404C180.307 87.4404 181.398 87.8924 182.203 88.6969C183.007 89.5015 183.459 90.5927 183.459 91.7304Z" fill="#8095A9"/>
<path d="M8.59023 120.87C8.5922 121.721 8.3417 122.553 7.87041 123.262C7.39912 123.97 6.72825 124.523 5.9427 124.85C5.15716 125.177 4.29226 125.263 3.45748 125.099C2.62271 124.934 1.85559 124.525 1.25322 123.924C0.650852 123.323 0.240323 122.557 0.0735942 121.723C-0.0931344 120.888 -0.00856596 120.023 0.316595 119.237C0.641756 118.451 1.19289 117.778 1.90024 117.305C2.60758 116.833 3.43934 116.58 4.29022 116.58C5.42893 116.58 6.52113 117.032 7.32725 117.836C8.13337 118.64 8.58758 119.731 8.59023 120.87Z" fill="#8095A9"/>
<path d="M37.7304 120.87C37.7304 121.719 37.4788 122.548 37.0074 123.253C36.536 123.959 35.866 124.509 35.0821 124.834C34.2982 125.158 33.4356 125.243 32.6035 125.078C31.7713 124.912 31.0069 124.504 30.4069 123.904C29.8069 123.304 29.3984 122.539 29.2328 121.707C29.0673 120.875 29.1522 120.012 29.4769 119.228C29.8016 118.444 30.3515 117.774 31.057 117.303C31.7625 116.832 32.5919 116.58 33.4404 116.58C34.5782 116.58 35.6693 117.032 36.4739 117.837C37.2784 118.641 37.7304 119.732 37.7304 120.87Z" fill="#8095A9"/>
<path d="M66.8793 120.87C66.8813 121.721 66.6308 122.553 66.1595 123.262C65.6882 123.97 65.0173 124.523 64.2318 124.85C63.4462 125.177 62.5813 125.263 61.7465 125.099C60.9118 124.934 60.1446 124.525 59.5423 123.924C58.9399 123.323 58.5294 122.557 58.3627 121.723C58.1959 120.888 58.2805 120.023 58.6057 119.237C58.9308 118.451 59.482 117.778 60.1893 117.305C60.8966 116.833 61.7284 116.58 62.5793 116.58C63.718 116.58 64.8102 117.032 65.6163 117.836C66.4224 118.64 66.8766 119.731 66.8793 120.87Z" fill="#8095A9"/>
<path d="M95.9999 120.87C95.9999 121.719 95.7483 122.548 95.2769 123.253C94.8055 123.959 94.1355 124.509 93.3516 124.834C92.5677 125.158 91.7052 125.243 90.873 125.078C90.0408 124.912 89.2764 124.504 88.6764 123.904C88.0765 123.304 87.6679 122.539 87.5024 121.707C87.3368 120.875 87.4218 120.012 87.7465 119.228C88.0712 118.444 88.621 117.774 89.3265 117.303C90.032 116.832 90.8614 116.58 91.7099 116.58C92.8477 116.58 93.9389 117.032 94.7434 117.837C95.5479 118.641 95.9999 119.732 95.9999 120.87Z" fill="#8095A9"/>
<path d="M125.17 120.87C125.172 121.721 124.922 122.553 124.45 123.262C123.979 123.97 123.308 124.523 122.523 124.85C121.737 125.177 120.872 125.263 120.038 125.099C119.203 124.934 118.436 124.525 117.833 123.924C117.231 123.323 116.82 122.557 116.654 121.723C116.487 120.888 116.572 120.023 116.897 119.237C117.222 118.451 117.773 117.778 118.48 117.305C119.188 116.833 120.019 116.58 120.87 116.58C121.435 116.579 121.993 116.689 122.515 116.904C123.037 117.119 123.511 117.435 123.91 117.833C124.31 118.232 124.627 118.705 124.843 119.226C125.059 119.747 125.17 120.306 125.17 120.87Z" fill="#8095A9"/>
<path d="M154.31 120.87C154.31 121.719 154.059 122.548 153.587 123.253C153.116 123.959 152.446 124.509 151.662 124.834C150.878 125.158 150.016 125.243 149.184 125.078C148.351 124.912 147.587 124.504 146.987 123.904C146.387 123.304 145.978 122.539 145.813 121.707C145.647 120.875 145.732 120.012 146.057 119.228C146.382 118.444 146.932 117.774 147.637 117.303C148.343 116.832 149.172 116.58 150.02 116.58C151.158 116.58 152.249 117.032 153.054 117.837C153.858 118.641 154.31 119.732 154.31 120.87Z" fill="#8095A9"/>
<path d="M183.459 120.87C183.461 121.721 183.211 122.554 182.739 123.263C182.267 123.971 181.596 124.524 180.81 124.851C180.023 125.178 179.158 125.264 178.323 125.098C177.488 124.932 176.721 124.523 176.119 123.921C175.517 123.319 175.107 122.552 174.942 121.717C174.776 120.881 174.862 120.016 175.189 119.23C175.515 118.444 176.068 117.772 176.777 117.301C177.485 116.829 178.318 116.578 179.169 116.58C180.307 116.58 181.398 117.032 182.203 117.837C183.007 118.641 183.459 119.732 183.459 120.87Z" fill="#8095A9"/>
</g>
<defs>
<clipPath id="clip0">
<rect width="183.46" height="125.17" fill="white"/>
</clipPath>
</defs>
</svg>
