<svg width="500" height="352" viewBox="0 0 500 352" fill="none" xmlns="http://www.w3.org/2000/svg">
<g clip-path="url(#clip0)">
<path opacity="0.5" d="M0.471375 251.177C1.25659 257.193 2.55356 263.131 4.34811 268.926C6.06976 274.498 8.27515 279.909 10.9391 285.097C10.9391 321.159 39.8289 350.39 75.4714 350.39H404.61C425.89 350.391 446.324 342.06 461.538 327.182C461.398 327.143 461.254 327.104 461.101 327.073C430.742 319.022 398.71 316.243 372.377 297.121C408.26 291.168 443.933 283.78 479.396 274.958C481.582 274.407 484.064 273.581 486.612 272.715C486.73 270.897 486.796 269.066 486.796 267.222C486.957 266.929 487.115 266.636 487.272 266.347C487.966 265.057 488.633 263.745 489.274 262.414C495.799 248.865 499.527 233.17 499.527 216.422C499.527 190.01 490.248 166.16 475.38 149.337C375.349 157.611 274.72 154.105 174.388 150.574C203.723 144.746 233.056 138.91 262.386 133.065C310.221 123.552 358.056 114.032 405.891 104.507C375.362 61.378 321.485 32.7373 260.113 32.7373C216.922 32.7373 177.447 46.92 147.202 70.3553C136.083 62.9646 123.282 58.7469 109.659 58.7469C81.2931 58.7469 56.4985 76.9856 43.0326 104.201C36.2231 117.969 32.3158 134.027 32.3158 151.177C32.3158 154.236 32.4426 157.296 32.6917 160.307C32.6917 160.486 32.7179 160.661 32.7354 160.845C23.3823 168.625 15.537 178.808 9.82892 190.648C9.75897 190.792 9.68906 190.937 9.6235 191.085C8.62408 193.174 7.69461 195.31 6.83505 197.493H6.91806C10.5894 198.305 14.2564 199.134 17.9189 199.979C57.3974 209.099 96.5102 220.151 135.257 233.135C146.364 236.859 157.437 240.737 168.474 244.77C177.792 248.179 189.776 255.902 199.436 256.57C133.395 252.139 66.8263 258.598 1.09204 251.238L0.471375 251.177Z" fill="#B5CDE7"/>
<path opacity="0.5" d="M0.000976562 235.771C0.000976562 204.333 13.1391 176.562 33.2177 159.866C32.9409 156.69 32.7953 153.469 32.7807 150.202C32.7807 99.1535 67.4136 57.7767 110.141 57.7767C123.768 57.7767 136.57 61.99 147.689 69.3808C177.934 45.9454 217.414 31.7715 260.604 31.7715C330.858 31.7715 391.33 69.3152 418.148 123.174C419.638 123.074 421.137 123.017 422.65 123.017C465.368 123.017 500.01 164.398 500.01 215.443C500.01 234.21 495.324 251.667 487.282 266.243C487.282 312.169 450.486 349.403 405.115 349.403H75.945C40.3069 349.403 11.4171 320.172 11.4171 284.11C4.17929 270.045 0.000976562 253.494 0.000976562 235.771Z" fill="#B5CDE7"/>
<path d="M325.733 238.205C325.602 239.954 325.113 242.03 323.465 242.633C322.669 242.858 321.824 242.844 321.035 242.593C318.96 242.145 317.075 241.065 315.637 239.503C314.261 237.904 313.574 235.644 314.151 233.621C314.706 231.689 316.262 230.242 317.359 228.564C318.644 226.601 319.055 224.377 319.947 222.274C327.023 222.952 326.131 232.956 325.733 238.205Z" fill="#FBBEBE"/>
<path d="M333.169 153.943C334.109 157.003 330.774 160.338 329.699 163.345C328.624 166.352 327.177 169.241 326.6 172.392C326.198 174.555 326.22 176.762 326.067 178.948C325.774 183.078 324.861 187.134 323.882 191.151C322.501 196.955 321.021 202.733 319.441 208.484C318.656 211.1 318.038 213.762 317.593 216.456C317.181 219.37 317.191 222.327 317.623 225.237C320.397 224.406 323.386 224.68 325.962 226.002C327.764 222.84 328.846 219.32 329.131 215.692C329.241 213.541 329.222 211.385 329.074 209.236C328.794 203.157 331.43 197.068 331.517 190.98C331.49 188.871 331.657 186.765 332.016 184.686C332.3 183.257 332.273 180.582 332.584 179.162C333.082 176.898 330.954 175.853 331.072 173.533L331.718 160.858C331.849 158.655 334.079 155.936 333.169 153.943Z" fill="#3F3D56"/>
<path d="M333.169 153.943C334.109 157.003 330.774 160.338 329.699 163.345C328.624 166.352 327.177 169.241 326.6 172.392C326.198 174.555 326.22 176.762 326.067 178.948C325.774 183.078 324.861 187.134 323.882 191.151C322.501 196.955 321.021 202.733 319.441 208.484C318.656 211.1 318.038 213.762 317.593 216.456C317.181 219.37 317.191 222.327 317.623 225.237C320.397 224.406 323.386 224.68 325.962 226.002C327.764 222.84 328.846 219.32 329.131 215.692C329.241 213.541 329.222 211.385 329.074 209.236C328.794 203.157 331.43 197.068 331.517 190.98C331.49 188.871 331.657 186.765 332.016 184.686C332.3 183.257 332.273 180.582 332.584 179.162C333.082 176.898 330.954 175.853 331.072 173.533L331.718 160.858C331.849 158.655 334.079 155.936 333.169 153.943Z" fill="#001B36"/>
<path d="M365.079 144.132C364.908 144.875 364.564 145.567 364.073 146.151C359.648 152.328 354.606 158.04 349.025 163.196C348.454 162.608 347.977 161.936 347.609 161.203C345.076 156.571 343.809 151.351 343.938 146.072C346.464 145.259 349.331 144.123 350.14 141.597C350.782 139.604 349.921 137.226 351.049 135.452C352.653 132.947 359.462 132.628 361.648 134.446C363.081 135.635 362.57 136.745 363.024 138.354C363.527 140.12 365.358 142.252 365.079 144.132Z" fill="#FBBEBE"/>
<path opacity="0.1" d="M365.079 144.132C364.908 144.875 364.564 145.567 364.073 146.151C359.648 152.328 354.606 158.04 349.025 163.196C348.454 162.608 347.977 161.936 347.609 161.203C345.076 156.571 343.809 151.351 343.938 146.072C346.464 145.259 349.331 144.123 350.14 141.597C350.782 139.604 349.921 137.226 351.049 135.452C352.653 132.947 359.462 132.628 361.648 134.446C363.081 135.635 362.57 136.745 363.024 138.354C363.527 140.12 365.358 142.252 365.079 144.132Z" fill="black"/>
<path d="M362.806 346.164C362.092 346.673 361.274 347.016 360.411 347.169C352.099 349.217 343.513 349.924 334.978 349.263C333.838 349.171 332.317 348.564 332.596 347.453C332.859 346.418 334.345 346.488 335.35 346.177C336.298 345.889 337.011 345.124 337.719 344.429C340.341 341.807 343.514 339.822 346.644 337.838C347.404 337.29 348.255 336.879 349.157 336.623C350.236 336.378 351.364 336.584 352.456 336.793C355.21 337.314 360.459 337.231 362.64 339.263C364.384 340.88 364.637 344.56 362.806 346.164Z" fill="#3F3D56"/>
<path d="M330.857 343.983C330.857 344.661 330.778 345.421 330.262 345.854C329.85 346.141 329.351 346.277 328.851 346.239C327.071 346.226 325.328 345.731 323.807 344.808C322.286 343.884 321.043 342.567 320.21 340.994L307.972 339.565C305.656 339.294 303.295 339.01 301.167 338.053C298.654 336.916 296.648 334.919 294.703 332.965C294.361 332.674 294.1 332.299 293.947 331.877C293.746 331.108 294.331 330.299 295.07 329.993C295.832 329.74 296.649 329.694 297.434 329.862C303.409 330.688 309.406 333.358 315.254 331.872C316.683 331.51 318.103 330.893 319.576 330.998C320.369 331.1 321.146 331.307 321.884 331.615C323.785 332.314 329.471 333.306 330.73 334.914C331.989 336.523 330.857 342.06 330.857 343.983Z" fill="#3F3D56"/>
<path d="M361.805 207.335C363.553 210.058 367.238 210.653 369.812 212.606C373.768 215.609 374.436 221.203 374.664 226.155C374.817 229.582 374.913 233.061 374.152 236.409C373.619 238.738 372.684 240.959 371.967 243.245C370.437 248.214 370.009 253.45 369.782 258.642C369.183 271.754 369.716 284.949 368.033 297.978C367.548 301.706 366.888 305.408 366.521 309.149C365.315 321.527 367.36 334.289 364.043 346.273C362.272 344.353 360.13 342.813 357.746 341.745C355.362 340.678 352.787 340.105 350.175 340.063C349.082 340.063 347.942 340.128 346.936 339.687C345.931 339.245 345.136 338.074 345.555 337.064C345.807 336.624 346.099 336.208 346.429 335.823C347.876 333.638 345.42 330.548 346.469 328.14C346.875 327.213 347.754 326.527 348.011 325.552C348.287 324.495 347.754 323.411 347.605 322.327C347.308 320.141 348.562 318.105 349.213 316.011C350.197 312.842 349.803 309.455 349.463 306.138C348.335 295.299 347.841 284.403 347.981 273.507C348.073 266.134 348.44 258.603 346.316 251.54C342.342 255.288 338.938 259.596 336.211 264.328C334.515 267.217 333.051 270.303 332.487 273.607C332.076 276.033 332.155 278.511 332.238 280.967C332.657 293.54 333.078 306.113 333.501 318.686C333.754 326.291 333.973 334.119 331.338 341.252C324.637 337.685 317.789 334.259 311.088 330.67C311.198 328.201 314.519 327.296 315.743 325.15C316.182 324.252 316.421 323.269 316.442 322.27C317.29 312.051 315.206 301.842 313.278 291.772C312.544 287.934 311.827 284.066 311.831 280.163C311.831 273.966 313.645 267.926 315.52 262.021C317.504 255.766 319.581 249.538 321.639 243.31C322.95 239.311 324.305 235.308 325.975 231.435C327.548 227.773 329.419 224.237 330.761 220.509C332.915 214.486 333.654 208.065 334.375 201.715C343.483 203.502 352.71 205.517 361.805 207.335Z" fill="#001B36"/>
<path d="M357.229 139.896C350.176 139.896 344.458 134.179 344.458 127.125C344.458 120.072 350.176 114.354 357.229 114.354C364.282 114.354 370 120.072 370 127.125C370 134.179 364.282 139.896 357.229 139.896Z" fill="#FBBEBE"/>
<path d="M352.453 158.004L353.379 151.089C353.377 150.324 353.581 149.572 353.971 148.913C354.36 148.254 354.92 147.712 355.591 147.344L364.49 140.84C364.927 140.508 365.53 140.159 366.037 140.403C366.352 140.616 366.572 140.941 366.653 141.312C368.06 145.464 367.191 149.992 366.701 154.35C366.286 157.982 366.146 161.64 366.006 165.277C365.812 168.58 365.82 171.892 366.032 175.194C366.513 180.91 368.218 186.662 367.077 192.287C366.325 196.006 365.001 199.464 364.691 203.249C364.476 205.871 364.542 208.537 363.712 211.02C360.652 209.708 357.191 209.853 353.865 210.027L345.792 210.464C344.672 210.567 343.545 210.541 342.431 210.386C341.186 210.126 339.994 209.659 338.904 209.005C336.038 207.386 333.532 205.2 331.539 202.58C332.903 195.993 331.579 189.193 332.488 182.527C333.008 178.686 334.31 174.984 334.922 171.164C335.674 166.448 335.381 161.548 336.732 156.968C337.496 154.645 338.468 152.395 339.634 150.246C340.816 147.802 342.767 145.814 345.189 144.586C345.638 144.345 346.139 144.218 346.649 144.214C347.934 144.289 348.729 145.652 349.087 146.894C349.524 148.38 349.647 149.953 349.988 151.444C350.477 153.624 351.185 156.164 352.453 158.004Z" fill="#FDD248"/>
<path d="M378.628 240.39C376.928 242.19 373.82 241.749 371.845 240.267C367.544 237.046 367.146 230.879 366.91 225.512C366.823 223.589 366.692 221.579 365.787 219.891C364.406 217.291 361.543 215.919 359.166 214.175C353.528 210.049 350.219 203.248 349.227 196.351C348.235 189.454 349.376 182.365 351.281 175.648C354.577 164.035 360.127 153.209 365.761 142.536C365.93 142.138 366.2 141.792 366.543 141.53C367.688 140.822 368.93 142.225 369.716 143.322C372.369 147.037 376.74 149.03 380.744 151.229C384.747 153.427 388.838 156.356 390.049 160.757C390.861 163.707 390.228 166.845 389.611 169.839C388.995 172.833 386.801 175.21 385.188 177.75C383.298 180.531 381.594 183.436 380.088 186.443C379.52 187.564 379.08 188.746 378.777 189.966C378.512 191.407 378.397 192.872 378.431 194.336C378.34 203.392 378.248 212.479 379.341 221.469C379.961 226.557 380.958 231.662 380.503 236.766C380.394 238.139 379.598 239.376 378.628 240.39Z" fill="#001B36"/>
<path d="M367.832 223.511C366.014 224.324 364.174 225.168 362.207 225.491C360.24 225.814 358.086 225.552 356.525 224.333C354.965 223.113 354.143 220.806 355.035 219.022C353.633 219.067 352.23 219 350.839 218.821C350.039 218.721 349.069 218.415 348.947 217.619C348.807 216.693 349.926 216.133 350.83 215.871L355.708 214.529C358 213.678 360.486 213.49 362.88 213.987L370.31 215.124C370.508 215.139 370.699 215.199 370.87 215.299C371.092 215.489 371.245 215.747 371.307 216.033C371.665 217.165 373.322 220.329 372.754 221.457C372.247 222.423 368.851 223 367.832 223.511Z" fill="#FBBEBE"/>
<path d="M321.24 228.301C321.685 229.295 322.339 230.181 323.157 230.898C323.975 231.615 324.939 232.147 325.983 232.458C326.438 232.616 326.927 232.648 327.399 232.549C328.273 232.305 328.754 231.391 329.116 230.561C337.77 210.858 337.285 188.432 342.792 167.624C344.427 161.448 346.612 155.242 346.214 148.865C346.144 147.724 345.904 146.439 344.951 145.806C344.103 145.237 342.949 145.39 342.023 145.806C341.096 146.221 340.275 146.898 339.4 147.361C337.954 148.1 336.271 148.31 334.881 149.145C332.818 150.382 331.761 152.746 330.838 154.966C328.867 159.704 326.905 164.582 326.752 169.722C326.415 179.704 330.843 189.298 328.539 199.005C328.081 200.928 327.403 202.794 326.756 204.66C324.441 211.356 322.543 218.189 321.074 225.119C320.834 226.308 320.782 227.213 321.24 228.301Z" fill="#001B36"/>
<path d="M365.512 128.249C364.747 127.012 363.685 125.924 363.275 124.529C362.982 123.537 363.043 122.462 362.689 121.47C361.815 119.075 358.782 118.192 356.268 118.603C353.755 119.014 351.496 120.351 349.039 121.02C347.68 121.396 345.792 121.282 345.407 119.923C345.154 119.022 345.761 118.131 346.338 117.392L353.585 108.144C354.538 108.389 355.604 108.616 356.47 108.144C356.968 107.868 357.344 107.383 357.899 107.226C359.407 106.789 360.67 109.11 362.182 108.708C362.619 108.594 362.964 108.271 363.401 108.236C364.621 108.135 365.08 110.154 366.299 110.255C366.806 110.299 367.296 109.975 367.798 110.023C368.248 110.114 368.65 110.364 368.93 110.727C371.356 113.301 372.339 116.994 372.208 120.526C372.077 124.057 372.685 127.484 371.334 130.744C370.74 132.169 369.533 133.847 368.069 133.367C368.069 131.444 366.277 129.525 366.255 127.602" fill="#2F2E41"/>
<g opacity="0.1">
<path opacity="0.1" d="M340.835 257.524C343.434 253.223 346.606 249.296 350.263 245.85C352.387 252.913 352.011 260.443 351.928 267.816C351.788 278.713 352.282 289.608 353.41 300.448C353.755 303.747 354.144 307.152 353.161 310.321C352.509 312.414 351.255 314.46 351.552 316.636C351.701 317.72 352.234 318.822 351.959 319.862C351.701 320.837 350.822 321.523 350.416 322.449C349.367 324.857 351.823 327.939 350.376 330.133C350.047 330.518 349.754 330.934 349.502 331.374C349.065 332.388 349.878 333.559 350.883 333.996C351.889 334.434 353.029 334.359 354.122 334.372C358.258 334.442 362.263 335.837 365.547 338.354C365.259 341.026 364.761 343.671 364.056 346.265C362.286 344.345 360.144 342.804 357.76 341.737C355.376 340.669 352.8 340.097 350.188 340.054C349.096 340.054 347.955 340.12 346.95 339.678C345.945 339.237 345.149 338.066 345.569 337.056C345.82 336.615 346.113 336.2 346.443 335.815C347.89 333.629 345.433 330.539 346.482 328.131C346.889 327.205 347.767 326.518 348.025 325.544C348.3 324.486 347.767 323.402 347.619 322.318C347.321 320.133 348.576 318.096 349.227 316.003C350.21 312.834 349.821 309.447 349.476 306.129C348.349 295.29 347.854 284.395 347.994 273.498C348.086 266.125 348.453 258.594 346.329 251.531C344.351 253.389 342.514 255.392 340.835 257.524Z" fill="black"/>
</g>
<g opacity="0.1">
<path opacity="0.1" d="M372.195 120.932C372.195 120.334 372.195 119.731 372.195 119.123C372.221 119.591 372.221 120.058 372.195 120.522C372.2 120.67 372.2 120.806 372.195 120.932Z" fill="black"/>
<path opacity="0.1" d="M349.039 119.294C351.495 118.621 353.759 117.292 356.268 116.877C358.777 116.462 361.823 117.349 362.688 119.744C363.042 120.714 362.981 121.789 363.274 122.803C363.685 124.198 364.747 125.286 365.512 126.523L366.233 125.885C366.255 127.808 368.025 129.726 368.047 131.65C369.511 132.126 370.717 130.448 371.312 129.027C371.925 127.459 372.233 125.789 372.221 124.106C372.26 126.392 372.221 128.616 371.312 130.775C370.717 132.2 369.511 133.879 368.047 133.398C368.047 131.475 366.255 129.556 366.233 127.633L365.512 128.271C364.747 127.034 363.685 125.946 363.274 124.552C362.981 123.559 363.042 122.484 362.688 121.492C361.814 119.097 358.781 118.214 356.268 118.625C353.755 119.036 351.495 120.373 349.039 121.042C347.68 121.418 345.792 121.304 345.407 119.945C345.297 119.486 345.357 119.003 345.577 118.586C346.185 119.569 347.824 119.622 349.039 119.294Z" fill="black"/>
</g>
<path d="M390.344 173.778C390.717 176.444 391.255 179.084 391.953 181.684L395.012 194.153C395.34 195.465 395.668 196.846 395.524 198.205C395.323 200.036 394.282 201.658 393.229 203.17C387.24 211.763 379.926 219.351 371.559 225.653C372.045 223.161 370.318 220.845 368.697 218.887C367.075 216.929 365.493 215.054 363.373 213.786C368.682 208.798 373.819 203.633 378.784 198.292C379.307 197.773 379.757 197.185 380.122 196.544C381.319 194.232 380.122 191.47 379.081 189.084C375.79 181.483 374.234 172.855 376.345 164.848C377.141 161.837 378.531 158.83 381.061 156.981C382.167 156.173 383.684 155.626 384.89 156.234C385.404 156.532 385.851 156.934 386.201 157.414C390.13 162.217 389.663 167.965 390.344 173.778Z" fill="#001B36"/>
<path d="M387.779 350.124C380.721 350.124 374.999 349.024 374.999 347.667C374.999 346.311 380.721 345.211 387.779 345.211C394.837 345.211 400.559 346.311 400.559 347.667C400.559 349.024 394.837 350.124 387.779 350.124Z" fill="#001B36"/>
<path d="M387.994 348.572C387.174 348.572 386.508 347.7 386.508 346.623C386.508 345.547 387.174 344.674 387.994 344.674C388.815 344.674 389.48 345.547 389.48 346.623C389.48 347.7 388.815 348.572 387.994 348.572Z" fill="#002B53"/>
<path d="M387.994 346.19C387.174 346.19 386.508 345.317 386.508 344.24C386.508 343.164 387.174 342.291 387.994 342.291C388.815 342.291 389.48 343.164 389.48 344.24C389.48 345.317 388.815 346.19 387.994 346.19Z" fill="#002B53"/>
<path d="M387.994 343.813C387.174 343.813 386.508 342.94 386.508 341.863C386.508 340.787 387.174 339.914 387.994 339.914C388.815 339.914 389.48 340.787 389.48 341.863C389.48 342.94 388.815 343.813 387.994 343.813Z" fill="#002B53"/>
<path d="M387.994 341.431C387.174 341.431 386.508 340.558 386.508 339.482C386.508 338.405 387.174 337.532 387.994 337.532C388.815 337.532 389.48 338.405 389.48 339.482C389.48 340.558 388.815 341.431 387.994 341.431Z" fill="#002B53"/>
<path d="M387.994 339.049C387.174 339.049 386.508 338.176 386.508 337.1C386.508 336.023 387.174 335.15 387.994 335.15C388.815 335.15 389.48 336.023 389.48 337.1C389.48 338.176 388.815 339.049 387.994 339.049Z" fill="#002B53"/>
<path d="M387.994 336.671C387.174 336.671 386.508 335.798 386.508 334.722C386.508 333.645 387.174 332.772 387.994 332.772C388.815 332.772 389.48 333.645 389.48 334.722C389.48 335.798 388.815 336.671 387.994 336.671Z" fill="#002B53"/>
<path d="M387.994 334.289C387.174 334.289 386.508 333.416 386.508 332.34C386.508 331.263 387.174 330.391 387.994 330.391C388.815 330.391 389.48 331.263 389.48 332.34C389.48 333.416 388.815 334.289 387.994 334.289Z" fill="#3F3D56"/>
<path d="M382.43 316.051C382.226 315.792 382.041 315.519 381.875 315.233L385.783 314.591L381.556 314.621C381.151 313.739 380.93 312.783 380.907 311.812C380.884 310.841 381.058 309.876 381.421 308.974L387.103 311.916L381.858 308.074C382.347 307.224 383.005 306.484 383.793 305.901C384.581 305.317 385.48 304.902 386.435 304.681C387.391 304.461 388.381 304.44 389.345 304.62C390.309 304.8 391.225 305.176 392.037 305.726C392.848 306.276 393.538 306.988 394.062 307.816C394.586 308.645 394.933 309.573 395.083 310.542C395.232 311.511 395.18 312.5 394.93 313.448C394.679 314.396 394.236 315.282 393.628 316.051C393.947 316.456 394.219 316.896 394.441 317.362L389.367 319.984L394.777 318.17C395.157 319.293 395.251 320.493 395.05 321.662C394.85 322.83 394.361 323.93 393.628 324.862C394.456 325.913 394.971 327.176 395.114 328.506C395.258 329.837 395.024 331.181 394.44 332.384C393.855 333.588 392.944 334.603 391.81 335.313C390.676 336.023 389.365 336.4 388.027 336.4C386.689 336.4 385.378 336.023 384.244 335.313C383.11 334.603 382.198 333.588 381.614 332.384C381.03 331.181 380.796 329.837 380.94 328.506C381.083 327.176 381.598 325.913 382.426 324.862C381.438 323.606 380.9 322.054 380.9 320.456C380.9 318.858 381.438 317.306 382.426 316.051H382.43Z" fill="#001B36"/>
<path d="M395.152 320.456C395.155 322.054 394.618 323.607 393.627 324.861C394.454 325.912 394.97 327.176 395.113 328.506C395.257 329.836 395.023 331.18 394.439 332.384C393.854 333.587 392.943 334.602 391.809 335.313C390.675 336.023 389.364 336.399 388.026 336.399C386.688 336.399 385.377 336.023 384.243 335.313C383.109 334.602 382.197 333.587 381.613 332.384C381.029 331.18 380.795 329.836 380.938 328.506C381.082 327.176 381.597 325.912 382.425 324.861C381.468 323.65 395.152 319.656 395.152 320.456Z" fill="#001B36"/>
<path d="M97.8202 351.033C88.1142 351.033 80.2459 349.702 80.2459 348.061C80.2459 346.419 88.1142 345.089 97.8202 345.089C107.526 345.089 115.395 346.419 115.395 348.061C115.395 349.702 107.526 351.033 97.8202 351.033Z" fill="#001B36"/>
<path d="M90.5504 343.2C89.7492 342.548 89.1654 341.667 88.8765 340.674C88.6579 339.669 89.0863 338.463 90.0478 338.095C91.123 337.685 92.2725 338.432 93.1422 339.184C94.012 339.936 95.0128 340.797 96.1492 340.635C95.5636 340.103 95.1255 339.428 94.8774 338.677C94.6292 337.926 94.5796 337.123 94.7331 336.347C94.7829 336.026 94.9188 335.724 95.1265 335.473C95.7253 334.835 96.8048 335.11 97.5216 335.613C99.7943 337.208 100.428 340.298 100.441 343.074C100.668 342.073 100.476 341.028 100.481 340.014C100.485 339 100.769 337.829 101.639 337.296C102.175 337.006 102.778 336.863 103.387 336.88C104.405 336.841 105.546 336.946 106.241 337.693C107.115 338.62 106.884 340.176 106.132 341.19C105.38 342.204 104.231 342.855 103.173 343.559C102.327 344.063 101.605 344.752 101.062 345.574C100.996 345.689 100.944 345.81 100.904 345.936H94.4971C93.0641 345.207 91.7365 344.286 90.5504 343.2Z" fill="#001B36"/>
<path d="M179.305 182.781L178.925 181.933L179.432 181.706L179.812 182.554L181.801 184.717L179.594 185.705L179.305 182.781Z" fill="#001B36"/>
<path d="M177.103 183.795L176.714 182.925L177.234 182.689L177.623 183.559L179.664 185.779L177.4 186.793L177.103 183.795Z" fill="#001B36"/>
<path d="M174.891 184.757L174.51 183.909L175.022 183.682L175.402 184.53L177.391 186.693L175.183 187.681L174.891 184.757Z" fill="#001B36"/>
<path d="M159.179 191.82L158.79 190.95L159.31 190.714L159.699 191.584L161.74 193.804L159.476 194.818L159.179 191.82Z" fill="#001B36"/>
<path d="M156.915 192.833L156.526 191.964L157.047 191.728L157.44 192.597L159.477 194.818L157.213 195.832L156.915 192.833Z" fill="#001B36"/>
<path d="M154.654 193.844L154.261 192.974L154.785 192.742L155.174 193.612L157.211 195.832L154.951 196.846L154.654 193.844Z" fill="#001B36"/>
<path d="M169.445 187.221L169.056 186.351L169.576 186.115L169.965 186.989L172.006 189.21L169.742 190.219L169.445 187.221Z" fill="#001B36"/>
<path d="M167.181 188.236L166.792 187.366L167.316 187.13L167.705 188L169.742 190.22L167.483 191.234L167.181 188.236Z" fill="#001B36"/>
<path d="M164.921 189.245L164.532 188.375L165.052 188.144L165.441 189.013L167.482 191.234L165.218 192.248L164.921 189.245Z" fill="#001B36"/>
<path d="M144.48 125.39C143.204 122.366 144.44 115.486 146.342 114.634C148.243 113.782 154.03 117.519 155.437 120.486L155.524 120.443L182.482 180.652L171.433 185.618L144.475 125.39H144.48Z" fill="#ECECF3"/>
<path d="M124.292 134.428C123.02 131.404 124.253 124.524 126.158 123.672C128.064 122.82 133.842 126.557 135.249 129.525L135.341 129.481L162.299 189.691L151.224 194.638L124.266 134.428H124.292Z" fill="#ECECF3"/>
<path d="M121.989 101.754C120.088 97.3308 120.241 87.9952 122.129 87.1429C124.017 86.2906 130.914 92.4838 132.947 96.85L133.034 96.8063L172.566 185.093L161.517 190.041L121.985 101.754H121.989Z" fill="white"/>
<path d="M123.22 92.4997C122.961 91.9225 123.219 91.2455 123.795 90.9876C124.371 90.7296 125.047 90.9884 125.306 91.5656L126.395 93.9989C126.654 94.5762 126.396 95.2532 125.82 95.5111C125.244 95.7691 124.568 95.5103 124.309 94.933L123.22 92.4997Z" fill="#3F3D56"/>
<path opacity="0.3" d="M210.59 196.907L199.366 198.419C197.552 198.664 195.62 198.891 193.955 198.131C191.197 196.868 190.148 193.38 187.609 191.728C184.746 189.862 180.564 191.046 178.566 193.817C178.042 194.551 177.627 195.386 176.91 195.932C174.038 198.118 169.48 194.009 166.473 196.037C164.974 197.056 164.502 199.333 162.788 199.936C161.656 200.334 160.406 199.818 159.209 199.914C156.215 200.154 154.864 203.996 155.494 206.933C156.123 209.87 157.941 212.466 158.431 215.425C158.92 218.384 157.146 222.161 154.152 221.981" fill="white"/>
<path opacity="0.8" d="M143.794 39.8704C140.898 39.8704 138.55 37.5222 138.55 34.6256C138.55 31.729 140.898 29.3809 143.794 29.3809C146.691 29.3809 149.039 31.729 149.039 34.6256C149.039 37.5222 146.691 39.8704 143.794 39.8704Z" fill="#FDD248"/>
<path opacity="0.8" d="M80.4193 11.4612C77.5227 11.4612 75.1746 9.11303 75.1746 6.21643C75.1746 3.31984 77.5227 0.97168 80.4193 0.97168C83.3159 0.97168 85.6641 3.31984 85.6641 6.21643C85.6641 9.11303 83.3159 11.4612 80.4193 11.4612Z" fill="#FDD248"/>
<path opacity="0.8" d="M106.644 31.1292C103.747 31.1292 101.399 28.781 101.399 25.8844C101.399 22.9878 103.747 20.6396 106.644 20.6396C109.541 20.6396 111.889 22.9878 111.889 25.8844C111.889 28.781 109.541 31.1292 106.644 31.1292Z" fill="#FDD248"/>
<path opacity="0.8" d="M45.017 76.5833C42.1203 76.5833 39.7722 74.2351 39.7722 71.3385C39.7722 68.4419 42.1203 66.0938 45.017 66.0938C47.9136 66.0938 50.2617 68.4419 50.2617 71.3385C50.2617 74.2351 47.9136 76.5833 45.017 76.5833Z" fill="#FDD248"/>
<path opacity="0.8" d="M75.1752 45.1155C72.2786 45.1155 69.9305 42.7673 69.9305 39.8707C69.9305 36.9741 72.2786 34.626 75.1752 34.626C78.0718 34.626 80.4199 36.9741 80.4199 39.8707C80.4199 42.7673 78.0718 45.1155 75.1752 45.1155Z" fill="#FDD248"/>
</g>
<defs>
<clipPath id="clip0">
<rect width="500" height="350.057" fill="white" transform="matrix(-1 0 0 1 500 0.97168)"/>
</clipPath>
</defs>
</svg>
