<svg width="60" height="60" viewBox="0 0 60 60" fill="none" xmlns="http://www.w3.org/2000/svg">
<circle cx="30" cy="30" r="30" fill="#E83E8C" fill-opacity="0.1"/>
<circle cx="30.0807" cy="30.0807" r="23.6461" fill="#DC3545" fill-opacity="0.2"/>
<path d="M22.5407 25.5761V33.1163C22.5407 33.1163 18.0166 36.1324 18.0166 40.6565V42.1645H24.0488L27.0649 46.6887H33.097L36.1131 42.1645H42.1453V40.6565C42.1453 36.1324 37.6212 33.1163 37.6212 33.1163V25.5761C37.6212 19.5439 33.097 13.5117 30.0809 13.5117C27.0649 13.5117 22.5407 19.5439 22.5407 25.5761ZM24.0488 42.1645H36.1131H24.0488ZM30.0809 25.5761C30.4809 25.5761 30.8645 25.4172 31.1473 25.1344C31.4301 24.8516 31.589 24.468 31.589 24.068C31.589 23.6681 31.4301 23.2845 31.1473 23.0017C30.8645 22.7189 30.4809 22.56 30.0809 22.56C29.681 22.56 29.2974 22.7189 29.0146 23.0017C28.7318 23.2845 28.5729 23.6681 28.5729 24.068C28.5729 24.468 28.7318 24.8516 29.0146 25.1344C29.2974 25.4172 29.681 25.5761 30.0809 25.5761V25.5761Z" stroke="#DC3545" stroke-width="1.5"/>
</svg>
