<svg width="45" height="42" viewBox="0 0 45 42" fill="none" xmlns="http://www.w3.org/2000/svg">
<ellipse cx="22.4839" cy="21" rx="21.7241" ry="21" fill="#FAF8F2"/>
<g clip-path="url(#clip0)">
<path fill-rule="evenodd" clip-rule="evenodd" d="M12.4948 10.6875C12.0099 8.25 13.9496 6 16.4711 6C18.7017 6 20.5444 7.78125 20.5444 9.9375V14.8125C21.1263 14.8125 21.7082 14.7188 22.2901 14.7188C22.872 14.7188 23.3569 14.7187 23.9388 14.8125V9.9375C23.9388 7.78125 25.7815 6 28.0121 6C30.5336 6 32.4733 8.25 32.0853 10.6875L31.0185 16.4063C34.8008 18 37.7103 20.8125 37.7103 24.2812V26.4375C37.7103 29.3437 35.7707 31.7813 32.9582 33.375C30.1457 35.0625 26.4603 36 22.2901 36C18.1198 36 14.4345 35.0625 11.622 33.375C8.90645 31.7813 6.9668 29.3437 6.9668 26.4375V24.2812C6.9668 20.8125 9.7793 18 13.5616 16.4063L12.4948 10.6875ZM29.5638 17.1562L30.8246 10.4062C31.1155 8.71875 29.8547 7.125 28.0121 7.125C26.4603 7.125 25.1996 8.34375 25.1996 9.84375V16.0312C24.8116 15.9375 24.3267 15.9375 23.9388 15.9375C23.3569 15.9375 22.872 15.8438 22.2901 15.8438C21.7082 15.8438 21.1263 15.8438 20.5444 15.9375C20.1565 15.9375 19.6715 16.0312 19.2836 16.0312V9.9375C19.2836 8.4375 18.0228 7.21875 16.4711 7.21875C14.7254 7.21875 13.3677 8.8125 13.7556 10.5L15.0164 17.25C10.9431 18.75 8.22757 21.375 8.22757 24.375V26.5312C8.22757 31.125 14.5315 34.875 22.2901 34.875C30.0487 34.875 36.3526 31.125 36.3526 26.5312V24.375C36.4496 21.2813 33.734 18.6562 29.5638 17.1562Z" fill="#633001"/>
<path d="M36.4492 26.4375C36.4492 31.0312 30.1453 34.7813 22.3867 34.7813C14.6281 34.7813 8.32422 31.0312 8.32422 26.4375V24.2812H36.5462V26.4375H36.4492Z" fill="#FEDC90"/>
<path fill-rule="evenodd" clip-rule="evenodd" d="M13.7553 10.5C13.3673 8.8125 14.7251 7.21875 16.4708 7.21875C18.0225 7.21875 19.2833 8.4375 19.2833 9.9375V16.125C20.2531 16.0312 21.2229 15.9375 22.2897 15.9375C23.2596 15.9375 24.2294 16.0312 25.1992 16.125V9.9375C25.1992 8.4375 26.46 7.21875 28.0117 7.21875C29.7574 7.21875 31.1152 8.8125 30.8242 10.5L29.5634 17.25C33.6367 18.75 36.4492 21.375 36.4492 24.375C36.4492 28.9688 30.1453 32.7188 22.3867 32.7188C14.6281 32.7188 8.32422 28.9688 8.32422 24.375C8.32422 21.375 11.0397 18.75 15.113 17.25L13.7553 10.5Z" fill="#D1884F"/>
<path d="M18.4101 23.7188C18.4101 24.9375 17.7312 25.9688 16.8584 25.9688C15.9855 25.9688 15.3066 24.9375 15.3066 23.7188C15.3066 22.5 15.9855 21.4688 16.8584 21.4688C17.7312 21.4688 18.4101 22.5 18.4101 23.7188Z" fill="#633001"/>
<path d="M29.1757 23.7188C29.1757 24.9375 28.4968 25.9688 27.624 25.9688C26.7511 25.9688 26.0723 24.9375 26.0723 23.7188C26.0723 22.5 26.7511 21.4688 27.624 21.4688C28.4968 21.4688 29.1757 22.5 29.1757 23.7188Z" fill="#633001"/>
</g>
<defs>
<clipPath id="clip0">
<rect width="30.7435" height="30" fill="white" transform="translate(6.9668 6)"/>
</clipPath>
</defs>
</svg>
