<svg width="133" height="326" viewBox="0 0 133 326" fill="none" xmlns="http://www.w3.org/2000/svg">
<path d="M0.000827074 259C0.000827074 222.405 29.6609 192.74 66.2485 192.74C102.836 192.74 132.496 222.405 132.496 259C132.496 295.595 102.836 325.261 66.2485 325.261C29.6609 325.261 0.000827074 295.595 0.000827074 259Z" fill="white"/>
<ellipse cx="66.7446" cy="258.949" rx="66.2476" ry="66.2606" transform="rotate(-180 66.7446 258.949)" fill="#20C997" fill-opacity="0.1"/>
<ellipse cx="66.6178" cy="258.828" rx="40.183" ry="40.1909" transform="rotate(-180 66.6178 258.828)" fill="#20C997" fill-opacity="0.2"/>
<ellipse cx="65.6839" cy="20.0955" rx="19.5485" ry="20.0954" transform="rotate(-180 65.6839 20.0955)" fill="#28A745"/>
<line x1="1" y1="-1" x2="153.064" y2="-1" transform="matrix(0.00613365 -0.999981 0.999981 0.00613605 65.418 194.149)" stroke="#28A745" stroke-width="2" stroke-linecap="square" stroke-dasharray="4 4"/>
<path d="M68.9121 248.372C68.9117 247.989 69.0362 247.615 69.2668 247.309C69.4973 247.003 69.8214 246.78 70.1899 246.674C70.5585 246.568 70.9515 246.585 71.3095 246.722C71.6676 246.859 71.9712 247.11 72.1744 247.435L76.9196 252.18C77.0835 252.344 77.2135 252.539 77.3022 252.753C77.3908 252.967 77.4364 253.197 77.4363 253.429C77.4362 253.66 77.3905 253.89 77.3017 254.104C77.2129 254.318 77.0827 254.513 76.9187 254.677C76.7547 254.841 76.56 254.971 76.3458 255.059C76.1315 255.148 75.9019 255.194 75.67 255.194C75.4381 255.194 75.2086 255.148 74.9944 255.059C74.7802 254.97 74.5856 254.84 74.4217 254.676L72.4445 252.697V266.025C72.4445 266.493 72.2585 266.942 71.9275 267.274C71.5964 267.605 71.1474 267.791 70.6792 267.791C70.211 267.791 69.762 267.605 69.4309 267.274C69.0999 266.942 68.9139 266.493 68.9139 266.025V248.372H68.9121Z" fill="#28A745"/>
<path d="M65.4383 273.111C65.4387 273.494 65.3142 273.868 65.0836 274.174C64.8531 274.48 64.529 274.703 64.1605 274.809C63.7919 274.915 63.3989 274.898 63.0408 274.761C62.6828 274.624 62.3792 274.373 62.176 274.048L57.4308 269.303C57.0998 268.972 56.9139 268.523 56.9141 268.054C56.9142 267.586 57.1004 267.137 57.4317 266.806C57.7629 266.475 58.2121 266.289 58.6804 266.289C59.1487 266.29 59.5977 266.476 59.9287 266.807L61.9059 268.786V255.458C61.9059 254.99 62.0918 254.54 62.4229 254.209C62.754 253.878 63.203 253.692 63.6712 253.692C64.1394 253.692 64.5884 253.878 64.9195 254.209C65.2505 254.54 65.4365 254.99 65.4365 255.458V273.111H65.4383Z" fill="#28A745"/>
</svg>
