<svg width="500" height="308" viewBox="0 0 500 308" fill="none" xmlns="http://www.w3.org/2000/svg">
<path d="M28.6165 294.402C16.6447 286.6 7.94022 272.576 9.72171 258.398C20.5015 269.591 34.8928 276.61 50.3493 278.213C56.3124 278.809 63.007 278.852 67.2418 283.093C69.8769 285.731 70.9964 289.588 71.054 293.316C71.1115 297.045 70.2157 300.715 69.3256 304.336L69.5443 305.241C55.2646 304.713 40.5882 302.204 28.6165 294.402Z" fill="#F0F0F0"/>
<path d="M10.0214 258.395C14.4997 269.342 22.3134 278.6 32.3528 284.853C34.4901 286.238 36.8324 287.277 39.2933 287.932C41.7111 288.493 44.235 288.396 46.6028 287.651C48.8244 287.002 51.0216 286.08 53.3626 285.981C54.5616 285.949 55.7539 286.17 56.8614 286.63C57.969 287.091 58.9666 287.78 59.789 288.653C61.8947 290.776 63.1123 293.528 64.2095 296.261C65.4277 299.295 66.6449 302.466 69.1259 304.714C69.4265 304.986 68.9864 305.437 68.6863 305.165C64.3698 301.255 63.8947 294.981 60.5017 290.445C58.9185 288.328 56.6877 286.675 53.9606 286.606C51.5759 286.545 49.3093 287.493 47.0655 288.171C44.7663 288.931 42.316 289.117 39.9286 288.711C37.4423 288.184 35.0639 287.237 32.8954 285.911C27.9656 283.004 23.5236 279.34 19.732 275.053C15.3775 270.185 11.8879 264.608 9.41417 258.562C9.26122 258.188 9.86947 258.023 10.0214 258.395H10.0214Z" fill="white"/>
<path d="M29.002 283.03C27.7242 284.572 25.9398 285.61 23.9676 285.958C21.9955 286.306 19.9639 285.941 18.2357 284.929C17.8867 284.723 18.1903 284.171 18.5398 284.377C20.1473 285.323 22.0398 285.662 23.8756 285.334C25.7115 285.007 27.3697 284.034 28.5511 282.591C28.8082 282.278 29.2577 282.719 29.002 283.03V283.03Z" fill="white"/>
<path d="M45.5194 288.13C45.1741 284.051 43.304 280.251 40.282 277.49C39.9824 277.216 40.4224 276.766 40.7217 277.039C43.8611 279.918 45.7992 283.876 46.1491 288.122C46.1822 288.526 45.5523 288.532 45.5194 288.13Z" fill="white"/>
<path d="M16.1709 269.922C16.7896 269.428 17.2761 268.789 17.5866 268.06C17.8971 267.332 18.0219 266.539 17.9498 265.75C17.9116 265.346 18.5416 265.341 18.5796 265.742C18.6552 266.614 18.5162 267.49 18.175 268.295C17.8337 269.1 17.3005 269.81 16.6218 270.361C16.5622 270.419 16.483 270.451 16.4003 270.452C16.3176 270.453 16.2376 270.423 16.1765 270.367C16.1171 270.308 16.0833 270.229 16.0822 270.145C16.0812 270.062 16.113 269.982 16.1709 269.922Z" fill="white"/>
<path d="M50.5587 232.453C50.5897 232.705 50.6207 232.956 50.6564 233.211C51.091 236.591 51.7996 239.932 52.7751 243.198C52.8465 243.451 52.9227 243.707 53.0012 243.959C55.4354 251.802 59.3046 259.126 64.4122 265.558C66.447 268.115 68.6734 270.514 71.0722 272.733C74.3851 275.798 78.2211 278.858 80.2678 282.725C80.4858 283.126 80.6789 283.54 80.8457 283.965L70.6318 304.904C70.5847 304.939 70.5423 304.978 70.4951 305.014L70.1255 305.869C69.9938 305.763 69.8594 305.65 69.7277 305.545C69.6511 305.484 69.5767 305.418 69.5001 305.357C69.4497 305.315 69.3994 305.272 69.3515 305.237C69.3347 305.223 69.318 305.209 69.3059 305.197C69.258 305.162 69.2173 305.124 69.1742 305.091C68.4216 304.464 67.6721 303.83 66.9257 303.19C66.9209 303.188 66.9209 303.188 66.9184 303.181C61.2436 298.289 55.9274 292.881 51.601 286.838C51.4709 286.656 51.3359 286.472 51.2104 286.281C49.2754 283.546 47.5672 280.658 46.1027 277.645C45.3061 275.992 44.5937 274.3 43.9682 272.576C42.3605 268.117 41.4642 263.433 41.3121 258.695C41.0103 249.251 43.7323 239.816 50.0694 232.971C50.2316 232.796 50.3917 232.626 50.5587 232.453Z" fill="#F0F0F0"/>
<path d="M50.8008 232.63C47.7856 244.067 48.4506 256.163 52.7015 267.201C53.5745 269.593 54.819 271.833 56.3894 273.838C57.9823 275.741 60.0558 277.183 62.3946 278.014C64.5597 278.833 66.8692 279.42 68.7975 280.751C69.7745 281.446 70.5934 282.341 71.2004 283.375C71.8074 284.41 72.1889 285.561 72.3198 286.753C72.7234 289.716 72.0385 292.646 71.2691 295.489C70.4148 298.645 69.4775 301.91 70.1053 305.198C70.1814 305.597 69.5587 305.691 69.4828 305.294C68.3905 299.573 71.7882 294.278 71.8103 288.613C71.8207 285.969 71.0344 283.307 68.899 281.609C67.0317 280.125 64.6507 279.518 62.4514 278.708C60.158 277.93 58.0898 276.603 56.4274 274.842C54.76 272.924 53.4313 270.736 52.498 268.372C50.312 263.083 48.9712 257.483 48.5247 251.777C47.979 245.269 48.5507 238.714 50.2152 232.398C50.3183 232.007 50.9033 232.242 50.8008 232.63Z" fill="white"/>
<path d="M51.1239 263.727C49.1753 264.189 47.1259 263.943 45.3418 263.033C43.5577 262.124 42.1551 260.609 41.3844 258.761C41.2297 258.387 41.8045 258.129 41.9594 258.504C42.6738 260.226 43.9805 261.637 45.6436 262.48C47.3067 263.324 49.2166 263.545 51.0286 263.105C51.4224 263.009 51.5155 263.632 51.1239 263.727V263.727Z" fill="white"/>
<path d="M61.2414 201.744C63.4217 198.279 64.2159 194.119 63.4657 190.095C63.391 189.696 64.0136 189.601 64.0882 189.999C64.8611 194.189 64.0258 198.516 61.749 202.116C61.5318 202.459 61.0254 202.085 61.2414 201.744Z" fill="white"/>
<path d="M48.7698 245.535C49.561 245.513 50.3345 245.295 51.0208 244.901C51.707 244.506 52.2846 243.948 52.7016 243.275C52.9144 242.929 53.4206 243.304 53.2092 243.648C52.745 244.389 52.1064 245.005 51.3492 245.443C50.5919 245.88 49.7391 246.125 48.8652 246.157C48.7831 246.167 48.7003 246.145 48.6336 246.096C48.5669 246.047 48.5214 245.975 48.5062 245.893C48.494 245.811 48.5149 245.727 48.5643 245.66C48.6136 245.593 48.6875 245.548 48.7699 245.535H48.7698Z" fill="white"/>
<path d="M72.0233 230.195H349.212C352.066 230.191 354.803 229.056 356.821 227.038C358.84 225.019 359.975 222.282 359.979 219.428V11.3389C359.975 8.48439 358.84 5.7477 356.821 3.72926C354.803 1.71083 352.066 0.57547 349.212 0.572266H72.0233C69.1689 0.575521 66.4322 1.7109 64.4138 3.72934C62.3953 5.74777 61.2599 8.48443 61.2567 11.3389V219.428C61.2599 222.282 62.3953 225.019 64.4138 227.037C66.4322 229.056 69.1689 230.191 72.0233 230.195Z" fill="#B5CDE7"/>
<path d="M141.787 96.1149H184.576C186.69 96.1149 188.718 95.2749 190.214 93.7797C191.709 92.2845 192.549 90.2565 192.549 88.1419C192.549 86.0274 191.709 83.9994 190.214 82.5042C188.718 81.009 186.69 80.1689 184.576 80.1689H141.787C139.673 80.1689 137.645 81.009 136.15 82.5042C134.654 83.9994 133.814 86.0274 133.814 88.1419C133.814 90.2565 134.654 92.2845 136.15 93.7797C137.645 95.2749 139.673 96.1149 141.787 96.1149Z" fill="white"/>
<path d="M179.261 117.908H189.36C190.135 117.908 190.879 117.6 191.427 117.052C191.975 116.504 192.283 115.76 192.283 114.985C192.283 114.21 191.975 113.466 191.427 112.918C190.879 112.37 190.135 112.062 189.36 112.062H179.261C178.485 112.062 177.742 112.37 177.193 112.918C176.645 113.466 176.337 114.21 176.337 114.985C176.337 115.76 176.645 116.504 177.193 117.052C177.742 117.6 178.485 117.908 179.261 117.908Z" fill="white"/>
<path d="M137.268 117.908H147.368C148.143 117.908 148.887 117.6 149.435 117.052C149.983 116.504 150.291 115.76 150.291 114.985C150.291 114.21 149.983 113.466 149.435 112.918C148.887 112.37 148.143 112.062 147.368 112.062H137.268C136.493 112.062 135.75 112.37 135.201 112.918C134.653 113.466 134.345 114.21 134.345 114.985C134.345 115.76 134.653 116.504 135.201 117.052C135.75 117.6 136.493 117.908 137.268 117.908Z" fill="white"/>
<path d="M158.53 117.908H168.629C169.405 117.908 170.148 117.6 170.696 117.052C171.245 116.504 171.553 115.76 171.553 114.985C171.553 114.21 171.245 113.466 170.696 112.918C170.148 112.37 169.405 112.062 168.629 112.062H158.53C157.755 112.062 157.011 112.37 156.463 112.918C155.915 113.466 155.607 114.21 155.607 114.985C155.607 115.76 155.915 116.504 156.463 117.052C157.011 117.6 157.755 117.908 158.53 117.908Z" fill="white"/>
<path d="M179.261 129.071H189.36C190.135 129.071 190.879 128.763 191.427 128.214C191.975 127.666 192.283 126.922 192.283 126.147C192.283 125.372 191.975 124.628 191.427 124.08C190.879 123.532 190.135 123.224 189.36 123.224H179.261C178.485 123.224 177.742 123.532 177.193 124.08C176.645 124.628 176.337 125.372 176.337 126.147C176.337 126.922 176.645 127.666 177.193 128.214C177.742 128.763 178.485 129.071 179.261 129.071Z" fill="white"/>
<path d="M137.268 129.071H147.368C148.143 129.071 148.887 128.763 149.435 128.214C149.983 127.666 150.291 126.922 150.291 126.147C150.291 125.372 149.983 124.628 149.435 124.08C148.887 123.532 148.143 123.224 147.368 123.224H137.268C136.493 123.224 135.75 123.532 135.201 124.08C134.653 124.628 134.345 125.372 134.345 126.147C134.345 126.922 134.653 127.666 135.201 128.214C135.75 128.763 136.493 129.071 137.268 129.071Z" fill="white"/>
<path d="M158.53 129.071H168.629C169.405 129.071 170.148 128.763 170.696 128.214C171.245 127.666 171.553 126.922 171.553 126.147C171.553 125.372 171.245 124.628 170.696 124.08C170.148 123.532 169.405 123.224 168.629 123.224H158.53C157.755 123.224 157.011 123.532 156.463 124.08C155.915 124.628 155.607 125.372 155.607 126.147C155.607 126.922 155.915 127.666 156.463 128.214C157.011 128.763 157.755 129.071 158.53 129.071Z" fill="white"/>
<path d="M179.261 140.233H189.36C190.135 140.233 190.879 139.925 191.427 139.376C191.975 138.828 192.283 138.085 192.283 137.309C192.283 136.534 191.975 135.79 191.427 135.242C190.879 134.694 190.135 134.386 189.36 134.386H179.261C178.485 134.386 177.742 134.694 177.193 135.242C176.645 135.79 176.337 136.534 176.337 137.309C176.337 138.085 176.645 138.828 177.193 139.376C177.742 139.925 178.485 140.233 179.261 140.233Z" fill="white"/>
<path d="M137.268 140.233H147.368C148.143 140.233 148.887 139.925 149.435 139.376C149.983 138.828 150.291 138.085 150.291 137.309C150.291 136.534 149.983 135.79 149.435 135.242C148.887 134.694 148.143 134.386 147.368 134.386H137.268C136.493 134.386 135.75 134.694 135.201 135.242C134.653 135.79 134.345 136.534 134.345 137.309C134.345 138.085 134.653 138.828 135.201 139.376C135.75 139.925 136.493 140.233 137.268 140.233Z" fill="white"/>
<path d="M158.53 140.233H168.629C169.405 140.233 170.148 139.925 170.696 139.376C171.245 138.828 171.553 138.085 171.553 137.309C171.553 136.534 171.245 135.79 170.696 135.242C170.148 134.694 169.405 134.386 168.629 134.386H158.53C157.755 134.386 157.011 134.694 156.463 135.242C155.915 135.79 155.607 136.534 155.607 137.309C155.607 138.085 155.915 138.828 156.463 139.376C157.011 139.925 157.755 140.233 158.53 140.233Z" fill="white"/>
<path d="M179.261 151.395H189.36C190.135 151.395 190.879 151.087 191.427 150.538C191.975 149.99 192.283 149.247 192.283 148.471C192.283 147.696 191.975 146.952 191.427 146.404C190.879 145.856 190.135 145.548 189.36 145.548H179.261C178.485 145.548 177.742 145.856 177.193 146.404C176.645 146.952 176.337 147.696 176.337 148.471C176.337 149.247 176.645 149.99 177.193 150.538C177.742 151.087 178.485 151.395 179.261 151.395Z" fill="white"/>
<path d="M137.268 151.395H147.368C148.143 151.395 148.887 151.087 149.435 150.538C149.983 149.99 150.291 149.247 150.291 148.471C150.291 147.696 149.983 146.952 149.435 146.404C148.887 145.856 148.143 145.548 147.368 145.548H137.268C136.493 145.548 135.75 145.856 135.201 146.404C134.653 146.952 134.345 147.696 134.345 148.471C134.345 149.247 134.653 149.99 135.201 150.538C135.75 151.087 136.493 151.395 137.268 151.395Z" fill="white"/>
<path d="M158.53 151.395H168.629C169.405 151.395 170.148 151.087 170.696 150.538C171.245 149.99 171.553 149.247 171.553 148.471C171.553 147.696 171.245 146.952 170.696 146.404C170.148 145.856 169.405 145.548 168.629 145.548H158.53C157.755 145.548 157.011 145.856 156.463 146.404C155.915 146.952 155.607 147.696 155.607 148.471C155.607 149.247 155.915 149.99 156.463 150.538C157.011 151.087 157.755 151.395 158.53 151.395Z" fill="white"/>
<path d="M247.562 139.701C232.59 139.701 220.454 127.564 220.454 112.593C220.454 97.6211 232.59 85.4844 247.562 85.4844C262.533 85.4844 274.67 97.6211 274.67 112.593C274.67 127.564 262.533 139.701 247.562 139.701Z" fill="#E1CFA0"/>
<path d="M247.562 145.813C249.676 145.811 251.703 144.97 253.197 143.475C254.692 141.981 255.533 139.954 255.535 137.84V87.3447C255.536 86.2971 255.33 85.2597 254.93 84.2916C254.53 83.3235 253.943 82.4438 253.202 81.7028C252.462 80.9617 251.583 80.3738 250.615 79.9728C249.647 79.5717 248.61 79.3652 247.562 79.3652C246.515 79.3652 245.477 79.5717 244.51 79.9728C243.542 80.3738 242.663 80.9617 241.922 81.7028C241.182 82.4438 240.595 83.3235 240.194 84.2916C239.794 85.2597 239.588 86.2971 239.589 87.3447V137.84C239.592 139.954 240.432 141.981 241.927 143.475C243.422 144.97 245.448 145.811 247.562 145.813Z" fill="white"/>
<path d="M176.742 92.6916H184.183C184.465 92.6916 184.735 92.5796 184.935 92.3802C185.134 92.1808 185.246 91.9104 185.246 91.6285C185.246 91.3466 185.134 91.0762 184.935 90.8768C184.735 90.6774 184.465 90.5654 184.183 90.5654H176.742C176.46 90.5654 176.189 90.6774 175.99 90.8768C175.791 91.0762 175.678 91.3466 175.678 91.6285C175.678 91.9104 175.791 92.1808 175.99 92.3802C176.189 92.5796 176.46 92.6916 176.742 92.6916Z" fill="#E4E4E4"/>
<path d="M165.048 92.9572H172.49C172.772 92.9572 173.042 92.8452 173.241 92.6458C173.441 92.4465 173.553 92.1761 173.553 91.8941C173.553 91.6122 173.441 91.3418 173.241 91.1424C173.042 90.9431 172.772 90.8311 172.49 90.8311H165.048C164.766 90.8311 164.496 90.9431 164.296 91.1424C164.097 91.3418 163.985 91.6122 163.985 91.8941C163.985 92.1761 164.097 92.4465 164.296 92.6458C164.496 92.8452 164.766 92.9572 165.048 92.9572Z" fill="#E4E4E4"/>
<path d="M153.355 93.2228H160.796C161.078 93.2228 161.349 93.1108 161.548 92.9114C161.747 92.7121 161.859 92.4417 161.859 92.1597C161.859 91.8778 161.747 91.6074 161.548 91.408C161.349 91.2087 161.078 91.0967 160.796 91.0967H153.355C153.073 91.0967 152.803 91.2087 152.603 91.408C152.404 91.6074 152.292 91.8778 152.292 92.1597C152.292 92.4417 152.404 92.7121 152.603 92.9114C152.803 93.1108 153.073 93.2228 153.355 93.2228Z" fill="#E4E4E4"/>
<path d="M141.661 93.4894H149.103C149.385 93.4894 149.655 93.3774 149.855 93.178C150.054 92.9787 150.166 92.7083 150.166 92.4263C150.166 92.1444 150.054 91.874 149.855 91.6746C149.655 91.4753 149.385 91.3633 149.103 91.3633H141.661C141.38 91.3633 141.109 91.4753 140.91 91.6746C140.71 91.874 140.598 92.1444 140.598 92.4263C140.598 92.7083 140.71 92.9787 140.91 93.178C141.109 93.3774 141.38 93.4894 141.661 93.4894Z" fill="#E4E4E4"/>
<path d="M324.633 197.372C324.634 198.688 324.373 199.991 323.866 201.205C323.358 202.42 322.615 203.522 321.678 204.446H326.069C327.364 204.446 328.647 204.191 329.844 203.695C331.041 203.2 332.128 202.473 333.044 201.557C333.96 200.641 334.687 199.553 335.183 198.357C335.678 197.16 335.934 195.877 335.934 194.581V34.6528C335.934 33.3574 335.678 32.0746 335.183 30.8778C334.687 29.6809 333.96 28.5934 333.044 27.6774C332.128 26.7614 331.041 26.0347 329.844 25.539C328.647 25.0432 327.364 24.7881 326.069 24.7881H319.679C321.186 25.6645 322.437 26.921 323.306 28.432C324.175 29.943 324.633 31.6557 324.633 33.3989L324.633 197.372Z" fill="#D7E9F9"/>
<path d="M0.632782 307.238H499.367C499.535 307.237 499.695 307.17 499.813 307.051C499.932 306.933 499.998 306.772 499.998 306.605C499.998 306.437 499.932 306.276 499.813 306.158C499.695 306.039 499.535 305.972 499.367 305.972H0.632782C0.464935 305.972 0.303955 306.038 0.185272 306.157C0.0665894 306.276 -9.15527e-05 306.437 -9.15527e-05 306.605C-9.15527e-05 306.772 0.0665894 306.933 0.185272 307.052C0.303955 307.171 0.464935 307.238 0.632782 307.238Z" fill="#CACACA"/>
<path d="M325.697 71.521C329.056 70.5802 332.428 69.7085 335.812 68.9058C347.384 66.1434 359.116 64.0984 370.941 62.7826C372.945 62.2547 375.077 62.5401 376.872 63.5764C378.667 64.6127 379.98 66.3161 380.525 68.3158L386.43 90.1087C386.972 92.1175 386.695 94.2593 385.66 96.064C384.624 97.8688 382.915 99.1889 380.907 99.7347L380.827 99.7507C373.014 100.638 365.126 101.871 357.281 103.445C356.579 103.583 355.882 103.727 355.181 103.875C352.667 104.396 350.16 104.953 347.66 105.544C346.565 105.8 345.475 106.065 344.38 106.336C341.436 107.07 338.489 107.851 335.541 108.68C332.261 109.605 328.98 110.592 325.697 111.641C325.341 111.747 324.985 111.859 324.634 111.976V71.8239C324.985 71.7176 325.341 71.6166 325.697 71.521Z" fill="white"/>
<path d="M325.697 71.521C329.056 70.5802 332.428 69.7085 335.812 68.9058C347.384 66.1434 359.116 64.0984 370.941 62.7826C372.945 62.2547 375.077 62.5401 376.872 63.5764C378.667 64.6127 379.98 66.3161 380.525 68.3158L386.43 90.1087C386.972 92.1175 386.695 94.2593 385.66 96.064C384.624 97.8688 382.915 99.1889 380.907 99.7347L380.827 99.7507C373.014 100.638 365.126 101.871 357.281 103.445C356.579 103.583 355.882 103.727 355.181 103.875C352.667 104.396 350.16 104.953 347.66 105.544C346.565 105.8 345.475 106.065 344.38 106.336C341.436 107.07 338.489 107.851 335.541 108.68C332.261 109.605 328.98 110.592 325.697 111.641C325.341 111.747 324.985 111.859 324.634 111.976V110.854C324.99 110.743 325.346 110.631 325.697 110.52C328.716 109.557 331.731 108.652 334.743 107.803C335.87 107.479 336.997 107.166 338.124 106.863C340.155 106.315 342.18 105.791 344.199 105.289C345.273 105.018 346.345 104.758 347.415 104.508C347.495 104.487 347.58 104.471 347.66 104.449C349.483 104.019 351.31 103.608 353.14 103.216C353.842 103.067 354.543 102.919 355.245 102.775C363.707 101.021 372.233 99.655 380.668 98.6982C382.393 98.2177 383.859 97.0751 384.746 95.5191C385.633 93.9632 385.87 92.1198 385.404 90.3904L379.499 68.5922C379.026 66.8578 377.885 65.3816 376.326 64.4878C374.766 63.5939 372.915 63.3553 371.18 63.8243L371.101 63.835C359.426 65.1313 347.842 67.1407 336.413 69.8519C336.296 69.8838 336.179 69.9104 336.062 69.937C332.596 70.7662 329.141 71.6627 325.697 72.6265C325.346 72.7222 324.99 72.8232 324.634 72.9295V71.8239C324.985 71.7176 325.341 71.6166 325.697 71.521Z" fill="#002B53"/>
<path d="M324.635 72.3763V111.412C324.991 111.295 325.341 111.183 325.698 111.072C328.839 110.067 331.991 109.121 335.153 108.233C338.189 107.372 341.234 106.563 344.29 105.804C345.375 105.539 346.454 105.278 347.538 105.023C347.581 104.832 347.623 104.64 347.66 104.449C347.857 103.535 348.011 102.61 348.128 101.68C348.181 101.324 348.218 100.967 348.256 100.606C348.815 94.9114 348.036 89.1649 345.979 83.8252C343.923 78.4854 340.647 73.7002 336.413 69.8515C336.259 69.7026 336.1 69.5591 335.94 69.4209C332.506 70.2395 329.092 71.1254 325.698 72.0786C325.341 72.169 324.985 72.2699 324.635 72.3763Z" fill="#002B53"/>
<path d="M359.933 88.3598L374.715 86.6164C375.235 86.555 375.762 86.5966 376.266 86.7388C376.77 86.8811 377.241 87.1212 377.652 87.4455C378.063 87.7698 378.406 88.1719 378.662 88.6288C378.918 89.0858 379.081 89.5886 379.142 90.1086C379.204 90.6286 379.162 91.1557 379.02 91.6596C378.878 92.1635 378.638 92.6345 378.313 93.0457C377.989 93.4568 377.587 93.8001 377.13 94.0558C376.673 94.3116 376.17 94.4748 375.65 94.5362L360.868 96.2796C359.82 96.401 358.765 96.1013 357.937 95.4465C357.109 94.7916 356.574 93.835 356.45 92.7864C356.326 91.7378 356.624 90.683 357.276 89.8531C357.929 89.0233 358.885 88.4862 359.933 88.3598ZM357.498 92.6652C357.591 93.4345 357.985 94.1357 358.594 94.615C359.203 95.0943 359.977 95.3125 360.746 95.2219L375.528 93.4785C376.296 93.385 376.995 92.9912 377.473 92.3832C377.951 91.7752 378.168 91.0026 378.077 90.2347C377.987 89.4668 377.595 88.7661 376.989 88.2861C376.383 87.8062 375.611 87.5861 374.843 87.6741L360.061 89.4176C359.291 89.5107 358.59 89.9045 358.11 90.513C357.63 91.1215 357.41 91.8952 357.498 92.6652L357.498 92.6652Z" fill="#002B53"/>
<path d="M324.634 81.5186V100.032C324.976 100.237 325.331 100.418 325.697 100.574C327.605 101.426 329.72 101.701 331.783 101.367C333.845 101.033 335.765 100.103 337.306 98.6924C337.455 98.5595 337.604 98.416 337.747 98.2672C337.891 98.1236 338.029 97.9695 338.162 97.8154C339.766 95.9723 340.694 93.6368 340.79 91.1951C340.887 88.7534 340.148 86.3518 338.694 84.3874C337.241 82.4231 335.16 81.0138 332.797 80.3926C330.433 79.7713 327.929 79.9754 325.697 80.9711C325.333 81.1343 324.978 81.3171 324.634 81.5186Z" fill="white"/>
<path d="M325.697 94.9191C329.88 95.7908 334.034 96.7564 338.161 97.8159C339.702 98.2093 341.238 98.6168 342.769 99.0385C344.598 99.5434 346.426 100.066 348.255 100.606C350.588 101.297 352.918 102.02 355.245 102.775C355.92 102.998 356.6 103.222 357.28 103.445C363.749 105.603 370.175 107.995 376.495 110.605C378.506 111.107 380.238 112.384 381.312 114.157C382.386 115.93 382.716 118.056 382.23 120.071L376.899 142.013C376.406 144.034 375.131 145.777 373.354 146.859C371.577 147.941 369.444 148.274 367.422 147.785L367.348 147.759C356.954 143.496 346.317 139.854 335.493 136.852C332.261 135.953 328.996 135.107 325.697 134.311C325.34 134.226 324.99 134.141 324.634 134.061V94.7012C324.99 94.7649 325.34 94.8393 325.697 94.9191Z" fill="white"/>
<path d="M325.697 94.9191C329.88 95.7908 334.034 96.7564 338.161 97.8159C339.702 98.2093 341.238 98.6168 342.769 99.0385C344.598 99.5434 346.426 100.066 348.255 100.606C350.588 101.297 352.918 102.02 355.245 102.775C355.92 102.998 356.6 103.222 357.28 103.445C363.749 105.603 370.175 107.995 376.495 110.605C378.506 111.107 380.238 112.384 381.312 114.157C382.386 115.93 382.716 118.056 382.23 120.071L376.899 142.013C376.406 144.034 375.131 145.777 373.354 146.859C371.577 147.941 369.444 148.274 367.422 147.785L367.348 147.759C356.954 143.496 346.317 139.854 335.493 136.852C332.261 135.953 328.996 135.107 325.697 134.311C325.34 134.226 324.99 134.141 324.634 134.061V132.966C324.99 133.051 325.34 133.136 325.697 133.221C325.962 133.285 326.233 133.349 326.499 133.413C329.625 134.173 332.716 134.977 335.775 135.826C335.854 135.847 335.939 135.874 336.019 135.895C346.789 138.89 357.373 142.52 367.714 146.765C369.458 147.174 371.293 146.878 372.82 145.941C374.347 145.004 375.442 143.503 375.868 141.763L381.194 119.821C381.617 118.074 381.329 116.231 380.394 114.695C379.46 113.16 377.954 112.058 376.208 111.631L376.128 111.604C369.245 108.755 362.24 106.172 355.181 103.875C354.5 103.652 353.82 103.434 353.14 103.216C351.471 102.69 349.8 102.178 348.127 101.68C346.363 101.154 344.6 100.647 342.839 100.16C342.722 100.128 342.605 100.096 342.488 100.064C340.765 99.5913 339.038 99.1341 337.305 98.693C333.462 97.715 329.593 96.8167 325.697 95.9981C325.346 95.9237 324.99 95.8493 324.634 95.7802V94.7012C324.99 94.7649 325.34 94.8393 325.697 94.9191Z" fill="#002B53"/>
<path d="M324.634 95.2373V133.513C324.984 133.593 325.34 133.672 325.697 133.758C329.024 134.565 332.337 135.427 335.636 136.341C335.769 136.192 335.897 136.043 336.019 135.894C339.463 131.863 341.994 127.133 343.437 122.031C344.88 116.928 345.202 111.574 344.38 106.336C344.353 106.16 344.321 105.98 344.29 105.804C344.263 105.634 344.231 105.459 344.199 105.289C343.871 103.548 343.416 101.834 342.839 100.159C342.769 99.9573 342.7 99.7553 342.626 99.5533C341.005 99.1069 339.378 98.6781 337.747 98.267C333.755 97.2359 329.738 96.2986 325.697 95.4552C325.346 95.3755 324.99 95.3064 324.634 95.2373Z" fill="#002B53"/>
<path d="M384.775 287.069L400.082 295.958L384.991 292.316C385.108 293.562 385.266 294.786 385.477 295.984C385.535 296.317 385.598 296.644 385.667 296.971C386.183 299.723 387.117 302.379 388.438 304.847C388.692 305.301 388.945 305.744 389.209 306.172C389.462 306.605 389.726 307.022 389.995 307.428H430.571C430.909 307.022 431.23 306.599 431.526 306.172C434.419 302.099 435.591 297.051 434.788 292.121C434.641 291.117 434.429 290.125 434.155 289.149C433.889 288.151 433.566 287.17 433.189 286.209C432.53 284.511 431.752 282.862 430.861 281.273C429.003 277.927 426.105 274.908 422.69 272.226C421.036 270.936 419.313 269.737 417.528 268.637C417.19 268.42 416.847 268.209 416.498 268.003C415.965 267.687 415.432 267.375 414.894 267.074C413.822 266.462 412.74 265.881 411.658 265.333C411.373 265.185 411.093 265.042 410.813 264.905C408.465 263.733 406.126 262.683 403.899 261.759C403.619 261.643 403.334 261.527 403.054 261.416C398.623 259.603 394.09 258.051 389.478 256.766C389.478 256.766 389.462 256.808 389.436 256.898C389.367 257.14 389.193 257.726 388.956 258.592C388.296 260.994 387.134 265.575 386.2 271.107C386.147 271.408 386.1 271.714 386.047 272.02C385.267 276.699 384.834 281.429 384.754 286.172C384.749 286.467 384.749 286.758 384.749 287.053L384.775 287.069Z" fill="#F2F2F2"/>
<path d="M388.358 256.227C388.364 256.243 388.417 256.501 388.538 256.976C388.638 257.372 388.775 257.916 388.955 258.592C389.573 260.951 390.671 264.905 392.233 269.666C392.323 269.94 392.418 270.225 392.513 270.51C393.6 273.767 394.893 277.367 396.387 281.067C396.762 281.996 397.137 282.909 397.522 283.801C397.638 284.081 397.754 284.356 397.876 284.625C399.512 288.415 401.196 291.883 402.927 295.029L403.365 295.815C405.377 299.465 407.707 302.93 410.327 306.171C410.681 306.604 411.04 307.021 411.404 307.428H412.629C412.259 307.021 411.89 306.599 411.531 306.171C408.76 302.818 406.309 299.213 404.21 295.403C404.062 295.145 403.914 294.886 403.772 294.622C401.908 291.239 400.214 287.702 398.699 284.197C398.578 283.928 398.461 283.654 398.345 283.374C396.366 278.739 394.703 274.184 393.363 270.173C393.267 269.888 393.172 269.603 393.083 269.323C391.13 263.4 389.905 258.755 389.435 256.897C389.372 256.623 389.319 256.406 389.282 256.259C389.245 256.121 389.23 256.042 389.224 256.026L388.797 256.127H388.791L388.358 256.227Z" fill="white"/>
<path d="M385.392 271.175C385.661 271.159 385.931 271.133 386.2 271.106C388.265 270.892 390.294 270.407 392.233 269.665C392.513 269.554 392.798 269.444 393.083 269.322C393.855 268.99 394.609 268.619 395.342 268.208C398.375 266.53 401.007 264.212 403.054 261.415C403.123 261.325 403.191 261.23 403.255 261.141C403.529 261.257 403.809 261.373 404.094 261.489C404.031 261.579 403.967 261.668 403.899 261.758C401.762 264.743 398.987 267.213 395.775 268.99C394.992 269.426 394.187 269.821 393.363 270.172C393.083 270.288 392.798 270.404 392.513 270.51C390.435 271.301 388.26 271.809 386.047 272.02C385.783 272.046 385.514 272.067 385.25 272.083C385.297 271.771 385.345 271.471 385.392 271.175Z" fill="white"/>
<path d="M384.754 286.171C389.148 286.572 393.566 285.752 397.523 283.801C397.803 283.669 398.077 283.527 398.346 283.374C398.432 283.335 398.515 283.291 398.594 283.242C401.945 281.379 404.801 278.744 406.927 275.554C409.052 272.365 410.385 268.713 410.814 264.904C410.824 264.815 410.835 264.72 410.846 264.63C411.131 264.778 411.416 264.92 411.695 265.068C411.685 265.158 411.674 265.242 411.658 265.332C411.171 269.221 409.773 272.94 407.578 276.188C405.383 279.436 402.454 282.12 399.027 284.023C398.922 284.081 398.811 284.144 398.7 284.197C398.426 284.345 398.151 284.487 397.877 284.625C393.814 286.618 389.283 287.463 384.775 287.068C384.538 287.047 384.3 287.021 384.063 286.995C384.063 286.694 384.057 286.398 384.057 286.097C384.29 286.124 384.522 286.15 384.754 286.171Z" fill="white"/>
<path d="M385.478 295.984C390.23 297.544 395.35 297.583 400.126 296.095C401.082 295.8 402.018 295.444 402.929 295.029C403.214 294.902 403.494 294.765 403.773 294.623C404.074 294.475 404.37 294.316 404.66 294.158C408.608 291.96 411.859 288.697 414.042 284.741C416.225 280.785 417.252 276.295 417.006 271.783C416.942 270.511 416.772 269.247 416.499 268.003C416.484 267.919 416.468 267.834 416.447 267.75C416.795 267.966 417.143 268.183 417.487 268.405C417.502 268.484 417.518 268.558 417.529 268.637C417.838 270.341 417.967 272.073 417.914 273.804C417.797 278.136 416.554 282.363 414.307 286.068C412.06 289.773 408.886 292.829 405.098 294.934C404.803 295.098 404.507 295.256 404.211 295.404C403.931 295.546 403.646 295.683 403.367 295.815C397.809 298.36 391.51 298.771 385.668 296.971C385.473 296.919 385.277 296.855 385.082 296.792C385.003 296.454 384.934 296.116 384.871 295.779C385.072 295.852 385.272 295.921 385.478 295.984Z" fill="white"/>
<path d="M421.74 118.897H451.299V148.457H421.74V118.897Z" fill="#9E616A"/>
<path d="M469.733 295.564L463.909 295.563L461.139 273.1L469.734 273.1L469.733 295.564Z" fill="#9E616A"/>
<path d="M453.749 302.128L462.5 296.085V292.142L463.493 292.2L469.732 292.574L471.706 292.691L472.83 306.172L472.867 306.62H468.734L468.65 306.172L467.995 302.72L466.322 306.172L466.105 306.62H455.148C454.495 306.619 453.87 306.36 453.408 305.899C452.946 305.438 452.685 304.813 452.683 304.161C452.682 303.761 452.779 303.367 452.965 303.013C453.151 302.659 453.42 302.355 453.749 302.128Z" fill="#2F2E41"/>
<path d="M435.674 291.866L430.077 293.476L421.205 272.653L429.465 270.277L435.674 291.866Z" fill="#9E616A"/>
<path d="M422.125 302.598L428.866 294.369L427.774 290.579L428.745 290.362L434.155 289.148L434.847 288.995L436.773 288.562L441.74 301.627L437.771 302.772L435.981 299.225L435.248 303.495L432.746 304.213L425.942 306.171L424.712 306.525C424.207 306.671 423.669 306.652 423.175 306.471C422.682 306.289 422.26 305.954 421.971 305.515C421.682 305.076 421.541 304.556 421.569 304.031C421.596 303.506 421.792 303.004 422.125 302.598V302.598Z" fill="#2F2E41"/>
<path d="M374.541 93.1323C374.643 93.4325 374.718 93.7412 374.764 94.0547L407.493 88.2697L435.684 73.0682C437.457 72.1118 439.527 71.8635 441.476 72.3734C443.426 72.8832 445.109 74.1133 446.187 75.8155C447.265 77.5177 447.657 79.5653 447.285 81.5454C446.912 83.5255 445.803 85.2907 444.18 86.485H444.18C438.922 90.3554 433.092 93.3821 426.901 95.4559L406.463 102.302L370.664 100.007C369.67 100.222 368.635 100.144 367.684 99.7843C366.732 99.4244 365.905 98.7974 365.302 97.9786C364.699 97.1598 364.345 96.1841 364.284 95.169C364.222 94.1539 364.455 93.1426 364.955 92.2567C365.454 91.3709 366.199 90.6483 367.1 90.1759C368 89.7035 369.018 89.5014 370.031 89.5939C371.044 89.6864 372.008 90.0695 372.808 90.6973C373.608 91.325 374.21 92.1706 374.541 93.1323Z" fill="#9E616A"/>
<path d="M421.152 58.395C416.995 50.7905 419.789 41.256 427.394 37.099C434.998 32.942 444.533 35.7368 448.69 43.3413C452.847 50.9457 450.052 60.4802 442.448 64.6372C434.843 68.7942 425.309 65.9995 421.152 58.395Z" fill="#9E616A"/>
<path d="M432.297 31.8037H442.434C449.079 31.8037 454.467 37.8644 454.467 45.3406C459.481 50.3757 457.976 56.6835 453.998 63.4743C446.817 64.3676 439.794 66.2461 433.126 69.0567L432.18 65.0163L430.314 70.3374C428.654 71.1416 427.008 72.021 425.377 72.9755C427.281 64.028 428.065 55.1012 426.757 48.1669H423.324V44.4096L422.158 48.1669H415.934C415.934 46.018 416.357 43.8902 417.18 41.9049C418.002 39.9197 419.207 38.1158 420.727 36.5963C422.246 35.0769 424.05 33.8716 426.035 33.0493C428.021 32.2269 430.148 31.8037 432.297 31.8037Z" fill="#2F2E41"/>
<path d="M433.352 70.8639L452.331 70.041L452.842 71.9802C457.041 87.9327 457.689 104.612 454.741 120.843C454.178 121.373 453.766 122.045 453.548 122.788C453.331 123.53 453.315 124.318 453.504 125.069L453.776 126.156L453.751 126.195C452.856 127.607 452.553 129.315 452.906 130.949L451.957 136.175L421.212 122.593L414.35 98.8396L433.352 70.8639Z" fill="#FDD248"/>
<path d="M386.319 120.927C386.532 121.162 386.723 121.415 386.891 121.684L414.605 103.338L434.404 78.1625C435.65 76.5788 437.449 75.5262 439.44 75.2172C441.431 74.9082 443.465 75.3658 445.132 76.4975C446.799 77.6292 447.975 79.351 448.422 81.3155C448.87 83.28 448.555 85.3411 447.543 87.083C444.262 92.7281 440.121 97.827 435.269 102.196L419.251 116.618L385.502 128.777C384.676 129.37 383.696 129.711 382.68 129.76C381.664 129.809 380.656 129.564 379.776 129.053C378.897 128.542 378.184 127.788 377.723 126.882C377.262 125.975 377.072 124.955 377.177 123.943C377.283 122.932 377.678 121.972 378.316 121.18C378.954 120.388 379.807 119.797 380.772 119.478C381.738 119.16 382.776 119.127 383.759 119.384C384.743 119.641 385.632 120.177 386.319 120.927L386.319 120.927Z" fill="#9E616A"/>
<path d="M401.687 237.63C401.194 236.33 401.013 234.932 401.157 233.549C401.3 232.166 401.766 230.836 402.516 229.666L415.934 160.069L421.212 133.677H452.883C452.883 133.677 472.677 155.582 468.454 183.558L469.636 222.956C470.757 225.659 471.034 228.637 470.43 231.5L469.959 233.729L470.141 234.064C471.005 235.663 471.469 237.448 471.494 239.265C471.518 241.083 471.103 242.879 470.282 244.501L471.621 289.127L462.12 288.599L448.132 236.606L438.895 189.892L423.323 226.049L422.796 234.495L423.052 241.939L435.2 285.432L424.907 289.391L401.687 237.63Z" fill="#002B53"/>
<path d="M349.334 129.909C349.733 128.93 350.503 128.149 351.477 127.738C352.45 127.326 353.547 127.318 354.527 127.714L368.321 133.306C369.299 133.704 370.079 134.475 370.489 135.448C370.9 136.421 370.907 137.518 370.51 138.497C370.113 139.475 369.344 140.256 368.371 140.668C367.399 141.08 366.302 141.09 365.323 140.694L351.529 135.102C350.551 134.703 349.771 133.932 349.36 132.959C348.948 131.986 348.939 130.889 349.334 129.909ZM351.928 134.114L365.721 139.711C366.44 140.001 367.245 139.995 367.959 139.692C368.673 139.39 369.237 138.817 369.529 138.099C369.82 137.38 369.815 136.576 369.514 135.861C369.212 135.147 368.64 134.582 367.922 134.289L354.129 128.697C353.41 128.405 352.606 128.411 351.891 128.712C351.177 129.014 350.612 129.587 350.32 130.305C350.028 131.023 350.034 131.828 350.335 132.542C350.637 133.257 351.21 133.822 351.928 134.114Z" fill="#002B53"/>
<path d="M324.634 105.012V125.854C324.985 125.943 325.339 126.014 325.697 126.066C327.831 126.366 330.006 126.016 331.938 125.063C333.871 124.11 335.472 122.597 336.534 120.722C337.595 118.847 338.068 116.696 337.891 114.548C337.714 112.401 336.895 110.356 335.541 108.68C335.419 108.526 335.291 108.377 335.153 108.233C335.026 108.085 334.887 107.941 334.744 107.803C333.568 106.641 332.141 105.765 330.571 105.245C329.002 104.725 327.334 104.575 325.697 104.805C325.339 104.853 324.984 104.922 324.634 105.012Z" fill="white"/>
<path d="M325.697 68.7512V121.803C325.341 121.687 324.985 121.575 324.634 121.469V69.2349C324.99 69.0701 325.341 68.9106 325.697 68.7512ZM325.697 68.7512V121.803C325.341 121.687 324.985 121.575 324.634 121.469V69.2349C324.99 69.0701 325.341 68.9106 325.697 68.7512ZM325.697 68.7512V121.803C325.341 121.687 324.985 121.575 324.634 121.469V69.2349C324.99 69.0701 325.341 68.9106 325.697 68.7512ZM325.697 72.626V133.758C325.341 133.673 324.985 133.593 324.634 133.513V72.929C324.99 72.8227 325.346 72.7217 325.697 72.626V72.626ZM325.697 72.626V133.758C325.341 133.673 324.985 133.593 324.634 133.513V72.929C324.99 72.8227 325.346 72.7217 325.697 72.626V72.626ZM325.697 72.626V133.758C325.341 133.673 324.985 133.593 324.634 133.513V72.929C324.99 72.8227 325.346 72.7217 325.697 72.626V72.626ZM325.697 72.626V133.758C325.341 133.673 324.985 133.593 324.634 133.513V72.929C324.99 72.8227 325.346 72.7217 325.697 72.626V72.626ZM325.697 72.626V134.31C325.341 134.225 324.99 134.14 324.634 134.061V72.929C324.99 72.8227 325.346 72.7217 325.697 72.626V72.626ZM93.816 22.3643H314.663C317.588 22.3691 320.391 23.5332 322.46 25.6016C324.528 27.6699 325.692 30.4738 325.697 33.3989V197.372C325.692 200.296 324.528 203.099 322.459 205.167C320.391 207.234 317.587 208.397 314.663 208.401H93.816C90.8919 208.397 88.0886 207.234 86.021 205.166C83.9534 203.099 82.7902 200.296 82.7867 197.372V33.3989C82.7891 30.474 83.9518 27.6695 86.0195 25.6008C88.0872 23.5321 90.8911 22.3681 93.816 22.3643V22.3643ZM83.8497 197.372C83.8525 200.014 84.9034 202.547 86.7718 204.416C88.6403 206.284 91.1736 207.335 93.816 207.338H314.663C317.305 207.335 319.84 206.285 321.709 204.416C323.578 202.548 324.63 200.014 324.634 197.372V33.3989C324.63 30.7555 323.578 28.2215 321.709 26.3523C319.84 24.4831 317.306 23.4313 314.663 23.4273H93.816C91.1728 23.4304 88.6388 24.4821 86.7703 26.3516C84.9017 28.2211 83.8514 30.7557 83.8497 33.3989V197.372ZM325.697 72.626V133.221C325.341 133.136 324.99 133.051 324.634 132.966V72.929C324.99 72.8227 325.346 72.7217 325.697 72.626V72.626ZM325.697 72.626V133.758C325.341 133.673 324.985 133.593 324.634 133.513V72.929C324.99 72.8227 325.346 72.7217 325.697 72.626V72.626ZM325.697 72.626V133.758C325.341 133.673 324.985 133.593 324.634 133.513V72.929C324.99 72.8227 325.346 72.7217 325.697 72.626V72.626ZM325.697 72.626V133.758C325.341 133.673 324.985 133.593 324.634 133.513V72.929C324.99 72.8227 325.346 72.7217 325.697 72.626V72.626ZM325.697 68.7512V121.803C325.341 121.687 324.985 121.575 324.634 121.469V69.2349C324.99 69.0701 325.341 68.9106 325.697 68.7512ZM325.697 68.7512V121.803C325.341 121.687 324.985 121.575 324.634 121.469V69.2349C324.99 69.0701 325.341 68.9106 325.697 68.7512Z" fill="#2F2E41"/>
</svg>
