<svg width="80" height="80" viewBox="0 0 80 80" fill="none" xmlns="http://www.w3.org/2000/svg">
<circle cx="40" cy="40" r="40" fill="#2F89CE" fill-opacity="0.1"/>
<ellipse cx="40.1063" cy="40.1073" rx="31.5282" ry="31.5281" fill="#2F89CE" fill-opacity="0.2"/>
<circle cx="40" cy="40" r="20" fill="#2F89CE"/>
<path d="M29.3507 40.3741L33.9488 42.0886L35.7413 47.8557C35.8192 48.2454 36.2868 48.3233 36.5985 48.0895L39.1703 45.9853C39.4041 45.7515 39.7938 45.7515 40.1055 45.9853L44.7036 49.3364C45.0154 49.5702 45.483 49.4144 45.5609 49.0247L48.99 32.6587C49.0679 32.269 48.6782 31.8793 48.2886 32.0352L29.3507 39.3609C28.8831 39.5168 28.8831 40.2182 29.3507 40.3741ZM35.5075 41.2313L44.5477 35.6981C44.7036 35.6201 44.8595 35.8539 44.7036 35.9319L37.2999 42.868C37.0661 43.1018 36.8323 43.4135 36.8323 43.8032L36.5985 45.6736C36.5985 45.9074 36.2089 45.9853 36.1309 45.6736L35.1957 42.2445C34.9619 41.8548 35.1178 41.3872 35.5075 41.2313Z" fill="white"/>
</svg>
