<svg width="80" height="80" viewBox="0 0 80 80" fill="none" xmlns="http://www.w3.org/2000/svg">
<circle cx="40" cy="40" r="40" fill="#F40000" fill-opacity="0.1"/>
<ellipse cx="40.1063" cy="40.1073" rx="31.5282" ry="31.5281" fill="#F40000" fill-opacity="0.2"/>
<circle cx="40" cy="40" r="20" fill="#F40000"/>
<path d="M48.7131 38.9131C48.7131 38.5252 48.6485 38.0727 48.6485 37.5556C48.5839 37.0384 48.5192 36.5212 48.4545 36.0687C48.3253 35.5515 48.1313 35.1636 47.7434 34.8404C47.4202 34.5172 46.9677 34.3232 46.5152 34.2586C45.0283 34.0646 42.8303 34 39.8566 34C36.8828 34 34.6202 34.0646 33.198 34.2586C32.7455 34.3232 32.2929 34.5172 31.9697 34.8404C31.6465 35.1636 31.3879 35.5515 31.2586 36.0687C31.1293 36.5212 31.0647 36.9737 31.0647 37.5556C31 38.0727 31 38.5252 31 38.9131C31 39.301 31 39.7535 31 40.4C31 41.0465 31 41.5636 31 41.8869C31 42.2747 31.0647 42.7273 31.0647 43.2444C31.1293 43.7616 31.1939 44.2788 31.2586 44.7313C31.3879 45.2485 31.5818 45.6364 31.9697 45.9596C32.2929 46.2828 32.7455 46.4768 33.198 46.5414C34.6848 46.7354 36.8828 46.8 39.8566 46.8C42.8303 46.8 45.0929 46.7354 46.5152 46.5414C46.9677 46.4768 47.4202 46.2828 47.7434 45.9596C48.0667 45.6364 48.3253 45.2485 48.4545 44.7313C48.5838 44.2788 48.6485 43.8263 48.6485 43.2444C48.7131 42.7273 48.7131 42.2747 48.7131 41.8869C48.7131 41.499 48.7131 41.0465 48.7131 40.4C48.7131 39.7535 48.7131 39.2364 48.7131 38.9131ZM43.2828 40.9172L38.1758 44.0848C38.1111 44.1495 37.9818 44.2141 37.8525 44.2141C37.7232 44.2141 37.6586 44.2141 37.5293 44.1495C37.3354 44.0202 37.2061 43.8263 37.2061 43.5677V37.1677C37.2061 36.9091 37.3354 36.7152 37.5293 36.5859C37.7232 36.4566 37.9818 36.4566 38.1758 36.5859L43.2828 39.7535C43.4768 39.8828 43.6061 40.0768 43.6061 40.2707C43.6061 40.4646 43.4768 40.7879 43.2828 40.9172Z" fill="white"/>
</svg>
