<svg width="23" height="24" viewBox="0 0 23 24" fill="none" xmlns="http://www.w3.org/2000/svg">
<path d="M11.4761 0.425598C5.21592 0.425598 0.141113 5.50041 0.141113 11.7606C0.141113 18.0208 5.21592 23.0956 11.4761 23.0956C17.7363 23.0956 22.8111 18.0208 22.8111 11.7606C22.8111 5.50041 17.7363 0.425598 11.4761 0.425598Z" fill="white"/>
<path d="M8.17531 10.404L11.4773 7.10201L14.7809 10.4055L16.7022 8.48418L11.4773 3.25945L6.25416 8.48262L8.17538 10.4039L8.17531 10.404ZM2.97607 11.7607L4.89743 9.83908L6.81864 11.7603L4.89729 13.6816L2.97607 11.7607ZM8.17531 13.1176L11.4773 16.4194L14.7809 13.116L16.7032 15.0363L16.7022 15.0373L11.4773 20.262L6.25416 15.0388L6.25144 15.0361L8.17551 13.1174L8.17531 13.1176ZM16.136 11.7615L18.0574 9.84017L19.9786 11.7614L18.0573 13.6827L16.136 11.7615Z" fill="#F3BA2F"/>
<path d="M13.4261 11.7602H13.4269L11.4775 9.81061L10.0365 11.2511L9.87099 11.4167L9.52958 11.7582L9.52686 11.7609L9.52958 11.7637L11.4775 13.7118L13.427 11.7622L13.428 11.7611L13.4262 11.7602" fill="#F3BA2F"/>
</svg>
