<svg width="56" height="28" viewBox="0 0 56 28" fill="none" xmlns="http://www.w3.org/2000/svg">
<rect y="25.2" width="22.4" height="51.8" rx="11.2" transform="rotate(-90 0 25.2)" fill="#F1F2FF"/>
<path d="M13.853 17.2002C15.6184 17.2002 17.0545 15.7641 17.0545 13.9987C17.0545 12.2333 15.6184 10.7972 13.853 10.7972C12.0876 10.7972 10.6515 12.2333 10.6515 13.9987C10.6515 15.7641 12.0876 17.2002 13.853 17.2002ZM18.3288 14.6394V13.3606H20.247V14.6394H18.3288ZM7.45898 14.6394V13.3606H9.37719L9.37719 14.6394H7.45898ZM13.2136 20.394V18.4758H14.4924V20.394H13.2136ZM13.2136 9.52419V7.60598H14.4924V9.52419H13.2136Z" fill="#0D0F2E"/>
<path d="M18.8263 18.0685L17.9222 18.9727L16.566 17.6165L17.4701 16.7124L18.8263 18.0685Z" fill="#0D0F2E"/>
<path d="M10.2366 11.2877L8.87974 9.93085L9.78385 9.02674L11.1407 10.3836L10.2366 11.2877Z" fill="#0D0F2E"/>
<path d="M11.1413 17.6165L9.78449 18.9727L8.88038 18.0679L10.2372 16.7124L11.1413 17.6165Z" fill="#0D0F2E"/>
<path d="M17.9222 9.02674L18.8263 9.93085L17.4695 11.2877L16.5654 10.3836L17.9222 9.02674Z" fill="#0D0F2E"/>
<path d="M42 0C49.732 0 56 6.26801 56 14C56 21.732 49.732 28 42 28C34.268 28 28 21.732 28 14C28 6.26801 34.268 0 42 0Z" fill="url(#paint0_linear)"/>
<defs>
<linearGradient id="paint0_linear" x1="42" y1="42" x2="70" y2="14" gradientUnits="userSpaceOnUse">
<stop stop-color="#001B36"/>
<stop offset="1" stop-color="#08447C"/>
</linearGradient>
</defs>
</svg>
