<svg width="54" height="28" viewBox="0 0 54 28" fill="none" xmlns="http://www.w3.org/2000/svg">
<rect x="-1" y="-1" width="20.4" height="49.8" rx="10.2" transform="matrix(0 -1 -1 0 51.8008 23)" fill="white" stroke="#0D1030" stroke-width="2"/>
<path d="M14 0C21.732 0 28 6.26801 28 14C28 21.732 21.732 28 14 28C6.26801 28 0 21.732 0 14C0 6.26801 6.26801 0 14 0Z" fill="url(#paint0_linear)"/>
<path d="M44.7371 8.5257C44.7245 9.67655 44.351 10.7923 43.6724 11.7063C42.9938 12.6202 42.0465 13.2833 40.9721 13.5965C39.8977 13.9096 38.7538 13.856 37.7114 13.4437C36.669 13.0314 35.784 12.2825 35.1886 11.3088C35.0645 11.8008 35.0011 12.3069 35 12.8153C35 14.4556 35.6321 16.0287 36.7574 17.1885C37.8826 18.3484 39.4087 19 41 19C42.5913 19 44.1174 18.3484 45.2426 17.1885C46.3679 16.0287 47 14.4556 47 12.8153C46.9992 11.886 46.7926 10.9693 46.396 10.1348C45.9994 9.30032 45.4232 8.57018 44.7114 8C44.7286 8.17467 44.7372 8.35013 44.7371 8.5257Z" fill="black"/>
<defs>
<linearGradient id="paint0_linear" x1="14" y1="42" x2="42" y2="14" gradientUnits="userSpaceOnUse">
<stop stop-color="#001B36"/>
<stop offset="1" stop-color="#08447C"/>
</linearGradient>
</defs>
</svg>
