<svg width="57" height="57" viewBox="0 0 57 57" fill="none" xmlns="http://www.w3.org/2000/svg">
<g filter="url(#filter0_dd)">
<rect x="4.7793" y="0.385925" width="42.3222" height="39.1579" rx="7.45865" fill="#D2B770"/>
</g>
<path fill-rule="evenodd" clip-rule="evenodd" d="M27.8947 13.2981V10.9823H23.2632V13.2981H27.8947ZM16.3158 15.6139V28.3507H34.8421V15.6139H16.3158ZM34.8421 13.2981C36.1274 13.2981 37.1579 14.3286 37.1579 15.6139V28.3507C37.1579 29.636 36.1274 30.6665 34.8421 30.6665H16.3158C15.0305 30.6665 14 29.636 14 28.3507L14.0116 15.6139C14.0116 14.3286 15.0305 13.2981 16.3158 13.2981H20.9474V10.9823C20.9474 9.69703 21.9779 8.6665 23.2632 8.6665H27.8947C29.18 8.6665 30.2105 9.69703 30.2105 10.9823V13.2981H34.8421Z" fill="white"/>
<defs>
<filter id="filter0_dd" x="-4.54402" y="-1.47874" width="60.9688" height="57.8046" filterUnits="userSpaceOnUse" color-interpolation-filters="sRGB">
<feFlood flood-opacity="0" result="BackgroundImageFix"/>
<feColorMatrix in="SourceAlpha" type="matrix" values="0 0 0 0 0 0 0 0 0 0 0 0 0 0 0 0 0 0 127 0" result="hardAlpha"/>
<feMorphology radius="1.86466" operator="erode" in="SourceAlpha" result="effect1_dropShadow"/>
<feOffset dy="3.72933"/>
<feGaussianBlur stdDeviation="3.72933"/>
<feColorMatrix type="matrix" values="0 0 0 0 0 0 0 0 0 0 0 0 0 0 0 0 0 0 0.07 0"/>
<feBlend mode="normal" in2="BackgroundImageFix" result="effect1_dropShadow"/>
<feColorMatrix in="SourceAlpha" type="matrix" values="0 0 0 0 0 0 0 0 0 0 0 0 0 0 0 0 0 0 127 0" result="hardAlpha"/>
<feMorphology radius="1.86466" operator="erode" in="SourceAlpha" result="effect2_dropShadow"/>
<feOffset dy="7.45865"/>
<feGaussianBlur stdDeviation="5.59399"/>
<feColorMatrix type="matrix" values="0 0 0 0 0 0 0 0 0 0 0 0 0 0 0 0 0 0 0.12 0"/>
<feBlend mode="normal" in2="effect1_dropShadow" result="effect2_dropShadow"/>
<feBlend mode="normal" in="SourceGraphic" in2="effect2_dropShadow" result="shape"/>
</filter>
</defs>
</svg>
