<svg width="28" height="28" viewBox="0 0 28 28" fill="none" xmlns="http://www.w3.org/2000/svg">
<path d="M14.0128 0.713196C6.72702 0.713196 0.813965 6.69665 0.813965 14.0691C0.813965 21.4416 6.72702 27.425 14.0128 27.425C21.2985 27.425 27.2115 21.4416 27.2115 14.0691C27.2115 6.69665 21.2985 0.713196 14.0128 0.713196ZM19.0151 13.6818L14.9499 17.7954C14.4351 18.3163 13.6036 18.3163 13.0756 17.7954L9.01041 13.6818C8.49566 13.1609 8.49566 12.3061 9.01041 11.7853C9.13252 11.6614 9.27756 11.5632 9.43723 11.4962C9.5969 11.4292 9.76807 11.3947 9.94093 11.3947C10.1138 11.3947 10.285 11.4292 10.4446 11.4962C10.6043 11.5632 10.7493 11.6614 10.8714 11.7853L14.0128 14.964L17.1541 11.7853C17.2762 11.6614 17.4212 11.5632 17.5809 11.4962C17.7406 11.4292 17.9117 11.3947 18.0846 11.3947C18.2574 11.3947 18.4286 11.4292 18.5883 11.4962C18.7479 11.5632 18.893 11.6614 19.0151 11.7853C19.5299 12.3061 19.5299 13.1609 19.0151 13.6818Z" fill="#8095A9"/>
</svg>
