<svg width="29" height="28" viewBox="0 0 29 28" fill="none" xmlns="http://www.w3.org/2000/svg">
<path d="M14.4576 27.2952C6.95379 27.2952 0.86377 21.3121 0.86377 13.9402C0.86377 6.56821 6.95379 0.585167 14.4576 0.585167C21.9613 0.585167 28.0514 6.56821 28.0514 13.9402C28.0514 21.3121 21.9613 27.2952 14.4576 27.2952ZM19.6096 14.3275L15.4227 10.2141C14.8926 9.69328 14.0362 9.69328 13.4924 10.2141L9.30552 14.3275C8.77536 14.8483 8.77536 15.703 9.30552 16.2239C9.43128 16.3477 9.58066 16.4459 9.74511 16.5129C9.90956 16.5799 10.0858 16.6144 10.2639 16.6144C10.4419 16.6144 10.6182 16.5799 10.7827 16.5129C10.9471 16.4459 11.0965 16.3477 11.2222 16.2239L14.4576 13.0454L17.6929 16.2239C17.8186 16.3477 17.968 16.4459 18.1325 16.5129C18.2969 16.5799 18.4732 16.6144 18.6513 16.6144C18.8293 16.6144 19.0056 16.5799 19.17 16.5129C19.3345 16.4459 19.4839 16.3477 19.6096 16.2239C20.1398 15.703 20.1398 14.8483 19.6096 14.3275Z" fill="#F0B90B"/>
</svg>
