<svg width="99" height="92" viewBox="0 0 99 92" fill="none" xmlns="http://www.w3.org/2000/svg">
<g filter="url(#filter0_dd)">
<rect x="5.39453" y="1.3772" width="89.0407" height="82.3836" rx="7.30218" fill="url(#paint0_linear)"/>
</g>
<path d="M37.1712 36.7705L50.5042 23.4375L63.8434 36.7763L71.6012 29.0185L50.5042 7.92188L29.414 29.0121L37.1715 36.77L37.1712 36.7705ZM16.1777 42.2485L23.9358 34.4893L31.6933 42.2468L23.9352 50.0049L16.1777 42.2485ZM37.1712 47.7273L50.5042 61.0595L63.8432 47.721L71.6051 55.4747L71.6012 55.4788L50.5042 76.5751L29.414 55.4848L29.403 55.4738L37.1721 47.7265L37.1712 47.7273ZM69.3151 42.2518L77.0731 34.4937L84.8306 42.2512L77.0729 50.0093L69.3151 42.2518Z" fill="#F3BA2F"/>
<path d="M58.3732 42.2449H58.3765L50.505 34.3728L44.6868 40.1894L44.0184 40.8581L42.6399 42.2369L42.6289 42.2476L42.6399 42.2589L50.505 50.1252L58.3771 42.2531L58.3809 42.2487L58.3738 42.2449" fill="#F3BA2F"/>
<defs>
<filter id="filter0_dd" x="0.830671" y="0.464425" width="98.1685" height="91.5113" filterUnits="userSpaceOnUse" color-interpolation-filters="sRGB">
<feFlood flood-opacity="0" result="BackgroundImageFix"/>
<feColorMatrix in="SourceAlpha" type="matrix" values="0 0 0 0 0 0 0 0 0 0 0 0 0 0 0 0 0 0 127 0" result="hardAlpha"/>
<feMorphology radius="0.912772" operator="erode" in="SourceAlpha" result="effect1_dropShadow"/>
<feOffset dy="1.82554"/>
<feGaussianBlur stdDeviation="1.82554"/>
<feColorMatrix type="matrix" values="0 0 0 0 0 0 0 0 0 0 0 0 0 0 0 0 0 0 0.07 0"/>
<feBlend mode="normal" in2="BackgroundImageFix" result="effect1_dropShadow"/>
<feColorMatrix in="SourceAlpha" type="matrix" values="0 0 0 0 0 0 0 0 0 0 0 0 0 0 0 0 0 0 127 0" result="hardAlpha"/>
<feMorphology radius="0.912772" operator="erode" in="SourceAlpha" result="effect2_dropShadow"/>
<feOffset dy="3.65109"/>
<feGaussianBlur stdDeviation="2.73832"/>
<feColorMatrix type="matrix" values="0 0 0 0 0 0 0 0 0 0 0 0 0 0 0 0 0 0 0.12 0"/>
<feBlend mode="normal" in2="effect1_dropShadow" result="effect2_dropShadow"/>
<feBlend mode="normal" in="SourceGraphic" in2="effect2_dropShadow" result="shape"/>
</filter>
<linearGradient id="paint0_linear" x1="-39.1258" y1="42.569" x2="43.0096" y2="131.342" gradientUnits="userSpaceOnUse">
<stop stop-color="#001B36"/>
<stop offset="1" stop-color="#08447C"/>
</linearGradient>
</defs>
</svg>
