<svg width="23" height="24" viewBox="0 0 23 24" fill="none" xmlns="http://www.w3.org/2000/svg">
<path d="M11.4761 0.521484C5.21592 0.521484 0.141113 5.59629 0.141113 11.8565C0.141113 18.1167 5.21592 23.1915 11.4761 23.1915C17.7363 23.1915 22.8111 18.1167 22.8111 11.8565C22.8111 5.59629 17.7363 0.521484 11.4761 0.521484Z" fill="white"/>
<g clip-path="url(#clip0)">
<path d="M11.4475 2.44992L13.771 4.82944L7.92021 10.6803L5.59668 8.35672L11.4475 2.44992Z" fill="#F0B90B" stroke="#F0B90B" stroke-width="0.755667"/>
<path d="M14.9748 5.97722L17.2983 8.35674L7.92021 17.7348L5.59668 15.4113L14.9748 5.97722Z" fill="#F0B90B" stroke="#F0B90B" stroke-width="0.755667"/>
<path d="M4.39286 9.50475L6.71639 11.8843L4.39286 14.2078L2.06934 11.8843L4.39286 9.50475Z" fill="#F0B90B" stroke="#F0B90B" stroke-width="0.755667"/>
<path d="M18.5026 9.50475L20.8261 11.8843L11.448 21.2624L9.12451 18.9388L18.5026 9.50475Z" fill="#F0B90B" stroke="#F0B90B" stroke-width="0.755667"/>
</g>
<defs>
<clipPath id="clip0">
<rect width="18.8351" height="18.8917" fill="white" transform="translate(2.03027 2.41045)"/>
</clipPath>
</defs>
</svg>
