<svg width="28" height="28" viewBox="0 0 28 28" fill="none" xmlns="http://www.w3.org/2000/svg">
<path d="M5.06898 11.8126C5.40969 12.1538 5.96531 12.1538 6.30602 11.8126L7.4375 10.6811C7.77875 10.3404 7.77875 9.78477 7.4375 9.44406L6.30602 8.31258H21.875C23.3226 8.31258 24.5 9.49 24.5 10.9376C24.5 11.6611 25.089 12.2501 25.8125 12.2501H26.6875C27.411 12.2501 28 11.6611 28 10.9376C28 7.56008 25.2525 4.81258 21.875 4.81258H6.30602L7.4375 3.68109C7.77875 3.34039 7.77875 2.78477 7.4375 2.44406L6.30602 1.31258C5.96531 0.971328 5.40969 0.971328 5.06898 1.31258L0.127969 6.25305C-0.0426563 6.42422 -0.0426563 6.70094 0.127969 6.87211L5.06898 11.8126Z" fill="#8095A9"/>
<path d="M22.931 16.1875C22.5903 15.8463 22.0352 15.8463 21.694 16.1875L20.5625 17.319C20.2206 17.6609 20.22 18.2136 20.5625 18.556L21.694 19.6875H6.125C4.67742 19.6875 3.5 18.5101 3.5 17.0625C3.5 16.339 2.91102 15.75 2.1875 15.75H1.3125C0.588984 15.75 0 16.339 0 17.0625C0 20.44 2.7475 23.1875 6.125 23.1875H21.694L20.5625 24.319C20.2206 24.6609 20.22 25.2136 20.5625 25.556L21.694 26.6875C22.0353 27.0288 22.5898 27.0288 22.931 26.6875L27.872 21.747C28.0427 21.5759 28.0427 21.2991 27.872 21.128L22.931 16.1875Z" fill="#8095A9"/>
</svg>
