<svg width="57" height="57" viewBox="0 0 57 57" fill="none" xmlns="http://www.w3.org/2000/svg">
<g filter="url(#filter0_dd)">
<rect x="4.41602" y="0.385742" width="42.3222" height="39.1579" rx="7.45865" fill="url(#paint0_linear)"/>
</g>
<g clip-path="url(#clip0)">
<path d="M26.4032 7.6889L29.2556 11.9675H27.8294V14.8199H24.977V11.9675H23.5508L26.4032 7.6889Z" fill="white"/>
<path d="M36.3853 17.6718V29.0814H16.4184V17.6718H36.3853ZM37.8115 16.2455H14.9922V30.5076H37.8115V16.2455Z" fill="white"/>
<path d="M26.4023 19.0978C26.9642 19.0978 27.5206 19.2085 28.0397 19.4235C28.5588 19.6386 29.0305 19.9537 29.4278 20.351C29.8251 20.7483 30.1403 21.22 30.3553 21.7391C30.5703 22.2582 30.681 22.8146 30.681 23.3765C30.681 23.9383 30.5703 24.4947 30.3553 25.0138C30.1403 25.5329 29.8251 26.0046 29.4278 26.4019C29.0305 26.7992 28.5588 27.1144 28.0397 27.3294C27.5206 27.5444 26.9642 27.6551 26.4023 27.6551H33.5334V26.2289H34.9596V20.524H33.5334V19.0978H26.4023Z" fill="white"/>
<path d="M22.1243 23.3765C22.1243 22.2417 22.5751 21.1534 23.3775 20.351C24.1799 19.5486 25.2682 19.0978 26.4029 19.0978H19.2719V20.524H17.8457V26.2289H19.2719V27.6551H26.4029C25.2682 27.6551 24.1799 27.2043 23.3775 26.4019C22.5751 25.5995 22.1243 24.5112 22.1243 23.3765Z" fill="white"/>
</g>
<defs>
<filter id="filter0_dd" x="-4.9073" y="-1.47892" width="60.9688" height="57.8046" filterUnits="userSpaceOnUse" color-interpolation-filters="sRGB">
<feFlood flood-opacity="0" result="BackgroundImageFix"/>
<feColorMatrix in="SourceAlpha" type="matrix" values="0 0 0 0 0 0 0 0 0 0 0 0 0 0 0 0 0 0 127 0" result="hardAlpha"/>
<feMorphology radius="1.86466" operator="erode" in="SourceAlpha" result="effect1_dropShadow"/>
<feOffset dy="3.72933"/>
<feGaussianBlur stdDeviation="3.72933"/>
<feColorMatrix type="matrix" values="0 0 0 0 0 0 0 0 0 0 0 0 0 0 0 0 0 0 0.07 0"/>
<feBlend mode="normal" in2="BackgroundImageFix" result="effect1_dropShadow"/>
<feColorMatrix in="SourceAlpha" type="matrix" values="0 0 0 0 0 0 0 0 0 0 0 0 0 0 0 0 0 0 127 0" result="hardAlpha"/>
<feMorphology radius="1.86466" operator="erode" in="SourceAlpha" result="effect2_dropShadow"/>
<feOffset dy="7.45865"/>
<feGaussianBlur stdDeviation="5.59399"/>
<feColorMatrix type="matrix" values="0 0 0 0 0 0 0 0 0 0 0 0 0 0 0 0 0 0 0.12 0"/>
<feBlend mode="normal" in2="effect1_dropShadow" result="effect2_dropShadow"/>
<feBlend mode="normal" in="SourceGraphic" in2="effect2_dropShadow" result="shape"/>
</filter>
<linearGradient id="paint0_linear" x1="-16.7451" y1="19.9647" x2="22.2949" y2="62.1594" gradientUnits="userSpaceOnUse">
<stop stop-color="#82D616"/>
<stop offset="0.878847" stop-color="#07549B"/>
</linearGradient>
<clipPath id="clip0">
<rect width="22.8193" height="22.8193" fill="white" transform="translate(14.9922 7.68884)"/>
</clipPath>
</defs>
</svg>
