<svg width="65" height="61" viewBox="0 0 65 61" fill="none" xmlns="http://www.w3.org/2000/svg">
<g filter="url(#filter0_dd)">
<rect x="4.94141" y="1.72363" width="55.8919" height="51.5448" rx="6.46743" fill="url(#paint0_linear)"/>
</g>
<path d="M29.8181 16.9055C28.3051 16.9055 26.854 17.5066 25.7842 18.5764C24.7143 19.6463 24.1133 21.0973 24.1133 22.6103C24.1133 24.1234 24.7143 25.5744 25.7842 26.6443C26.854 27.7141 28.3051 28.3152 29.8181 28.3152C31.3311 28.3152 32.7822 27.7141 33.852 26.6443C34.9219 25.5744 35.5229 24.1234 35.5229 22.6103C35.5229 21.0973 34.9219 19.6463 33.852 18.5764C32.7822 17.5066 31.3311 16.9055 29.8181 16.9055ZM26.3952 22.6103C26.3952 21.7025 26.7558 20.8319 27.3978 20.19C28.0397 19.5481 28.9103 19.1874 29.8181 19.1874C30.7259 19.1874 31.5965 19.5481 32.2385 20.19C32.8804 20.8319 33.241 21.7025 33.241 22.6103C33.241 23.5182 32.8804 24.3888 32.2385 25.0307C31.5965 25.6726 30.7259 26.0332 29.8181 26.0332C28.9103 26.0332 28.0397 25.6726 27.3978 25.0307C26.7558 24.3888 26.3952 23.5182 26.3952 22.6103Z" fill="white"/>
<path d="M38.8385 22.859C38.5177 22.6955 38.1627 22.6103 37.8025 22.6103V20.3284C38.5231 20.3284 39.2334 20.4991 39.8753 20.8264C40.5172 21.1537 41.0725 21.6283 41.4958 22.2114C41.919 22.7946 42.1982 23.4696 42.3104 24.1814C42.4226 24.8931 42.3647 25.6214 42.1415 26.3064C41.9182 26.9915 41.5359 27.614 41.0258 28.1229C40.5157 28.6319 39.8924 29.0128 39.2068 29.2346C38.5213 29.4563 37.7929 29.5126 37.0814 29.3988C36.3699 29.285 35.6955 29.0044 35.1133 28.5798L36.4573 26.736C36.7118 26.9212 37.0018 27.0518 37.3092 27.1195C37.6165 27.1872 37.9345 27.1906 38.2433 27.1295C38.552 27.0684 38.8448 26.9441 39.1031 26.7644C39.3615 26.5847 39.5799 26.3534 39.7446 26.0853C39.9093 25.8171 40.0168 25.5177 40.0602 25.206C40.1037 24.8943 40.0822 24.577 39.9971 24.274C39.912 23.971 39.7651 23.6889 39.5657 23.4454C39.3664 23.2019 39.1188 23.0022 38.8385 22.859Z" fill="white"/>
<path d="M42.3663 37.443C42.366 36.2332 41.8853 35.0732 41.0299 34.2178C40.1745 33.3624 39.0144 32.8817 37.8047 32.8814V30.5972C39.6202 30.5975 41.3613 31.3188 42.6451 32.6026C43.9288 33.8864 44.6502 35.6274 44.6505 37.443H42.3663Z" fill="white"/>
<path d="M37.8036 37.4433H35.5217C35.5217 35.9303 34.9206 34.4792 33.8508 33.4094C32.7809 32.3395 31.3298 31.7385 29.8168 31.7385C28.3038 31.7385 26.8528 32.3395 25.7829 33.4094C24.7131 34.4792 24.112 35.9303 24.112 37.4433H21.8301C21.8301 35.3251 22.6715 33.2936 24.1693 31.7958C25.6672 30.298 27.6986 29.4565 29.8168 29.4565C31.9351 29.4565 33.9665 30.298 35.4643 31.7958C36.9621 33.2936 37.8036 35.3251 37.8036 37.4433Z" fill="white"/>
<defs>
<filter id="filter0_dd" x="0.899261" y="0.915204" width="63.9762" height="59.6291" filterUnits="userSpaceOnUse" color-interpolation-filters="sRGB">
<feFlood flood-opacity="0" result="BackgroundImageFix"/>
<feColorMatrix in="SourceAlpha" type="matrix" values="0 0 0 0 0 0 0 0 0 0 0 0 0 0 0 0 0 0 127 0" result="hardAlpha"/>
<feMorphology radius="0.808429" operator="erode" in="SourceAlpha" result="effect1_dropShadow"/>
<feOffset dy="1.61686"/>
<feGaussianBlur stdDeviation="1.61686"/>
<feColorMatrix type="matrix" values="0 0 0 0 0 0 0 0 0 0 0 0 0 0 0 0 0 0 0.07 0"/>
<feBlend mode="normal" in2="BackgroundImageFix" result="effect1_dropShadow"/>
<feColorMatrix in="SourceAlpha" type="matrix" values="0 0 0 0 0 0 0 0 0 0 0 0 0 0 0 0 0 0 127 0" result="hardAlpha"/>
<feMorphology radius="0.808429" operator="erode" in="SourceAlpha" result="effect2_dropShadow"/>
<feOffset dy="3.23372"/>
<feGaussianBlur stdDeviation="2.42529"/>
<feColorMatrix type="matrix" values="0 0 0 0 0 0 0 0 0 0 0 0 0 0 0 0 0 0 0.12 0"/>
<feBlend mode="normal" in2="effect1_dropShadow" result="effect2_dropShadow"/>
<feBlend mode="normal" in="SourceGraphic" in2="effect2_dropShadow" result="shape"/>
</filter>
<linearGradient id="paint0_linear" x1="-23.0046" y1="27.496" x2="28.3717" y2="83.2052" gradientUnits="userSpaceOnUse">
<stop stop-color="#001B36"/>
<stop offset="1" stop-color="#08447C"/>
</linearGradient>
</defs>
</svg>
