<svg width="23" height="24" viewBox="0 0 23 24" fill="none" xmlns="http://www.w3.org/2000/svg">
<path d="M11.4761 0.617126C5.21592 0.617126 0.141113 5.69194 0.141113 11.9521C0.141113 18.2123 5.21592 23.2872 11.4761 23.2872C17.7363 23.2872 22.8111 18.2123 22.8111 11.9521C22.8111 5.69194 17.7363 0.617126 11.4761 0.617126Z" fill="white"/>
<g clip-path="url(#clip0)">
<path fill-rule="evenodd" clip-rule="evenodd" d="M4.59081 3.54347L0.631026 11.861C0.615958 11.8919 0.611183 11.9269 0.617399 11.9607C0.623615 11.9946 0.640497 12.0255 0.665575 12.0491L11.36 22.297C11.3904 22.3261 11.4308 22.3424 11.4729 22.3424C11.515 22.3424 11.5555 22.3261 11.5859 22.297L22.2803 12.0498C22.3054 12.0262 22.3223 11.9952 22.3285 11.9614C22.3347 11.9275 22.3299 11.8926 22.3148 11.8616L18.3551 3.54411C18.3423 3.51617 18.3217 3.49251 18.2959 3.47595C18.27 3.45938 18.2399 3.45062 18.2092 3.4507H4.73797C4.70711 3.45031 4.67679 3.45887 4.65068 3.47533C4.62457 3.49179 4.60378 3.51545 4.59081 3.54347Z" fill="#50AF95"/>
<path fill-rule="evenodd" clip-rule="evenodd" d="M12.8465 12.7152C12.7698 12.7209 12.3731 12.7446 11.4882 12.7446C10.7844 12.7446 10.2847 12.7235 10.1094 12.7152C7.38959 12.5955 5.35947 12.1221 5.35947 11.5552C5.35947 10.9883 7.38959 10.5155 10.1094 10.3939V12.2436C10.2873 12.2564 10.7966 12.2865 11.5004 12.2865C12.3449 12.2865 12.7678 12.2513 12.844 12.2443V10.3952C15.558 10.5161 17.5837 10.9896 17.5837 11.5552C17.5837 12.1208 15.5587 12.5942 12.844 12.7145L12.8465 12.7152ZM12.8465 10.2039V8.54871H16.6342V6.02466H6.32174V8.54871H10.1088V10.2033C7.03065 10.3447 4.71582 10.9544 4.71582 11.6851C4.71582 12.4157 7.03065 13.0248 10.1088 13.1669V18.4709H12.8459V13.1649C15.917 13.0235 18.228 12.4144 18.228 11.6844C18.228 10.9544 15.9189 10.3453 12.8459 10.2033L12.8465 10.2039Z" fill="white"/>
</g>
<defs>
<clipPath id="clip0">
<rect width="21.7171" height="18.8917" fill="white" transform="translate(0.614258 3.45087)"/>
</clipPath>
</defs>
</svg>
