<svg width="32" height="23" viewBox="0 0 32 23" fill="none" xmlns="http://www.w3.org/2000/svg">
<path d="M10.8571 0C9.79757 0.00421305 8.7826 0.426993 8.03337 1.17623C7.28414 1.92546 6.86136 2.94043 6.85714 4C6.85714 6.19657 8.66057 8 10.8571 8C13.0537 8 14.8571 6.19657 14.8571 4C14.8571 1.80343 13.0537 0 10.8571 0ZM21.1429 0C20.0833 0.00421305 19.0683 0.426993 18.3191 1.17623C17.5699 1.92546 17.1471 2.94043 17.1429 4C17.1429 6.19657 18.9463 8 21.1429 8C23.3394 8 25.1429 6.19657 25.1429 4C25.1429 1.80343 23.3394 0 21.1429 0ZM10.8571 2.28571C11.8171 2.28571 12.5714 3.04 12.5714 4C12.5714 4.96 11.8171 5.71429 10.8571 5.71429C9.89714 5.71429 9.14286 4.96 9.14286 4C9.14286 3.04 9.89714 2.28571 10.8571 2.28571ZM21.1429 2.28571C22.1029 2.28571 22.8571 3.04 22.8571 4C22.8571 4.96 22.1029 5.71429 21.1429 5.71429C20.1829 5.71429 19.4286 4.96 19.4286 4C19.4286 3.04 20.1829 2.28571 21.1429 2.28571ZM5.71429 6.85714C3.2 6.85714 1.14286 8.91429 1.14286 11.4286C1.14286 12.7006 1.688 13.848 2.536 14.6789C1.75808 15.2038 1.12034 15.911 0.678322 16.7389C0.236308 17.5667 0.0034374 18.4901 0 19.4286H2.28571C2.28571 17.5223 3.808 16 5.71429 16C7.62057 16 9.14286 17.5223 9.14286 19.4286H11.4286C11.4251 18.4901 11.1923 17.5667 10.7502 16.7389C10.3082 15.911 9.67049 15.2038 8.89257 14.6789C9.74057 13.848 10.2857 12.7017 10.2857 11.4286C10.2857 8.91429 8.22857 6.85714 5.71429 6.85714ZM11.4286 19.4286C10.7143 20.384 10.2857 21.5851 10.2857 22.8571H12.5714C12.5714 20.9509 14.0937 19.4286 16 19.4286C17.9063 19.4286 19.4286 20.9509 19.4286 22.8571H21.7143C21.7123 21.6211 21.3115 20.4186 20.5714 19.4286C20.1829 18.9109 19.7143 18.4686 19.1783 18.1074C20.0263 17.2766 20.5714 16.1303 20.5714 14.8571C20.5714 12.3429 18.5143 10.2857 16 10.2857C13.4857 10.2857 11.4286 12.3429 11.4286 14.8571C11.4286 16.1291 11.9737 17.2766 12.8217 18.1074C12.2867 18.4668 11.8158 18.9134 11.4286 19.4286V19.4286ZM20.5714 19.4286H22.8571C22.8571 17.5223 24.3794 16 26.2857 16C28.192 16 29.7143 17.5223 29.7143 19.4286H32C31.9966 18.4901 31.7637 17.5667 31.3217 16.7389C30.8797 15.911 30.2419 15.2038 29.464 14.6789C30.312 13.848 30.8571 12.7017 30.8571 11.4286C30.8571 8.91429 28.8 6.85714 26.2857 6.85714C23.7714 6.85714 21.7143 8.91429 21.7143 11.4286C21.7143 12.7006 22.2594 13.848 23.1074 14.6789C22.3295 15.2038 21.6918 15.911 21.2498 16.7389C20.8077 17.5667 20.5749 18.4901 20.5714 19.4286V19.4286ZM5.71429 9.14286C6.99086 9.14286 8 10.152 8 11.4286C8 12.7051 6.99086 13.7143 5.71429 13.7143C4.43771 13.7143 3.42857 12.7051 3.42857 11.4286C3.42857 10.152 4.43771 9.14286 5.71429 9.14286ZM26.2857 9.14286C27.5623 9.14286 28.5714 10.152 28.5714 11.4286C28.5714 12.7051 27.5623 13.7143 26.2857 13.7143C25.0091 13.7143 24 12.7051 24 11.4286C24 10.152 25.0091 9.14286 26.2857 9.14286ZM16 12.5714C17.2766 12.5714 18.2857 13.5806 18.2857 14.8571C18.2857 16.1337 17.2766 17.1429 16 17.1429C14.7234 17.1429 13.7143 16.1337 13.7143 14.8571C13.7143 13.5806 14.7234 12.5714 16 12.5714Z" fill="#8095A9"/>
</svg>
