<svg width="32" height="31" viewBox="0 0 32 31" fill="none" xmlns="http://www.w3.org/2000/svg">
<path d="M31.3377 14.8334L16.7984 0.330307C16.6937 0.2256 16.5694 0.142531 16.4325 0.0858523C16.2956 0.029174 16.1489 0 16.0007 0C15.8525 0 15.7057 0.029174 15.5688 0.0858523C15.432 0.142531 15.3076 0.2256 15.2029 0.330307L0.663606 14.8334C0.240028 15.2562 0 15.8305 0 16.4295C0 17.6734 1.01306 18.6846 2.25908 18.6846H3.79102V29.0334C3.79102 29.657 4.29579 30.1609 4.92057 30.1609H13.7416V22.2681H17.695V30.1609H27.0808C27.7055 30.1609 28.2103 29.657 28.2103 29.0334V18.6846H29.7422C30.3423 18.6846 30.9177 18.4485 31.3412 18.0222C32.2202 17.1413 32.2202 15.7142 31.3377 14.8334V14.8334Z" fill="#8095A9"/>
</svg>
