<svg width="36" height="35" viewBox="0 0 36 35" fill="none" xmlns="http://www.w3.org/2000/svg">
<path d="M20.8095 12.6667L27.6667 15.7143L34.5238 12.6667V5.04762L27.6667 2L20.8095 5.04762V12.6667ZM10.1429 9.61905C8.5263 9.61905 6.97595 10.2612 5.83287 11.4043C4.68979 12.5474 4.04762 14.0977 4.04762 15.7143C4.04762 17.3308 4.68979 18.8812 5.83287 20.0243C6.97595 21.1673 8.5263 21.8095 10.1429 21.8095C11.7594 21.8095 13.3098 21.1673 14.4528 20.0243C15.5959 18.8812 16.2381 17.3308 16.2381 15.7143C16.2381 14.0977 15.5959 12.5474 14.4528 11.4043C13.3098 10.2612 11.7594 9.61905 10.1429 9.61905V9.61905ZM1 34V30.9524C1 24.8571 4.80952 21.8095 10.1429 21.8095C15.4762 21.8095 19.2857 24.8571 19.2857 30.9524V34H1ZM20.8095 5.04762L27.6667 8.09524L34.5238 5.04762H20.8095ZM27.6667 8.09524V15.7143V8.09524Z" stroke="#8095A9" stroke-width="2"/>
</svg>
