<svg width="80" height="80" viewBox="0 0 80 80" fill="none" xmlns="http://www.w3.org/2000/svg">
<circle cx="40" cy="40" r="40" fill="#DAC388" fill-opacity="0.2"/>
<ellipse cx="40.1063" cy="40.1072" rx="31.5282" ry="31.5281" fill="#DAC388" fill-opacity="0.4"/>
<g clip-path="url(#clip0)">
<path d="M56.6572 27.9201L43.9941 20.6172C41.8558 19.3839 39.1987 19.384 37.0603 20.6172L24.3973 27.9201C22.2548 29.1556 20.9238 31.4599 20.9238 33.9334V48.528C20.9238 51.0015 22.2548 53.3058 24.3972 54.5412L37.0603 61.8442C39.199 63.0777 41.856 63.0773 43.9941 61.8442L56.657 54.5412C58.7996 53.3058 60.1306 51.0015 60.1306 48.528V33.9334C60.1306 31.4599 58.7996 29.1557 56.6572 27.9201ZM56.7652 48.528C56.7652 49.8021 56.0797 50.989 54.976 51.6254L42.313 58.9284C41.2114 59.5638 39.8429 59.5638 38.7414 58.9284L26.0783 51.6254C24.9748 50.9889 24.2892 49.8021 24.2892 48.528V33.9334C24.2892 32.6594 24.9748 31.4724 26.0784 30.8361L38.7413 23.5331C39.843 22.8977 41.2119 22.898 42.313 23.5331L54.976 30.836C56.0796 31.4725 56.7652 32.6593 56.7652 33.9334V48.528H56.7652Z" fill="#D2B770"/>
<path d="M38.9275 39.946L32.6779 34.6571C31.9685 34.0567 30.9067 34.1451 30.3064 34.8547C29.7061 35.5643 29.7946 36.6261 30.504 37.2265L35.2356 41.2308L30.504 45.2351C29.7946 45.8354 29.7062 46.8973 30.3064 47.6069C30.9081 48.318 31.9703 48.4034 32.6779 47.8044L38.9275 42.5155C39.7226 41.8426 39.7203 40.617 38.9275 39.946L38.9275 39.946Z" fill="#001B36"/>
<path d="M49.4615 44.8364H41.8897C40.9604 44.8364 40.207 45.5898 40.207 46.5194C40.207 47.4489 40.9604 48.2023 41.8897 48.2023H49.4615C50.3907 48.2023 51.1442 47.4489 51.1442 46.5194C51.1442 45.5898 50.3908 44.8364 49.4615 44.8364Z" fill="#001B36"/>
</g>
<defs>
<clipPath id="clip0">
<rect width="39.2069" height="43.0769" fill="white" transform="translate(20.9238 19.6923)"/>
</clipPath>
</defs>
</svg>
