<svg width="1351" height="1614" viewBox="0 0 1351 1614" fill="none" xmlns="http://www.w3.org/2000/svg">
<path d="M34.85 1613.68C27.9589 1613.68 21.222 1611.64 15.4912 1607.81C9.76051 1603.99 5.29342 1598.55 2.65493 1592.18C0.0164392 1585.81 -0.674944 1578.81 0.668236 1572.05C2.01142 1565.29 5.32883 1559.08 10.2009 1554.21C15.073 1549.33 21.2808 1546.02 28.0394 1544.67C34.798 1543.33 41.8036 1544.01 48.1704 1546.65C54.5371 1549.29 59.979 1553.75 63.8077 1559.48C67.6364 1565.21 69.68 1571.95 69.68 1578.84C69.6694 1588.08 65.9968 1596.93 59.4675 1603.46C52.9382 1609.99 44.0852 1613.67 34.85 1613.68ZM34.85 1563.45C31.8061 1563.45 28.8306 1564.35 26.2998 1566.04C23.7689 1567.73 21.7963 1570.14 20.6315 1572.95C19.4667 1575.76 19.1619 1578.86 19.7558 1581.84C20.3496 1584.83 21.8153 1587.57 23.9676 1589.72C26.1199 1591.87 28.8622 1593.34 31.8476 1593.93C34.8329 1594.53 37.9274 1594.22 40.7395 1593.06C43.5517 1591.89 45.9552 1589.92 47.6463 1587.39C49.3374 1584.86 50.24 1581.88 50.24 1578.84C50.2347 1574.76 48.6116 1570.85 45.7265 1567.96C42.8415 1565.08 38.9301 1563.46 34.85 1563.45Z" fill="#F0E7CF"/>
<path d="M1330.01 663.63C1341.05 663.63 1350.01 654.676 1350.01 643.63C1350.01 632.584 1341.05 623.63 1330.01 623.63C1318.96 623.63 1310.01 632.584 1310.01 643.63C1310.01 654.676 1318.96 663.63 1330.01 663.63Z" fill="#0E0F68" fill-opacity="0.5"/>
<path d="M841.997 812.621L815 839.618L841.997 866.616L868.995 839.618L841.997 812.621Z" fill="#8AC6C1"/>
<path d="M1185 -0.000266347L1158 26.9971L1185 53.9944L1211.99 26.9971L1185 -0.000266347Z" fill="#8AC6C1"/>
<path d="M39 135C44.5228 135 49 130.523 49 125C49 119.477 44.5228 115 39 115C33.4772 115 29 119.477 29 125C29 130.523 33.4772 135 39 135Z" fill="#8095A9"/>
</svg>
