<svg width="968" height="700" viewBox="0 0 968 700" fill="none" xmlns="http://www.w3.org/2000/svg">
<g opacity="0.15">
<path fill-rule="evenodd" clip-rule="evenodd" d="M594.499 322.725C593.34 329.794 595.049 337.817 594.639 345.403C592.941 376.806 580.161 404.488 560.103 426.967C555.418 432.217 553.918 434.055 548.51 438.762C546.378 440.619 537.777 446.796 536.735 448.317L537.002 451.823C536.833 453.587 536.464 455.159 536.213 456.675C537.885 457.509 536.749 457.155 539.932 457.735L539.933 464.098C530.998 464.154 539.552 464.65 534.966 465.965C530.492 467.247 517.056 465.933 516.103 463.431C515.955 463.046 515.506 463.202 515.234 463.038C519.732 459.145 514.883 464.015 517.619 462.413L520.275 458.805C519.649 466.587 518.282 461.901 521.871 464.093C526.131 462.915 526.974 462.068 526.924 460.533C526.858 458.523 526.581 458.757 526.119 457.746L521.871 458.273C517.534 460.524 520.937 459.627 515.718 459.747L514.637 458.119C508.651 457.71 494.246 460.797 484.694 460.826C474.309 460.858 465.557 460.48 455.648 457.995C436.632 453.227 425.94 445.338 415.036 435.617L413.376 439.273C412.79 440.669 412.876 438.812 412.471 441.847C417.711 448.285 416.672 444.01 416.72 443.972C415.133 443.904 415.044 443.715 414.106 443.556C413.786 443.503 410.631 442.949 410.347 442.912C411.595 451.763 409.385 441.399 410.874 445.893C412.567 451.007 412.454 447.157 412.471 447.15C408.164 446.309 408.827 447.069 403.973 447.15V464.099L406.566 465.974C409.683 468.029 405.995 467.829 412.404 468.371C417.787 468.826 417.753 466.409 420.967 466.213V481.053L416.195 481.971C413.748 482.994 414.092 482.896 412.465 485.824C412.589 485.57 412.898 485.304 412.992 485.156C413.002 485.141 415.225 482.474 413.708 482C413.65 481.981 413.303 481.922 413.231 481.943C409.501 483.003 412.926 480.314 411.078 486.353C409.923 490.124 409.778 490.118 406.066 492.734C400.146 496.904 403.178 494.884 399.733 495.879L398.582 493.06C385.447 493.058 364.995 512.833 357.43 523.649C351.82 531.668 339.96 537.775 331.319 541.763C338.093 541.127 332.84 541.086 334.921 543.572L329.62 547.277C329.883 547.108 330.296 546.652 330.472 546.883L335.769 544.299C336.236 544.055 336.641 543.851 337.045 543.576C336.723 543.88 336.207 543.757 336.022 544.425C334.667 549.307 331.28 541.938 333.772 548.756C335.415 553.255 339.378 548.651 343.509 548.578C344.625 548.558 347.21 548.863 348.738 548.863C346.657 550.587 348.064 550.3 347.337 550.701L343.192 552.669C342.731 555.514 342.024 555.166 343.416 560.519L327.493 557.351C325.346 560.415 325.38 559.532 324.341 563.857L322.183 568.474C327.954 567.195 327.519 566.484 329.685 568.646C333.096 568.588 340.155 565.359 342.365 562.462V558.41L351.148 553.342C352.393 551.655 351.138 552.059 353.8 551.711C354.738 551.588 355.398 551.396 355.902 551.465C357.505 551.682 357.123 552.754 357.236 553.101C370.797 553.101 366.222 550.96 369.983 550.987L369.981 582.78C366.999 582.598 368.514 583.602 367.365 581.562C365.03 577.412 368.931 584.143 366.732 578.026L365.723 569.007C362.743 571.532 362.046 571.532 362.488 575.832C362.507 576.015 362.583 576.322 362.601 576.52C362.967 580.61 362.618 581.658 360.833 583.467C360.79 591.062 365.723 597.355 369.814 603.024L379.929 614.199C382.95 617.143 380.711 615.731 383.836 616.243C386.201 614.213 380.133 615.899 385.725 615.254C385.894 615.236 386.898 615.572 386.978 615.629C387.036 615.547 387.033 615.267 387.034 615.332L387.073 614.284C387.004 609.771 386.577 614.677 386.978 611.392C391.311 612.741 389.823 612.215 390.844 613.26L392.284 616.679L416.167 615.535C421.355 615.506 418.992 616.431 423.082 615.63C420.076 621.495 420.828 622.74 420.918 629.46C421.035 638.099 422.279 632.309 423.082 640.058C424.615 642.456 427.664 643.515 430.514 643.839L432.686 642.77C432.773 642.704 433.018 642.546 433.103 642.466L434.771 640.001C437.424 648.118 447.585 646.411 448.579 645.289L448.577 635.825C448.645 630.611 450.038 627.207 445.398 625.156L446.461 621.96C445.802 621.158 420.005 607.614 413.58 602.846C379.759 577.75 380.124 537.506 409.26 508.608C418.331 499.611 437.485 486.711 452.821 486.645C467.066 486.584 476.654 491.502 493.068 489.366C498.854 488.612 505.343 486.99 511.315 486.705C519.287 486.323 525.553 489.382 530.434 489.143C536.419 487.644 536.937 489.659 541.093 490.21C543.13 490.48 548.61 489.523 552.675 489.523C555.046 486.239 553.961 482.498 557.236 482.709L556.079 482.326C558.289 484.189 558.033 483.705 559.486 486.648L559.818 484.187C581.32 479.573 600.225 495.166 651.065 479.667C664.615 475.538 678.191 472.77 692.889 471.573C701.07 470.907 708.988 470.571 717.365 470.985C724.344 471.329 733.745 474.082 740.235 472.363C744.469 468.196 748.863 470.716 752.363 470.988C752.281 470.888 751.506 466.81 751.311 471.509C758.263 471.509 759.003 473.795 765.108 471.509C765.458 470.7 767.121 466.675 765.119 470.455C769.093 473.741 774.81 472.625 782.136 472.562C784.586 472.541 787.617 472.173 789.893 472.827C794.48 474.142 785.925 474.638 794.86 474.694V482.111C800.387 484.328 799.172 486.137 805.471 487.414C803.372 491.166 807.933 490.674 803.348 490.556C804.87 491.83 818.89 498.211 821.135 499.335C824.811 501.176 835.95 507.865 839.334 508.215C845.263 506.835 850.777 508.124 856.458 509.655L856.561 487.368C856.497 480.525 855.722 481.657 854.868 480.523L857.692 480.367C858.004 480.266 858.329 480.115 858.636 479.997L860.706 478.93C860.402 478.878 859.916 478.615 859.781 478.901C859.659 479.16 859.102 478.877 858.942 478.842C854.282 477.819 860.319 481.463 856.463 477.87C856.759 477.833 857.212 477.435 857.342 477.699C858.268 479.605 858.601 477.403 858.922 477.32C865.298 475.643 855.328 477.769 860.712 476.805L864.52 480.428C864.615 480.546 864.82 480.836 864.966 481.044L884.058 480.763C888.233 480.711 884.013 479.284 888.35 481.719C891.65 481.169 893.489 479.464 896.515 477.565C898.883 476.079 902.395 474.283 903.206 472.533C903.134 472.41 902.874 472.337 902.852 472.295L902.143 469.398L906.314 467.033C908.717 464.884 907.513 464.578 907.509 460.986L907.229 454.396C906.192 449.035 906.008 457.675 907.239 452.731L908.507 448.206C900.164 449.346 895.542 454.362 892.164 456.419L880.885 462.196C877.129 464.172 874.596 465.562 874.462 462.358C870.863 462.589 850.385 473.032 846.273 475.141C839.429 478.649 839.036 476.573 833.376 473.32C828.494 470.514 825.021 468.73 820.4 466.148C790.195 449.263 766.028 446.478 762.112 444.204C764.318 438.111 784.497 432.789 787.779 425.936L787.427 421.716C801.297 415.461 793.623 409.814 807.599 411.647C806.814 409.367 807.25 409.793 805.738 408.779C802.735 406.763 804.533 408.629 803.884 408.99C805.708 409.248 810.889 413.32 813.461 408.302C815.586 404.155 814.337 404.33 814.337 404.319C813.956 393.841 813.386 397.042 807.609 397.334C810.256 393.977 807.813 395.14 811.858 393.906C809.365 393.179 809.797 393.272 808.802 390.981C812.205 383.071 820.917 379.601 821.912 373.643C821.748 373.504 821.325 373.655 821.27 373.609C821.176 373.532 820.835 373.111 820.752 372.679C820.603 371.922 820.526 371.453 820.357 370.854C821.677 369.721 822.986 367.968 824.179 366.355C831.03 357.094 827.286 361.88 829.004 356.714C830.044 353.585 831.586 353.196 833.093 350.722C828.126 349.497 833.593 350.827 829.403 348.824C829.403 348.824 827.946 347.67 826.717 348.593H832.032C830.648 343.229 830.97 335.374 830.97 328.47C823.455 328.697 827.211 330.546 821.444 330.64L814.407 330.461C810.059 330.708 815.234 330.866 813.03 330.58C811.126 331.981 802.655 346.187 800.596 349.043C798.25 352.3 788.606 363.055 787.866 366.548C788.129 366.311 786.31 364.598 789.494 366.536L791.803 369.843C791.972 370.131 792.043 370.443 792.216 370.712C794.094 373.617 792.497 372.499 794.865 372.963L794.866 379.327C785.888 379.382 794.576 379.834 789.806 381.239C787.19 382.01 785.377 381.922 784.234 380.392C781.085 383.231 781.586 376.681 781.583 384.098L781.052 378.267C780.391 380.022 778.52 380.82 776.798 384.619C771.428 383.908 774.436 385.577 772.48 382.953L768.87 385.168C767.601 386.246 766.677 387.148 765.57 388.275L745.613 404.032C745.855 404.314 746.093 404.739 746.169 404.995C746.238 405.224 746.544 405.634 746.586 405.9C747.48 411.559 745.458 405.037 741.747 413.23C736.964 412.605 737.443 412.941 733.254 410.325L731.924 413.116C731.647 413.31 729.226 413.249 729 413.24V396.286C728.783 396.286 722.732 396.379 722.505 396.325C719.61 395.64 721.787 396.155 718.383 393.634L715.207 395.764C715.203 395.769 710.758 403.493 709.04 399.597C708.855 399.178 708.332 399.288 708.078 399.01C705.776 401.494 705.79 402.462 702.445 405.778L683.781 423.209C676.282 429.249 664.956 436.275 653.938 441.077C638.424 447.841 585.326 462.705 575.428 454.559C576.104 452.711 611.364 416.818 610.765 402.777L605.797 400.514L610.035 367.671C610.035 355.309 610.035 342.946 610.035 330.584C609.736 330.331 609.324 330.113 609.052 329.936L605.312 327.029C603.97 324.583 605.722 325.916 603.32 321.595C601.911 319.058 602.323 320.136 601.64 316.7C600.253 309.721 603.565 313.904 598.357 311.517C595.636 313.035 597.77 310.27 596.357 314.012L594.508 322.723L594.499 322.725ZM413.279 190.722C412.475 197.542 409.169 198.96 401.855 207.662C394.856 215.991 384.906 234.064 382.722 235.803C379.226 234.875 356.786 215.284 352.953 211.938C344.473 204.532 331.266 195.682 321.533 189.238C293.464 170.658 297.544 186.149 303.885 134.189C304.82 126.529 305.503 94.1214 306.706 91.5383C313.576 91.8796 334.769 104.829 339.968 108.349C362.337 123.492 420.634 163.305 413.281 190.722H413.279ZM198.401 215.371L197.452 220.207C197.558 220.391 197.794 220.631 197.937 220.795C200.004 223.162 204.299 223.265 207.453 223.569L203.204 225.689C207.366 230.006 208.444 229.619 213.22 228.008C213.477 227.921 215.835 226.849 219.137 226.749C219.137 235.677 217.584 236.27 219.772 243.012C221.646 248.785 220.963 246.699 220.304 248.652C220.297 248.672 216.443 252.795 221.103 256.978C225.161 250.347 228.912 218.195 229.16 211.909C229.486 203.653 229.644 194.962 228.417 186.901C227.866 183.273 227.237 179.794 226.008 176.5C224.436 172.283 222.628 170.444 221.191 167.405C230.94 164.058 262.026 176.928 270.57 180.786C295.758 192.158 351.77 228.998 367.355 248.443C374.269 257.07 367.844 262.671 364.803 272.302C364.252 276.496 364.566 272.597 367.844 274.422L369.312 270.102C370.512 267.626 371.45 267.328 372.093 262.778L371.036 268.071C373.729 265.834 372.347 267.904 374.222 263.838C374.35 264.096 374.533 264.23 374.57 264.63L378.477 272.315C382.028 269.265 381.962 268.007 384.813 270.365L386.001 271.496C386.135 271.622 386.355 271.939 386.57 272.121C389.125 269.936 398.477 249.624 401.669 244.588C404.573 240.005 407.103 235.801 409.945 231.608C433.203 200.091 421.383 216.533 432.036 202.835C434.808 199.27 437.332 196.265 440.221 192.967C443.125 189.651 444.809 187.134 448.069 183.874C458.048 173.891 477.445 142.236 481.037 127.395C478.052 126.393 479.688 128.324 478.89 126.081C484.931 119.385 487.66 124.052 491.014 131.38C489.924 134.113 492.764 133.173 489.28 133.767C488.991 140.282 502.888 162.068 507.625 168.876L519.756 184.354C522.027 186.683 522.071 187.377 524.021 189.649L555.688 229.117C555.986 229.519 556.67 230.447 557.01 230.936C589.892 278.138 591.722 318.758 594.497 322.727L596.346 314.015C597.76 310.273 595.624 313.039 598.345 311.52C603.553 313.907 600.241 309.726 601.628 316.704C602.311 320.139 601.899 319.062 603.309 321.599C605.711 325.918 603.957 324.587 605.3 327.033L609.04 329.94C609.313 330.118 609.725 330.335 610.024 330.588C610.024 342.951 610.024 355.312 610.024 367.674L605.785 400.517L610.753 402.78L614.242 396.168C615.158 393.44 615.965 391.007 616.773 388.103C627.705 348.855 618.365 307.139 602.438 271.455C594.626 253.951 592.99 251.066 619.061 230.492L666.532 197.288C669.2 195.681 670.921 195.088 672.777 192.439C671.704 186.079 672.675 193.604 668.282 187.594L665.847 182.105C665.756 181.558 665.492 181.466 665.268 181.181C669.535 180.227 671.127 181.216 668.829 174.911L647.048 188.502C646.846 188.623 646.572 188.769 646.369 188.887C634.21 196.041 606.182 217.601 595.023 227.712C591.253 231.126 589.534 234.397 584.535 235.808C582.265 234.022 574.607 220.17 570.9 214.902L554.757 194.979C551.323 186.113 574.97 156.422 579.844 151.104C603.411 125.388 620.387 108.884 654.535 93.1009C654.956 92.9071 657.186 91.9667 657.587 91.9017C662.666 91.0809 659.352 91.5058 660.564 92.8003C663.222 95.763 661.028 103.26 661.307 108.814L666.765 162.102C667.277 162.747 667.658 165.065 670.566 167.4C670.566 160.321 669.496 158.07 669.51 151.517L672.084 155.372C673.611 158.632 671.767 155.856 671.643 155.756H681.2C681.198 155.738 678.913 150.853 683.313 150.459L685.175 152.501C685.422 152.148 686.049 153.262 686.494 153.627L686.608 150.447C683.957 137.111 680.92 124.685 678.998 110.273C677.992 102.74 677.423 72.9701 674.822 68.7861C670.116 64.6926 629.048 87.9405 627.204 88.9715C619.496 93.2821 612.296 97.4487 605.414 102.399C588.082 114.863 592.653 112.948 585.177 108.109L583.48 109.127C584.43 111.403 582.724 110.938 585.604 112.305C586.291 111.659 588.222 113.296 585.182 112.062L580.242 108.068C580.01 107.34 579.61 107.32 579.232 107.013C579.596 114.057 580.506 110.732 580.286 119.769L582.149 138.796C575.908 143.442 586.649 136.328 581.352 141.98C579.554 141.4 579.697 142.705 579.525 142.233C579.397 141.883 579.005 142.803 578.699 143.034C581.038 148.886 575.291 138.082 579.664 144.768L565.838 161.1C565.747 161.237 565.564 161.521 565.475 161.663C561.633 167.754 563.794 167.4 552.678 167.4C551.647 165.738 550.779 165.062 549.486 163.695C548.522 165.018 546.988 166.304 545.232 165.819C545.249 165.796 551.092 161.539 551.378 158.4C551.41 158.048 551.999 156.735 550.058 154.972C538.283 166.128 539.078 173.036 526.199 159.954C509.219 142.708 502.984 114.407 494.998 104.178C485.407 91.8936 476.542 96.6465 469.706 107.962C459.308 125.172 462.765 132.03 443.546 157.09C436.295 166.544 431.656 169.838 425.118 163.273C413.414 151.517 406.304 143.329 399.68 126.076C396.826 122.581 397.598 121.289 397.598 116.542L396.535 116.539C396.534 93.8881 395.637 115.547 397.587 101.715C397.245 101.805 395.584 102.239 395.275 102.303C390.151 103.351 392.715 101.585 392.64 101.186C392.611 101.031 392.566 100.561 392.545 100.42C392.52 100.252 392.443 99.954 392.426 99.5175C392.406 99.0415 392.362 98.8558 392.277 98.5353L385.97 99.5837C384.118 100.903 381.121 108.494 377.651 112.053C373.221 111.555 361.949 102.496 357.437 99.3585C347.671 92.5646 298.85 65.4054 293.183 68.3797C289.301 72.1517 290.326 87.1766 289.996 93.2681C289.11 109.556 284.04 139.867 278.899 155.963C275.641 166.166 265.205 155.165 236.471 150.016C222.865 147.578 203.146 144.082 190.189 148.898C192.232 154.113 196.223 156.778 198.955 163.12C204.991 177.13 211.083 206.337 206.122 217.996C202.176 218.659 201.044 217.464 198.401 215.372V215.371ZM163.645 407.938L165.652 412.505C167.586 415.276 166.053 411.373 166.357 415.778C166.934 417.351 165.459 415.448 167.826 417.833C168.37 418.382 169.185 418.961 170.117 419.728L184.823 430.523C191.461 434.892 203.798 440.275 204.952 443.965C201.58 446.471 195.485 446.602 191.521 448.143C193.322 448.608 193.111 449.393 193.466 450.358C193.543 450.566 193.622 451.032 193.645 451.376L188.334 453.496C188.932 453.724 190.589 452.383 188.505 457.548L187.282 459.853H197.897C198.937 454.728 198.076 460.67 198.96 455.351C202.094 459.985 197.032 462.794 203.209 466.565L205.497 467.605C205.815 467.711 206.044 467.817 206.385 467.905C211.323 469.17 212.902 467.557 215.433 467.733L223.385 467.281C216.432 473.273 222.013 464.535 219.141 470.46C224.016 470.46 224.71 470.086 227.055 472.381C231.313 473.536 257.459 470.584 265.878 470.951C276.288 471.406 297.681 475.87 303.462 475.338L305.167 474.642C304.577 475.448 306.405 477.013 303.689 475.379L300.936 472.58C303.671 472.58 303.784 472.526 306.171 472.94L314.832 473.84C315.793 473.801 316.412 478.368 316.864 472.569H325.361L325.55 455.615C327.854 457.067 335.407 460.585 338.349 460.032C345.39 458.711 342.557 461.079 340.766 455.621C344.352 458.284 339.728 457.482 347.663 457.735C347.323 457.489 346.826 456.743 346.627 457.018L344.166 455.224C344.027 455.129 343.782 454.925 343.658 454.851C342.337 454.054 346.099 453.547 338.578 455.508C337.573 455.77 336.943 455.926 336.677 455.956C335.614 456.078 333.412 455.823 331.741 455.616C331.548 454.381 331.905 454.599 331.924 453.578C331.976 450.839 332.805 451.378 327.492 451.378C325.489 448.924 323.688 448.92 320.057 448.2L322.181 445.1L318.764 443.335L316.715 444.747C316.329 444.94 316.098 445.062 315.68 445.244L308.282 447.932C304.407 449.586 307.645 446.58 306.249 449.264C281.65 449.429 297.538 447.21 287.119 447.144V432.31L283.362 428.053C281.416 425.311 277.845 424.386 276.099 421.902L275.445 417.514L276.011 417.434L273.314 417.6C271.565 415.322 273.079 416.913 271.16 415.537C264.047 410.43 268.123 412.107 264.903 408.916C262.495 406.53 262.015 407.632 260.04 405.206C258.694 403.553 258.268 401.847 258.413 398.878C257.096 396.24 254.476 392.753 252.851 390.495L248.357 393.201C247.489 396.35 249.21 395.319 247.828 398.408L237.206 398.402C238.981 402.386 236.962 402.404 238.258 405.819C235.335 406.936 234.64 405.049 234.014 403.701C236.734 408.326 237.02 404.273 236.197 409.698C234.904 418.231 235.289 408.594 234.009 415.351C229.15 412.813 232.735 417.119 229.771 412.171L228.175 412.177C228.971 416.222 231.491 411.046 229.771 415.361C222.006 415.361 219.105 416.345 213.566 414.2L210.647 413.241C210.602 406.521 209.269 407.193 211.157 402.606L212.237 400.79C208.276 401.358 211.91 401.378 206.665 397.343L189.408 382.503C190.48 378.674 187.869 379.392 191.005 379.287C190.416 376.912 191.405 378.733 189.383 376.179C188.881 375.544 187.441 374.258 186.907 373.716C188.281 376.841 186.953 373.328 188.335 378.264C184.394 377.237 185.415 378.072 183.132 375.85C180.698 373.482 182.855 374.417 183.025 374.026C182.86 374.256 183.334 376.228 181.357 378.719C177.86 383.126 173.1 381.453 167.102 381.453C165.091 385.892 163.935 385.411 161.781 385.692C161.864 386.045 161.873 386.507 161.981 386.761C162.083 386.998 162.115 387.471 162.263 387.732C162.396 387.966 162.515 388.322 162.684 388.541C162.842 388.747 163.108 388.988 163.281 389.153C164.857 390.653 163.81 389.76 166.035 389.92C166.054 392.756 166.031 395.603 166.075 398.449C166.215 407.548 166.199 404.079 163.915 406.879C169.44 408.512 165.751 409.004 169.216 409.004L163.647 407.939L163.645 407.938ZM73.6176 182.06C73.6863 182.463 73.4314 183.626 75.7531 186.483C75.2317 185.316 73.4826 186.103 72.5667 186.478C72.5947 187.827 72.4655 188.389 72.782 189.764C74.1355 195.649 73.1195 192.942 75.7554 193.695C81.6139 195.369 71.9546 192.73 86.3446 192.823C92.3671 192.862 98.3989 192.83 104.423 192.83V186.472C103.644 188.266 103.434 185.63 104.475 187.788L108.258 195.686L106.552 198.138C113.074 198.138 107.148 197.667 109.096 200.742C114.336 203.425 159.883 209.001 186.723 232.582C194.843 239.716 199.921 240.389 198.6 257.11C191.796 343.25 216.109 376.163 216.606 384.622L231.863 407.937L229.504 409.411L229.706 409C230.531 409.418 232.054 408.096 231.291 410.2L229.772 412.17C232.736 417.118 229.152 412.812 234.01 415.35C235.292 408.593 234.906 418.229 236.198 409.697C237.02 404.272 236.735 408.325 234.015 403.7C234.64 405.047 235.335 406.935 238.259 405.818C236.963 402.403 238.982 402.385 237.207 398.401L247.829 398.407C249.212 395.317 247.489 396.35 248.358 393.2L252.852 390.494C251.383 388.314 247.373 381.524 245.638 380.382L243.141 381.27C242.676 381.354 242.016 381.368 241.455 381.442L241.163 379.638C240.788 377.577 242.207 378.414 237.978 373.143C234.719 369.081 234.091 368.273 232.954 362.379L229.734 364.001C227.283 364.874 222.271 365.504 220.201 363.439C218.07 361.313 219.123 358.974 219.139 351.78C219.161 341.033 220.948 318.517 215.952 311.512C216.383 309.829 214.795 310.448 218.088 310.448V300.916C218.471 300.685 218.977 299.708 219.164 300.115C219.312 300.436 219.928 299.652 220.101 299.63C220.277 299.607 221.394 299.846 221.453 299.862C220.575 292.567 220.456 286.272 220.462 278.664C220.468 271.541 222.735 262.941 221.105 256.978C216.446 252.795 220.299 248.672 220.306 248.652C220.966 246.7 221.649 248.785 219.774 243.012C217.586 236.27 219.14 235.677 219.14 226.749C215.837 226.849 213.479 227.921 213.222 228.008C208.446 229.619 207.368 230.006 203.207 225.689L207.456 223.569C204.301 223.265 200.006 223.163 197.939 220.795C197.796 220.631 197.56 220.391 197.454 220.207L198.404 215.371C160.772 190.726 120.11 177.516 73.6199 182.06H73.6176ZM132.049 395.059C107.69 397.534 85.9128 399.553 62.4559 404.106C55.9935 405.361 6.04694 416.177 0 421.713C0.586539 427.39 4.14883 428.692 7.59009 431.464C32.4435 451.474 38.2077 456.641 66.1986 474.694C70.4487 477.434 72.9054 479.869 77.195 480.581L76.7551 478.95L80.1929 479.766C79.9846 472.177 85.2017 477.626 81.0622 476.281L80.9749 466.221C88.359 460.523 88.4603 467.36 92.7872 462.332C89.8731 458.559 86.2224 458.115 80.0567 454.491L54.1443 439.006C50.0711 436.35 44.1871 433.405 43.1153 429.16C59.4231 422.047 149.188 413.436 166.355 415.778C166.051 411.372 167.585 415.276 165.65 412.505L163.643 407.938L161.788 407.932C161.788 395.263 162.571 398.928 158.591 393.201L132.047 395.059H132.049ZM364.806 272.301C361.251 276.359 353.48 301.435 351.497 309.056C343.769 338.755 343.272 368.594 353.6 397.789C354.776 401.112 367.264 429.295 372.029 430.196C372.26 430.069 372.68 429.729 372.793 430L385.904 442.912C385.96 442.793 387.217 441.832 385.915 439.733C392.727 441.721 387.088 438.495 389.476 441.301L390.324 443.952C390.372 444.222 390.222 444.665 390.162 445.021C393.822 441.435 396.308 442.901 401.836 442.901C403.056 436.915 402.285 440.247 406.085 437.608C406.085 428.15 403.794 431.796 403.954 428.411L404.82 426.151C404.926 425.921 405.16 425.514 405.391 425.241C390.424 410.923 377.089 379.125 373.858 357.525C367.252 313.363 386.36 280.351 386.572 272.119C386.357 271.937 386.137 271.62 386.003 271.493L384.815 270.362C381.964 268.005 382.03 269.263 378.479 272.313L374.573 264.627C374.536 264.228 374.353 264.093 374.225 263.836C372.35 267.901 373.731 265.831 371.038 268.068L372.095 262.776C371.454 267.325 370.516 267.624 369.315 270.1L367.846 274.42C364.569 272.596 364.256 276.495 364.805 272.3L364.806 272.301ZM33.719 564.495C34.664 566.38 33.4001 565.465 35.7696 566.224L96.9674 567.705C120.161 569.082 133.452 569.603 153.152 577.63C182.573 589.617 233.714 596.421 268.011 588.025C258.626 588.536 265.184 587.978 262.7 584.9C278.594 584.9 274.373 576.308 274.373 565.827C274.306 565.913 274.195 565.987 274.188 566.094L274.201 564.456C274.227 564.332 274.285 563.943 274.378 563.701C274.565 563.908 274.949 563.885 275.054 564.196C275.486 565.464 279.096 564.139 281.148 563.868C281.392 563.837 281.705 563.866 281.955 563.83L286.056 562.637C285.718 562.496 285.227 562.028 284.997 562.343C284.767 562.658 284.248 562.144 283.929 562.072L279.682 561.124C274.963 559.392 279.794 562.353 277.225 559.704C275.279 559.288 235.881 564.293 227.647 564.701C209.7 565.589 192.921 565.017 175.639 562.444C154.019 559.226 144.521 553.997 132.259 551.868C115.54 548.965 97.8275 549.833 80.4664 549.442C84.1439 550.79 98.9226 549.906 104.424 549.797C112.582 549.635 111.265 551.05 112.919 553.099L83.0953 553.182C81.1402 553.015 81.7942 553.199 79.902 552.608C75.7904 551.326 76.9332 546.189 70.4417 554.164C71.5717 557.323 70.7734 556.322 73.0788 558.211C75.1561 559.913 74.8186 558.88 75.7007 559.555C75.8346 559.658 76.0557 559.854 76.1814 559.968C78.3821 561.975 76.8622 563.022 81.0576 563.694L76.8145 563.705C80.4059 563.705 83.8797 563.642 87.4525 563.571C95.7571 563.405 94.1697 564.849 95.9154 567.197L35.3844 565.813C35.2354 565.588 35.062 565.201 34.9898 565.105C34.0914 563.895 35.0538 563.113 33.719 564.492V564.495ZM573.834 581.711L574.289 581.546C577.118 584.635 573.617 576.25 576.037 584.89C573.364 587.062 573.924 595.538 573.924 599.73C564.992 599.786 573.515 600.306 568.99 601.597C566.826 602.214 564.021 601.855 561.705 601.855C561.404 605.066 558.063 602.176 556.957 601.243C555.008 601.581 555.92 601.281 554.143 602.285L547.318 607.088C544.284 609.006 541.262 610.706 537.915 612.569C534.679 614.371 519.9 621.621 518.678 623.114C520.616 625.213 519.109 619.357 519.367 624.709L518.572 634.54C518.719 639.239 527.355 637.969 530.373 637.342C529.579 637.768 530.765 635.137 528.974 639.036C527.788 641.617 528.501 639.815 528.248 642.119C532.967 644.391 534.572 641.615 536.706 643.825C544.814 642.922 586.782 618.655 597.483 603.089C607.44 588.605 610.494 575.897 611.467 557.171C613.729 554.88 607.733 555.229 614.28 555.229C612.917 555.154 613.162 554.486 613.467 551.568C613.492 551.338 613.552 550.814 613.587 550.576C613.692 549.855 614.274 545.471 614.274 541.444C618.542 540.486 613.229 540.797 615.773 541.533C615.947 541.583 616.109 544.225 616.884 542.103C616.959 541.899 617.268 542.38 617.471 542.502C617.646 542.093 617.739 541.635 617.894 541.232C618.064 540.788 618.968 537.373 620.657 536.155C620.657 536.155 622.966 539.095 617.219 535.653C616.041 534.948 615.165 534.479 614.278 532.966C613.542 535.634 617.554 532.086 612.159 535.086C611.605 529.268 611.317 532.28 609.523 532.466C597.96 533.663 604.273 535.402 596 532.83L590.916 531.918V565.823L588.786 565.825C587.075 562.532 584.488 564.636 585.594 565.825C585.594 562.027 585.145 561.487 584.531 558.407L580.684 573.118C577.511 582.903 579.411 580.94 576.208 582.027C569.601 584.27 575.86 582.807 573.83 581.709L573.834 581.711ZM683.318 584.857C702.7 591.266 736.839 592.16 758.778 590.52C780.673 588.884 808.05 581.731 824.6 573.179L821.414 573.235L826.022 567.075C825.977 567.03 825.701 566.844 825.642 566.811C821.604 564.593 824.803 566.27 823.534 566.876C826.989 565.073 825.965 565.494 826.716 559.47C819.015 560.33 820.408 563.662 820.342 559.47C817.108 560.464 811.398 563.608 810.322 559.689C805.807 558.875 787.275 563.092 780.049 563.89C759.412 566.173 735.457 565.345 715.048 562.755C707.524 561.801 691.429 557.806 685.493 558.718L684.379 560.518C680.266 560.454 678.331 559.696 674.83 558.41C676.481 563.329 674.081 560.206 677.775 562.414C680.371 563.966 679.757 562.099 680.141 561.588C676.171 561.588 676.579 561.595 673.767 562.648C675.704 565.049 674.587 565.816 681.197 565.816C678.391 567.537 680.665 566.111 680.16 570.055H688.637L688.638 576.418C688.885 576.047 684.322 574.557 687.571 579.597L682.261 575.364C682.255 582.115 681.402 579.581 687.567 582.776C685.13 584.839 691.215 585.16 683.318 584.857ZM107.849 286.379C106.196 295.567 118.615 328.549 122.249 337.158C130.792 357.394 145.179 373.95 146.256 377.592C151.051 380.221 157.908 387.698 158.594 393.201C162.574 398.928 161.79 395.263 161.79 407.932L163.645 407.938L169.215 409.003C165.75 409.003 169.439 408.51 163.914 406.878C166.196 404.078 166.214 407.547 166.074 398.447C166.03 395.602 166.053 392.755 166.034 389.919C163.807 389.759 164.855 390.653 163.28 389.152C163.107 388.987 162.841 388.745 162.683 388.54C162.514 388.32 162.394 387.966 162.262 387.731C162.115 387.469 162.081 386.997 161.98 386.76C161.871 386.506 161.863 386.044 161.78 385.691C163.934 385.41 165.091 385.891 167.101 381.452C173.098 381.452 177.859 383.125 181.356 378.718C183.332 376.227 182.859 374.254 183.023 374.025C182.853 374.416 180.698 373.481 183.13 375.848C185.415 378.07 184.394 377.235 188.334 378.263C186.952 373.327 188.28 376.84 186.906 373.715C184.155 370.599 182.409 369.085 179.743 365.658C171.604 355.195 168.217 352.593 159.487 338.172C155.382 331.388 152.172 325.902 148.297 318.654C145.828 314.037 140.215 299.684 138.328 297.733L134.791 297.813C129.089 295.78 128.957 301.33 129.913 296.685C120.342 296.685 116.838 293.508 116.104 296.674C117.53 293.252 117.232 291.061 117.191 287.18C117.156 283.99 117.167 280.803 117.167 277.611L108.68 279.725C109.723 281.274 110.049 277.175 109.537 282.908C109.28 285.8 111.248 285.779 107.848 286.38L107.849 286.379ZM770.478 215.498C770.376 218.691 769.809 216.143 773.605 217.2L779.354 217.95C782.799 218.548 778.059 218.583 783.17 218.271C779.739 225.001 784.126 218.462 780.553 221.67L779.978 221.451C781.507 223.627 785.082 223.269 788.476 223.565C786.056 228.369 788.393 221.07 787.376 225.708C786.877 227.984 787.374 226.301 787.424 226.65C799.711 221.57 803.375 216.255 826.859 208.948C838.308 205.385 860.765 198.892 873.595 199.432C872.774 204.253 869.553 204.465 866.592 207.165C863.842 209.674 861.978 212.408 858.944 215.81C861.449 218.479 863.894 215.828 865.772 213.823C865.935 213.65 866.144 213.425 866.307 213.252C873.634 205.524 870.46 207.428 874.519 206.616L877.824 212.934C878.139 214.872 876.083 212.861 878.303 214.235C882.654 216.929 876.034 213.476 880.639 214.373L883.023 215.093L878.774 221.451L880.323 224.307C884.151 222.419 894.666 206.679 917.853 191.644L919.764 190.204C919.865 189.855 920.178 189.848 920.372 189.658L916.634 186.765C899.19 178.439 856.132 180.982 836.579 185.627C817.818 190.084 800.763 196.401 784.344 205.68C779.197 208.59 773.19 211.3 770.479 215.5L770.478 215.498ZM858.943 215.81C854.31 220.976 848.592 230.421 845.518 238.144C841.186 249.022 839.321 269.568 829.421 295.157C827.434 300.289 818.94 318.05 818.621 321.133C818.822 321.257 822.751 322.235 821.409 327.401C825.272 326.185 822.17 327.776 823.533 324.228C830.229 325.502 819.023 325.614 825.7 324.668C833.247 323.599 839.04 325.496 843.617 323.4L844.611 322.585C847.55 320.964 842.308 321.705 845.576 322.178C845.787 322.208 847.618 323.062 847.957 323.162L849.13 314.714L852.205 316.815C856.109 310.828 862.106 277.535 863.555 267.74C866.193 249.898 868.008 242.776 878.006 229.149C880.593 225.623 879.751 227.814 880.32 224.305L878.771 221.449L883.02 215.092L880.637 214.372C876.032 213.476 882.651 216.929 878.301 214.234C876.081 212.86 878.137 214.87 877.822 212.933L874.517 206.615C870.457 207.428 873.631 205.522 866.305 213.251C866.142 213.423 865.931 213.649 865.77 213.822C863.891 215.827 861.446 218.477 858.942 215.808L858.943 215.81ZM52.3742 186.452L54.2642 186.835C49.8581 191.599 52.8432 190.27 52.3742 192.787L67.6987 205.116C69.4734 206.959 70.5627 207.945 72.5283 209.807C78.7603 215.714 84.2382 221.766 89.7451 229.71C102.167 247.624 101.306 252.564 104.255 271.353L107.849 286.38C111.249 285.778 109.28 285.8 109.538 282.908C110.051 277.175 109.725 281.274 108.681 279.725L117.168 277.611C117.168 280.802 117.159 283.988 117.193 287.18C117.234 291.061 117.531 293.252 116.106 296.674C116.839 293.509 120.343 296.685 129.914 296.685C128.958 301.331 129.09 295.78 134.792 297.813L138.329 297.733C136.361 289.352 132.174 280.213 129.645 270.541C127.236 261.33 125.991 250.008 122.91 241.226C119.461 231.392 115.574 225.897 110.507 218.549C104.67 210.088 94.3955 203.23 93.6798 199.436L109.096 200.742C107.148 197.667 113.074 198.138 106.552 198.138L108.258 195.686L104.475 187.788C103.434 185.628 103.644 188.266 104.423 186.472V192.83C98.3989 192.83 92.3671 192.862 86.3446 192.823C71.9546 192.729 81.6139 195.369 75.7554 193.695C73.1207 192.941 74.1355 195.647 72.782 189.764C72.4655 188.389 72.5947 187.827 72.5667 186.478C73.4826 186.104 75.2317 185.316 75.7531 186.483C73.4314 183.626 73.6874 182.463 73.6176 182.06C68.3399 182.631 55.8678 184.131 52.3742 186.452V186.452ZM419.894 63.5699C422.009 67.2362 418.279 68.5295 415.656 69.925C415.939 70.2825 416.424 70.2349 416.626 70.8897L421.41 76.2661C421.568 76.4866 421.781 76.8906 422.024 77.1565C422.375 77.1228 424.212 76.4089 424.39 76.4158L427.335 77.3376C428.109 75.3025 427.564 76.475 428.562 75.205C429.824 73.5994 429.565 73.8501 430.575 73.2453C436.476 69.7137 434.281 73.3753 434.694 73.7422C437.762 73.2151 437.224 73.106 441.137 69.9006C453.25 59.9803 467.847 49.8731 477.387 37.1561C479.572 34.2421 480.389 32.4844 482.159 30.8521C488.349 31.7403 492.818 43.2325 506.765 54.3044C509.623 56.5741 513.517 59.5751 515.846 61.8007C517.589 58.7799 512.297 59.3278 519.213 59.3278C520.802 63.6257 516.913 60.4087 528.239 61.4361C528.381 61.147 528.574 60.382 528.645 60.5608C528.779 60.8963 529.717 57.2138 531.437 56.1376C529.77 54.2081 530.02 55.4166 527.843 53.2886C521.355 46.944 527.56 48.0539 527.618 47.9865C497.635 18.7899 498.048 11.5375 489.965 3.19954C477.721 -9.42924 469.636 18.5078 456.033 31.7716C437.353 49.9857 444.871 44.4596 423.138 60.5236L419.895 63.5665L419.894 63.5699ZM787.776 425.939C802.553 420.811 791.296 414.038 816.901 416.055C828.74 416.988 841.605 417.121 853.62 417.991C865.73 418.866 878.046 420.093 889.428 421.822C901.034 423.584 913.026 426.974 923.827 428.372C927.288 425.949 924.08 427.756 926.794 424.025C928.776 421.301 923.294 421.76 930.821 421.713L930.82 417.468C927.746 417.468 923.451 418.633 922.612 415.344C922.418 414.588 921.108 413.528 924.735 412.217C926.822 411.464 935.824 418.302 941.299 413.595C935.89 408.916 887.365 400.968 880.198 399.974C858.653 396.987 834.036 394.24 811.855 393.908C807.811 395.141 810.253 393.979 807.606 397.336C813.383 397.044 813.952 393.843 814.333 404.322C814.333 404.333 815.582 404.158 813.457 408.304C810.885 413.323 805.704 409.25 803.881 408.992C804.53 408.63 802.732 406.766 805.734 408.781C807.246 409.796 806.811 409.37 807.595 411.65C793.62 409.818 801.295 415.465 787.424 421.719L787.775 425.939H787.776ZM372.029 430.196L382.023 443.638C384.896 446.758 391.017 450.689 391.611 455.701C370.769 459.368 340.758 449.956 322.183 445.099L320.059 448.199C323.69 448.918 325.492 448.923 327.495 451.377C332.807 451.377 331.979 450.839 331.926 453.577C331.906 454.599 331.55 454.381 331.744 455.615C333.415 455.821 335.617 456.078 336.679 455.955C336.947 455.925 337.575 455.768 338.581 455.507C346.101 453.547 342.34 454.053 343.661 454.85C343.785 454.924 344.029 455.128 344.168 455.222L346.629 457.017C346.828 456.742 347.325 457.487 347.665 457.733C339.73 457.482 344.354 458.283 340.769 455.619C342.56 461.078 345.392 458.711 338.351 460.031C335.409 460.584 327.857 457.065 325.552 455.614L325.364 472.568H316.866C316.414 478.367 315.794 473.8 314.834 473.839L306.173 472.938C303.786 472.525 303.672 472.579 300.939 472.579L303.691 475.378C306.407 477.012 304.579 475.447 305.169 474.64L303.464 475.337C307.749 479.081 338.455 485.487 346.603 486.446L361.51 486.583C372.728 485.538 364.265 487.612 367.846 483.174C365.337 483.174 362.789 483.051 360.292 483.301C357.136 483.616 356.83 484.159 352.986 484.224V466.217C344.579 466.163 351.81 466.698 348.737 464.097L348.847 456.676L369.636 458.696C372.847 459.556 371.323 459.177 373.157 460.912C371.05 462.142 369.45 462.644 365.722 463.032L369.881 461.69C373.72 460.151 371.219 458.61 376.35 459.864C381.571 462.132 377.491 456.445 377.006 463.067C376.824 465.544 377.782 460.878 377.53 464.116C377.27 467.44 380.135 464.428 376.345 465.684L376.346 466.221C390.173 466.221 376.366 462.56 390.153 463.57C387.855 470.411 390.015 471.418 389.276 477.998C388.847 481.808 391.844 481.056 379.543 481.056C383.596 486.079 372.278 483.17 391.227 484.254C396.595 483.835 402.802 482.703 407.781 484.669C407.328 490.025 402.489 489.165 398.581 493.058L399.732 495.876C403.177 494.881 400.145 496.9 406.065 492.731C409.778 490.116 409.922 490.122 411.076 486.351C412.924 480.312 409.5 483 413.229 481.94C413.302 481.919 413.648 481.979 413.707 481.997C415.224 482.472 413.001 485.139 412.991 485.154C412.897 485.3 412.588 485.567 412.464 485.821C414.092 482.894 413.748 482.992 416.194 481.968L420.966 481.051V466.211C417.752 466.407 417.786 468.824 412.403 468.369C405.993 467.827 409.682 468.026 406.565 465.972L403.972 464.097V447.148C408.826 447.067 408.162 446.306 412.469 447.148C412.453 447.154 412.566 451.005 410.873 445.891C409.384 441.397 411.593 451.762 410.346 442.909C410.63 442.947 413.785 443.499 414.105 443.554C415.043 443.713 415.132 443.902 416.718 443.969C416.671 444.008 417.71 448.283 412.469 441.845C412.876 438.81 412.788 440.666 413.375 439.271L415.034 435.615L405.391 425.239C405.159 425.511 404.926 425.919 404.82 426.149L403.954 428.409C403.794 431.793 406.085 428.148 406.085 437.606C402.285 440.245 403.056 436.913 401.836 442.899C396.308 442.899 393.824 441.433 390.162 445.019C390.222 444.664 390.372 444.221 390.324 443.95L389.476 441.299C387.088 438.493 392.727 441.718 385.915 439.731C387.217 441.83 385.96 442.791 385.904 442.909L372.793 429.997C372.68 429.727 372.259 430.067 372.029 430.194V430.196ZM721.708 152.93C712.244 152.126 699.749 160.355 690.823 160.73C688.215 156.82 688.675 154.681 686.614 150.445L686.499 153.625C686.055 153.26 685.428 152.146 685.181 152.498L683.319 150.456C678.919 150.851 681.204 155.735 681.205 155.754H671.649C671.773 155.854 673.615 158.631 672.09 155.37L669.515 151.515C669.501 158.069 670.572 160.32 670.572 167.398C667.665 165.062 667.283 162.746 666.771 162.1L668.833 174.908C671.131 181.213 669.54 180.224 665.272 181.179C665.497 181.464 665.761 181.556 665.852 182.103L668.286 187.592C672.68 193.603 671.709 186.078 672.782 192.436C676.135 191.995 698.966 179.478 706.299 176.59C716.079 172.74 733.662 166.295 745.727 166.835L744.656 169.909L746.295 168.803C750.568 172.93 746.407 166.848 748.015 171.624L748.477 175.874C765.711 175.874 757.685 174.112 757.685 174.112C761.231 176.065 760.23 173.494 759.81 177.999C760.044 174.683 760.306 174.494 760.872 171.646C761.346 171.91 762.14 171.676 762.334 172.359L764.09 173.766C765.927 170.31 767.455 164.748 769.363 161.028C771.768 156.34 775.475 153.406 776.718 149.389C770.803 145.628 757.336 146.4 750.24 147.285L765.17 147.094C770.176 148.098 767.578 146.92 770.422 150.444C760.403 150.444 748.263 151.636 740.691 150.981L746.211 164.469L738.562 166.338L737.701 163.307C736.901 159.976 737.33 159.412 733.257 157.871C732.428 162.847 729.915 162.278 734.847 163.696L732.183 161.05C733.342 160.535 733.421 158.747 733.338 158.308C732.132 151.983 726.605 154.135 722.861 154.558L721.709 152.928L721.708 152.93ZM745.881 299.852C744.89 314.641 735.396 358.654 727.685 366.619C731.345 367.232 729.732 366.644 732.18 367.679C730.614 373.26 732.436 368.801 730.3 372.129C730.297 372.135 728.383 374.086 727.934 374.807L724.755 382.503C729.058 388.683 727.316 389.92 737.491 389.92C737.491 389.134 737.822 380.158 737.776 380.002C737.171 377.902 740.37 378.611 735.62 377.749C732.161 377.122 735.994 376.795 729.005 379.323L731.437 376.561C731.551 376.399 731.803 376.127 731.893 375.965C733.032 373.931 731.772 374.436 730.067 369.799C730.454 370.101 730.945 370.027 731.207 370.727C733.198 376.055 747.66 375.086 750.239 375.086C750.039 372.197 748.419 372.313 750.66 372.686L752.363 372.972C751.72 368.42 754.369 368.759 749.187 368.728C749.438 368.841 749.861 368.602 749.996 368.901L755.114 370.436C755.191 370.486 755.393 370.691 755.467 370.859C760.313 364.789 769.817 322.611 767.936 312.277C764.181 299.061 768.005 281.129 765.115 277.613C758.663 278.647 762.17 275.49 760.775 281.612L760.872 300.92C760.873 316.32 761.636 312.983 759.202 313.605C755.206 314.625 758.473 315.545 758.737 315.758C758.737 306.397 758.707 311.724 755.972 308.87C753.609 306.404 753.087 305.755 750.245 305.162L747.147 309.317C746.894 309.077 746.411 310.102 746.013 310.449L745.883 299.853L745.881 299.852ZM560.709 511.492C575.166 525.478 580.452 542.581 579.055 562.602C578.544 569.93 575.635 575.653 573.835 581.711C575.865 582.809 569.605 584.272 576.213 582.029C579.415 580.942 577.516 582.906 580.689 573.12L584.536 558.41C585.149 561.488 585.598 562.029 585.598 565.827C584.492 564.638 587.079 562.534 588.791 565.827L590.92 565.826V531.92L596.005 532.833C604.279 535.404 597.966 533.664 609.528 532.468C611.321 532.283 611.61 529.27 612.164 535.088C617.559 532.089 613.546 535.638 614.283 532.969C611.789 531.075 600.638 519.734 600.514 517.781L601.388 515.134C601.508 514.858 601.784 514.477 602.038 514.193C597.911 510.183 594.472 506.379 589.951 503.172C585.792 500.221 579.589 495.031 573.925 495.215C565.112 497.359 562.689 492.808 556.93 489.534C556.93 490.7 556.824 492.678 557.092 493.876C558.644 500.819 562.005 497.49 562.506 497.215L554.806 495.891C555.678 498.764 554.785 497.035 556.142 499.95C557.207 502.235 556.621 500.872 557.988 502.238C557.471 500.845 559.394 500.669 554.802 502.25C558.276 503.661 555.328 502.084 558.253 504.088C564.12 508.106 561.301 510.552 561.296 510.528C561.25 510.336 560.989 511.238 560.712 511.492H560.709ZM80.1952 479.767C85.3984 483.93 82.6415 479.422 84.7944 481.333C87.7492 483.953 81.5917 477.901 85.4531 482.938C89.6334 488.392 106.771 491.67 107.044 499.243C107.203 503.607 107.06 500.356 106.359 501.769C105.206 504.096 106.317 501.19 104.423 504.222C107.061 503.359 109.623 507.088 115.276 506.741C124.358 506.183 119.56 507.336 121.417 503.303C119.181 503.981 119.387 508.034 121.616 509.19L124.396 510.28C127.218 509.982 125.063 510.539 127.585 509.462L147.311 498.742C144.562 497.699 147.31 502.292 143.735 495.891C145.362 495.617 149.768 493.291 143.729 492.707C143.411 487.864 143.429 491.436 142.425 490.64C137.955 487.102 143.363 497.516 140.902 489.913C140.774 489.518 140.268 489.731 140.014 489.533C140.135 489.951 140.196 490.414 140.391 490.782L143.724 494.82C139.913 493.35 139.283 493.385 138.523 490.041C138.166 488.471 138.413 483.017 138.413 481.05C138.041 480.929 137.6 480.839 137.286 480.729L130.806 476.122C125.035 476.866 127.715 478.613 120.915 475.196C117.34 473.4 115.087 472.554 111.49 470.785C106.854 468.501 97.0408 462.662 92.7883 462.33C88.4615 467.358 88.3602 460.522 80.9761 466.219L81.0634 476.278C85.2029 477.624 79.9857 472.174 80.1941 479.764L80.1952 479.767ZM277.226 559.706C279.795 562.356 274.963 559.394 279.684 561.126L283.93 562.075C284.249 562.146 284.768 562.66 284.999 562.345C285.228 562.031 285.72 562.498 286.058 562.639L281.956 563.832C281.706 563.868 281.392 563.839 281.149 563.871C279.097 564.141 275.487 565.465 275.055 564.198C274.949 563.887 274.566 563.91 274.379 563.704C274.286 563.945 274.228 564.333 274.202 564.458L274.189 566.096C274.195 565.988 274.307 565.914 274.374 565.829C274.374 576.311 278.595 584.902 262.701 584.902C265.184 587.98 258.628 588.538 268.012 588.028C279.558 586.428 291.291 583.572 301.607 580.364C307.199 578.625 311.577 577.265 316.653 575.202C321.246 573.334 326.992 571.485 329.685 568.649C327.519 566.487 327.954 567.197 322.183 568.477L324.341 563.86C325.38 559.536 325.346 560.418 327.493 557.354L343.416 560.523C342.023 555.169 342.73 555.518 343.192 552.672L347.337 550.704C348.064 550.304 346.658 550.591 348.738 548.867C347.21 548.867 344.624 548.561 343.509 548.581C339.377 548.654 335.415 553.259 333.772 548.76C331.282 541.942 334.667 549.31 336.022 544.428C336.207 543.761 336.723 543.884 337.045 543.58C336.64 543.854 336.235 544.058 335.769 544.303L330.472 546.886C330.295 546.655 329.883 547.111 329.62 547.281L334.921 543.575C332.84 541.089 338.093 541.13 331.319 541.766C323.709 545.846 313.3 549.297 304.998 551.805L278.021 559.219C277.872 558.978 277.478 559.526 277.228 559.711L277.226 559.706ZM739.992 225.397C738.814 233.665 743.055 246.239 744.933 254.298C749.869 252.764 742.978 255.903 746.183 253.45L749.175 251.12C750.402 252.746 749.029 252.054 753.254 252.357L759.797 251.115C759.166 251.155 755.987 249.485 760.322 253.003C765.381 257.106 755.671 251.728 762.456 254.289L765.108 247.932C766.2 248.683 767.562 249.316 765.119 250.056C766.567 246.092 764.596 248.5 768.327 246.882C772.095 235.918 785.615 230.667 787.425 226.652C787.375 226.302 786.878 227.984 787.377 225.709C788.394 221.071 786.057 228.37 788.477 223.566C785.083 223.27 781.508 223.629 779.979 221.452L780.554 221.671C784.126 218.463 779.74 225.003 783.171 218.272C778.059 218.584 782.8 218.549 779.355 217.952L773.606 217.202C769.81 216.144 770.377 218.692 770.479 215.5C767.954 215.963 770.015 215.433 767.62 216.539C767.444 216.62 765.546 217.635 765.51 217.648C762.981 218.616 763.207 218.39 760.726 218.261C760.559 218.342 760.349 218.563 760.273 218.577L757.684 218.261C754.974 212.748 755.663 211.127 756.611 202.379C753.072 205.221 754.203 202.586 753.322 207.631L753.481 214.168C753.371 213.896 753.041 213.758 752.952 213.185C752.859 212.587 752.596 212.494 752.369 212.179C750.602 214.224 749.778 215.281 751.037 218.801L750.522 204.915C749.925 192.264 751.698 196.624 747.634 189.475L743.871 185.026C739.531 192.267 743.895 211.817 739.994 225.4L739.992 225.397ZM480.438 645.288L475.319 644.647C471.375 644.935 472.534 645.914 471.951 649.531C474.164 651.125 474.15 650.909 476.728 650.595L471.951 650.597V659.068C467.143 659.101 469.293 658.05 468.226 662.774C465.012 659.748 468.214 665.002 465.039 659.073C467.133 672.013 463.444 655.661 462.381 664.36L462.697 665.16C464.213 666.803 463.899 666.433 465.569 667.55C464.514 671.315 467.052 670.792 463.899 670.652C464 672.549 463.525 671.961 464.811 673.307C465.192 672.891 467.236 671.518 468.99 672.467C470.66 673.369 470.038 674.391 471.943 676.026C471.791 678 471.595 675.974 472.974 677.077L476.151 678.794C476.323 678.85 476.707 678.909 476.99 678.931L478.197 674.792C478.414 669.559 478.585 673.032 477.254 671.777H499.56L520.809 651.655C518.148 650.289 520.579 651.17 517.679 651.382C517.363 651.405 516.404 651.655 516.104 651.684L513.528 651.573C513.199 651.469 513.615 654.959 512.677 650.968L512.276 641.011C512.101 633.869 511.67 635.719 514.431 631.523C511.255 632.286 506.644 633.928 507.216 629.833C503.748 630.194 505.969 629.349 500.18 633.173C492.885 637.991 491 639.394 484.695 646.219C480.726 645.556 483.292 645.518 480.44 645.288H480.438ZM879.332 537.98C882.236 540.767 888.638 543.164 888.909 548.364C884.215 550.729 851.133 549.689 841.585 550.94C841.618 551.329 844.695 550.75 844.74 550.755C856.1 552.051 847.33 549.434 851.145 554.162L841.727 556.234C841.773 556.319 840.083 558.213 845.844 558.401C844.974 557.33 847.432 556.594 844.347 557.629C841.095 558.721 843.713 557.674 841.595 559.467C844.199 561.873 843.609 560.156 845.453 563.895C845.542 564.075 845.675 564.49 845.838 564.759C851.737 564.759 857.342 563.699 864.952 563.699C862.515 560.679 864.585 561.552 857.51 559.712C854.428 558.911 853.111 557.042 852.211 559.46C856.453 559.46 856.894 559.618 859.641 557.346C853.6 552.464 853.292 556.279 853.273 556.292C859.091 556.003 853.99 555.267 858.66 555.821C870.414 557.216 874.375 554.897 885.393 557.192C885.542 557.223 885.88 557.287 886.012 557.308L889.394 557.34C889.246 557.28 888.962 556.946 888.96 557.141C888.959 557.254 888.683 557.157 888.687 557.191C888.692 557.244 888.669 557.548 888.681 557.617C888.706 557.753 888.916 558.273 888.952 558.414C889.001 558.605 889.243 559.112 889.389 559.459C895.924 558.318 893.654 557.264 903.175 557.332C910.525 557.386 914.878 558.482 921.25 555.232C922.272 558.225 921.528 553.673 922.323 559.46L923.282 553.087C924.425 546.9 921.72 553.882 924.049 550.709C923.302 547.859 920.656 545.913 918.171 543.548C915.925 541.411 914.115 539.787 911.293 537.562L898.921 526.741C896.49 525.345 900.038 526.578 896.653 526.035C896.49 526.207 896.555 526.661 896.493 526.727L893.643 527.672C891.412 524.184 892.057 526.486 888.691 523.096C887.985 522.384 887.109 521.222 886.407 520.947L881.959 520.266C882.273 520.468 882.626 520.774 882.792 521.014L884.136 524.332C884.184 524.597 884.044 524.935 884.09 525.185C884.13 525.411 884.045 525.757 884.103 525.959C884.588 527.701 886.068 527.791 886.379 527.959L889.384 531.921C885.486 533.136 885.032 534.571 883.021 536.15C883.745 526.893 885.81 532.961 879.835 530.862L881.046 532.992C881.235 533.34 881.462 533.586 881.634 533.946C884.007 538.916 884.963 536.694 879.333 537.983L879.332 537.98ZM810.321 559.689C811.397 563.608 817.107 560.464 820.341 559.47C820.407 563.662 819.013 560.33 826.715 559.47C825.964 565.494 826.988 565.072 823.533 566.876C824.802 566.27 821.602 564.593 825.641 566.811C825.7 566.844 825.976 567.028 826.021 567.075L821.413 573.235L824.599 573.179C841.774 569.458 859.271 567.847 877.696 567.331L929.732 566.452C942.546 565.289 926.466 551.907 924.049 550.708C921.72 553.882 924.425 546.899 923.282 553.085L922.323 559.459C921.528 553.673 922.272 558.224 921.25 555.231C914.878 558.482 910.525 557.385 903.175 557.331C893.652 557.263 895.923 558.317 889.389 559.458C889.243 559.11 889.001 558.603 888.952 558.413C888.916 558.271 888.706 557.751 888.681 557.616C888.668 557.547 888.691 557.243 888.687 557.189C888.683 557.155 888.959 557.252 888.96 557.14C888.962 556.945 889.246 557.279 889.394 557.339L886.012 557.307C885.88 557.286 885.543 557.222 885.393 557.191C874.375 554.895 870.414 557.215 858.66 555.82C853.99 555.265 859.092 556.001 853.273 556.291C853.292 556.278 853.6 552.464 859.641 557.345C856.894 559.616 856.454 559.459 852.211 559.459C853.111 557.041 854.428 558.91 857.51 559.711C864.585 561.55 862.515 560.678 864.952 563.698C857.342 563.698 851.737 564.758 845.838 564.758C845.674 564.487 845.541 564.073 845.453 563.894C843.608 560.155 844.198 561.872 841.595 559.466C843.713 557.672 841.095 558.721 844.347 557.628C847.432 556.593 844.974 557.329 845.844 558.4C840.083 558.213 841.773 556.318 841.727 556.233L851.145 554.161C847.33 549.434 856.1 552.05 844.74 550.754C844.695 550.75 841.617 551.328 841.585 550.939C826.34 553.011 829.205 553.421 817.67 556.737C816.383 557.107 814.917 557.352 813.516 557.903L810.321 559.689ZM104.42 504.224C101.91 505.937 101.456 506.847 98.1498 505.849L93.2189 507.979C91.7701 508.98 90.768 509.905 89.6124 510.767L66.7758 527.96C67.3984 528.529 72.7355 526.924 66.7188 533.289L45.8082 551.68C45.6779 551.818 45.4847 552.063 45.359 552.208C45.0238 552.599 44.8376 552.965 44.016 554.017C39.3924 559.937 39.1328 557.144 40.0499 561.116C40.3816 562.548 43.3061 563.238 44.5409 563.45C52.0332 564.741 51.5246 560.885 51.5246 560.888L51.5945 559.754C50.6669 555.618 49.4368 561.236 52.0158 557.374L53.4344 555.23C49.7848 555.42 47.7028 555.304 45.9991 557.35C49.1703 557.257 50.5517 555.835 52.2404 554.165C50.2364 549.963 54.0803 553.767 50.1607 551.945C45.9374 549.983 49.2169 550.802 48.123 552.315C49.26 552.659 47.9647 553.753 49.1913 552.041C53.4076 551.386 51.449 551.062 52.9316 548.461C52.9956 548.349 53.1283 548.073 53.1981 547.968C53.5438 547.45 54.8425 548.494 55.5699 544.634C55.5443 544.661 51.4036 546.771 56.8756 549.863C59.8258 551.53 61.888 550.981 66.1823 550.981C66.1823 543.794 65.6633 546.713 67.3344 541.525C67.367 541.422 67.4624 541.101 67.4834 541.012L67.3612 540.003C67.36 539.998 67.2751 539.993 67.2739 539.993L67.2448 540.385C69.5956 534.851 70.8909 536.592 77.9945 536.107C82.3971 535.807 81.0995 535.378 84.4371 534.852C85.8791 534.624 86.2328 534.59 87.0172 534.687L89.2505 535.537C93.4133 534.838 103.006 526.093 106.587 523.469C110.128 520.874 122.919 512.659 124.395 510.28L121.615 509.19C119.386 508.033 119.18 503.981 121.416 503.303C119.558 507.336 124.357 506.183 115.275 506.741C109.622 507.088 107.06 503.359 104.421 504.222L104.42 504.224ZM839.331 508.217L859.471 522.541C865.954 527.46 873.47 532.352 879.331 537.98C884.96 536.692 884.005 538.915 881.632 533.944C881.46 533.584 881.233 533.338 881.044 532.99L879.833 530.859C885.807 532.957 883.743 526.891 883.019 536.147C885.03 534.57 885.484 533.135 889.381 531.919L886.377 527.957C886.066 527.787 884.585 527.699 884.1 525.957C884.043 525.753 884.128 525.407 884.087 525.182C884.043 524.934 884.183 524.596 884.134 524.33L882.79 521.012C882.623 520.772 882.271 520.465 881.957 520.263L886.404 520.945C887.107 521.22 887.982 522.382 888.689 523.094C892.055 526.484 891.41 524.181 893.641 527.67L896.491 526.725C896.552 526.659 896.487 526.206 896.65 526.033C892.913 519.069 873.44 509.802 871.005 505.189C868.926 504.568 867.274 503.925 865.567 502.652C863.344 500.994 864.014 501.911 862.903 499.065C864.43 495.701 865.382 496.186 868.679 494.32C872.344 492.245 871.978 491.753 876.309 490.766C877.745 488.277 879.433 487.917 882.052 486.47C885.373 484.636 886.102 484.744 888.344 481.72C884.008 479.286 888.227 480.713 884.052 480.764L864.96 481.045C864.814 480.837 864.609 480.548 864.514 480.429L860.706 476.807C855.323 477.77 865.293 475.645 858.916 477.321C858.595 477.405 858.262 479.606 857.336 477.701C857.207 477.436 856.753 477.834 856.457 477.871C860.314 481.464 854.276 477.821 858.936 478.843C859.095 478.878 859.652 479.161 859.775 478.902C859.91 478.617 860.397 478.879 860.7 478.931L858.63 479.998C858.323 480.117 857.997 480.267 857.686 480.368L854.862 480.524C855.716 481.658 856.491 480.526 856.555 487.369L856.453 509.656C850.772 508.124 845.257 506.836 839.328 508.216L839.331 508.217ZM744.932 254.3C746.875 269.442 747.66 284.545 745.878 299.853L746.009 310.449C746.406 310.102 746.89 309.077 747.142 309.317L750.24 305.162C753.082 305.755 753.605 306.404 755.967 308.87C758.702 311.724 758.732 306.397 758.732 315.758C758.468 315.544 755.201 314.625 759.198 313.605C761.631 312.984 760.869 316.321 760.868 300.92L760.77 281.612C762.165 275.49 758.659 278.646 765.111 277.613C768 281.13 764.176 299.062 767.932 312.277C773.388 303.393 767.793 260.128 768.324 246.882C764.593 248.5 766.563 246.092 765.115 250.056C767.558 249.316 766.197 248.683 765.105 247.932L762.453 254.289C755.668 251.728 765.378 257.107 760.318 253.003C755.983 249.486 759.163 251.156 759.794 251.115L753.251 252.357C749.025 252.054 750.397 252.746 749.172 251.12L746.18 253.45C742.975 255.903 749.865 252.764 744.93 254.298L744.932 254.3ZM550.057 154.971C551.998 156.735 551.409 158.047 551.377 158.398C551.092 161.538 545.248 165.794 545.231 165.818C546.987 166.303 548.521 165.017 549.484 163.693C550.777 165.061 551.646 165.738 552.677 167.399C563.793 167.399 561.632 167.752 565.473 161.662C565.563 161.52 565.746 161.236 565.837 161.099L579.663 144.767C575.29 138.081 581.036 148.884 578.697 143.033C579.003 142.802 579.397 141.883 579.524 142.232C579.696 142.702 579.553 141.399 581.351 141.979C586.649 136.326 575.907 143.441 582.148 138.795L580.285 119.768C580.505 110.731 579.595 114.056 579.23 107.011C579.609 107.319 580.009 107.339 580.24 108.067L585.181 112.06C588.22 113.296 586.289 111.658 585.603 112.304C582.723 110.935 584.429 111.402 583.479 109.125C583.337 109.04 583.113 108.917 583.051 108.877L582.134 108.311C577.117 104.786 579.535 104.099 571.874 105.366C571.485 105.43 570.428 105.708 570.088 105.765L565.416 105.942L563.876 105.672C568.17 115.75 570.567 121.989 564.744 133.898C562.021 139.468 553.613 151.776 550.054 154.971H550.057ZM923.825 428.373C923.967 430.356 924.07 431.107 921.955 432.968C921.923 432.997 919.979 434.328 919.485 434.749C918.064 435.962 918.464 435.399 918.062 436.423L918.122 439.195C917.744 443.931 916.172 435.312 918.062 442.901C925.026 442.527 929.586 444.561 936.734 444.12C939.563 443.945 938.618 444.279 941.642 441.923C941.807 441.794 942.052 441.591 942.216 441.457C942.379 441.324 942.617 441.116 942.779 440.98L948.877 435.496C950.525 435.955 949.298 434.237 951.737 437.129C954.154 436.704 952.73 437.295 954.768 436.025C955.886 435.328 956.086 434.838 956.938 433.994C962.293 428.698 966.708 428.05 967.2 421.715C963.691 418.249 945.504 413.309 941.297 413.598C935.822 418.304 926.82 411.467 924.733 412.22C921.106 413.529 922.416 414.589 922.609 415.346C923.448 418.635 927.744 417.471 930.817 417.471L930.818 421.715C923.291 421.762 928.774 421.303 926.792 424.028C924.078 427.758 927.286 425.951 923.824 428.374L923.825 428.373ZM33.7178 564.496C35.0527 563.118 34.0902 563.9 34.9887 565.109C35.0608 565.206 35.2331 565.592 35.3832 565.818L95.9142 567.201C94.1686 564.854 95.756 563.41 87.4513 563.576C83.8785 563.647 80.4047 563.709 76.8133 563.709L81.0564 563.699C76.8599 563.027 78.3809 561.98 76.1802 559.972C76.0545 559.857 75.8323 559.661 75.6996 559.56C74.8175 558.884 75.1549 559.916 73.0776 558.216C70.7722 556.328 71.5717 557.328 70.4405 554.169C76.9309 546.194 75.788 551.33 79.9008 552.613C81.7931 553.204 81.1402 553.018 83.0942 553.187L112.918 553.104C111.265 551.055 112.581 549.64 104.423 549.801C98.9226 549.91 84.1427 550.794 80.4652 549.447L78.2285 547.811C80.5816 541.383 86.4819 541.499 89.2482 535.541L87.0149 534.691C86.2305 534.596 85.8767 534.629 84.4348 534.856C81.0971 535.382 82.3947 535.812 77.9922 536.111C70.8874 536.595 69.5921 534.855 67.2425 540.389L67.2716 539.998C67.2727 539.998 67.3577 540.004 67.3589 540.007L67.4811 541.016C67.4613 541.106 67.3658 541.426 67.3321 541.529C65.6609 546.718 66.18 543.799 66.18 550.985C61.8868 550.985 59.8235 551.535 56.8733 549.867C51.4013 546.776 55.5431 544.664 55.5676 544.638C54.8402 548.497 53.5415 547.454 53.1958 547.973C53.126 548.077 52.9933 548.353 52.9293 548.466C51.4467 551.067 53.4053 551.391 49.189 552.045C47.9624 553.759 49.2588 552.665 48.1206 552.319C49.2146 550.807 45.9351 549.988 50.1584 551.95C54.0779 553.772 50.234 549.967 52.238 554.17C50.5494 555.838 49.168 557.261 45.9967 557.354C47.6993 555.309 49.7825 555.425 53.4321 555.234L52.0134 557.379C49.4345 561.241 50.6646 555.622 51.5921 559.759L51.5223 560.893C51.5223 560.889 52.0309 564.746 44.5385 563.455C43.3038 563.243 40.3792 562.553 40.0476 561.12C39.1305 557.148 39.39 559.942 44.0137 554.021C44.8353 552.969 45.0215 552.603 45.3567 552.212C45.4824 552.066 45.6755 551.821 45.8059 551.684L66.7165 533.294C72.7331 526.928 67.3961 528.534 66.7735 527.965C64.2551 530.799 64.4297 529.92 61.9345 531.938L32.3551 561.368C32.6262 566.614 32.3353 563.257 33.7155 564.5L33.7178 564.496ZM170.291 455.974C170.327 456.012 168.885 457.306 173.676 457.435C176.082 457.5 176.319 455.712 181.961 455.617C179.193 453.611 184.544 456.117 185.195 460.826C185.276 461.417 185.147 465.626 185.147 466.213C178.573 466.213 180.084 466.85 174.313 464.674C174.175 464.623 173.897 464.488 173.776 464.448C173.675 464.415 173.397 464.344 173.306 464.321L171.339 464.106C173.145 468.444 172.39 478.669 172.412 484.233C166.391 484.648 171.091 483.794 166.034 483.173L161.79 491.471C172.793 488.119 181.846 484.086 193.324 480.788L227.057 472.385C224.712 470.091 224.018 470.463 219.143 470.463C222.014 464.539 216.434 473.275 223.388 467.285L215.435 467.736C212.904 467.56 211.325 469.173 206.387 467.908C206.045 467.821 205.816 467.714 205.499 467.609L203.211 466.568C197.034 462.799 202.096 459.989 198.962 455.355C198.078 460.673 198.939 454.731 197.9 459.857H187.284L188.507 457.551C190.59 452.385 188.934 453.727 188.336 453.5L193.647 451.38C193.624 451.036 193.544 450.569 193.468 450.361C193.113 449.396 193.324 448.611 191.524 448.146C186.896 449.155 184.341 449.96 179.901 451.382C177.692 452.089 176.234 452.445 174.353 453.262C171.879 454.335 172.162 454.065 170.293 455.975L170.291 455.974ZM430.511 643.839C432.901 647.166 431.406 645.365 434.802 647.419C443.415 652.633 448.604 656.394 455.902 663.389C457.423 664.848 458.153 665.693 459.619 667.122C460.336 667.821 460.86 668.33 461.874 669.163C463.643 670.617 462.238 669.489 463.899 670.655C467.052 670.794 464.514 671.316 465.569 667.553C463.899 666.436 464.213 666.805 462.697 665.162L462.381 664.362C463.444 655.663 467.134 672.015 465.039 659.075C468.214 665.004 465.012 659.75 468.226 662.776C469.293 658.053 467.143 659.102 471.951 659.071V650.599L476.728 650.597C474.15 650.913 474.164 651.129 471.951 649.533C472.534 645.916 471.375 644.937 475.319 644.649L480.438 645.29C477.204 639.003 471.388 635.835 465.123 631.942C459.048 628.166 453.752 624.485 446.458 621.961L445.396 625.157C450.036 627.209 448.643 630.612 448.574 635.826L448.577 645.29C447.583 646.413 437.422 648.121 434.768 640.002L433.101 642.467C433.016 642.547 432.77 642.705 432.684 642.771L430.511 643.84V643.839ZM346.601 486.449C361.012 487.36 377.333 485.828 391.224 484.256C372.275 483.172 383.594 486.083 379.54 481.058C391.841 481.058 388.844 481.812 389.272 478C390.012 471.419 387.852 470.412 390.15 463.572C376.362 462.562 390.169 466.224 376.343 466.224L376.341 465.686C380.132 464.43 377.267 467.444 377.526 464.119C377.779 460.881 376.821 465.547 377.002 463.069C377.488 456.446 381.568 462.133 376.346 459.866C371.215 458.612 373.716 460.154 369.878 461.692L365.719 463.034C369.447 462.647 371.047 462.144 373.154 460.914C371.321 459.179 372.844 459.559 369.632 458.698L348.844 456.678L348.733 464.099C351.807 466.701 344.575 466.165 352.982 466.219V484.226C356.826 484.162 357.132 483.618 360.288 483.303C362.786 483.054 365.333 483.177 367.842 483.177C364.262 487.615 372.724 485.542 361.507 486.585L346.599 486.448L346.601 486.449ZM614.28 532.97C615.165 534.482 616.043 534.952 617.22 535.656C622.968 539.098 620.658 536.159 620.658 536.159C618.969 537.378 618.065 540.791 617.895 541.236C617.741 541.639 617.647 542.096 617.472 542.506C617.268 542.384 616.96 541.902 616.885 542.106C616.11 544.227 615.947 541.586 615.774 541.536C613.231 540.8 618.545 540.488 614.275 541.447C614.275 545.474 613.693 549.858 613.588 550.579C613.553 550.817 613.493 551.342 613.468 551.572C613.163 554.489 612.918 555.158 614.281 555.232C607.735 555.232 613.73 554.884 611.468 557.174C616.735 557.598 621.976 561.422 626.656 564.08C632.273 567.269 635.409 569.155 641.892 571.056L641.808 562.7C641.913 558.781 641.903 554.916 641.903 550.993C650.276 550.992 649.694 551.818 652.008 549.325C650.691 547.909 628.09 538.134 623.6 535.301C619.876 532.951 614.389 529.327 611.655 526.084C608.376 522.194 605.634 517.652 602.036 514.193C601.782 514.477 601.506 514.859 601.386 515.134L600.512 517.781C600.636 519.735 611.787 531.076 614.281 532.969L614.28 532.97ZM708.069 399.014C708.321 399.291 708.845 399.18 709.031 399.6C710.75 403.496 715.194 395.773 715.198 395.768L718.374 393.638C721.778 396.158 719.601 395.644 722.496 396.329C722.722 396.382 728.773 396.289 728.991 396.289V413.244C729.217 413.253 731.637 413.313 731.914 413.119L733.244 410.329C737.434 412.944 736.953 412.609 741.738 413.233C745.449 405.042 747.472 411.563 746.577 405.903C746.535 405.637 746.229 405.227 746.16 404.999C746.083 404.743 745.846 404.317 745.604 404.035C742.512 406.3 739.552 408.171 735.373 408.736C736.153 405.305 743.745 395.679 746.209 391.165C749.897 384.407 753.439 378.135 755.462 370.857C755.387 370.69 755.185 370.485 755.109 370.435L749.991 368.9C749.856 368.601 749.434 368.841 749.182 368.727C754.366 368.759 751.716 368.418 752.358 372.97L750.656 372.685C748.414 372.312 750.034 372.197 750.234 375.085C747.655 375.085 733.193 376.055 731.202 370.726C730.94 370.026 730.449 370.098 730.063 369.798C731.768 374.436 733.027 373.931 731.889 375.963C731.798 376.126 731.547 376.399 731.432 376.56L729 379.322C735.99 376.792 732.158 377.121 735.615 377.748C740.366 378.609 737.166 377.901 737.772 380.001C737.817 380.157 737.486 389.133 737.486 389.919C727.312 389.919 729.055 388.682 724.75 382.502L727.93 374.806C728.379 374.085 730.292 372.133 730.295 372.128C732.432 368.8 730.611 373.258 732.175 367.678C729.728 366.643 731.341 367.231 727.681 366.618C724.295 376.398 714.331 391.91 708.066 399.013L708.069 399.014ZM874.458 462.362C874.591 465.566 877.126 464.177 880.881 462.201L892.16 456.424C895.539 454.367 900.16 449.351 908.503 448.21L907.236 452.736C906.005 457.68 906.188 449.039 907.225 454.4L907.506 460.991C907.509 464.583 908.714 464.888 906.311 467.037L902.14 469.402L902.848 472.3C902.872 472.342 903.131 472.415 903.202 472.538C909.847 470.115 922.506 460.385 928.946 455.886C934.287 452.157 949.247 442.129 951.737 437.127C949.298 434.235 950.525 435.953 948.877 435.493L942.779 440.978C942.617 441.115 942.379 441.322 942.216 441.455C942.052 441.588 941.807 441.791 941.642 441.92C938.618 444.277 939.563 443.944 936.734 444.118C929.586 444.56 925.026 442.525 918.062 442.899C916.171 435.31 917.744 443.929 918.122 439.193L918.062 436.421C913.072 438.292 911.259 440.467 906.712 443.2L876.767 460.003C873.492 462.456 875.88 460.512 874.458 462.359V462.362ZM565.419 105.942L570.09 105.765C570.431 105.708 571.488 105.43 571.876 105.366C579.538 104.099 577.119 104.787 582.136 108.311L583.053 108.877C583.115 108.917 583.34 109.041 583.482 109.125L585.178 108.107C584.691 99.6893 563.39 70.0376 553.671 68.23C553.793 71.4005 554.337 68.8592 550.553 69.9145C549.159 68.2996 550.17 69.4513 547.898 67.6925C547.643 67.4951 546.115 66.3353 545.829 66.0718L543.47 63.5676C540.971 67.1004 539.364 64.5347 536.745 68.8557C551.63 75.5683 548.363 70.5995 546.304 78.3917C553.029 76.4077 546.906 79.0953 549.49 77.3423C548.603 79.6549 547.92 74.2437 548.83 80.4571C549.176 82.8184 548.998 81.6714 550.19 84.3985C547.121 82.498 549.205 83.0622 548.423 83.7008C551.902 85.7301 551.783 85.6535 553.871 87.7792C558.149 92.1339 559.573 92.185 562.423 97.3535C565.112 102.229 566.331 102.098 564.361 100.655C568.169 106.541 565.061 101.724 565.418 105.943L565.419 105.942ZM744.654 169.912C739.998 177.582 738.598 184.534 738.11 194.939C737.762 202.362 736.558 220.154 739.991 225.398C743.892 211.815 739.528 192.264 743.867 185.024L747.631 189.472C751.695 196.623 749.921 192.263 750.518 204.913L751.034 218.799C749.775 215.279 750.599 214.221 752.365 212.177C752.592 212.492 752.855 212.584 752.948 213.182C753.038 213.757 753.368 213.894 753.478 214.166L753.318 207.628C754.199 202.584 753.068 205.219 756.607 202.376C755.66 211.126 754.97 212.747 757.68 218.259L760.269 218.575C760.346 218.561 760.556 218.338 760.722 218.259C757.08 203.682 761.652 187.308 764.084 173.766L762.328 172.359C762.134 171.676 761.34 171.91 760.867 171.646C760.3 174.493 760.038 174.683 759.804 177.999C760.224 173.495 761.226 176.065 757.679 174.112C757.679 174.112 765.705 175.874 748.471 175.874L748.009 171.624C746.401 166.848 750.563 172.929 746.289 168.803L744.651 169.909L744.654 169.912ZM641.891 571.056C644.46 573.621 658.209 578.459 661.923 578.23C663.68 575.826 659.165 576.639 666.295 576.465C672.221 576.32 667.78 576.31 669.515 577.485L669.507 573.247C668.674 572.926 666.476 572.237 666.138 572.095L664.248 571.21C663.975 571.083 662.393 570.237 662.082 570.068C660.059 575.174 661.928 573.069 662.072 573.247C658.934 569.217 664.341 575.297 660.844 570.04C657.23 564.607 657.85 568.974 657.823 568.997C662.82 569.209 657.219 569.674 662.112 570.49C666.491 571.221 664.191 570.681 665.854 570.25C668.224 569.636 668.553 568.92 668.79 567.958L669.326 565.834C669.792 563.2 669.259 566.356 669.562 563.658C670.244 557.566 670.924 559.97 669.351 557.755L666.331 554.177L669.518 554.134C665.39 552.273 656.659 549.525 652.005 549.328C649.692 551.82 650.274 550.995 641.9 550.996C641.9 554.919 641.911 558.783 641.806 562.703L641.89 571.058L641.891 571.056ZM245.636 380.384C240.929 368.204 235.021 358.988 230.191 343.97C226.089 331.21 222.04 314.058 221.452 299.864C221.393 299.848 220.274 299.609 220.1 299.632C219.926 299.655 219.311 300.439 219.163 300.118C218.976 299.71 218.469 300.688 218.087 300.919V310.45C214.794 310.45 216.382 309.832 215.951 311.515C220.947 318.52 219.16 341.035 219.137 351.782C219.122 358.976 218.07 361.316 220.2 363.441C222.27 365.507 227.28 364.876 229.732 364.003L232.953 362.381C234.09 368.276 234.718 369.084 237.976 373.146C242.206 378.418 240.787 377.579 241.162 379.64L241.454 381.444C242.014 381.37 242.673 381.356 243.14 381.272L245.636 380.384V380.384ZM464.81 673.31C472.69 683.225 481.181 717.448 493.328 688.82C503.033 665.948 514.717 662.443 521.869 653.343L520.807 651.657L499.558 671.78H477.252C478.583 673.035 478.412 669.562 478.194 674.795L476.988 678.933C476.705 678.911 476.321 678.852 476.148 678.796L472.971 677.079C471.592 675.976 471.79 678.002 471.94 676.029C470.036 674.394 470.658 673.372 468.988 672.469C467.234 671.52 465.189 672.893 464.809 673.31H464.81ZM170.291 455.974C167.622 455.893 167.471 455.463 164.966 457.738C166.526 458.753 165.643 461.877 165.769 462.746C166.078 464.867 165.611 463.655 167.091 464.105C155.294 462.904 168.588 465.02 157.526 466.328L151.498 468.348C151.299 468.397 150.254 468.423 150.096 468.332C150.29 468.627 149.935 469.464 149.851 470.226L149.772 470.817C149.876 471.441 149.942 470.877 150.102 470.461L145.853 474.689C150.543 473.309 147.967 472.899 150.102 473.635C148.597 477.521 149.045 476.587 149.045 481.052L155.767 483.59C158.409 482.017 156.125 483.476 155.947 483.171C151.325 493.474 154.81 487.594 158.491 492.298L161.792 491.467L166.035 483.17C171.092 483.791 166.392 484.644 172.413 484.23C172.391 478.665 173.148 468.441 171.34 464.102L173.307 464.317C173.398 464.34 173.676 464.412 173.777 464.445C173.898 464.484 174.176 464.619 174.314 464.67C180.085 466.847 178.574 466.21 185.148 466.21C185.148 465.622 185.278 461.414 185.196 460.823C184.546 456.114 179.196 453.607 181.962 455.614C176.319 455.709 176.083 457.497 173.677 457.432C168.886 457.303 170.328 456.007 170.292 455.97L170.291 455.974ZM818.621 321.134C817.519 322.01 817.885 321.564 816.847 322.782C816.268 323.462 816.031 323.752 815.494 324.617C813.994 327.034 813.875 327.819 813.023 330.582C815.228 330.869 810.052 330.712 814.4 330.464L821.437 330.642C827.205 330.548 823.449 328.699 830.963 328.473C830.963 335.377 830.641 343.232 832.025 348.595H826.71C827.939 347.672 829.396 348.826 829.396 348.826C833.586 350.829 828.118 349.5 833.086 350.724C831.581 353.198 830.037 353.587 828.997 356.716C827.279 361.882 831.024 357.097 824.172 366.358C822.979 367.97 821.67 369.724 820.35 370.856C820.518 371.457 820.596 371.924 820.745 372.681C820.83 373.113 821.171 373.533 821.263 373.611C821.318 373.658 821.742 373.507 821.905 373.645C830.475 369.375 849.124 330.894 852.204 316.815L849.129 314.714L847.956 323.162C847.617 323.061 845.785 322.208 845.575 322.178C842.307 321.705 847.549 320.964 844.61 322.585L843.616 323.4C839.039 325.497 833.246 323.599 825.699 324.668C819.022 325.614 830.228 325.5 823.532 324.228C822.169 327.776 825.271 326.185 821.408 327.401C822.75 322.234 818.822 321.256 818.62 321.133L818.621 321.134ZM515.845 61.8018L528.534 71.7326C540.576 80.9296 556.685 92.7794 563.88 105.672L565.421 105.942C565.064 101.724 568.171 106.541 564.364 100.654C566.335 102.097 565.115 102.228 562.427 97.3523C559.577 92.1838 558.153 92.1327 553.874 87.778C551.786 85.6523 551.905 85.7289 548.427 83.6996C549.209 83.0611 547.125 82.4969 550.193 84.3973C549.001 81.6703 549.18 82.8173 548.834 80.4559C547.924 74.2437 548.607 79.6549 549.494 77.3411C546.909 79.0941 553.033 76.4054 546.307 78.3906C548.365 70.5972 551.634 75.566 536.748 68.8546C539.368 64.5335 540.975 67.0992 543.474 63.5665L545.833 66.0706C546.119 66.3342 547.647 67.4928 547.902 67.6913C550.173 69.4501 549.162 68.2996 550.556 69.9134C554.341 68.8592 553.796 71.3994 553.674 68.2288C551.287 64.2236 545.448 61.2295 541.044 58.2145C537.422 55.7347 530.307 50.8924 527.618 47.9877C527.56 48.055 521.354 46.9452 527.843 53.2898C530.02 55.4178 529.77 54.2081 531.437 56.1387C529.717 57.2149 528.779 60.8974 528.645 60.5619C528.574 60.3843 528.381 61.1482 528.239 61.4373C516.914 60.4087 520.803 63.6257 519.213 59.329C512.297 59.329 517.589 58.781 515.846 61.8018H515.845ZM383.834 616.245L388.278 620.708C395.403 626.046 415.681 637.388 423.08 640.058C422.277 632.309 421.032 638.098 420.916 629.46C420.825 622.74 420.074 621.495 423.08 615.63C418.99 616.431 421.352 615.506 416.164 615.535L392.282 616.679L390.842 613.26C389.82 612.215 391.309 612.741 386.976 611.392C386.574 614.677 387.002 609.771 387.07 614.284L387.032 615.332C387.032 615.268 387.035 615.548 386.976 615.629C386.896 615.572 385.891 615.236 385.723 615.254C380.131 615.899 386.199 614.212 383.834 616.243V616.245ZM130.805 476.125L137.285 480.733C137.599 480.843 138.04 480.933 138.412 481.053C138.412 483.02 138.165 488.473 138.522 490.045C139.282 493.388 139.912 493.354 143.723 494.823L140.39 490.786C140.193 490.418 140.134 489.954 140.013 489.536C140.267 489.735 140.774 489.521 140.901 489.916C143.362 497.519 137.954 487.104 142.424 490.644C143.427 491.439 143.41 487.866 143.728 492.71C149.766 493.294 145.36 495.62 143.733 495.895C147.309 502.295 144.561 497.703 147.31 498.745C149.655 497.647 150.877 496.917 153.2 495.807C156.564 494.2 156.117 495.183 158.49 492.301C154.809 487.595 151.324 493.477 155.946 483.173C156.124 483.477 158.407 482.019 155.766 483.592L149.044 481.055C149.044 476.59 148.596 477.522 150.1 473.637C147.966 472.901 150.541 473.311 145.851 474.691L150.1 470.463C149.941 470.88 149.875 471.443 149.771 470.82L149.85 470.229C149.934 469.466 150.289 468.629 150.095 468.334C150.253 468.426 151.298 468.399 151.497 468.35L157.525 466.33C168.587 465.021 155.293 462.905 167.09 464.107C165.611 463.658 166.077 464.87 165.768 462.749C165.643 461.879 166.525 458.755 164.965 457.74C160.403 459.079 134.598 471.009 130.804 476.126L130.805 476.125ZM740.233 472.365L756.095 476.27C776.839 480.92 791.723 487.793 803.346 490.558C807.932 490.676 803.371 491.169 805.47 487.417C799.171 486.138 800.386 484.33 794.859 482.113V474.696C785.924 474.64 794.477 474.145 789.892 472.829C787.616 472.176 784.585 472.545 782.134 472.565C774.808 472.627 769.092 473.743 765.118 470.457C767.118 466.677 765.456 470.702 765.107 471.512C759.001 473.798 758.262 471.512 751.31 471.512C751.505 466.812 752.28 470.89 752.362 470.99C748.862 470.72 744.468 468.198 740.234 472.365H740.233ZM318.764 443.335C311.175 439.883 302.918 436.196 296.043 431.877C292.05 429.369 289.704 427.869 285.856 425.071C281.373 421.811 280.385 420.465 275.444 417.515L276.098 421.903C277.844 424.388 281.415 425.312 283.361 428.054L287.118 432.311V447.146C297.537 447.211 281.649 449.429 306.248 449.266C307.644 446.581 304.407 449.587 308.281 447.933L315.679 445.245C316.096 445.063 316.328 444.941 316.714 444.748L318.763 443.337L318.764 443.335ZM342.363 562.464C347.828 560.598 349.435 557.725 355.398 557.212C357.277 564.61 355.767 578.019 360.832 583.467C362.617 581.658 362.966 580.61 362.6 576.52C362.582 576.322 362.505 576.015 362.487 575.832C362.043 571.533 362.742 571.533 365.722 569.007L366.731 578.026C368.931 584.144 365.028 577.413 367.364 581.562C368.513 583.602 366.998 582.598 369.98 582.78L369.981 550.987C366.221 550.96 370.796 553.101 357.235 553.101C357.123 552.754 357.505 551.682 355.901 551.465C355.397 551.396 354.736 551.588 353.799 551.711C351.135 552.06 352.391 551.655 351.147 553.342L342.364 558.41V562.462L342.363 562.464ZM661.923 578.23C662.151 578.412 662.459 578.637 662.632 578.741L683.318 584.858C691.215 585.161 685.13 584.841 687.567 582.777C681.402 579.582 682.255 582.116 682.261 575.365L687.571 579.598C684.322 574.558 688.886 576.048 688.638 576.419L688.637 570.056H680.16C680.667 566.114 678.393 567.538 681.197 565.818C674.587 565.818 675.704 565.05 673.767 562.649C676.579 561.596 676.171 561.589 680.141 561.589C679.755 562.1 680.37 563.967 677.775 562.415C674.081 560.207 676.481 563.33 674.83 558.411C678.331 559.697 680.267 560.455 684.379 560.519L685.493 558.72C682.529 556.419 673.317 554.948 669.519 554.132L666.333 554.175L669.352 557.753C670.925 559.968 670.245 557.563 669.563 563.656C669.261 566.355 669.794 563.197 669.327 565.832L668.792 567.956C668.554 568.919 668.225 569.635 665.855 570.248C664.192 570.678 666.492 571.218 662.113 570.488C657.22 569.672 662.821 569.205 657.824 568.995C657.851 568.973 657.232 564.604 660.845 570.038C664.342 575.294 658.936 569.213 662.073 573.244C661.928 573.067 660.06 575.171 662.084 570.066C662.394 570.235 663.975 571.08 664.249 571.208L666.139 572.093C666.477 572.234 668.675 572.924 669.508 573.244L669.517 577.483C667.781 576.309 672.222 576.317 666.296 576.462C659.166 576.637 663.681 575.824 661.924 578.228L661.923 578.23ZM507.213 629.836C506.64 633.93 511.251 632.29 514.427 631.525C511.667 635.723 512.097 633.872 512.273 641.013L512.673 650.971C513.611 654.961 513.196 651.472 513.524 651.576L516.101 651.686C516.401 651.657 517.36 651.407 517.675 651.384C520.575 651.173 518.143 650.292 520.806 651.657L521.868 653.343C524.993 652.718 534.955 646.38 536.705 643.827C534.57 641.616 532.966 644.393 528.247 642.121C528.499 639.818 527.787 641.619 528.973 639.039C530.764 635.138 529.578 637.771 530.372 637.345C527.354 637.972 518.718 639.242 518.571 634.542L519.366 624.711C519.108 619.359 520.614 625.215 518.677 623.116C514.201 624.708 509.66 626.301 507.214 629.836H507.213ZM385.968 99.5848L392.275 98.5365C392.36 98.8569 392.404 99.0427 392.424 99.5187C392.441 99.9552 392.518 100.252 392.542 100.421C392.563 100.564 392.609 101.033 392.638 101.187C392.712 101.586 390.15 103.351 395.272 102.304C395.582 102.24 397.243 101.806 397.585 101.716C395.634 115.548 396.532 93.8892 396.533 116.54L397.595 116.543C397.595 121.29 396.824 122.582 399.677 126.078C397.222 103.135 412.124 98.3867 413.999 90.5712C413.874 90.3901 414.121 89.978 414.082 89.9188C414.023 89.8294 413.278 89.8131 413.218 89.3952C413.107 88.629 412 89.1665 411.405 89.0005C408.345 93.5595 405.404 94.6682 400.421 93.1462C398.5 92.5599 398.579 93.1718 397.621 90.6409C397.583 90.5399 397.535 90.1997 397.503 90.1011C397.474 90.0128 397.443 89.6936 397.415 89.6123L396.692 88.4026C396.67 88.3759 396.429 88.3074 396.412 88.1681C396.394 88.0195 396.18 88.0369 396.102 87.9336C398.217 87.3194 397.609 87.309 398.444 86.5927C401.113 84.3033 402.993 81.6296 402.122 77.867C399.25 79.1557 400.899 77.8867 398.39 80.2632L392.84 87.4344C390.076 91.1064 387.482 94.8099 385.968 99.5837V99.5848ZM229.77 412.173L231.288 410.203C232.052 408.1 230.528 409.422 229.703 409.004L229.502 409.415L206.383 391.544C204.394 391.045 205.811 391.741 203.894 390.282C201.047 388.114 195.747 381.409 191.002 379.288C187.866 379.393 190.477 378.675 189.405 382.504L206.663 397.345C211.909 401.379 208.274 401.36 212.235 400.791L211.155 402.607C209.268 407.194 210.6 406.523 210.644 413.243L213.564 414.201C219.103 416.346 222.005 415.362 229.768 415.362C231.488 411.048 228.969 416.224 228.173 412.178L229.768 412.172L229.77 412.173ZM530.43 489.146C532.939 491.746 535.112 492.027 538.504 494.155C541.403 495.973 543.731 497.501 546.196 499.199C552.101 503.268 556.142 506.806 560.707 511.496C560.984 511.243 561.244 510.341 561.29 510.531C561.295 510.557 564.114 508.109 558.248 504.091C555.322 502.087 558.271 503.664 554.796 502.253C559.388 500.673 557.466 500.849 557.982 502.242C556.616 500.877 557.201 502.238 556.137 499.954C554.78 497.037 555.672 498.767 554.801 495.895L562.5 497.218C562 497.494 558.64 500.822 557.086 493.88C556.819 492.683 556.924 490.703 556.924 489.538C562.683 492.811 565.106 497.362 573.919 495.218L566.75 491.325C563.568 490.002 561.632 488.529 559.481 486.654C558.029 483.711 558.285 484.196 556.075 482.332L557.232 482.715C553.957 482.503 555.041 486.245 552.671 489.528C548.606 489.528 543.126 490.486 541.088 490.216C536.932 489.665 536.415 487.649 530.429 489.149L530.43 489.146ZM721.706 152.933L722.858 154.563C726.601 154.14 732.127 151.988 733.334 158.313C733.418 158.75 733.338 160.539 732.18 161.055L734.843 163.7C729.911 162.283 732.424 162.851 733.254 157.876C737.327 159.415 736.899 159.98 737.697 163.312L738.558 166.343L746.208 164.474L740.688 150.986C748.259 151.641 760.4 150.448 770.419 150.448C767.574 146.925 770.172 148.103 765.167 147.099L750.237 147.289C745.394 147.877 725.936 149.502 721.707 152.934L721.706 152.933ZM401.843 78.3929C410.762 77.7776 408.408 72.2736 412.462 74.5873C414.331 75.6531 415.806 84.3033 415.289 85.8485C414.524 88.1356 413.454 85.3516 414.001 90.5701C416.909 90.0268 429.043 79.4923 432.055 76.7827C433.638 75.3582 433.87 74.8218 434.693 73.7456C434.28 73.3776 436.476 69.7172 430.574 73.2488C429.564 73.8524 429.822 73.6017 428.561 75.2084C427.562 76.4785 428.108 75.3059 427.334 77.3411L424.389 76.4193C424.211 76.4112 422.374 77.1263 422.023 77.16C421.778 76.8941 421.567 76.4901 421.408 76.2695L416.625 70.8932C416.423 70.2396 415.938 70.2872 415.655 69.9284C418.277 68.533 422.007 67.2409 419.893 63.5734C413.838 66.3701 405.063 72.5533 401.844 78.3941L401.843 78.3929ZM514.634 458.12L515.715 459.748C520.935 459.628 517.533 460.526 521.868 458.274L526.117 457.747C526.579 458.759 526.856 458.525 526.921 460.534C526.971 462.068 526.129 462.916 521.868 464.094C518.278 461.902 519.645 466.589 520.273 458.806L517.617 462.414C514.882 464.017 519.729 459.148 515.231 463.039C515.505 463.203 515.954 463.047 516.101 463.433C517.054 465.934 530.489 467.249 534.964 465.966C539.549 464.65 530.996 464.155 539.931 464.099L539.93 457.736C536.747 457.156 537.883 457.511 536.21 456.676C536.463 455.158 536.832 453.588 537 451.824L536.733 448.318C532.257 449.764 529.6 451.611 525.138 453.548C521.825 454.987 517.135 455.83 514.633 458.119L514.634 458.12ZM401.843 78.3929L402.121 77.8682C402.992 81.6296 401.112 84.3033 398.443 86.5938C397.608 87.309 398.216 87.3206 396.101 87.9347C396.179 88.0381 396.393 88.0206 396.411 88.1692C396.428 88.3086 396.669 88.3771 396.691 88.4038L397.414 89.6135C397.442 89.6947 397.473 90.014 397.502 90.1022C397.534 90.1997 397.583 90.5399 397.62 90.6421C398.578 93.1729 398.5 92.5611 400.42 93.1474C405.403 94.6694 408.344 93.5607 411.403 89.0016C411.999 89.1677 413.106 88.6301 413.217 89.3964C413.277 89.8143 414.022 89.8306 414.081 89.92C414.12 89.978 413.873 90.3913 413.997 90.5724C413.452 85.3528 414.521 88.1379 415.286 85.8508C415.802 84.3056 414.328 75.6554 412.459 74.5896C408.404 72.277 410.759 77.7799 401.84 78.3952L401.843 78.3929ZM772.47 382.958C774.428 385.582 771.418 383.911 776.789 384.624C778.512 380.824 780.382 380.027 781.043 378.271L781.573 384.103C781.577 376.685 781.074 383.236 784.225 380.397C785.367 381.928 787.18 382.014 789.797 381.243C794.567 379.839 785.878 379.388 794.857 379.331L794.855 372.968C792.487 372.505 794.085 373.622 792.207 370.717C792.033 370.449 791.962 370.135 791.794 369.847L789.485 366.541C786.301 364.602 788.12 366.316 787.857 366.553C784.164 369.077 773.934 379.872 772.469 382.958H772.47ZM206.383 391.544L229.502 409.415L231.861 407.94L216.604 384.625C216.604 384.625 212.854 384.812 216.484 390.454C211.139 389.521 213.627 388.668 210.237 390.258L207.06 391.381C206.978 391.168 206.58 391.424 206.383 391.544V391.544ZM132.047 395.061L158.591 393.203C157.907 387.702 151.049 380.224 146.254 377.594C139.277 397.543 154.049 378.281 132.047 395.061ZM556.955 601.245C558.061 602.178 561.401 605.067 561.703 601.857C564.019 601.857 566.823 602.217 568.988 601.599C573.512 600.308 564.988 599.788 573.921 599.732C573.921 595.54 573.361 587.064 576.035 584.892C573.615 576.252 577.116 584.638 574.287 581.548L559.637 598.172C559.425 598.405 558.795 599.083 558.587 599.318L556.955 601.245ZM77.1939 480.583C79.7972 484.445 86.6844 487.502 91.1463 490.108C93.0723 491.233 96.1307 493.098 98.5083 494.422C101.741 496.221 102.72 495.795 104.254 499.068C102.412 503.782 101.023 501.254 98.1498 505.85C101.456 506.849 101.909 505.939 104.42 504.225C106.315 501.191 105.203 504.098 106.357 501.772C107.057 500.359 107.199 503.609 107.042 499.245C106.769 491.671 89.6322 488.393 85.4508 482.94C81.5894 477.903 87.7469 483.956 84.7921 481.336C82.638 479.426 85.3961 483.933 80.1929 479.769L76.7551 478.953L77.195 480.584L77.1939 480.583ZM871.005 505.192C871.237 504.993 872.059 504.255 873.107 503.764C874.375 503.172 877.151 503.328 875.044 502.511C875.925 500.561 873.465 498.345 873.405 498.058C873.292 497.511 872.877 497.523 872.66 497.217C875.583 496.21 875.637 497.902 876.196 493.038L876.309 490.769C871.978 491.756 872.344 492.248 868.679 494.323C865.382 496.19 864.429 495.703 862.903 499.069C864.014 501.913 863.344 500.996 865.567 502.655C867.274 503.929 868.926 504.572 871.005 505.193V505.192ZM276.008 417.437L260.59 400.443C259.173 398.977 260.257 400 258.411 398.879C258.266 401.848 258.692 403.556 260.038 405.208C262.013 407.633 262.494 406.531 264.9 408.917C268.12 412.108 264.045 410.432 271.158 415.538C273.077 416.916 271.563 415.323 273.312 417.601L276.008 417.435V417.437ZM481.036 127.395L484.835 125.228C487.023 129.37 486.239 130.593 489.279 133.767C492.761 133.172 489.923 134.111 491.013 131.38C487.659 124.053 484.929 119.386 478.889 126.081C479.686 128.324 478.052 126.393 481.036 127.395V127.395ZM52.3707 192.788C52.8397 190.271 49.8535 191.6 54.2607 186.836L52.3707 186.453C48.3348 187.638 49.1087 186.707 46.8277 189.658C49.3368 192.367 48.4151 191.442 52.3707 192.788Z" fill="#8095A9"/>
</g>
</svg>
