<svg width="14" height="10" viewBox="0 0 14 10" fill="none" xmlns="http://www.w3.org/2000/svg">
<path fill-rule="evenodd" clip-rule="evenodd" d="M14.0009 4.50063C14.0009 4.36802 13.9482 4.24085 13.8544 4.14708C13.7607 4.05331 13.6335 4.00063 13.5009 4.00063H1.70789L4.85489 0.854632C4.90138 0.808144 4.93826 0.752955 4.96342 0.692215C4.98858 0.631476 5.00153 0.566375 5.00153 0.500632C5.00153 0.434888 4.98858 0.369788 4.96342 0.309048C4.93826 0.248309 4.90138 0.193119 4.85489 0.146631C4.80841 0.100144 4.75322 0.0632674 4.69248 0.0381083C4.63174 0.0129493 4.56664 0 4.50089 0C4.43515 0 4.37005 0.0129493 4.30931 0.0381083C4.24857 0.0632674 4.19338 0.100144 4.14689 0.146631L0.146894 4.14663C0.100331 4.19308 0.0633877 4.24825 0.0381812 4.309C0.0129748 4.36974 0 4.43486 0 4.50063C0 4.5664 0.0129748 4.63152 0.0381812 4.69226C0.0633877 4.75301 0.100331 4.80819 0.146894 4.85463L4.14689 8.85463C4.19338 8.90112 4.24857 8.938 4.30931 8.96315C4.37005 8.98831 4.43515 9.00126 4.50089 9.00126C4.56664 9.00126 4.63174 8.98831 4.69248 8.96315C4.75322 8.938 4.80841 8.90112 4.85489 8.85463C4.90138 8.80814 4.93826 8.75295 4.96342 8.69221C4.98858 8.63148 5.00153 8.56638 5.00153 8.50063C5.00153 8.43489 4.98858 8.36979 4.96342 8.30905C4.93826 8.24831 4.90138 8.19312 4.85489 8.14663L1.70789 5.00063H13.5009C13.6335 5.00063 13.7607 4.94795 13.8544 4.85419C13.9482 4.76042 14.0009 4.63324 14.0009 4.50063Z" fill="black"/>
</svg>
