<svg width="133" height="326" viewBox="0 0 133 326" fill="none" xmlns="http://www.w3.org/2000/svg">
<path d="M0.000827074 66.5636C0.000827074 29.9689 29.6609 0.30298 66.2485 0.30298C102.836 0.30298 132.496 29.9689 132.496 66.5636C132.496 103.158 102.836 132.824 66.2485 132.824C29.6609 132.824 0.000827074 103.158 0.000827074 66.5636Z" fill="white"/>
<ellipse cx="67.3083" cy="305.115" rx="19.5485" ry="20.0954" fill="#DC3545"/>
<line x1="1" y1="-1" x2="153.064" y2="-1" transform="matrix(-0.00613365 0.999981 -0.999981 -0.00613605 67.5742 131.061)" stroke="#DC3545" stroke-width="2" stroke-linecap="square" stroke-dasharray="4 4"/>
<ellipse cx="66.2476" cy="66.2606" rx="66.2476" ry="66.2606" fill="#E83E8C" fill-opacity="0.1"/>
<ellipse cx="66.3744" cy="66.3818" rx="40.183" ry="40.1909" fill="#DC3545" fill-opacity="0.2"/>
<path d="M62.7329 66.6326C64.4613 66.6326 65.8624 65.2315 65.8624 63.5032C65.8624 61.7749 64.4613 60.3738 62.7329 60.3738C61.0046 60.3738 59.6035 61.7749 59.6035 63.5032C59.6035 65.2315 61.0046 66.6326 62.7329 66.6326Z" fill="#DC3545"/>
<path d="M62.7317 44.7267C57.7518 44.7267 52.9759 46.705 49.4546 50.2263C45.9333 53.7476 43.9551 58.5234 43.9551 63.5033C43.9551 68.4832 45.9333 73.2591 49.4546 76.7804C52.9759 80.3017 57.7518 82.2799 62.7317 82.2799V79.1505C59.6369 79.1505 56.6117 78.2328 54.0386 76.5134C51.4654 74.7941 49.4599 72.3504 48.2756 69.4912C47.0913 66.6321 46.7814 63.486 47.3852 60.4507C47.9889 57.4155 49.4792 54.6274 51.6675 52.4391C53.8557 50.2508 56.6438 48.7606 59.6791 48.1568C62.7143 47.5531 65.8604 47.8629 68.7196 49.0472C71.5787 50.2315 74.0225 52.2371 75.7418 54.8102C77.4611 57.3834 78.3788 60.4086 78.3788 63.5033C78.4104 64.0244 78.4104 64.5469 78.3788 65.068H81.5082C81.5082 64.5517 81.5865 64.0353 81.5865 63.5033C81.5865 61.0309 81.0982 58.5829 80.1497 56.2997C79.2012 54.0165 77.8112 51.9431 76.0593 50.1985C74.3074 48.4539 72.2283 47.0725 69.9412 46.1335C67.6541 45.1945 65.204 44.7164 62.7317 44.7267V44.7267Z" fill="#DC3545"/>
<path d="M67.4258 79.1503H81.7742L77.7216 83.2029L79.9435 85.4091L87.7671 77.5855L79.9435 69.762L77.7216 71.9839L81.7742 76.0208H67.4258V79.1503Z" fill="#DC3545"/>
<path d="M62.732 72.8916C60.8752 72.8916 59.0601 72.341 57.5162 71.3094C55.9723 70.2778 54.769 68.8115 54.0584 67.096C53.3478 65.3805 53.1619 63.4929 53.5241 61.6717C53.8864 59.8506 54.7805 58.1777 56.0935 56.8648C57.4065 55.5518 59.0793 54.6576 60.9005 54.2954C62.7216 53.9331 64.6093 54.1191 66.3248 54.8296C68.0403 55.5402 69.5065 56.7435 70.5381 58.2874C71.5697 59.8313 72.1203 61.6465 72.1203 63.5033C72.1203 65.9932 71.1312 68.3812 69.3706 70.1418C67.6099 71.9025 65.222 72.8916 62.732 72.8916V72.8916ZM62.732 57.2444C61.4942 57.2444 60.2841 57.6115 59.2548 58.2992C58.2255 58.987 57.4233 59.9645 56.9496 61.1081C56.4759 62.2518 56.3519 63.5102 56.5934 64.7243C56.8349 65.9384 57.431 67.0536 58.3064 67.929C59.1817 68.8043 60.2969 69.4004 61.511 69.6419C62.7251 69.8834 63.9835 69.7594 65.1272 69.2857C66.2709 68.812 67.2484 68.0098 67.9361 66.9805C68.6238 65.9513 68.9909 64.7412 68.9909 63.5033C68.9909 61.8433 68.3315 60.2514 67.1577 59.0776C65.984 57.9038 64.392 57.2444 62.732 57.2444V57.2444Z" fill="#DC3545"/>
</svg>
