<svg width="60" height="60" viewBox="0 0 60 60" fill="none" xmlns="http://www.w3.org/2000/svg">
<circle cx="30" cy="30" r="30" fill="#17A2B8" fill-opacity="0.1"/>
<circle cx="30.0807" cy="30.0807" r="23.6461" fill="#17A2B8" fill-opacity="0.2"/>
<path d="M40.3753 29.2362C40.4063 29.5344 40.4218 29.8463 40.4218 30.1755C40.4218 32.4109 39.6428 33.9137 38.8879 34.8548C38.5831 35.2369 38.2343 35.5816 37.8487 35.8819C37.7183 35.9824 37.5825 36.0756 37.4419 36.1611L37.4264 36.1698C37.2898 36.2437 37.1757 36.3532 37.0962 36.4867C37.0167 36.6202 36.9748 36.7727 36.9748 36.9281V39.1945C36.9748 39.423 36.8841 39.6422 36.7225 39.8038C36.5608 39.9654 36.3417 40.0562 36.1131 40.0562H35.2514C35.2514 39.5991 35.0698 39.1607 34.7466 38.8375C34.4234 38.5143 33.985 38.3327 33.5279 38.3327H30.0809C29.6238 38.3327 29.1855 38.5143 28.8623 38.8375C28.539 39.1607 28.3575 39.5991 28.3575 40.0562H27.4957C27.2672 40.0562 27.048 39.9654 26.8864 39.8038C26.7248 39.6422 26.634 39.423 26.634 39.1945V38.1552C26.6342 37.9414 26.555 37.7352 26.4116 37.5766C26.2683 37.418 26.0711 37.3183 25.8584 37.2969C25.5853 37.2376 25.3178 37.1552 25.0587 37.0505C24.3715 36.7732 23.7481 36.3585 23.2267 35.832C22.4632 35.0564 21.9961 34.0361 21.7445 33.3278C21.498 32.6229 20.9327 31.9852 20.1244 31.7577C20.0138 31.7262 19.9165 31.6596 19.8471 31.5678C19.7778 31.4761 19.7402 31.3642 19.7401 31.2492V29.8808C19.74 29.7722 19.7753 29.6666 19.8406 29.5798C19.9059 29.493 19.9976 29.4299 20.102 29.4C20.9379 29.1604 21.4963 28.4848 21.7324 27.7713C21.9254 27.1853 22.2667 26.4339 22.8217 25.8703C23.4574 25.2356 24.192 24.7082 24.9967 24.3088C25.0639 24.2743 25.1173 24.2502 25.1518 24.2347L25.1863 24.2175L25.1932 24.2157C25.3483 24.1492 25.4804 24.0387 25.5733 23.8977C25.6661 23.7568 25.7155 23.5917 25.7154 23.4229V20.5378C26.0987 20.8648 26.5016 21.1681 26.9218 21.4461C27.4682 21.8046 28.1058 22.1441 28.7728 22.3251C28.9693 21.7598 29.2382 21.2221 29.5725 20.7257H29.5622C29.0813 20.6757 28.4936 20.4155 27.8646 20.0036C27.2881 19.616 26.746 19.1795 26.2445 18.6989C26.057 18.5231 25.8228 18.4052 25.57 18.3593C25.3171 18.3134 25.0564 18.3416 24.8192 18.4404C24.5758 18.5368 24.367 18.7039 24.2195 18.9202C24.0721 19.1365 23.9928 19.3919 23.9919 19.6537V22.8887C23.1132 23.3623 22.3065 23.9589 21.5963 24.6604C20.7742 25.4911 20.3278 26.5286 20.0968 27.2301C20.0003 27.5179 19.8073 27.692 19.6281 27.742C19.1638 27.8749 18.7554 28.1553 18.4647 28.5409C18.174 28.9264 18.0167 29.3962 18.0166 29.8791V31.2492C18.0166 32.2575 18.687 33.1416 19.6556 33.4157C19.7658 33.454 19.8654 33.5179 19.9463 33.6021C20.0272 33.6862 20.087 33.7883 20.121 33.9C20.4071 34.7134 20.9793 36.0078 21.9996 37.0418C22.8118 37.8629 23.8105 38.4755 24.9105 38.8274V39.1945C24.9105 39.8801 25.1829 40.5377 25.6677 41.0225C26.1525 41.5073 26.8101 41.7797 27.4957 41.7797H28.3575C28.8146 41.7797 29.2529 41.5981 29.5761 41.2749C29.8994 40.9517 30.0809 40.5133 30.0809 40.0562H33.5279C33.5279 40.5133 33.7095 40.9517 34.0327 41.2749C34.3559 41.5981 34.7943 41.7797 35.2514 41.7797H36.1131C36.7988 41.7797 37.4563 41.5073 37.9411 41.0225C38.426 40.5377 38.6983 39.8801 38.6983 39.1945V37.3969C39.2728 36.9793 39.7887 36.4866 40.2322 35.9319C41.2008 34.7255 42.1453 32.8504 42.1453 30.1755C42.1453 29.0553 41.9867 28.0522 41.6799 27.156C41.3727 27.9217 40.9308 28.6262 40.3753 29.2362Z" fill="#00AAC5"/>
<path d="M40.0629 22.6056C40.4937 23.6453 40.5736 24.7971 40.2906 25.8863C40.0076 26.9756 39.377 27.9428 38.4945 28.6412C37.7758 29.2082 36.7917 29.1651 35.9472 28.8135L31.8281 27.109C30.9836 26.7592 30.2563 26.0939 30.1494 25.1856C30.0063 23.9468 30.3156 22.698 31.0204 21.6692C31.7251 20.6403 32.7779 19.9008 33.9847 19.5867C35.1916 19.2726 36.4713 19.4051 37.5882 19.9598C38.705 20.5146 39.5839 21.4542 40.0629 22.6056ZM37.4259 27.2883C37.8977 26.9155 38.2637 26.4259 38.4879 25.868C38.712 25.3102 38.7864 24.7034 38.7037 24.1079C38.6209 23.5124 38.384 22.9489 38.0163 22.4732C37.6486 21.9976 37.1629 21.6263 36.6075 21.3962C36.052 21.1662 35.4461 21.0853 34.8497 21.1617C34.2534 21.238 33.6874 21.469 33.2078 21.8316C32.7282 22.1942 32.3518 22.6759 32.1158 23.2288C31.8799 23.7818 31.7925 24.3869 31.8626 24.984C31.866 25.0184 31.8798 25.0822 31.9763 25.1839C32.0797 25.2942 32.2521 25.4183 32.4882 25.5165L36.6073 27.2228C36.8434 27.321 37.0537 27.3555 37.2053 27.3486C37.3432 27.3451 37.4001 27.3089 37.4259 27.2883Z" fill="#00AAC5"/>
<path d="M26.2028 28.8538C26.5456 28.8538 26.8744 28.7176 27.1168 28.4752C27.3592 28.2328 27.4954 27.904 27.4954 27.5612C27.4954 27.2183 27.3592 26.8896 27.1168 26.6472C26.8744 26.4047 26.5456 26.2686 26.2028 26.2686C25.8599 26.2686 25.5312 26.4047 25.2888 26.6472C25.0463 26.8896 24.9102 27.2183 24.9102 27.5612C24.9102 27.904 25.0463 28.2328 25.2888 28.4752C25.5312 28.7176 25.8599 28.8538 26.2028 28.8538Z" fill="#00AAC5"/>
</svg>
