<svg width="80" height="80" viewBox="0 0 80 80" fill="none" xmlns="http://www.w3.org/2000/svg">
<circle cx="40" cy="40" r="40" fill="#DAC388" fill-opacity="0.2"/>
<ellipse cx="40.1063" cy="40.1073" rx="31.5282" ry="31.5281" fill="#DAC388" fill-opacity="0.4"/>
<g clip-path="url(#clip0)">
<path d="M33.1006 33.295C42.1838 33.295 48.9708 29.7042 48.9708 26.4935C48.9708 23.2831 42.1836 19.6923 33.1006 19.6923C24.0175 19.6923 17.2305 23.2831 17.2305 26.4935C17.2305 29.7042 24.0174 33.295 33.1006 33.295Z" fill="#D2B770"/>
<path d="M33.1006 60.5025C34.4263 60.5025 35.7023 60.4254 36.9161 60.285C35.893 58.9701 35.0469 57.511 34.413 55.944C33.9775 55.9586 33.5405 55.9688 33.1004 55.9688C27.9103 55.9688 22.9952 54.9404 19.2608 53.0731C18.5256 52.7055 17.8489 52.3105 17.2305 51.8923V53.7012C17.2305 56.9117 24.0174 60.5025 33.1006 60.5025H33.1006Z" fill="#D2B770"/>
<path d="M33.1007 51.4321C33.1473 51.4321 33.1931 51.4313 33.2395 51.4312C33.1465 50.688 33.098 49.9311 33.098 49.1631C33.098 48.3955 33.1464 47.639 33.2395 46.8965C33.1931 46.8965 33.1471 46.8982 33.1007 46.8982C27.9106 46.8982 22.9956 45.8698 19.2611 44.0025C18.5257 43.6349 17.8489 43.2399 17.2305 42.8219V44.6307C17.2306 47.8412 24.0175 51.4321 33.1008 51.4321L33.1007 51.4321Z" fill="#D2B770"/>
<path d="M33.1007 42.3631C33.5506 42.3631 33.9944 42.354 34.4327 42.3368C35.1365 40.61 36.0984 39.015 37.2712 37.6005C35.9134 37.7501 34.5179 37.8295 33.1007 37.8295C27.9106 37.8295 22.9956 36.8011 19.2611 34.9338C18.5257 34.566 17.8489 34.1712 17.2305 33.7531V35.562C17.2306 38.7725 24.0175 42.3631 33.1008 42.3631H33.1007Z" fill="#D2B770"/>
<path d="M39.9049 41.6481C38.9238 43.1231 38.2228 44.7994 37.878 46.6008C37.7188 47.4311 37.6348 48.2878 37.6348 49.1638C37.6348 49.8225 37.6829 50.4701 37.7737 51.104C37.997 52.6612 38.4848 54.1336 39.1902 55.4749C39.9303 56.8825 40.9094 58.1455 42.0739 59.209C44.4938 61.4192 47.7122 62.7692 51.2401 62.7692C58.742 62.7692 64.8453 56.6658 64.8453 49.1639C64.8453 41.6618 58.742 35.5586 51.2401 35.5586C50.4647 35.5586 49.7045 35.6248 48.9641 35.75C45.1927 36.3878 41.9443 38.5826 39.9049 41.6482V41.6481Z" fill="#D2B770"/>
<path fill-rule="evenodd" clip-rule="evenodd" d="M53.5964 48.2965C53.5705 48.455 53.6087 48.6348 53.5995 48.8048C53.5616 49.5086 53.2758 50.129 52.8273 50.6329C52.7226 50.7506 52.6891 50.7917 52.5681 50.8973C52.5205 50.9389 52.3282 51.0773 52.3049 51.1114L52.3108 51.19C52.307 51.2295 52.2988 51.2647 52.2932 51.2987C52.3306 51.3174 52.3052 51.3095 52.3763 51.3224L52.3764 51.465C52.1766 51.4663 52.3678 51.4774 52.2653 51.5069C52.1653 51.5357 51.8649 51.5062 51.8436 51.4501C51.8403 51.4415 51.8302 51.445 51.8241 51.4413C51.9247 51.3541 51.8163 51.4632 51.8775 51.4273L51.9368 51.3464C51.9228 51.5208 51.8922 51.4158 51.9725 51.4649C52.0677 51.4385 52.0866 51.4195 52.0855 51.3851C52.084 51.3401 52.0778 51.3453 52.0675 51.3226L51.9725 51.3345C51.8756 51.3849 51.9517 51.3648 51.8349 51.3675L51.8108 51.331C51.6769 51.3218 51.3549 51.391 51.1413 51.3917C50.9091 51.3924 50.7134 51.3839 50.4918 51.3282C50.0667 51.2213 49.8276 51.0445 49.5838 50.8266L49.5467 50.9086C49.5336 50.9399 49.5356 50.8982 49.5265 50.9662C49.6436 51.1105 49.6204 51.0147 49.6215 51.0138C49.586 51.0123 49.584 51.0081 49.5631 51.0045C49.5559 51.0033 49.4854 50.9909 49.479 50.9901C49.5069 51.1885 49.4575 50.9561 49.4908 51.0569C49.5286 51.1715 49.5261 51.0852 49.5265 51.0851C49.4302 51.0662 49.445 51.0832 49.3365 51.0851V51.4649L49.3945 51.507C49.4642 51.553 49.3817 51.5485 49.525 51.5607C49.6454 51.5709 49.6446 51.5168 49.7165 51.5123V51.8449L49.6098 51.8655C49.5551 51.8885 49.5628 51.8862 49.5264 51.9519C49.5292 51.9462 49.5361 51.9402 49.5382 51.9369C49.5384 51.9366 49.5881 51.8768 49.5542 51.8662C49.5529 51.8658 49.5451 51.8644 49.5435 51.8649C49.4601 51.8887 49.5367 51.8285 49.4953 51.9638C49.4695 52.0483 49.4663 52.0481 49.3833 52.1068C49.2509 52.2002 49.3187 52.155 49.2417 52.1773L49.2159 52.1141C48.9223 52.1141 48.465 52.5573 48.2959 52.7997C48.1704 52.9794 47.9053 53.1163 47.7121 53.2057C47.8635 53.1914 47.7461 53.1905 47.7926 53.2462L47.6741 53.3293C47.6799 53.3255 47.6891 53.3153 47.6931 53.3205L47.8116 53.2626C47.822 53.2571 47.831 53.2525 47.8401 53.2464C47.8329 53.2532 47.8213 53.2504 47.8172 53.2654C47.7869 53.3748 47.7112 53.2097 47.7669 53.3625C47.8037 53.4633 47.8922 53.3601 47.9846 53.3585C48.0096 53.3581 48.0674 53.3649 48.1015 53.3649C48.055 53.4035 48.0865 53.3971 48.0702 53.4061L47.9775 53.4502C47.9672 53.5139 47.9514 53.5061 47.9826 53.6261L47.6266 53.5551C47.5785 53.6238 47.5793 53.604 47.5561 53.7009L47.5078 53.8045C47.6369 53.7758 47.6271 53.7599 47.6755 53.8083C47.7518 53.807 47.9097 53.7347 47.9591 53.6697V53.5789L48.1554 53.4653C48.1833 53.4275 48.1552 53.4366 48.2147 53.4287C48.2357 53.426 48.2505 53.4217 48.2617 53.4232C48.2976 53.4281 48.289 53.4521 48.2915 53.4599C48.5948 53.4599 48.4925 53.4119 48.5765 53.4125V54.1251C48.5098 54.121 48.5437 54.1435 48.518 54.0978C48.4658 54.0048 48.553 54.1557 48.5039 54.0186L48.4813 53.8164C48.4147 53.873 48.3991 53.873 48.409 53.9693C48.4094 53.9734 48.4111 53.9803 48.4116 53.9848C48.4197 54.0764 48.4119 54.0999 48.372 54.1405C48.371 54.3107 48.4814 54.4517 48.5728 54.5788L48.799 54.8293C48.8665 54.8953 48.8165 54.8636 48.8863 54.8751C48.9392 54.8296 48.8035 54.8674 48.9286 54.853C48.9324 54.8525 48.9548 54.8601 48.9566 54.8614C48.9579 54.8595 48.9578 54.8532 48.9578 54.8547L48.9587 54.8312C48.9572 54.73 48.9476 54.84 48.9565 54.7663C49.0534 54.7966 49.0201 54.7848 49.043 54.8082L49.0752 54.8848L49.6092 54.8592C49.7252 54.8586 49.6723 54.8793 49.7638 54.8614C49.6965 54.9928 49.7134 55.0207 49.7154 55.1713C49.718 55.3649 49.7458 55.2351 49.7638 55.4088C49.7981 55.4626 49.8662 55.4863 49.9299 55.4936L49.9785 55.4696C49.9804 55.4682 49.9859 55.4646 49.9878 55.4628L50.0251 55.4076C50.0844 55.5895 50.3116 55.5513 50.3338 55.5261L50.3337 55.314C50.3353 55.1971 50.3664 55.1208 50.2627 55.0749L50.2864 55.0032C50.2717 54.9852 49.6949 54.6817 49.5512 54.5748C48.795 54.0124 48.8032 53.1103 49.4546 52.4627C49.6574 52.261 50.0857 51.9719 50.4286 51.9704C50.7471 51.9691 50.9614 52.0793 51.3284 52.0315C51.4578 52.0146 51.6029 51.9782 51.7364 51.9718C51.9147 51.9633 52.0547 52.0318 52.1639 52.0265C52.2977 51.9929 52.3093 52.038 52.4022 52.0504C52.4477 52.0565 52.5703 52.035 52.6611 52.035C52.7141 51.9614 52.6899 51.8776 52.7631 51.8823L52.7372 51.8737C52.7866 51.9155 52.7809 51.9046 52.8134 51.9706L52.8208 51.9154C53.3015 51.812 53.7242 52.1615 54.8609 51.8141C55.1638 51.7216 55.4674 51.6595 55.796 51.6327C55.979 51.6178 56.156 51.6102 56.3433 51.6195C56.4993 51.6272 56.7095 51.6889 56.8546 51.6504C56.9493 51.557 57.0475 51.6135 57.1258 51.6196C57.124 51.6173 57.1067 51.526 57.1023 51.6313C57.2577 51.6313 57.2742 51.6825 57.4108 51.6313C57.4186 51.6131 57.4558 51.5229 57.411 51.6077C57.4999 51.6813 57.6277 51.6563 57.7915 51.6549C57.8463 51.6544 57.914 51.6462 57.9649 51.6608C58.0675 51.6903 57.8762 51.7014 58.076 51.7027V51.8689C58.1995 51.9186 58.1724 51.9591 58.3132 51.9878C58.2663 52.0718 58.3682 52.0608 58.2657 52.0582C58.2998 52.0868 58.6132 52.2298 58.6634 52.2549C58.7456 52.2962 58.9947 52.4461 59.0703 52.454C59.2029 52.423 59.3262 52.4519 59.4532 52.4863L59.4555 51.9867C59.4541 51.8334 59.4367 51.8587 59.4176 51.8333L59.4808 51.8299C59.4878 51.8276 59.4951 51.8242 59.5019 51.8216L59.5482 51.7977C59.5414 51.7965 59.5305 51.7906 59.5275 51.797C59.5248 51.8028 59.5123 51.7965 59.5087 51.7957C59.4045 51.7727 59.5395 51.8544 59.4533 51.7739C59.4599 51.773 59.4701 51.7641 59.4729 51.7701C59.4937 51.8127 59.5011 51.7634 59.5083 51.7615C59.6509 51.724 59.4279 51.7716 59.5483 51.75L59.6335 51.8312C59.6356 51.8339 59.6402 51.8404 59.6434 51.845L60.0703 51.8388C60.1636 51.8376 60.0693 51.8056 60.1662 51.8602C60.24 51.8479 60.2812 51.8096 60.3488 51.7671C60.4017 51.7338 60.4802 51.6935 60.4984 51.6543C60.4968 51.6516 60.491 51.6499 60.4905 51.649L60.4746 51.584L60.5679 51.531C60.6216 51.4828 60.5947 51.476 60.5946 51.3955L60.5883 51.2478C60.5651 51.1276 60.561 51.3213 60.5886 51.2105L60.6169 51.109C60.4304 51.1346 60.327 51.247 60.2515 51.2931L59.9993 51.4226C59.9153 51.4669 59.8587 51.498 59.8557 51.4262C59.7753 51.4314 59.3174 51.6655 59.2255 51.7127C59.0724 51.7914 59.0637 51.7448 58.9371 51.6719C58.828 51.609 58.7503 51.5691 58.647 51.5111C57.9716 51.1327 57.4313 51.0703 57.3437 51.0193C57.3931 50.8828 57.8443 50.7635 57.9176 50.6099L57.9098 50.5153C58.2199 50.3751 58.0483 50.2486 58.3608 50.2896C58.3432 50.2385 58.353 50.2481 58.3192 50.2253C58.252 50.1801 58.2922 50.2219 58.2777 50.2301C58.3185 50.2359 58.4343 50.3271 58.4918 50.2146C58.5393 50.1217 58.5114 50.1256 58.5114 50.1254C58.5029 49.8905 58.4902 49.9622 58.361 49.9688C58.4202 49.8935 58.3655 49.9196 58.456 49.892C58.4003 49.8757 58.4099 49.8777 58.3877 49.8264C58.4637 49.6491 58.6585 49.5713 58.6808 49.4378C58.6771 49.4347 58.6677 49.4381 58.6664 49.437C58.6643 49.4353 58.6567 49.4258 58.6548 49.4162C58.6515 49.3992 58.6497 49.3887 58.646 49.3752C58.6754 49.3499 58.7047 49.3106 58.7314 49.2744C58.8846 49.0668 58.8009 49.1741 58.8393 49.0583C58.8625 48.9882 58.897 48.9795 58.9307 48.924C58.8196 48.8966 58.9418 48.9264 58.8482 48.8815C58.8482 48.8815 58.8156 48.8556 58.7881 48.8763H58.9069C58.876 48.7561 58.8832 48.58 58.8832 48.4253C58.7152 48.4303 58.7992 48.4718 58.6702 48.4739L58.5129 48.4699C58.4156 48.4755 58.5314 48.479 58.4821 48.4725C58.4395 48.504 58.2501 48.8223 58.2041 48.8864C58.1517 48.9594 57.936 49.2004 57.9195 49.2787C57.9253 49.2734 57.8847 49.235 57.9559 49.2785L58.0075 49.3526C58.0113 49.359 58.0128 49.3661 58.0168 49.3721C58.0587 49.4372 58.023 49.4121 58.076 49.4225L58.076 49.5651C57.8753 49.5664 58.0695 49.5765 57.9629 49.608C57.9044 49.6252 57.8638 49.6233 57.8383 49.589C57.7679 49.6526 57.7791 49.5058 57.779 49.6721L57.7672 49.5414C57.7524 49.5807 57.7106 49.5986 57.672 49.6837C57.552 49.6678 57.6192 49.7052 57.5755 49.6464L57.4948 49.6961C57.4664 49.7202 57.4458 49.7404 57.421 49.7657L56.9748 50.1189C56.9802 50.1252 56.9855 50.1347 56.9872 50.1404C56.9888 50.1456 56.9956 50.1548 56.9965 50.1607C57.0165 50.2876 56.9713 50.1414 56.8883 50.325C56.7814 50.311 56.7921 50.3185 56.6985 50.2599L56.6687 50.3224C56.6625 50.3268 56.6084 50.3254 56.6033 50.3252V49.9453C56.5985 49.9453 56.4632 49.9474 56.4581 49.9462C56.3934 49.9308 56.4421 49.9423 56.366 49.8858L56.2949 49.9336C56.2949 49.9337 56.1955 50.1068 56.1571 50.0195C56.1529 50.0101 56.1412 50.0126 56.1356 50.0063C56.0841 50.062 56.0844 50.0837 56.0096 50.158L55.5923 50.5487C55.4247 50.6841 55.1714 50.8416 54.9251 50.9492C54.5782 51.1008 53.3911 51.4339 53.1697 51.2513C53.1849 51.2099 53.9732 50.4055 53.9598 50.0907L53.8487 50.04L53.9435 49.3039C53.9435 49.0268 53.9435 48.7497 53.9435 48.4727C53.9368 48.467 53.9276 48.4621 53.9215 48.4581L53.8379 48.393C53.8078 48.3382 53.847 48.368 53.7933 48.2712C53.7618 48.2143 53.771 48.2385 53.7558 48.1615C53.7248 48.0051 53.7988 48.0988 53.6824 48.0453C53.6215 48.0793 53.6693 48.0174 53.6377 48.1012L53.5963 48.2965L53.5964 48.2965Z" fill="#001B36"/>
<path fill-rule="evenodd" clip-rule="evenodd" d="M49.5446 45.3363C49.5266 45.4891 49.4527 45.5209 49.2892 45.7159C49.1327 45.9026 48.9102 46.3077 48.8614 46.3466C48.7832 46.3258 48.2814 45.8867 48.1958 45.8117C48.0062 45.6457 47.7109 45.4474 47.4932 45.3029C46.8657 44.8865 46.9569 45.2337 47.0987 44.0692C47.1196 43.8975 47.1348 43.1711 47.1617 43.1133C47.3153 43.1209 47.7892 43.4112 47.9054 43.49C48.4055 43.8295 49.709 44.7218 49.5445 45.3362L49.5446 45.3363ZM44.7403 45.8887L44.719 45.9971C44.7214 46.0012 44.7267 46.0066 44.7299 46.0103C44.7761 46.0633 44.8721 46.0656 44.9426 46.0725L44.8476 46.12C44.9407 46.2167 44.9648 46.208 45.0716 46.1719C45.0773 46.17 45.13 46.1459 45.2039 46.1437C45.2039 46.3438 45.1691 46.3571 45.2181 46.5082C45.26 46.6377 45.2447 46.5909 45.23 46.6346C45.2298 46.6351 45.1437 46.7275 45.2479 46.8213C45.3386 46.6726 45.4225 45.952 45.428 45.8112C45.4353 45.6262 45.4388 45.4313 45.4114 45.2507C45.3991 45.1693 45.3851 45.0914 45.3576 45.0175C45.3224 44.923 45.282 44.8818 45.2499 44.8137C45.4678 44.7387 46.1629 45.0271 46.3539 45.1136C46.9171 45.3685 48.1694 46.1941 48.5178 46.63C48.6724 46.8233 48.5288 46.9488 48.4608 47.1647C48.4485 47.2587 48.4555 47.1713 48.5288 47.2122L48.5616 47.1154C48.5885 47.0599 48.6094 47.0532 48.6238 46.9512L48.6001 47.0698C48.6604 47.0197 48.6295 47.0661 48.6714 46.975C48.6743 46.9807 48.6784 46.9837 48.6792 46.9927L48.7665 47.165C48.8459 47.0966 48.8444 47.0684 48.9082 47.1213L48.9348 47.1466C48.9378 47.1494 48.9427 47.1565 48.9475 47.1606C49.0046 47.1116 49.2137 46.6564 49.2851 46.5435C49.35 46.4408 49.4066 46.3466 49.4701 46.2526C49.9901 45.5462 49.7259 45.9147 49.964 45.6077C50.026 45.5278 50.0825 45.4605 50.1471 45.3865C50.212 45.3122 50.2497 45.2558 50.3226 45.1828C50.5457 44.959 50.9794 44.2495 51.0597 43.9169C50.993 43.8945 51.0295 43.9377 51.0117 43.8874C51.1467 43.7374 51.2078 43.842 51.2828 44.0062C51.2584 44.0674 51.3218 44.0464 51.244 44.0597C51.2375 44.2057 51.5482 44.694 51.6542 44.8466L51.9254 45.1935C51.9762 45.2457 51.9771 45.2613 52.0208 45.3122L52.7288 46.1968C52.7355 46.2058 52.7507 46.2265 52.7584 46.2375C53.4936 47.2955 53.5345 48.2059 53.5965 48.2948L53.6378 48.0995C53.6694 48.0157 53.6217 48.0777 53.6825 48.0436C53.799 48.0971 53.7249 48.0034 53.7559 48.1598C53.7712 48.2368 53.762 48.2127 53.7935 48.2695C53.8472 48.3663 53.808 48.3365 53.838 48.3913L53.9217 48.4565C53.9278 48.4605 53.937 48.4653 53.9437 48.471C53.9437 48.7481 53.9437 49.0251 53.9437 49.3022L53.8489 50.0383L53.96 50.0891L54.038 49.9409C54.0585 49.8797 54.0765 49.8252 54.0946 49.7601C54.339 48.8804 54.1302 47.9454 53.7741 47.1457C53.5994 46.7533 53.5628 46.6887 54.1458 46.2276L55.2071 45.4834C55.2668 45.4473 55.3052 45.4341 55.3468 45.3747C55.3228 45.2322 55.3445 45.4008 55.2463 45.2661L55.1918 45.1431C55.1898 45.1308 55.1839 45.1288 55.1789 45.1223C55.2743 45.101 55.3099 45.1231 55.2585 44.9818L54.7715 45.2864C54.767 45.2891 54.7608 45.2924 54.7563 45.2951C54.4845 45.4554 53.8578 45.9386 53.6083 46.1652C53.524 46.2418 53.4856 46.3151 53.3738 46.3467C53.3231 46.3067 53.1519 45.9962 53.0689 45.8781L52.7081 45.4316C52.6313 45.2329 53.16 44.5675 53.269 44.4483C53.7959 43.8719 54.1754 43.502 54.9389 43.1483C54.9483 43.1439 54.9982 43.1228 55.0072 43.1214C55.1207 43.103 55.0467 43.1125 55.0737 43.1415C55.1332 43.2079 55.0841 43.3759 55.0904 43.5004L55.2124 44.6947C55.2238 44.7092 55.2323 44.7611 55.2973 44.8135C55.2973 44.6548 55.2734 44.6044 55.2737 44.4575L55.3313 44.5438C55.3654 44.6169 55.3242 44.5547 55.3214 44.5525H55.5351C55.5351 44.552 55.484 44.4426 55.5824 44.4337L55.624 44.4795C55.6295 44.4716 55.6435 44.4966 55.6535 44.5047L55.656 44.4335C55.5967 44.1346 55.5289 43.856 55.4858 43.5331C55.4634 43.3643 55.4506 42.697 55.3925 42.6033C55.2872 42.5115 54.369 43.0326 54.3278 43.0557C54.1554 43.1523 53.9945 43.2457 53.8406 43.3566C53.4531 43.636 53.5553 43.5931 53.3881 43.4846L53.3502 43.5074C53.3714 43.5585 53.3332 43.548 53.3977 43.5787C53.413 43.5642 53.4562 43.6009 53.3882 43.5732L53.2778 43.4837C53.2726 43.4674 53.2636 43.4669 53.2552 43.4601C53.2633 43.6179 53.2837 43.5435 53.2787 43.746L53.3204 44.1724C53.1808 44.2765 53.421 44.1171 53.3026 44.2438C53.2624 44.2308 53.2656 44.26 53.2617 44.2495C53.2589 44.2416 53.2501 44.2623 53.2432 44.2674C53.2955 44.3985 53.167 44.1564 53.2648 44.3063L52.9557 44.6723C52.9536 44.6754 52.9495 44.6818 52.9476 44.6849C52.8617 44.8215 52.91 44.8135 52.6614 44.8135C52.6384 44.7763 52.619 44.7611 52.5901 44.7305C52.5685 44.7601 52.5342 44.7889 52.4949 44.7781C52.4953 44.7775 52.626 44.6821 52.6323 44.6118C52.633 44.6039 52.6462 44.5745 52.6028 44.5349C52.3395 44.785 52.3573 44.9398 52.0693 44.6466C51.6897 44.2601 51.5503 43.6257 51.3717 43.3965C51.1573 43.1211 50.9591 43.2277 50.8062 43.4813C50.5737 43.867 50.6511 44.0207 50.2213 44.5824C50.0592 44.7942 49.9555 44.8681 49.8093 44.7209C49.5477 44.4575 49.3887 44.2739 49.2405 43.8873C49.1768 43.8089 49.194 43.78 49.194 43.6736L49.1703 43.6736C49.1702 43.1659 49.1502 43.6513 49.1938 43.3413C49.1861 43.3433 49.149 43.353 49.1421 43.3545C49.0276 43.378 49.0849 43.3384 49.0832 43.3294C49.0825 43.326 49.0815 43.3154 49.0811 43.3122C49.0805 43.3085 49.0788 43.3018 49.0784 43.292C49.078 43.2814 49.077 43.2772 49.0751 43.27L48.9341 43.2936C48.8926 43.3231 48.8257 43.4933 48.748 43.573C48.649 43.5619 48.397 43.3588 48.2961 43.2885C48.0777 43.1362 46.9862 42.5275 46.8595 42.5942C46.7727 42.6787 46.7956 43.0155 46.7882 43.152C46.7684 43.5171 46.655 44.1964 46.5401 44.5572C46.4672 44.7859 46.2339 44.5393 45.5914 44.4239C45.2872 44.3692 44.8463 44.2909 44.5566 44.3988C44.6023 44.5157 44.6916 44.5754 44.7526 44.7176C44.8876 45.0316 45.0238 45.6862 44.9129 45.9475C44.8246 45.9624 44.7993 45.9356 44.7403 45.8887L44.7403 45.8887Z" fill="#001B36"/>
<path fill-rule="evenodd" clip-rule="evenodd" d="M43.9676 50.2056L44.0124 50.308C44.0557 50.3701 44.0214 50.2826 44.0282 50.3813C44.0411 50.4166 44.0081 50.3739 44.061 50.4274C44.0732 50.4397 44.0914 50.4527 44.1122 50.4698L44.441 50.7118C44.5895 50.8097 44.8653 50.9304 44.8911 51.0131C44.8157 51.0692 44.6794 51.0722 44.5908 51.1067C44.631 51.1172 44.6263 51.1348 44.6343 51.1564C44.636 51.1611 44.6378 51.1715 44.6383 51.1792L44.5196 51.2267C44.5329 51.2318 44.57 51.2017 44.5234 51.3175L44.4961 51.3692H44.7334C44.7567 51.2543 44.7374 51.3875 44.7572 51.2683C44.8272 51.3721 44.714 51.4351 44.8522 51.5196L44.9033 51.5429C44.9104 51.5453 44.9155 51.5477 44.9232 51.5496C45.0336 51.578 45.0689 51.5419 45.1255 51.5458L45.3033 51.5357C45.1478 51.6699 45.2726 51.4741 45.2084 51.6069C45.3174 51.6069 45.3329 51.5985 45.3853 51.65C45.4806 51.6758 46.0652 51.6097 46.2534 51.6179C46.4861 51.6281 46.9645 51.7282 47.0937 51.7163L47.1318 51.7007C47.1186 51.7187 47.1595 51.7538 47.0987 51.7172L47.0372 51.6544C47.0983 51.6544 47.1009 51.6532 47.1542 51.6625L47.3479 51.6827C47.3694 51.6818 47.3832 51.7842 47.3933 51.6542H47.5833L47.5875 51.2742C47.639 51.3068 47.8079 51.3856 47.8737 51.3732C48.0311 51.3436 47.9677 51.3967 47.9277 51.2743C48.0078 51.334 47.9045 51.3161 48.0819 51.3217C48.0743 51.3162 48.0631 51.2995 48.0587 51.3057L48.0037 51.2655C48.0006 51.2634 47.9951 51.2588 47.9923 51.2571C47.9628 51.2392 48.0469 51.2279 47.8788 51.2718C47.8563 51.2777 47.8422 51.2812 47.8362 51.2819C47.8125 51.2846 47.7632 51.2789 47.7259 51.2743C47.7216 51.2466 47.7296 51.2515 47.73 51.2286C47.7311 51.1672 47.7497 51.1793 47.6309 51.1793C47.5861 51.1243 47.5458 51.1242 47.4647 51.108L47.5121 51.0385L47.4357 50.999L47.3899 51.0306C47.3813 51.0349 47.3761 51.0377 47.3668 51.0418L47.2013 51.102C47.1147 51.1391 47.1871 51.0717 47.1559 51.1319C46.6059 51.1356 46.9611 51.0858 46.7282 51.0844V50.7519L46.6442 50.6565C46.6007 50.595 46.5209 50.5743 46.4818 50.5186L46.4672 50.4203L46.4799 50.4185L46.4196 50.4222C46.3805 50.3711 46.4144 50.4068 46.3714 50.3759C46.2124 50.2615 46.3035 50.2991 46.2315 50.2275C46.1777 50.1741 46.167 50.1988 46.1228 50.1444C46.0927 50.1073 46.0832 50.0691 46.0864 50.0026C46.0569 49.9434 45.9983 49.8653 45.962 49.8147L45.8615 49.8753C45.8421 49.9459 45.8806 49.9228 45.8497 49.9921L45.6122 49.9919C45.6519 50.0812 45.6067 50.0816 45.6357 50.1582C45.5704 50.1832 45.5548 50.1409 45.5409 50.1107C45.6017 50.2144 45.6081 50.1235 45.5897 50.2451C45.5608 50.4363 45.5694 50.2203 45.5407 50.3718C45.4321 50.3149 45.5123 50.4114 45.446 50.3005L45.4103 50.3006C45.4281 50.3913 45.4845 50.2753 45.446 50.372C45.2724 50.372 45.2075 50.3941 45.0837 50.346L45.0184 50.3245C45.0174 50.1739 44.9876 50.1889 45.0298 50.0861L45.0539 50.0454C44.9654 50.0581 45.0466 50.0586 44.9293 49.9681L44.5435 49.6355C44.5675 49.5497 44.5091 49.5658 44.5792 49.5635C44.566 49.5102 44.5882 49.551 44.543 49.4938C44.5317 49.4796 44.4996 49.4507 44.4876 49.4386C44.5183 49.5086 44.4886 49.4299 44.5195 49.5405C44.4314 49.5175 44.4542 49.5362 44.4032 49.4864C44.3488 49.4333 44.397 49.4543 44.4008 49.4455C44.3971 49.4507 44.4077 49.4949 44.3635 49.5507C44.2853 49.6495 44.1788 49.612 44.0448 49.612C43.9998 49.7115 43.974 49.7007 43.9258 49.707C43.9277 49.7149 43.9278 49.7253 43.9303 49.731C43.9325 49.7363 43.9333 49.7469 43.9365 49.7528C43.9395 49.7581 43.9422 49.766 43.9459 49.7709C43.9495 49.7755 43.9554 49.7809 43.9593 49.7846C43.9945 49.8182 43.9711 49.7982 44.0209 49.8018C44.0213 49.8654 44.0208 49.9292 44.0218 49.9929C44.0249 50.1969 44.0245 50.1191 43.9735 50.1819C44.097 50.2185 44.0145 50.2295 44.092 50.2295L43.9674 50.2056H43.9676Z" fill="#001B36"/>
<path fill-rule="evenodd" clip-rule="evenodd" d="M41.9533 45.1423C41.9548 45.1513 41.9491 45.1774 42.001 45.2414C41.9893 45.2153 41.9502 45.2329 41.9298 45.2413C41.9304 45.2715 41.9275 45.2841 41.9346 45.315C41.9648 45.4469 41.9421 45.3862 42.001 45.4031C42.132 45.4406 41.916 45.3815 42.2378 45.3835C42.3725 45.3844 42.5073 45.3837 42.642 45.3837V45.2412C42.6246 45.2814 42.6199 45.2223 42.6432 45.2707L42.7278 45.4477L42.6896 45.5027C42.8354 45.5027 42.7029 45.4921 42.7465 45.561C42.8636 45.6212 43.882 45.7462 44.4821 46.2747C44.6636 46.4346 44.7772 46.4497 44.7476 46.8244C44.5955 48.7551 45.1392 49.4928 45.1502 49.6823L45.4914 50.2049L45.4386 50.2379L45.4431 50.2287C45.4616 50.2381 45.4957 50.2085 45.4786 50.2556L45.4446 50.2998C45.5109 50.4107 45.4307 50.3142 45.5394 50.3711C45.568 50.2196 45.5594 50.4356 45.5883 50.2444C45.6067 50.1228 45.6003 50.2136 45.5395 50.1099C45.5535 50.1402 45.569 50.1825 45.6344 50.1574C45.6054 50.0809 45.6505 50.0805 45.6108 49.9912L45.8483 49.9913C45.8792 49.9221 45.8408 49.9452 45.8602 49.8746L45.9606 49.8139C45.9278 49.7651 45.8381 49.6129 45.7993 49.5873L45.7435 49.6072C45.7331 49.6091 45.7184 49.6094 45.7058 49.6111L45.6993 49.5706C45.6909 49.5244 45.7226 49.5432 45.6281 49.4251C45.5552 49.334 45.5412 49.3159 45.5157 49.1838L45.4437 49.2201C45.3889 49.2397 45.2769 49.2538 45.2306 49.2075C45.183 49.1599 45.2065 49.1075 45.2068 48.9462C45.2073 48.7054 45.2473 48.2007 45.1356 48.0437C45.1453 48.006 45.1097 48.0198 45.1833 48.0198V47.8062C45.1919 47.801 45.2032 47.7791 45.2074 47.7883C45.2107 47.7955 45.2245 47.7779 45.2283 47.7774C45.2322 47.7769 45.2572 47.7822 45.2585 47.7826C45.2389 47.6191 45.2362 47.478 45.2364 47.3075C45.2366 47.1478 45.2872 46.9551 45.2508 46.8214C45.1466 46.7276 45.2327 46.6353 45.2329 46.6348C45.2476 46.5911 45.2629 46.6378 45.221 46.5084C45.1721 46.3573 45.2068 46.344 45.2068 46.1439C45.133 46.1461 45.0802 46.1701 45.0745 46.1721C44.9677 46.2082 44.9436 46.2169 44.8506 46.1201L44.9456 46.0726C44.875 46.0658 44.779 46.0635 44.7328 46.0104C44.7296 46.0068 44.7243 46.0014 44.7219 45.9973L44.7432 45.8889C43.9018 45.3365 42.9926 45.0404 41.9532 45.1423L41.9533 45.1423Z" fill="#001B36"/>
<path fill-rule="evenodd" clip-rule="evenodd" d="M43.259 49.9163C42.7144 49.9718 42.2275 50.017 41.703 50.1191C41.5585 50.1473 40.4418 50.3897 40.3066 50.5137C40.3198 50.641 40.3994 50.6702 40.4763 50.7323C41.032 51.1808 41.1609 51.2966 41.7867 51.7012C41.8817 51.7626 41.9367 51.8172 42.0326 51.8332L42.0228 51.7966L42.0996 51.8149C42.095 51.6448 42.2116 51.7669 42.1191 51.7368L42.1171 51.5113C42.2822 51.3836 42.2845 51.5368 42.3812 51.4241C42.3161 51.3396 42.2344 51.3296 42.0966 51.2484L41.5172 50.9013C41.4261 50.8418 41.2946 50.7758 41.2707 50.6806C41.6352 50.5212 43.6423 50.3282 44.0261 50.3807C44.0193 50.282 44.0536 50.3695 44.0104 50.3074L43.9655 50.2051L43.924 50.2049C43.924 49.921 43.9415 50.0031 43.8526 49.8748L43.2591 49.9164L43.259 49.9163Z" fill="#001B36"/>
<path fill-rule="evenodd" clip-rule="evenodd" d="M48.4628 47.1653C48.3834 47.2562 48.2096 47.8183 48.1653 47.9891C47.9925 48.6547 47.9814 49.3235 48.2123 49.9778C48.2386 50.0523 48.5178 50.6839 48.6243 50.7041C48.6295 50.7013 48.6389 50.6937 48.6415 50.6997L48.9346 50.9891C48.9359 50.9864 48.9639 50.9649 48.9349 50.9178C49.0872 50.9624 48.9611 50.8901 49.0145 50.953L49.0334 51.0124C49.0345 51.0185 49.0312 51.0284 49.0298 51.0364C49.1117 50.956 49.1672 50.9889 49.2908 50.9889C49.3181 50.8547 49.3008 50.9294 49.3858 50.8703C49.3858 50.6583 49.3346 50.74 49.3382 50.6641L49.3575 50.6135C49.3599 50.6083 49.3651 50.5992 49.3703 50.5931C49.0356 50.2722 48.7375 49.5595 48.6652 49.0754C48.5175 48.0856 48.9448 47.3456 48.9495 47.1612C48.9447 47.1571 48.9398 47.15 48.9368 47.1472L48.9102 47.1218C48.8465 47.069 48.848 47.0972 48.7685 47.1655L48.6812 46.9933C48.6804 46.9843 48.6763 46.9813 48.6734 46.9755C48.6315 47.0667 48.6624 47.0202 48.6022 47.0704L48.6258 46.9518C48.6114 47.0538 48.5905 47.0605 48.5636 47.116L48.5308 47.2128C48.4575 47.1719 48.4505 47.2593 48.4628 47.1653H48.4628Z" fill="#001B36"/>
<path fill-rule="evenodd" clip-rule="evenodd" d="M41.0625 53.7147C41.0837 53.7569 41.0554 53.7364 41.1084 53.7535L42.4767 53.7867C42.9952 53.8175 43.2924 53.8293 43.7329 54.0091C44.3907 54.2778 45.5341 54.4303 46.3009 54.2421C46.0911 54.2535 46.2377 54.241 46.1822 54.1721C46.5376 54.1721 46.4432 53.9795 46.4432 53.7446C46.4417 53.7465 46.4392 53.7482 46.4391 53.7506L46.4394 53.7138C46.4399 53.711 46.4412 53.7024 46.4433 53.6969C46.4475 53.7015 46.4561 53.7011 46.4585 53.708C46.4681 53.7364 46.5488 53.7068 46.5947 53.7007C46.6001 53.7 46.6071 53.7007 46.6128 53.6998L46.7044 53.6731C46.6968 53.6699 46.6858 53.6595 46.6807 53.6665C46.6756 53.6736 46.664 53.6621 46.6569 53.6605L46.5619 53.6392C46.4564 53.6004 46.5644 53.6668 46.5069 53.6074C46.4634 53.5981 45.5825 53.7103 45.3985 53.7194C44.9972 53.7393 44.6221 53.7265 44.2356 53.6688C43.7523 53.5966 43.5399 53.4795 43.2657 53.4318C42.8919 53.3667 42.4959 53.3862 42.1077 53.3774C42.1899 53.4076 42.5204 53.3878 42.6434 53.3854C42.8258 53.3818 42.7964 53.4135 42.8333 53.4594L42.1665 53.4613C42.1228 53.4575 42.1374 53.4617 42.0951 53.4485C42.0031 53.4197 42.0287 53.3046 41.8836 53.4833C41.9089 53.5541 41.891 53.5317 41.9425 53.574C41.989 53.6122 41.9814 53.589 42.0012 53.6041C42.0042 53.6064 42.0091 53.6108 42.0119 53.6134C42.0611 53.6584 42.0272 53.6818 42.1209 53.6969L42.0261 53.6972C42.1064 53.6972 42.184 53.6958 42.2639 53.6941C42.4496 53.6904 42.4141 53.7228 42.4532 53.7754L41.0998 53.7444C41.0964 53.7394 41.0926 53.7307 41.0909 53.7286C41.0708 53.7015 41.0923 53.684 41.0625 53.7148L41.0625 53.7147Z" fill="#001B36"/>
<path fill-rule="evenodd" clip-rule="evenodd" d="M53.1379 54.1009L53.148 54.0972C53.2113 54.1664 53.133 53.9785 53.1871 54.1721C53.1273 54.2208 53.1398 54.4107 53.1398 54.5047C52.9401 54.506 53.1307 54.5176 53.0295 54.5466C52.9811 54.5604 52.9184 54.5524 52.8666 54.5524C52.8599 54.6243 52.7852 54.5596 52.7605 54.5387C52.7169 54.5462 52.7373 54.5395 52.6976 54.5621L52.545 54.6697C52.4772 54.7127 52.4096 54.7508 52.3348 54.7925C52.2624 54.8329 51.932 54.9954 51.9047 55.0289C51.948 55.0759 51.9143 54.9447 51.9201 55.0647L51.9023 55.285C51.9056 55.3903 52.0987 55.3618 52.1662 55.3478C52.1485 55.3574 52.175 55.2984 52.1349 55.3857C52.1084 55.4436 52.1243 55.4032 52.1187 55.4548C52.2242 55.5058 52.2601 55.4435 52.3079 55.4931C52.4891 55.4728 53.4275 54.929 53.6667 54.5801C53.8893 54.2555 53.9576 53.9707 53.9794 53.5509C54.0299 53.4996 53.8959 53.5074 54.0422 53.5074C54.0118 53.5057 54.0173 53.4907 54.0241 53.4253C54.0246 53.4202 54.026 53.4084 54.0268 53.4031C54.0291 53.3869 54.0421 53.2887 54.0421 53.1984C54.1376 53.177 54.0188 53.1839 54.0756 53.2005C54.0795 53.2016 54.0832 53.2608 54.1005 53.2133C54.1021 53.2087 54.1091 53.2195 54.1136 53.2222C54.1175 53.213 54.1196 53.2028 54.123 53.1938C54.1268 53.1838 54.1471 53.1073 54.1848 53.08C54.1848 53.08 54.2365 53.1459 54.1079 53.0687C54.0816 53.0529 54.062 53.0424 54.0422 53.0085C54.0258 53.0683 54.1155 52.9887 53.9948 53.056C53.9825 52.9255 53.976 52.9931 53.9359 52.9972C53.6774 53.0241 53.8186 53.063 53.6336 53.0054L53.5199 52.9849V53.7449L53.4723 53.7449C53.434 53.6711 53.3762 53.7183 53.4009 53.7449C53.4009 53.6598 53.3909 53.6477 53.3772 53.5787L53.2912 53.9084C53.2202 54.1277 53.2627 54.0837 53.1911 54.1081C53.0434 54.1583 53.1833 54.1256 53.138 54.101L53.1379 54.1009Z" fill="#001B36"/>
<path fill-rule="evenodd" clip-rule="evenodd" d="M55.5846 54.1709C56.0179 54.3145 56.7812 54.3346 57.2717 54.2978C57.7613 54.2612 58.3734 54.1008 58.7434 53.9092L58.6721 53.9104L58.7752 53.7724C58.7742 53.7713 58.768 53.7672 58.7667 53.7665C58.6763 53.7167 58.7479 53.7543 58.7195 53.7679C58.7968 53.7275 58.7739 53.7369 58.7907 53.6019C58.6185 53.6212 58.6497 53.6959 58.6482 53.6019C58.5759 53.6242 58.4483 53.6947 58.4242 53.6068C58.3232 53.5886 57.9089 53.6831 57.7473 53.701C57.2859 53.7521 56.7503 53.7336 56.294 53.6756C56.1258 53.6542 55.7659 53.5646 55.6332 53.5851L55.6083 53.6254C55.5164 53.624 55.4731 53.607 55.3948 53.5781C55.4317 53.6884 55.3781 53.6184 55.4607 53.6679C55.5188 53.7027 55.505 53.6608 55.5136 53.6494C55.4248 53.6494 55.434 53.6496 55.3711 53.6731C55.4144 53.7269 55.3894 53.7441 55.5372 53.7441C55.4745 53.7827 55.5253 53.7508 55.514 53.8392H55.7035V53.9818C55.7091 53.9735 55.607 53.9401 55.6797 54.053L55.5609 53.9581C55.5608 54.1095 55.5418 54.0527 55.6796 54.1242C55.6251 54.1705 55.7611 54.1777 55.5846 54.1709Z" fill="#001B36"/>
<path fill-rule="evenodd" clip-rule="evenodd" d="M42.7202 47.4806C42.6832 47.6865 42.9609 48.4257 43.0421 48.6187C43.2331 49.0722 43.5548 49.4433 43.5789 49.5249C43.6798 49.5805 43.6762 49.5944 43.7418 49.676C43.8034 49.7529 43.8395 49.7522 43.8547 49.8748C43.9437 50.0031 43.9262 49.921 43.9262 50.205L43.9676 50.2051L44.0922 50.229C44.0147 50.229 44.0972 50.2179 43.9737 50.1813C44.0247 50.1186 44.0251 50.1963 44.022 49.9924C44.021 49.9286 44.0215 49.8648 44.0211 49.8012C43.9713 49.7977 43.9947 49.8177 43.9595 49.7841C43.9556 49.7804 43.9497 49.7749 43.9461 49.7703C43.9424 49.7655 43.9397 49.7575 43.9367 49.7522C43.9334 49.7464 43.9327 49.7358 43.9305 49.7305C43.928 49.7248 43.9278 49.7144 43.926 49.7065C43.9742 49.7002 44 49.711 44.045 49.6115C44.1791 49.6115 44.2855 49.6489 44.3637 49.5502C44.4078 49.4943 44.3973 49.4501 44.401 49.445C44.3972 49.4537 44.349 49.4328 44.4034 49.4859C44.4544 49.5357 44.4316 49.5169 44.5197 49.54C44.4888 49.4293 44.5185 49.5081 44.4878 49.438C44.4263 49.3682 44.3872 49.3343 44.3276 49.2574C44.1457 49.023 44.0699 48.9647 43.8748 48.6414C43.7829 48.4894 43.7112 48.3664 43.6245 48.204C43.5693 48.1005 43.4438 47.7788 43.4016 47.7351L43.3225 47.7368C43.195 47.6913 43.1921 47.8157 43.2134 47.7116C42.9994 47.7116 42.9211 47.6404 42.9047 47.7113C42.9366 47.6346 42.93 47.5855 42.929 47.4985C42.9283 47.427 42.9285 47.3556 42.9285 47.2841L42.7387 47.3314C42.7621 47.3662 42.7694 47.2742 42.7579 47.4028C42.7522 47.4676 42.7961 47.4671 42.7201 47.4806H42.7202Z" fill="#001B36"/>
<path fill-rule="evenodd" clip-rule="evenodd" d="M57.5352 45.8926C57.5329 45.9642 57.5203 45.9071 57.6051 45.9308L57.7337 45.9476C57.8107 45.9611 57.7047 45.9618 57.819 45.9548C57.7423 46.1057 57.8404 45.9591 57.7605 46.031L57.7477 46.0261C57.7818 46.0748 57.8618 46.0668 57.9377 46.0734C57.8836 46.1811 57.9358 46.0175 57.9131 46.1214C57.9019 46.1724 57.913 46.1347 57.9141 46.1426C58.1888 46.0287 58.2708 45.9096 58.7958 45.7458C59.0518 45.6659 59.5539 45.5204 59.8408 45.5325C59.8224 45.6406 59.7504 45.6453 59.6842 45.7058C59.6227 45.7621 59.581 45.8233 59.5132 45.8996C59.5692 45.9594 59.6238 45.9 59.6659 45.8551C59.6695 45.8512 59.6742 45.8461 59.6778 45.8423C59.8417 45.6691 59.7707 45.7118 59.8614 45.6935L59.9354 45.8351C59.9424 45.8785 59.8964 45.8334 59.9461 45.8643C60.0433 45.9247 59.8953 45.8472 59.9983 45.8674L60.0516 45.8835L59.9566 46.026L59.9912 46.09C60.0768 46.0477 60.3119 45.6949 60.8303 45.3579L60.8731 45.3256C60.8753 45.3178 60.8823 45.3176 60.8867 45.3134L60.8031 45.2485C60.4131 45.062 59.4504 45.1189 59.0132 45.2231C58.5937 45.3229 58.2124 45.4645 57.8453 45.6725C57.7302 45.7377 57.5959 45.7985 57.5353 45.8926L57.5352 45.8926Z" fill="#001B36"/>
<path fill-rule="evenodd" clip-rule="evenodd" d="M59.5129 45.8991C59.4093 46.0149 59.2814 46.2266 59.2127 46.3997C59.1158 46.6435 59.0741 47.104 58.8528 47.6775C58.8084 47.7926 58.6185 48.1906 58.6113 48.2597C58.6158 48.2625 58.7037 48.2844 58.6737 48.4002C58.76 48.373 58.6907 48.4086 58.7212 48.3291C58.8709 48.3576 58.6203 48.3602 58.7696 48.339C58.9384 48.315 59.0679 48.3576 59.1702 48.3106L59.1925 48.2923C59.2582 48.256 59.141 48.2726 59.214 48.2832C59.2187 48.2839 59.2597 48.303 59.2673 48.3053L59.2935 48.116L59.3622 48.163C59.4496 48.0289 59.5836 47.2827 59.616 47.0631C59.675 46.6632 59.7155 46.5036 59.9391 46.1982C59.997 46.1191 59.9782 46.1682 59.9909 46.0896L59.9563 46.0256L60.0513 45.8831L59.998 45.867C59.895 45.8468 60.043 45.9243 59.9457 45.8639C59.8961 45.833 59.9421 45.8781 59.935 45.8347L59.8611 45.6931C59.7704 45.7113 59.8413 45.6686 59.6775 45.8419C59.6739 45.8457 59.6692 45.8508 59.6655 45.8547C59.6236 45.8996 59.5689 45.959 59.5129 45.8992V45.8991Z" fill="#001B36"/>
<path fill-rule="evenodd" clip-rule="evenodd" d="M41.4754 45.241L41.5176 45.2496C41.4191 45.3564 41.4858 45.3266 41.4754 45.383L41.818 45.6593C41.8577 45.7006 41.882 45.7227 41.926 45.7645C42.0653 45.8969 42.1878 46.0325 42.3109 46.2106C42.5887 46.6121 42.5694 46.7228 42.6353 47.1439L42.7157 47.4807C42.7917 47.4672 42.7477 47.4677 42.7535 47.4029C42.765 47.2744 42.7577 47.3663 42.7343 47.3316L42.9241 47.2842C42.9241 47.3557 42.9238 47.4271 42.9246 47.4986C42.9256 47.5856 42.9322 47.6347 42.9003 47.7115C42.9167 47.6405 42.9951 47.7117 43.209 47.7117C43.1876 47.8158 43.1906 47.6914 43.3181 47.737L43.3972 47.7352C43.3532 47.5473 43.2596 47.3425 43.203 47.1257C43.1492 46.9193 43.1213 46.6655 43.0524 46.4687C42.9753 46.2483 42.8884 46.1252 42.7751 45.9605C42.6447 45.7709 42.4149 45.6171 42.3989 45.5321L42.7436 45.5614C42.7 45.4925 42.8325 45.503 42.6867 45.503L42.7249 45.448L42.6403 45.271C42.617 45.2226 42.6217 45.2817 42.6391 45.2415V45.384C42.5045 45.384 42.3696 45.3848 42.2349 45.3839C41.9132 45.3817 42.1292 45.4409 41.9982 45.4034C41.9392 45.3865 41.962 45.4472 41.9317 45.3153C41.9246 45.2845 41.9275 45.2719 41.9269 45.2416C41.9474 45.2332 41.9865 45.2156 41.9982 45.2417C41.9462 45.1777 41.9519 45.1516 41.9504 45.1426C41.8324 45.1554 41.5536 45.189 41.4754 45.241H41.4754Z" fill="#001B36"/>
<path fill-rule="evenodd" clip-rule="evenodd" d="M49.6944 42.4871C49.7416 42.5692 49.6582 42.5982 49.5996 42.6295C49.6059 42.6375 49.6168 42.6364 49.6213 42.6511L49.7283 42.7716C49.7318 42.7765 49.7366 42.7856 49.742 42.7915C49.7498 42.7908 49.7909 42.7748 49.7949 42.775L49.8607 42.7956C49.878 42.75 49.8658 42.7763 49.8882 42.7478C49.9164 42.7119 49.9106 42.7174 49.9332 42.7039C50.0651 42.6247 50.016 42.7068 50.0252 42.7151C50.0938 42.7033 50.0818 42.7008 50.1693 42.629C50.4401 42.4066 50.7665 42.1801 50.9798 41.8951C51.0286 41.8297 51.0469 41.7903 51.0865 41.7538C51.2248 41.7737 51.3248 42.0313 51.6366 42.2794C51.7005 42.3303 51.7876 42.3976 51.8396 42.4474C51.8786 42.3797 51.7603 42.392 51.9149 42.392C51.9505 42.4883 51.8635 42.4162 52.1167 42.4393C52.1199 42.4328 52.1242 42.4157 52.1258 42.4197C52.1288 42.4272 52.1498 42.3447 52.1882 42.3206C52.151 42.2773 52.1565 42.3044 52.1079 42.2567C51.9628 42.1145 52.1015 42.1394 52.1029 42.1379C51.4325 41.4835 51.4417 41.321 51.261 41.1341C50.9873 40.8511 50.8065 41.4772 50.5023 41.7745C50.0847 42.1827 50.2528 42.0588 49.7669 42.4189L49.6944 42.4871V42.4871Z" fill="#001B36"/>
<path fill-rule="evenodd" clip-rule="evenodd" d="M57.918 50.6082C58.2484 50.4933 57.9967 50.3415 58.5692 50.3867C58.8339 50.4076 59.1216 50.4106 59.3902 50.4301C59.661 50.4497 59.9363 50.4772 60.1908 50.516C60.4503 50.5555 60.7184 50.6315 60.9599 50.6628C61.0373 50.6085 60.9656 50.649 61.0262 50.5654C61.0706 50.5043 60.948 50.5146 61.1163 50.5136L61.1162 50.4184C61.0475 50.4184 60.9515 50.4445 60.9327 50.3708C60.9284 50.3539 60.8991 50.3301 60.9802 50.3008C61.0269 50.2839 61.2281 50.4371 61.3505 50.3316C61.2296 50.2267 60.1446 50.0486 59.9844 50.0264C59.5027 49.9594 58.9523 49.8978 58.4564 49.8904C58.3659 49.918 58.4205 49.892 58.3614 49.9672C58.4905 49.9607 58.5032 49.889 58.5118 50.1238C58.5118 50.124 58.5397 50.1201 58.4922 50.2131C58.4347 50.3255 58.3188 50.2343 58.2781 50.2285C58.2926 50.2204 58.2524 50.1786 58.3195 50.2237C58.3533 50.2465 58.3436 50.2369 58.3612 50.288C58.0487 50.247 58.2203 50.3735 57.9102 50.5137L57.918 50.6083V50.6082Z" fill="#001B36"/>
<path fill-rule="evenodd" clip-rule="evenodd" d="M48.6246 50.7051L48.848 51.0064C48.9123 51.0763 49.0491 51.1644 49.0624 51.2768C48.5964 51.359 47.9254 51.148 47.5101 51.0392L47.4626 51.1086C47.5438 51.1248 47.5841 51.1249 47.6288 51.1799C47.7476 51.1799 47.7291 51.1678 47.7279 51.2292C47.7275 51.2521 47.7195 51.2472 47.7238 51.2749C47.7612 51.2795 47.8104 51.2853 47.8342 51.2825C47.8402 51.2818 47.8542 51.2783 47.8767 51.2725C48.0449 51.2285 47.9608 51.2399 47.9903 51.2578C47.9931 51.2594 47.9986 51.264 48.0017 51.2661L48.0567 51.3063C48.0611 51.3002 48.0722 51.3169 48.0798 51.3224C47.9024 51.3167 48.0058 51.3347 47.9257 51.275C47.9657 51.3974 48.029 51.3443 47.8716 51.3739C47.8059 51.3862 47.637 51.3074 47.5855 51.2749L47.5812 51.6548H47.3913C47.3812 51.7848 47.3673 51.6825 47.3458 51.6833L47.1522 51.6631C47.0988 51.6539 47.0963 51.6551 47.0352 51.6551L47.0967 51.7178C47.1574 51.7544 47.1166 51.7194 47.1298 51.7013L47.0916 51.7169C47.1875 51.8008 47.874 51.9444 48.0561 51.9659L48.3894 51.969C48.6403 51.9456 48.4511 51.9921 48.5311 51.8926C48.475 51.8926 48.418 51.8898 48.3622 51.8954C48.2917 51.9025 48.2848 51.9146 48.1989 51.9161V51.5125C48.0109 51.5113 48.1726 51.5233 48.1039 51.465L48.1063 51.2987L48.5712 51.344C48.6429 51.3633 48.6089 51.3548 48.6499 51.3937C48.6028 51.4212 48.567 51.4325 48.4836 51.4411L48.5767 51.411C48.6625 51.3765 48.6065 51.342 48.7213 51.3701C48.838 51.421 48.7468 51.2935 48.736 51.4419C48.7319 51.4975 48.7533 51.3929 48.7476 51.4654C48.7418 51.5399 48.8059 51.4724 48.7211 51.5006L48.7212 51.5126C49.0303 51.5126 48.7216 51.4306 49.0299 51.4532C48.9785 51.6066 49.0268 51.6291 49.0103 51.7766C49.0007 51.862 49.0677 51.8451 48.7926 51.8451C48.8833 51.9577 48.6302 51.8925 49.0539 51.9168C49.1739 51.9074 49.3127 51.8821 49.424 51.9261C49.4139 52.0462 49.3057 52.0269 49.2183 52.1141L49.244 52.1773C49.3211 52.155 49.2533 52.2003 49.3857 52.1068C49.4687 52.0482 49.4719 52.0483 49.4977 51.9638C49.539 51.8285 49.4624 51.8887 49.5458 51.865C49.5475 51.8645 49.5552 51.8658 49.5565 51.8662C49.5905 51.8769 49.5408 51.9366 49.5405 51.937C49.5384 51.9403 49.5315 51.9462 49.5288 51.9519C49.5652 51.8863 49.5575 51.8885 49.6122 51.8655L49.7189 51.845V51.5124C49.647 51.5168 49.6478 51.571 49.5274 51.5607C49.3841 51.5486 49.4666 51.5531 49.3968 51.507L49.3388 51.465V51.0851C49.4474 51.0833 49.4325 51.0662 49.5289 51.0851C49.5285 51.0853 49.531 51.1715 49.4931 51.0569C49.4599 50.9562 49.5093 51.1885 49.4814 50.9901C49.4877 50.9909 49.5583 51.0033 49.5654 51.0046C49.5864 51.0081 49.5884 51.0124 49.6239 51.0139C49.6228 51.0147 49.6461 51.1106 49.5289 50.9663C49.5379 50.8983 49.536 50.9398 49.5491 50.9086L49.5862 50.8267L49.3706 50.5941C49.3654 50.6002 49.3602 50.6093 49.3578 50.6145L49.3384 50.6652C49.3349 50.741 49.3861 50.6594 49.3861 50.8713C49.3011 50.9304 49.3184 50.8558 49.2911 50.9899C49.1675 50.9899 49.1119 50.9571 49.0301 51.0374C49.0314 51.0294 49.0348 51.0195 49.0337 51.0135L49.0147 50.9541C48.9614 50.8912 49.0874 50.9634 48.9351 50.9189C48.9642 50.9659 48.9361 50.9875 48.9349 50.9901L48.6417 50.7008C48.6392 50.6947 48.6298 50.7024 48.6246 50.7052L48.6246 50.7051Z" fill="#001B36"/>
<path fill-rule="evenodd" clip-rule="evenodd" d="M56.4454 44.4899C56.2338 44.4719 55.9545 44.6563 55.7548 44.6647C55.6965 44.5771 55.7068 44.5291 55.6607 44.4342L55.6582 44.5054C55.6482 44.4973 55.6342 44.4723 55.6287 44.4802L55.5871 44.4344C55.4887 44.4433 55.5398 44.5527 55.5398 44.5531H55.3261C55.3289 44.5554 55.3701 44.6176 55.336 44.5445L55.2784 44.4581C55.2782 44.605 55.3021 44.6555 55.3021 44.8141C55.2371 44.7618 55.2285 44.7099 55.2171 44.6954L55.2632 44.9825C55.3146 45.1238 55.279 45.1016 55.1836 45.123C55.1886 45.1294 55.1945 45.1314 55.1965 45.1437L55.251 45.2668C55.3492 45.4015 55.3275 45.2328 55.3515 45.3754C55.4265 45.3655 55.9369 45.0849 56.1009 45.0202C56.3195 44.9339 56.7127 44.7895 56.9824 44.8016L56.9585 44.8705L56.9951 44.8457C57.0906 44.9382 56.9976 44.8019 57.0336 44.9089L57.0439 45.0042C57.4292 45.0042 57.2497 44.9647 57.2497 44.9647C57.329 45.0085 57.3066 44.9508 57.2972 45.0518C57.3024 44.9775 57.3083 44.9733 57.321 44.9094C57.3316 44.9153 57.3493 44.9101 57.3537 44.9254L57.3929 44.9569C57.434 44.8795 57.4681 44.7548 57.5108 44.6714C57.5646 44.5663 57.6475 44.5006 57.6753 44.4105C57.543 44.3262 57.2419 44.3435 57.0832 44.3633L57.417 44.3591C57.529 44.3816 57.4709 44.3552 57.5345 44.4342C57.3105 44.4342 57.0391 44.4609 56.8697 44.4462L56.9932 44.7485L56.8221 44.7904L56.8029 44.7225C56.785 44.6478 56.7946 44.6352 56.7035 44.6006C56.685 44.7121 56.6288 44.6994 56.7391 44.7312L56.6795 44.6719C56.7054 44.6603 56.7072 44.6203 56.7053 44.6104C56.6783 44.4687 56.5547 44.5169 56.4711 44.5264L56.4453 44.4899H56.4454Z" fill="#001B36"/>
<path fill-rule="evenodd" clip-rule="evenodd" d="M56.9841 47.7826C56.9619 48.1141 56.7497 49.1005 56.5772 49.279C56.6591 49.2928 56.623 49.2796 56.6777 49.3028C56.6428 49.4279 56.6835 49.3279 56.6357 49.4025C56.6356 49.4026 56.5929 49.4464 56.5828 49.4625L56.5117 49.635C56.6079 49.7735 56.569 49.8013 56.7965 49.8013C56.7965 49.7837 56.8039 49.5825 56.8029 49.579C56.7893 49.5319 56.8609 49.5478 56.7547 49.5285C56.6773 49.5144 56.7631 49.5071 56.6068 49.5638L56.6611 49.5019C56.6637 49.4982 56.6693 49.4921 56.6713 49.4885C56.6968 49.4429 56.6686 49.4543 56.6305 49.3503C56.6391 49.3571 56.6501 49.3554 56.656 49.3711C56.7005 49.4905 57.0238 49.4688 57.0815 49.4688C57.077 49.4041 57.0408 49.4067 57.0909 49.415L57.1289 49.4214C57.1146 49.3193 57.1738 49.327 57.0579 49.3263C57.0635 49.3288 57.073 49.3234 57.076 49.3301L57.1904 49.3645C57.1921 49.3656 57.1967 49.3702 57.1983 49.374C57.3067 49.2379 57.5192 48.2926 57.4771 48.061C57.3931 47.7648 57.4787 47.3629 57.414 47.2841C57.2698 47.3072 57.3482 47.2365 57.317 47.3737L57.3192 47.8064C57.3192 48.1516 57.3362 48.0768 57.2818 48.0907C57.1925 48.1136 57.2655 48.1342 57.2714 48.139C57.2714 47.9292 57.2707 48.0486 57.2096 47.9846C57.1568 47.9293 57.1451 47.9148 57.0815 47.9015L57.0123 47.9946C57.0066 47.9892 56.9958 48.0122 56.9869 48.02L56.984 47.7825L56.9841 47.7826Z" fill="#001B36"/>
<path fill-rule="evenodd" clip-rule="evenodd" d="M52.8413 52.5262C53.1645 52.8397 53.2827 53.223 53.2515 53.6717C53.24 53.8359 53.1751 53.9642 53.1348 54.1C53.1801 54.1246 53.0402 54.1574 53.1879 54.1071C53.2595 54.0828 53.2171 54.1268 53.288 53.9074L53.374 53.5778C53.3877 53.6468 53.3977 53.6589 53.3977 53.744C53.373 53.7173 53.4308 53.6702 53.4691 53.744L53.5167 53.7439V52.984L53.6304 53.0044C53.8154 53.062 53.6742 53.0231 53.9327 52.9963C53.9728 52.9921 53.9793 52.9246 53.9917 53.055C54.1123 52.9878 54.0226 53.0673 54.039 53.0075C53.9832 52.9651 53.7339 52.7109 53.7312 52.6671L53.7507 52.6078C53.7534 52.6016 53.7595 52.5931 53.7652 52.5867C53.6729 52.4968 53.596 52.4116 53.4949 52.3397C53.4019 52.2736 53.2633 52.1573 53.1366 52.1614C52.9396 52.2094 52.8854 52.1074 52.7566 52.0341C52.7566 52.0602 52.7543 52.1045 52.7603 52.1314C52.795 52.287 52.8701 52.2124 52.8813 52.2062L52.7091 52.1766C52.7286 52.241 52.7087 52.2022 52.739 52.2676C52.7628 52.3188 52.7497 52.2882 52.7802 52.3188C52.7687 52.2876 52.8117 52.2836 52.709 52.3191C52.7867 52.3507 52.7208 52.3153 52.7862 52.3603C52.9173 52.4503 52.8543 52.5052 52.8542 52.5046C52.8531 52.5003 52.8473 52.5205 52.8411 52.5262L52.8413 52.5262Z" fill="#001B36"/>
<path fill-rule="evenodd" clip-rule="evenodd" d="M42.0999 51.8157C42.2163 51.909 42.1546 51.808 42.2027 51.8508C42.2688 51.9095 42.1311 51.7739 42.2174 51.8868C42.3109 52.009 42.694 52.0825 42.7002 52.2522C42.7037 52.35 42.7005 52.2772 42.6848 52.3088C42.6591 52.361 42.6839 52.2959 42.6416 52.3638C42.7006 52.3445 42.7579 52.428 42.8842 52.4203C43.0873 52.4078 42.98 52.4336 43.0215 52.3432C42.9716 52.3584 42.9762 52.4492 43.026 52.4751L43.0881 52.4996C43.1512 52.4929 43.103 52.5054 43.1594 52.4813L43.6004 52.241C43.539 52.2176 43.6004 52.3206 43.5205 52.1771C43.5568 52.171 43.6553 52.1188 43.5203 52.1057C43.5132 51.9972 43.5136 52.0772 43.4912 52.0594C43.3912 51.9801 43.5121 52.2135 43.4571 52.0431C43.4543 52.0343 43.443 52.039 43.4373 52.0346C43.44 52.0439 43.4413 52.0543 43.4457 52.0626L43.5202 52.1531C43.4349 52.1202 43.4209 52.1209 43.4039 52.046C43.3959 52.0108 43.4014 51.8886 43.4014 51.8445C43.3931 51.8418 43.3833 51.8398 43.3763 51.8373L43.2314 51.734C43.1023 51.7507 43.1623 51.7899 43.0102 51.7133C42.9303 51.673 42.8799 51.6541 42.7995 51.6144C42.6958 51.5632 42.4764 51.4324 42.3813 51.4249C42.2846 51.5376 42.2823 51.3844 42.1173 51.5121L42.1192 51.7376C42.2117 51.7678 42.0951 51.6456 42.0997 51.8157H42.0999Z" fill="#001B36"/>
<path fill-rule="evenodd" clip-rule="evenodd" d="M46.5044 53.6075C46.5619 53.6669 46.4538 53.6005 46.5594 53.6394L46.6543 53.6606C46.6615 53.6622 46.6731 53.6737 46.6782 53.6666C46.6833 53.6596 46.6943 53.6701 46.7019 53.6732L46.6102 53.7C46.6047 53.7008 46.5976 53.7001 46.5922 53.7008C46.5463 53.7069 46.4656 53.7366 46.4559 53.7081C46.4536 53.7012 46.445 53.7017 46.4408 53.6971C46.4387 53.7025 46.4374 53.7112 46.4368 53.714L46.4366 53.7507C46.4367 53.7483 46.4392 53.7466 46.4407 53.7447C46.4407 53.9796 46.5351 54.1722 46.1797 54.1722C46.2352 54.2412 46.0886 54.2537 46.2984 54.2422C46.5566 54.2063 46.8189 54.1423 47.0496 54.0704C47.1746 54.0315 47.2725 54.001 47.386 53.9547C47.4887 53.9129 47.6171 53.8714 47.6773 53.8079C47.6289 53.7594 47.6386 53.7753 47.5096 53.804L47.5578 53.7005C47.5811 53.6036 47.5803 53.6234 47.6283 53.5547L47.9843 53.6257C47.9532 53.5057 47.969 53.5135 47.9793 53.4497L48.072 53.4056C48.0882 53.3967 48.0568 53.4031 48.1033 53.3644C48.0692 53.3644 48.0113 53.3576 47.9864 53.3581C47.894 53.3597 47.8054 53.4629 47.7687 53.362C47.713 53.2092 47.7887 53.3744 47.819 53.265C47.8231 53.25 47.8346 53.2528 47.8418 53.2459C47.8328 53.2521 47.8238 53.2566 47.8133 53.2621L47.6949 53.32C47.691 53.3149 47.6818 53.3251 47.6759 53.3289L47.7944 53.2458C47.7478 53.1901 47.8653 53.191 47.7139 53.2052C47.5437 53.2966 47.311 53.374 47.1253 53.4302L46.5222 53.5964C46.5189 53.591 46.51 53.6033 46.5044 53.6074L46.5044 53.6075Z" fill="#001B36"/>
<path fill-rule="evenodd" clip-rule="evenodd" d="M56.8522 46.1149C56.8259 46.3002 56.9207 46.582 56.9627 46.7626C57.073 46.7282 56.919 46.7986 56.9906 46.7436L57.0575 46.6914C57.0849 46.7278 57.0543 46.7123 57.1487 46.7191L57.295 46.6912C57.2809 46.6921 57.2098 46.6547 57.3068 46.7335C57.4199 46.8255 57.2028 46.705 57.3545 46.7624L57.4138 46.6199C57.4382 46.6367 57.4687 46.6509 57.4141 46.6675C57.4464 46.5786 57.4024 46.6326 57.4858 46.5964C57.57 46.3507 57.8723 46.2329 57.9128 46.143C57.9117 46.1351 57.9006 46.1728 57.9117 46.1218C57.9344 46.0178 57.8822 46.1814 57.9363 46.0738C57.8605 46.0672 57.7805 46.0752 57.7463 46.0264L57.7592 46.0314C57.839 45.9595 57.741 46.1061 57.8177 45.9552C57.7034 45.9622 57.8094 45.9614 57.7323 45.948L57.6038 45.9312C57.5189 45.9075 57.5316 45.9646 57.5339 45.893C57.4774 45.9034 57.5235 45.8916 57.4699 45.9163C57.466 45.9181 57.4235 45.9409 57.4228 45.9412C57.3662 45.9629 57.3713 45.9578 57.3158 45.955C57.3121 45.9568 57.3074 45.9617 57.3056 45.9621L57.2477 45.955C57.1871 45.8314 57.2026 45.7951 57.2238 45.599C57.1446 45.6627 57.1699 45.6037 57.1502 45.7167L57.1538 45.8631C57.1513 45.8571 57.1439 45.854 57.1419 45.8411C57.1398 45.8277 57.1339 45.8256 57.1289 45.8186C57.0894 45.8644 57.071 45.8881 57.0991 45.967L57.0876 45.6557C57.0742 45.3722 57.1139 45.4699 57.023 45.3097L56.9389 45.21C56.8419 45.3722 56.9394 45.8104 56.8522 46.1149H56.8522Z" fill="#001B36"/>
<path fill-rule="evenodd" clip-rule="evenodd" d="M51.0482 55.5252L50.9338 55.5108C50.8456 55.5173 50.8715 55.5393 50.8585 55.6203C50.908 55.6561 50.9077 55.6512 50.9653 55.6441L50.8585 55.6442V55.8341C50.751 55.8348 50.7991 55.8112 50.7752 55.9171C50.7034 55.8493 50.7749 55.9671 50.7039 55.8342C50.7508 56.1242 50.6683 55.7577 50.6445 55.9527L50.6516 55.9706C50.6855 56.0075 50.6785 55.9992 50.7158 56.0242C50.6922 56.1086 50.749 56.0968 50.6785 56.0937C50.6807 56.1363 50.6701 56.1231 50.6989 56.1532C50.7074 56.1439 50.7531 56.1131 50.7923 56.1344C50.8296 56.1546 50.8158 56.1775 50.8583 56.2142C50.8549 56.2584 50.8505 56.213 50.8814 56.2377L50.9524 56.2762C50.9562 56.2774 50.9648 56.2788 50.9711 56.2793L50.9981 56.1865C51.003 56.0692 51.0068 56.147 50.977 56.1189H51.4757L51.9509 55.6679C51.8913 55.6373 51.9457 55.657 51.8809 55.6618C51.8738 55.6623 51.8523 55.6679 51.8456 55.6686L51.788 55.6661C51.7807 55.6638 51.79 55.742 51.769 55.6526L51.76 55.4294C51.7561 55.2693 51.7465 55.3108 51.8082 55.2167C51.7372 55.2338 51.6341 55.2706 51.6469 55.1788C51.5694 55.1869 51.619 55.168 51.4896 55.2537C51.3265 55.3617 51.2844 55.3931 51.1434 55.5461C51.0546 55.5312 51.112 55.5303 51.0482 55.5252L51.0482 55.5252Z" fill="#001B36"/>
<path fill-rule="evenodd" clip-rule="evenodd" d="M59.9682 53.1202C60.0332 53.1827 60.1763 53.2364 60.1824 53.353C60.0774 53.406 59.3377 53.3826 59.1243 53.4107C59.125 53.4194 59.1938 53.4065 59.1948 53.4065C59.4488 53.4356 59.2527 53.3769 59.338 53.4829L59.1275 53.5293C59.1285 53.5312 59.0907 53.5737 59.2195 53.5779C59.2001 53.5538 59.255 53.5373 59.186 53.5606C59.1133 53.585 59.1718 53.5615 59.1245 53.6017C59.1827 53.6556 59.1695 53.6172 59.2107 53.701C59.2127 53.705 59.2157 53.7143 59.2193 53.7203C59.3513 53.7203 59.4765 53.6966 59.6467 53.6966C59.5922 53.6289 59.6385 53.6485 59.4803 53.6073C59.4114 53.5893 59.3819 53.5474 59.3618 53.6016C59.4567 53.6016 59.4665 53.6051 59.5279 53.5542C59.3928 53.4448 59.386 53.5303 59.3856 53.5306C59.5157 53.5241 59.4016 53.5076 59.506 53.52C59.7688 53.5513 59.8574 53.4993 60.1037 53.5508C60.1071 53.5515 60.1146 53.5529 60.1175 53.5534L60.1931 53.5541C60.1899 53.5528 60.1835 53.5452 60.1834 53.5496C60.1834 53.5522 60.1772 53.55 60.1773 53.5508C60.1774 53.552 60.1769 53.5588 60.1772 53.5603C60.1778 53.5634 60.1824 53.575 60.1832 53.5782C60.1843 53.5825 60.1897 53.5938 60.193 53.6016C60.3391 53.5761 60.2883 53.5524 60.5012 53.554C60.6656 53.5551 60.7629 53.5797 60.9053 53.5069C60.9282 53.574 60.9116 53.4719 60.9293 53.6016L60.9508 53.4588C60.9764 53.3201 60.9159 53.4766 60.9679 53.4055C60.9512 53.3416 60.8921 53.298 60.8365 53.245C60.7863 53.1971 60.7458 53.1607 60.6827 53.1108L60.4061 52.8683C60.3517 52.837 60.4311 52.8646 60.3554 52.8525C60.3518 52.8563 60.3532 52.8665 60.3518 52.868L60.2881 52.8892C60.2382 52.811 60.2526 52.8626 60.1774 52.7866C60.1616 52.7706 60.142 52.7446 60.1263 52.7384L60.0268 52.7231C60.0338 52.7277 60.0417 52.7345 60.0455 52.7399L60.0755 52.8143C60.0766 52.8202 60.0735 52.8278 60.0744 52.8334C60.0753 52.8384 60.0735 52.8462 60.0747 52.8507C60.0856 52.8898 60.1187 52.8918 60.1256 52.8956L60.1928 52.9844C60.1057 53.0116 60.0955 53.0438 60.0505 53.0791C60.0667 52.8717 60.1129 53.0076 59.9793 52.9606L60.0064 53.0084C60.0106 53.0162 60.0156 53.0217 60.0195 53.0297C60.0726 53.1412 60.0939 53.0914 59.968 53.1202H59.9682Z" fill="#001B36"/>
<path fill-rule="evenodd" clip-rule="evenodd" d="M58.4238 53.6068C58.4479 53.6946 58.5756 53.6242 58.6478 53.6019C58.6493 53.6958 58.6182 53.6211 58.7903 53.6019C58.7735 53.7369 58.7964 53.7275 58.7192 53.7679C58.7475 53.7543 58.676 53.7167 58.7663 53.7664C58.7676 53.7672 58.7738 53.7713 58.7748 53.7723L58.6718 53.9104L58.7431 53.9091C59.127 53.8257 59.5182 53.7896 59.9302 53.7781L61.0936 53.7584C61.3801 53.7323 61.0206 53.4324 60.9666 53.4055C60.9145 53.4766 60.9749 53.3201 60.9494 53.4588L60.928 53.6017C60.9102 53.472 60.9268 53.574 60.904 53.5069C60.7615 53.5798 60.6642 53.5552 60.4998 53.554C60.2869 53.5525 60.3377 53.5761 60.1916 53.6017C60.1884 53.5938 60.1829 53.5825 60.1818 53.5782C60.181 53.575 60.1763 53.5634 60.1758 53.5603C60.1755 53.5588 60.1761 53.552 60.1759 53.5508C60.1759 53.55 60.182 53.5522 60.182 53.5497C60.1821 53.5453 60.1884 53.5528 60.1918 53.5541L60.1162 53.5534C60.1132 53.5529 60.1057 53.5515 60.1024 53.5508C59.856 53.4993 59.7674 53.5513 59.5046 53.5201C59.4002 53.5076 59.5143 53.5241 59.3842 53.5306C59.3846 53.5303 59.3915 53.4448 59.5265 53.5543C59.4651 53.6052 59.4553 53.6016 59.3604 53.6016C59.3806 53.5474 59.41 53.5893 59.4789 53.6073C59.6371 53.6485 59.5908 53.6289 59.6453 53.6966C59.4751 53.6966 59.3499 53.7204 59.2179 53.7204C59.2143 53.7143 59.2113 53.705 59.2094 53.701C59.1681 53.6172 59.1813 53.6557 59.1231 53.6017C59.1705 53.5615 59.112 53.585 59.1846 53.5606C59.2536 53.5374 59.1986 53.5539 59.2181 53.5779C59.0893 53.5736 59.1271 53.5312 59.1261 53.5293L59.3366 53.4829C59.2513 53.377 59.4474 53.4356 59.1934 53.4066C59.1924 53.4064 59.1236 53.4194 59.1229 53.4107C58.782 53.4572 58.8461 53.4663 58.5882 53.5407C58.5594 53.549 58.5266 53.5545 58.4953 53.5668L58.4239 53.6068L58.4238 53.6068Z" fill="#001B36"/>
<path fill-rule="evenodd" clip-rule="evenodd" d="M42.642 52.3622C42.5859 52.4006 42.5758 52.421 42.5018 52.3986L42.3916 52.4463C42.3592 52.4688 42.3368 52.4895 42.311 52.5088L41.8004 52.8942C41.8143 52.9069 41.9336 52.8709 41.7991 53.0136L41.3316 53.4258C41.3287 53.4289 41.3243 53.4343 41.3215 53.4376C41.314 53.4464 41.3099 53.4546 41.2915 53.4782C41.1881 53.6109 41.1823 53.5483 41.2028 53.6373C41.2103 53.6695 41.2756 53.6849 41.3033 53.6897C41.4708 53.7186 41.4594 53.6322 41.4594 53.6322L41.461 53.6068C41.4403 53.5141 41.4127 53.6401 41.4704 53.5535L41.5021 53.5054C41.4205 53.5097 41.374 53.5071 41.3359 53.5529C41.4068 53.5508 41.4376 53.519 41.4754 53.4815C41.4306 53.3873 41.5166 53.4727 41.4289 53.4318C41.3345 53.3878 41.4078 53.4062 41.3834 53.4401C41.4088 53.4478 41.3799 53.4723 41.4073 53.4339C41.5015 53.4192 41.4577 53.412 41.4909 53.3537C41.4923 53.3512 41.4953 53.345 41.4968 53.3426C41.5045 53.331 41.5336 53.3544 41.5498 53.2679C41.5493 53.2685 41.4567 53.3158 41.579 53.3851C41.645 53.4224 41.6911 53.4101 41.7871 53.4101C41.7871 53.2491 41.7755 53.3145 41.8129 53.1982C41.8136 53.1959 41.8157 53.1887 41.8162 53.1867L41.8134 53.1641C41.8134 53.164 41.8115 53.1639 41.8115 53.1639L41.8108 53.1727C41.8634 53.0487 41.8923 53.0876 42.0512 53.0768C42.1496 53.0701 42.1206 53.0605 42.1952 53.0487C42.2274 53.0436 42.2353 53.0428 42.2529 53.0449L42.3028 53.064C42.3958 53.0483 42.6104 52.8524 42.6904 52.7935C42.7696 52.7354 43.0556 52.5513 43.0886 52.4979L43.0265 52.4735C42.9766 52.4476 42.972 52.3567 43.022 52.3416C42.9805 52.4319 43.0877 52.4061 42.8847 52.4186C42.7583 52.4264 42.701 52.3428 42.642 52.3622V52.3622Z" fill="#001B36"/>
<path fill-rule="evenodd" clip-rule="evenodd" d="M59.0723 52.4526L59.5226 52.7737C59.6675 52.8839 59.8356 52.9936 59.9666 53.1197C60.0925 53.0909 60.0711 53.1407 60.0181 53.0292C60.0142 53.0212 60.0092 53.0157 60.0049 53.0079L59.9778 52.9601C60.1114 53.0071 60.0653 52.8712 60.0491 53.0786C60.0941 53.0433 60.1042 53.0111 60.1914 52.9839L60.1242 52.8951C60.1173 52.8913 60.0842 52.8893 60.0733 52.8502C60.072 52.8457 60.0739 52.8379 60.073 52.8329C60.072 52.8273 60.0751 52.8197 60.0741 52.8138L60.044 52.7394C60.0403 52.7341 60.0324 52.7272 60.0254 52.7226L60.1248 52.7379C60.1406 52.7441 60.1601 52.7701 60.176 52.7861C60.2512 52.8621 60.2368 52.8105 60.2866 52.8887L60.3504 52.8675C60.3518 52.866 60.3503 52.8559 60.354 52.852C60.2704 52.6959 59.835 52.4882 59.7805 52.3848C59.7341 52.3709 59.6971 52.3565 59.659 52.3279C59.6093 52.2908 59.6243 52.3113 59.5994 52.2475C59.6335 52.1721 59.6548 52.183 59.7285 52.1412C59.8105 52.0947 59.8023 52.0836 59.8992 52.0616C59.9313 52.0058 59.969 51.9977 60.0276 51.9653C60.1018 51.9242 60.1181 51.9266 60.1683 51.8589C60.0713 51.8043 60.1657 51.8363 60.0723 51.8374L59.6454 51.8437C59.6422 51.8391 59.6376 51.8326 59.6355 51.8299L59.5503 51.7487C59.43 51.7703 59.6529 51.7226 59.5103 51.7602C59.5031 51.7621 59.4957 51.8115 59.475 51.7687C59.4721 51.7628 59.4619 51.7717 59.4553 51.7726C59.5415 51.8531 59.4066 51.7714 59.5108 51.7944C59.5143 51.7951 59.5268 51.8015 59.5295 51.7957C59.5325 51.7893 59.5434 51.7952 59.5502 51.7963L59.5039 51.8203C59.497 51.8229 59.4898 51.8263 59.4828 51.8286L59.4197 51.832C59.4388 51.8574 59.4561 51.8321 59.4575 51.9854L59.4552 52.485C59.3282 52.4506 59.2049 52.4217 59.0723 52.4527L59.0723 52.4526Z" fill="#001B36"/>
<path fill-rule="evenodd" clip-rule="evenodd" d="M56.961 46.7621C57.0044 47.1014 57.022 47.4399 56.9822 47.783L56.9851 48.0205C56.994 48.0127 57.0048 47.9897 57.0104 47.9951L57.0797 47.902C57.1432 47.9153 57.1549 47.9298 57.2077 47.9851C57.2689 48.0491 57.2696 47.9297 57.2696 48.1395C57.2637 48.1347 57.1906 48.1141 57.2799 48.0912C57.3344 48.0773 57.3173 48.1521 57.3173 47.8069L57.3151 47.3742C57.3463 47.237 57.2679 47.3077 57.4122 47.2846C57.4768 47.3634 57.3913 47.7653 57.4753 48.0615C57.5972 47.8624 57.4722 46.8927 57.484 46.5958C57.4006 46.6321 57.4446 46.5781 57.4123 46.6669C57.4669 46.6503 57.4365 46.6361 57.412 46.6193L57.3527 46.7618C57.201 46.7044 57.4182 46.8249 57.305 46.733C57.2081 46.6542 57.2792 46.6916 57.2933 46.6907L57.147 46.7185C57.0525 46.7117 57.0832 46.7272 57.0558 46.6908L56.9889 46.743C56.9172 46.798 57.0713 46.7276 56.9609 46.7621H56.961Z" fill="#001B36"/>
<path fill-rule="evenodd" clip-rule="evenodd" d="M52.6059 44.5356C52.6493 44.5751 52.6361 44.6046 52.6354 44.6125C52.629 44.6828 52.4984 44.7782 52.498 44.7788C52.5373 44.7897 52.5716 44.7608 52.5932 44.7312C52.6221 44.7618 52.6415 44.777 52.6646 44.8142C52.9131 44.8142 52.8648 44.8221 52.9507 44.6856C52.9527 44.6825 52.9567 44.6761 52.9588 44.673L53.2679 44.307C53.1702 44.1571 53.2986 44.3993 53.2463 44.2681C53.2532 44.263 53.2619 44.2423 53.2648 44.2502C53.2687 44.2607 53.2655 44.2315 53.3057 44.2445C53.4241 44.1178 53.184 44.2772 53.3235 44.1731L53.2819 43.7467C53.2868 43.5442 53.2664 43.6187 53.2583 43.4608C53.2667 43.4677 53.2757 43.4681 53.2809 43.4844L53.3913 43.5739C53.4593 43.6016 53.4161 43.5649 53.4008 43.5794C53.3363 43.5487 53.3745 43.5592 53.3533 43.5081C53.3501 43.5062 53.3451 43.5034 53.3437 43.5026L53.3232 43.4898C53.211 43.4108 53.2651 43.3955 53.0938 43.4238C53.0851 43.4253 53.0615 43.4315 53.0539 43.4328L52.9494 43.4367L52.915 43.4307C53.0109 43.6566 53.0646 43.7964 52.9344 44.0633C52.8735 44.1882 52.6855 44.464 52.606 44.5356H52.6059Z" fill="#001B36"/>
<path fill-rule="evenodd" clip-rule="evenodd" d="M60.9638 50.6633C60.9669 50.7077 60.9692 50.7245 60.9219 50.7663C60.9212 50.7669 60.8777 50.7967 60.8667 50.8062C60.8349 50.8334 60.8439 50.8207 60.8349 50.8437L60.8362 50.9058C60.8277 51.0119 60.7926 50.8188 60.8349 50.9889C60.9906 50.9805 61.0925 51.0261 61.2523 51.0162C61.3156 51.0123 61.2945 51.0197 61.3621 50.9669C61.3658 50.964 61.3713 50.9594 61.3749 50.9565C61.3785 50.9535 61.3839 50.9489 61.3875 50.9458L61.5238 50.8229C61.5607 50.8332 61.5333 50.7946 61.5878 50.8594C61.6418 50.8499 61.61 50.8631 61.6555 50.8347C61.6805 50.8191 61.685 50.8081 61.7041 50.7892C61.8238 50.6705 61.9225 50.656 61.9336 50.514C61.8551 50.4363 61.4485 50.3256 61.3544 50.3321C61.232 50.4376 61.0307 50.2843 60.9841 50.3012C60.903 50.3306 60.9323 50.3543 60.9366 50.3713C60.9554 50.445 61.0514 50.4189 61.1201 50.4189L61.1202 50.514C60.9519 50.5151 61.0745 50.5048 61.0301 50.5658C60.9695 50.6494 61.0412 50.6089 60.9638 50.6633H60.9638Z" fill="#001B36"/>
<path fill-rule="evenodd" clip-rule="evenodd" d="M41.0597 53.7135C41.0896 53.6826 41.068 53.7001 41.0881 53.7272C41.0898 53.7294 41.0936 53.7381 41.097 53.7431L42.4504 53.7741C42.4113 53.7214 42.4468 53.6891 42.2611 53.6928C42.1812 53.6944 42.1036 53.6958 42.0233 53.6958L42.1182 53.6955C42.0243 53.6805 42.0583 53.657 42.0092 53.612C42.0063 53.6095 42.0014 53.6051 41.9984 53.6028C41.9787 53.5876 41.9862 53.6108 41.9398 53.5726C41.8882 53.5303 41.9061 53.5527 41.8808 53.482C42.0259 53.3032 42.0004 53.4183 42.0923 53.4471C42.1346 53.4603 42.12 53.4562 42.1637 53.4599L42.8305 53.458C42.7936 53.4122 42.823 53.3804 42.6406 53.384C42.5176 53.3865 42.1872 53.4062 42.1049 53.3761L42.0549 53.3394C42.1075 53.1953 42.2394 53.198 42.3013 53.0644L42.2514 53.0453C42.2338 53.0432 42.2259 53.0439 42.1937 53.049C42.1191 53.0608 42.1481 53.0705 42.0497 53.0772C41.8908 53.088 41.8619 53.049 41.8093 53.173L41.81 53.1643C41.81 53.1643 41.8119 53.1644 41.8119 53.1645L41.8147 53.1871C41.8142 53.1891 41.8121 53.1963 41.8114 53.1986C41.774 53.3149 41.7856 53.2495 41.7856 53.4105C41.6896 53.4105 41.6435 53.4228 41.5775 53.3855C41.4552 53.3162 41.5477 53.2689 41.5483 53.2683C41.5321 53.3548 41.503 53.3314 41.4953 53.343C41.4937 53.3454 41.4908 53.3515 41.4894 53.3541C41.4562 53.4124 41.5 53.4196 41.4058 53.4343C41.3784 53.4727 41.4073 53.4482 41.3819 53.4405C41.4064 53.4066 41.333 53.3882 41.4274 53.4322C41.5151 53.473 41.4291 53.3877 41.4739 53.4819C41.4362 53.5193 41.4053 53.5512 41.3344 53.5533C41.3725 53.5074 41.419 53.5101 41.5006 53.5058L41.4689 53.5539C41.4112 53.6404 41.4387 53.5145 41.4595 53.6072L41.4579 53.6326C41.4579 53.6325 41.4693 53.719 41.3018 53.69C41.2742 53.6853 41.2088 53.6698 41.2013 53.6377C41.1808 53.5487 41.1866 53.6113 41.29 53.4786C41.3084 53.455 41.3126 53.4468 41.32 53.438C41.3228 53.4347 41.3272 53.4293 41.3301 53.4262L41.7976 53.014C41.9321 52.8713 41.8128 52.9073 41.7989 52.8945C41.7425 52.9581 41.7465 52.9383 41.6907 52.9836L41.0293 53.6432C41.0354 53.7608 41.0288 53.6855 41.0597 53.7134V53.7135Z" fill="#001B36"/>
<path fill-rule="evenodd" clip-rule="evenodd" d="M44.1158 51.2823C44.1166 51.2831 44.0844 51.3122 44.1915 51.3151C44.2453 51.3165 44.2506 51.2765 44.3768 51.2743C44.3149 51.2294 44.4345 51.2855 44.4491 51.3911C44.4509 51.4043 44.448 51.4987 44.448 51.5118C44.301 51.5118 44.3348 51.5261 44.2057 51.4773C44.2027 51.4762 44.1965 51.4732 44.1938 51.4723C44.1915 51.4715 44.1853 51.47 44.1833 51.4694L44.1393 51.4646C44.1797 51.5619 44.1628 51.791 44.1633 51.9158C44.0286 51.925 44.1337 51.9059 44.0207 51.892L43.9258 52.0779C44.1717 52.0029 44.3742 51.9124 44.6308 51.8385L45.3851 51.6502C45.3326 51.5987 45.3171 51.6071 45.2081 51.6071C45.2723 51.4744 45.1475 51.6702 45.303 51.5359L45.1252 51.546C45.0686 51.542 45.0333 51.5782 44.9229 51.5498C44.9153 51.5479 44.9102 51.5455 44.903 51.5431L44.8519 51.5198C44.7138 51.4353 44.827 51.3724 44.7569 51.2685C44.7371 51.3877 44.7563 51.2545 44.7331 51.3694H44.4958L44.5231 51.3177C44.5697 51.2019 44.5327 51.232 44.5193 51.2269L44.638 51.1794C44.6375 51.1717 44.6357 51.1613 44.634 51.1566C44.6261 51.135 44.6308 51.1174 44.5905 51.1069C44.4871 51.1295 44.43 51.1476 44.3306 51.1795C44.2812 51.1953 44.2486 51.2033 44.2066 51.2216C44.1513 51.2457 44.1576 51.2396 44.1158 51.2824V51.2823Z" fill="#001B36"/>
<path fill-rule="evenodd" clip-rule="evenodd" d="M49.9336 55.4924C49.987 55.567 49.9536 55.5266 50.0295 55.5727C50.2221 55.6896 50.3381 55.7738 50.5013 55.9307C50.5353 55.9634 50.5516 55.9823 50.5844 56.0143C50.6005 56.0299 50.6121 56.0414 50.6348 56.06C50.6744 56.0927 50.643 56.0674 50.6801 56.0935C50.7506 56.0966 50.6939 56.1083 50.7174 56.0239C50.6801 55.9989 50.6871 56.0072 50.6532 55.9704L50.6461 55.9524C50.6699 55.7574 50.7524 56.1239 50.7056 55.8339C50.7765 55.9668 50.705 55.849 50.7768 55.9169C50.8007 55.811 50.7526 55.8345 50.8601 55.8338V55.6439L50.9669 55.6439C50.9093 55.6509 50.9096 55.6557 50.8601 55.62C50.8731 55.539 50.8472 55.517 50.9354 55.5106L51.0498 55.5249C50.9775 55.384 50.8475 55.313 50.7074 55.2258C50.5715 55.1411 50.4531 55.0586 50.2901 55.0021L50.2664 55.0737C50.3701 55.1197 50.339 55.196 50.3374 55.3128L50.3375 55.5249C50.3153 55.5501 50.0881 55.5883 50.0288 55.4064L49.9915 55.4617C49.9896 55.4635 49.9841 55.467 49.9822 55.4685L49.9336 55.4924L49.9336 55.4924Z" fill="#001B36"/>
<path fill-rule="evenodd" clip-rule="evenodd" d="M48.0567 51.9653C48.3789 51.9857 48.7438 51.9514 49.0544 51.9161C48.6307 51.8918 48.8838 51.957 48.7931 51.8444C49.0682 51.8444 49.0012 51.8613 49.0108 51.7759C49.0273 51.6284 48.979 51.6058 49.0304 51.4525C48.7221 51.4299 49.0308 51.5119 48.7217 51.5119L48.7216 51.4999C48.8064 51.4717 48.7423 51.5393 48.7481 51.4647C48.7538 51.3922 48.7324 51.4967 48.7365 51.4412C48.7473 51.2928 48.8385 51.4203 48.7218 51.3694C48.607 51.3413 48.6629 51.3758 48.5771 51.4103L48.4841 51.4404C48.5675 51.4317 48.6033 51.4205 48.6504 51.3929C48.6094 51.354 48.6434 51.3626 48.5717 51.3433L48.1069 51.298L48.1044 51.4643C48.1731 51.5226 48.0114 51.5106 48.1994 51.5118V51.9154C48.2853 51.914 48.2922 51.9018 48.3627 51.8947C48.4186 51.8891 48.4755 51.8919 48.5316 51.8919C48.4516 51.9913 48.6408 51.9449 48.39 51.9683L48.0566 51.9652L48.0567 51.9653Z" fill="#001B36"/>
<path fill-rule="evenodd" clip-rule="evenodd" d="M54.0402 53.007C54.06 53.0409 54.0796 53.0514 54.1059 53.0672C54.2344 53.1444 54.1828 53.0785 54.1828 53.0785C54.1451 53.1058 54.1248 53.1823 54.121 53.1923C54.1176 53.2013 54.1155 53.2116 54.1116 53.2208C54.107 53.218 54.1001 53.2072 54.0985 53.2118C54.0811 53.2594 54.0775 53.2002 54.0736 53.199C54.0168 53.1825 54.1356 53.1755 54.0401 53.197C54.0401 53.2873 54.0271 53.3855 54.0248 53.4016C54.024 53.407 54.0226 53.4187 54.0221 53.4239C54.0152 53.4892 54.0097 53.5043 54.0402 53.5059C53.8939 53.5059 54.0279 53.4981 53.9774 53.5495C54.0951 53.559 54.2123 53.6447 54.3169 53.7042C54.4425 53.7757 54.5126 53.818 54.6576 53.8606L54.6557 53.6734C54.658 53.5855 54.6578 53.4989 54.6578 53.411C54.845 53.411 54.832 53.4295 54.8837 53.3736C54.8543 53.3419 54.349 53.1228 54.2486 53.0593C54.1654 53.0066 54.0426 52.9254 53.9816 52.8527C53.9082 52.7655 53.8469 52.6637 53.7665 52.5862C53.7608 52.5926 53.7546 52.6011 53.752 52.6073L53.7324 52.6666C53.7352 52.7104 53.9845 52.9646 54.0403 53.007H54.0402Z" fill="#001B36"/>
<path fill-rule="evenodd" clip-rule="evenodd" d="M56.1367 50.0057C56.1424 50.0119 56.1541 50.0094 56.1582 50.0188C56.1967 50.1062 56.296 49.933 56.2961 49.933L56.3671 49.8852C56.4432 49.9417 56.3946 49.9302 56.4593 49.9455C56.4643 49.9467 56.5996 49.9446 56.6045 49.9446V50.3246C56.6095 50.3248 56.6637 50.3261 56.6699 50.3218L56.6996 50.2592C56.7933 50.3179 56.7825 50.3103 56.8895 50.3243C56.9725 50.1407 57.0177 50.2869 56.9977 50.1601C56.9968 50.1541 56.9899 50.1449 56.9884 50.1398C56.9867 50.1341 56.9814 50.1245 56.976 50.1182C56.9068 50.169 56.8406 50.2109 56.7472 50.2236C56.7647 50.1467 56.9344 49.9309 56.9895 49.8297C57.0719 49.6783 57.1511 49.5377 57.1964 49.3746C57.1947 49.3708 57.1902 49.3662 57.1885 49.3651L57.0741 49.3308C57.071 49.3241 57.0616 49.3294 57.056 49.3269C57.1719 49.3276 57.1126 49.32 57.127 49.422L57.0889 49.4156C57.0388 49.4073 57.075 49.4047 57.0795 49.4694C57.0219 49.4694 56.6985 49.4912 56.654 49.3718C56.6481 49.3561 56.6372 49.3577 56.6285 49.3509C56.6667 49.4549 56.6948 49.4436 56.6694 49.4891C56.6673 49.4928 56.6617 49.4989 56.6592 49.5025L56.6048 49.5644C56.7611 49.5077 56.6754 49.515 56.7527 49.5291C56.8589 49.5484 56.7874 49.5325 56.8009 49.5796C56.8019 49.5831 56.7945 49.7843 56.7945 49.8019C56.5671 49.8019 56.606 49.7742 56.5098 49.6357L56.5809 49.4632C56.5909 49.447 56.6337 49.4033 56.6338 49.4031C56.6815 49.3286 56.6408 49.4285 56.6758 49.3034C56.6211 49.2802 56.6571 49.2934 56.5753 49.2797C56.4996 49.4988 56.2768 49.8465 56.1368 50.0057H56.1367Z" fill="#001B36"/>
<path fill-rule="evenodd" clip-rule="evenodd" d="M59.8594 51.4249C59.8624 51.4968 59.919 51.4656 60.003 51.4213L60.2552 51.2918C60.3307 51.2457 60.434 51.1333 60.6206 51.1077L60.5923 51.2092C60.5647 51.32 60.5688 51.1263 60.592 51.2465L60.5983 51.3942C60.5984 51.4747 60.6253 51.4816 60.5716 51.5297L60.4783 51.5828L60.4942 51.6477C60.4947 51.6487 60.5005 51.6503 60.502 51.653C60.6506 51.5988 60.9337 51.3807 61.0777 51.2799C61.1971 51.1963 61.5315 50.9715 61.5872 50.8594C61.5327 50.7946 61.5601 50.8331 61.5233 50.8228L61.3869 50.9458C61.3833 50.9488 61.378 50.9535 61.3744 50.9565C61.3707 50.9595 61.3652 50.964 61.3615 50.9669C61.2939 51.0197 61.315 51.0122 61.2518 51.0162C61.092 51.0261 60.99 50.9805 60.8343 50.9889C60.792 50.8188 60.8272 51.012 60.8356 50.9058L60.8343 50.8437C60.7227 50.8856 60.6822 50.9343 60.5805 50.9956L59.911 51.3722C59.8378 51.4272 59.8912 51.3836 59.8594 51.425L59.8594 51.4249Z" fill="#001B36"/>
<path fill-rule="evenodd" clip-rule="evenodd" d="M52.9477 43.4376L53.0521 43.4336C53.0598 43.4323 53.0834 43.4261 53.0921 43.4247C53.2634 43.3963 53.2093 43.4117 53.3215 43.4907L53.342 43.5034C53.3433 43.5043 53.3484 43.5071 53.3516 43.509L53.3895 43.4862C53.3786 43.2975 52.9024 42.6329 52.6851 42.5924C52.6878 42.6635 52.7 42.6065 52.6154 42.6302C52.5842 42.594 52.6068 42.6198 52.556 42.5804C52.5503 42.5759 52.5162 42.5499 52.5098 42.544L52.457 42.4879C52.4011 42.5671 52.3652 42.5096 52.3066 42.6064C52.6395 42.7568 52.5664 42.6455 52.5204 42.8202C52.6708 42.7757 52.5338 42.836 52.5917 42.7966C52.5718 42.8485 52.5566 42.7272 52.5769 42.8664C52.5847 42.9194 52.5807 42.8936 52.6073 42.9548C52.5387 42.9122 52.5853 42.9248 52.5678 42.9391C52.6456 42.9846 52.6429 42.9829 52.6896 43.0305C52.7852 43.1281 52.8171 43.1292 52.8808 43.2451C52.9409 43.3544 52.9682 43.3514 52.9241 43.3191C53.0092 43.451 52.9398 43.343 52.9477 43.4376H52.9477Z" fill="#001B36"/>
<path fill-rule="evenodd" clip-rule="evenodd" d="M56.9541 44.8707C56.85 45.0426 56.8187 45.1984 56.8078 45.4316C56.8 45.598 56.7731 45.9968 56.8499 46.1143C56.9371 45.8098 56.8395 45.3717 56.9365 45.2094L57.0207 45.3091C57.1115 45.4694 57.0719 45.3717 57.0852 45.6552L57.0967 45.9664C57.0686 45.8875 57.087 45.8638 57.1265 45.818C57.1316 45.825 57.1375 45.8271 57.1395 45.8405C57.1416 45.8535 57.1489 45.8565 57.1514 45.8626L57.1478 45.7161C57.1675 45.6031 57.1423 45.6621 57.2214 45.5984C57.2002 45.7945 57.1848 45.8309 57.2454 45.9544L57.3033 45.9615C57.305 45.9612 57.3097 45.9562 57.3134 45.9544C57.232 45.6277 57.3342 45.2607 57.3886 44.9572L57.3493 44.9256C57.345 44.9103 57.3272 44.9156 57.3166 44.9097C57.304 44.9735 57.2981 44.9778 57.2929 45.0521C57.3023 44.9511 57.3247 45.0087 57.2454 44.9649C57.2454 44.9649 57.4249 45.0044 57.0396 45.0044L57.0292 44.9092C56.9933 44.8021 57.0863 44.9384 56.9908 44.8459L56.9541 44.8707V44.8707Z" fill="#001B36"/>
<path fill-rule="evenodd" clip-rule="evenodd" d="M54.66 53.8611C54.7175 53.9186 55.0249 54.027 55.1079 54.0219C55.1472 53.9679 55.0463 53.9862 55.2057 53.9823C55.3382 53.979 55.2389 53.9788 55.2777 54.0051L55.2775 53.9101C55.2589 53.903 55.2097 53.8875 55.2022 53.8843L55.1599 53.8645C55.1538 53.8616 55.1185 53.8427 55.1115 53.8389C55.0663 53.9533 55.1081 53.9061 55.1113 53.9102C55.0412 53.8198 55.162 53.9561 55.0838 53.8383C55.003 53.7166 55.0169 53.8145 55.0163 53.815C55.128 53.8197 55.0028 53.8301 55.1122 53.8484C55.2101 53.8648 55.1587 53.8527 55.1959 53.8431C55.2488 53.8293 55.2562 53.8132 55.2615 53.7917L55.2735 53.7441C55.2839 53.685 55.272 53.7557 55.2788 53.6953C55.294 53.5587 55.3092 53.6126 55.274 53.563L55.2065 53.4827L55.2778 53.4818C55.1855 53.4401 54.9903 53.3785 54.8862 53.374C54.8345 53.4299 54.8475 53.4114 54.6603 53.4114C54.6603 53.4993 54.6606 53.5859 54.6582 53.6738L54.6601 53.861L54.66 53.8611Z" fill="#001B36"/>
<path fill-rule="evenodd" clip-rule="evenodd" d="M45.7988 49.5882C45.6936 49.3152 45.5614 49.1087 45.4534 48.7721C45.3617 48.4861 45.2712 48.1017 45.2581 47.7836C45.2568 47.7832 45.2317 47.7778 45.2278 47.7784C45.224 47.7789 45.2102 47.7964 45.2069 47.7892C45.2027 47.7801 45.1914 47.802 45.1828 47.8072V48.0208C45.1093 48.0208 45.1448 48.0069 45.1351 48.0447C45.2468 48.2017 45.2068 48.7063 45.2063 48.9472C45.206 49.1085 45.1825 49.1609 45.2301 49.2085C45.2764 49.2548 45.3884 49.2406 45.4432 49.2211L45.5152 49.1848C45.5406 49.3169 45.5547 49.335 45.6276 49.4261C45.7221 49.5442 45.6904 49.5254 45.6988 49.5716L45.7053 49.612C45.7178 49.6104 45.7326 49.6101 45.7431 49.6082L45.7988 49.5883L45.7988 49.5882Z" fill="#001B36"/>
<path fill-rule="evenodd" clip-rule="evenodd" d="M50.6973 56.1535C50.8735 56.3758 51.0633 57.1428 51.3349 56.5011C51.5519 55.9885 51.8131 55.91 51.973 55.706L51.9493 55.6682L51.4742 56.1192H50.9754C51.0052 56.1473 51.0014 56.0695 50.9965 56.1868L50.9695 56.2796C50.9632 56.2791 50.9546 56.2777 50.9508 56.2765L50.8798 56.238C50.849 56.2133 50.8533 56.2587 50.8567 56.2145C50.8142 56.1778 50.8281 56.1549 50.7907 56.1347C50.7515 56.1134 50.7058 56.1442 50.6973 56.1535L50.6973 56.1535Z" fill="#001B36"/>
<path fill-rule="evenodd" clip-rule="evenodd" d="M44.1147 51.2815C44.0551 51.2797 44.0517 51.27 43.9957 51.321C44.0306 51.3438 44.0108 51.4138 44.0137 51.4333C44.0205 51.4809 44.0101 51.4537 44.0432 51.4638C43.7795 51.4368 44.0767 51.4843 43.8293 51.5136L43.6946 51.5589C43.6901 51.56 43.6667 51.5606 43.6632 51.5585C43.6676 51.5651 43.6596 51.5839 43.6577 51.601L43.656 51.6143C43.6583 51.6282 43.6598 51.6156 43.6634 51.6063L43.5684 51.701C43.6732 51.6701 43.6156 51.6609 43.6634 51.6774C43.6297 51.7645 43.6397 51.7436 43.6397 51.8437L43.79 51.9005C43.8491 51.8653 43.798 51.898 43.794 51.8912C43.6907 52.1221 43.7686 51.9903 43.8509 52.0958L43.9247 52.0772L44.0196 51.8912C44.1327 51.9051 44.0276 51.9242 44.1622 51.915C44.1617 51.7903 44.1786 51.5611 44.1382 51.4638L44.1822 51.4686C44.1842 51.4692 44.1904 51.4708 44.1927 51.4715C44.1954 51.4724 44.2016 51.4754 44.2047 51.4765C44.3337 51.5253 44.2999 51.511 44.4469 51.511C44.4469 51.4979 44.4498 51.4035 44.448 51.3903C44.4335 51.2847 44.3138 51.2286 44.3757 51.2735C44.2496 51.2757 44.2443 51.3157 44.1905 51.3143C44.0834 51.3114 44.1156 51.2824 44.1148 51.2815L44.1147 51.2815Z" fill="#001B36"/>
<path fill-rule="evenodd" clip-rule="evenodd" d="M58.6093 48.2601C58.5846 48.2798 58.5928 48.2697 58.5696 48.2971C58.5566 48.3123 58.5513 48.3188 58.5393 48.3382C58.5058 48.3924 58.5031 48.41 58.4841 48.4719C58.5334 48.4783 58.4177 48.4748 58.5149 48.4692L58.6722 48.4732C58.8012 48.4711 58.7172 48.4296 58.8852 48.4246C58.8852 48.5793 58.8781 48.7554 58.909 48.8756H58.7901C58.8176 48.8549 58.8502 48.8808 58.8502 48.8808C58.9439 48.9257 58.8216 48.8959 58.9327 48.9234C58.899 48.9788 58.8645 48.9875 58.8413 49.0576C58.8029 49.1734 58.8866 49.0662 58.7334 49.2737C58.7067 49.3099 58.6775 49.3492 58.648 49.3746C58.6517 49.388 58.6535 49.3985 58.6568 49.4155C58.6587 49.4251 58.6663 49.4346 58.6684 49.4363C58.6697 49.4374 58.6791 49.434 58.6828 49.4371C58.8744 49.3414 59.2914 48.479 59.3603 48.1634L59.2915 48.1163L59.2653 48.3056C59.2577 48.3034 59.2167 48.2843 59.212 48.2836C59.139 48.273 59.2562 48.2564 59.1905 48.2927L59.1682 48.3109C59.0659 48.3579 58.9364 48.3154 58.7676 48.3394C58.6183 48.3606 58.8689 48.358 58.7192 48.3295C58.6887 48.409 58.7581 48.3733 58.6717 48.4006C58.7017 48.2848 58.6139 48.2629 58.6093 48.2601H58.6093Z" fill="#001B36"/>
<path fill-rule="evenodd" clip-rule="evenodd" d="M51.841 42.4483L52.1247 42.6709C52.394 42.877 52.7541 43.1426 52.915 43.4316L52.9494 43.4376C52.9415 43.3431 53.0109 43.4511 52.9258 43.3191C52.9699 43.3514 52.9426 43.3544 52.8825 43.2451C52.8188 43.1293 52.787 43.1281 52.6913 43.0306C52.6446 42.9829 52.6473 42.9847 52.5695 42.9392C52.587 42.9248 52.5404 42.9122 52.609 42.9548C52.5824 42.8937 52.5863 42.9194 52.5786 42.8665C52.5583 42.7273 52.5736 42.8485 52.5934 42.7967C52.5356 42.836 52.6725 42.7757 52.5221 42.8202C52.5681 42.6456 52.6412 42.7569 52.3084 42.6065C52.3669 42.5096 52.4029 42.5671 52.4587 42.488L52.5115 42.5441C52.5179 42.55 52.552 42.576 52.5577 42.5804C52.6086 42.6198 52.5859 42.5941 52.6171 42.6302C52.7017 42.6066 52.6895 42.6635 52.6868 42.5925C52.6334 42.5027 52.5028 42.4356 52.4044 42.368C52.3234 42.3125 52.1643 42.2039 52.1042 42.1389C52.1029 42.1404 51.9641 42.1155 52.1092 42.2577C52.1579 42.3054 52.1523 42.2783 52.1896 42.3215C52.1511 42.3456 52.1301 42.4282 52.1271 42.4207C52.1256 42.4167 52.1212 42.4338 52.1181 42.4403C51.8649 42.4172 51.9518 42.4894 51.9162 42.393C51.7616 42.393 51.88 42.3807 51.841 42.4484L51.841 42.4483Z" fill="#001B36"/>
<path fill-rule="evenodd" clip-rule="evenodd" d="M48.8875 54.8743L48.9869 54.9743C49.1462 55.094 49.5996 55.3482 49.765 55.408C49.747 55.2343 49.7192 55.3641 49.7166 55.1704C49.7146 55.0199 49.6977 54.9919 49.765 54.8605C49.6735 54.8785 49.7264 54.8577 49.6104 54.8584L49.0764 54.884L49.0442 54.8074C49.0214 54.784 49.0546 54.7958 48.9577 54.7655C48.9488 54.8391 48.9583 54.7292 48.9599 54.8303L48.959 54.8538C48.959 54.8524 48.9591 54.8586 48.9578 54.8605C48.956 54.8592 48.9336 54.8517 48.9298 54.8521C48.8048 54.8666 48.9404 54.8288 48.8875 54.8743H48.8875Z" fill="#001B36"/>
<path fill-rule="evenodd" clip-rule="evenodd" d="M43.2285 51.7341L43.3734 51.8374C43.3804 51.8398 43.3903 51.8418 43.3986 51.8445C43.3986 51.8886 43.3931 52.0108 43.4011 52.0461C43.418 52.121 43.4321 52.1202 43.5173 52.1532L43.4428 52.0626C43.4384 52.0544 43.4371 52.044 43.4344 52.0346C43.4401 52.0391 43.4514 52.0343 43.4543 52.0431C43.5093 52.2136 43.3884 51.9801 43.4883 52.0595C43.5108 52.0773 43.5104 51.9972 43.5175 52.1058C43.6525 52.1188 43.554 52.171 43.5176 52.1771C43.5975 52.3206 43.5361 52.2177 43.5976 52.241C43.65 52.2164 43.6774 52.2001 43.7293 52.1752C43.8045 52.1392 43.7945 52.1612 43.8476 52.0966C43.7653 51.9912 43.6873 52.123 43.7907 51.892C43.7947 51.8988 43.8457 51.8662 43.7867 51.9014L43.6364 51.8445C43.6364 51.7444 43.6264 51.7654 43.66 51.6783C43.6123 51.6618 43.6699 51.671 43.565 51.7019L43.66 51.6072C43.6565 51.6165 43.655 51.6291 43.6526 51.6151L43.6544 51.6019C43.6563 51.5848 43.6642 51.566 43.6598 51.5594C43.6634 51.5614 43.6868 51.5609 43.6912 51.5598L43.826 51.5145C44.0733 51.4852 43.7761 51.4377 44.0399 51.4646C44.0068 51.4545 44.0172 51.4817 44.0103 51.4342C44.0075 51.4147 44.0272 51.3447 43.9923 51.3219C43.8903 51.3519 43.3134 51.6193 43.2286 51.734L43.2285 51.7341Z" fill="#001B36"/>
<path fill-rule="evenodd" clip-rule="evenodd" d="M56.8574 51.649L57.2121 51.7366C57.6759 51.8408 58.0086 51.9948 58.2685 52.0568C58.371 52.0594 58.2691 52.0705 58.316 51.9864C58.1752 51.9577 58.2023 51.9172 58.0788 51.8675V51.7013C57.879 51.7001 58.0703 51.6889 57.9677 51.6594C57.9168 51.6448 57.849 51.653 57.7943 51.6535C57.6305 51.6549 57.5027 51.6799 57.4138 51.6063C57.4586 51.5215 57.4214 51.6118 57.4136 51.6299C57.277 51.6811 57.2605 51.6299 57.1051 51.6299C57.1094 51.5246 57.1268 51.616 57.1286 51.6182C57.0503 51.6121 56.9521 51.5556 56.8574 51.649Z" fill="#001B36"/>
<path fill-rule="evenodd" clip-rule="evenodd" d="M47.4354 50.9981C47.2657 50.9208 47.0811 50.8381 46.9274 50.7413C46.8381 50.6851 46.7856 50.6515 46.6996 50.5888C46.5994 50.5157 46.5773 50.4856 46.4668 50.4194L46.4814 50.5178C46.5205 50.5735 46.6003 50.5942 46.6438 50.6556L46.7278 50.751V51.0835C46.9608 51.085 46.6055 51.1347 47.1555 51.131C47.1867 51.0709 47.1143 51.1383 47.2009 51.1012L47.3663 51.0409C47.3757 51.0369 47.3809 51.0341 47.3895 51.0298L47.4353 50.9981H47.4354Z" fill="#001B36"/>
<path fill-rule="evenodd" clip-rule="evenodd" d="M47.9629 53.6685C48.0851 53.6267 48.1211 53.5623 48.2544 53.5509C48.2964 53.7167 48.2626 54.0172 48.3759 54.1393C48.4158 54.0988 48.4236 54.0753 48.4154 53.9836C48.415 53.9792 48.4133 53.9723 48.4128 53.9682C48.4029 53.8718 48.4185 53.8718 48.4852 53.8152L48.5077 54.0174C48.5569 54.1545 48.4696 54.0036 48.5218 54.0967C48.5475 54.1424 48.5137 54.1199 48.5804 54.124V53.4114C48.4963 53.4108 48.5986 53.4587 48.2954 53.4587C48.2929 53.451 48.3014 53.4269 48.2656 53.4221C48.2543 53.4205 48.2395 53.4248 48.2186 53.4276C48.159 53.4354 48.1871 53.4264 48.1593 53.4642L47.9629 53.5777V53.6686L47.9629 53.6685Z" fill="#001B36"/>
<path fill-rule="evenodd" clip-rule="evenodd" d="M55.1078 54.0211C55.1129 54.0251 55.1199 54.0302 55.1237 54.0325L55.5862 54.1696C55.7627 54.1764 55.6267 54.1692 55.6812 54.1229C55.5434 54.0513 55.5624 54.1081 55.5625 53.9568L55.6813 54.0517C55.6086 53.9388 55.7107 53.9721 55.7052 53.9805V53.8378H55.5156C55.527 53.7495 55.4761 53.7814 55.5388 53.7428C55.3911 53.7428 55.416 53.7257 55.3727 53.6718C55.4356 53.6482 55.4265 53.6481 55.5152 53.6481C55.5066 53.6595 55.5203 53.7014 55.4623 53.6666C55.3797 53.6171 55.4333 53.6871 55.3964 53.5768C55.4747 53.6056 55.518 53.6227 55.6099 53.6241L55.6348 53.5838C55.5686 53.5322 55.3626 53.4992 55.2777 53.481L55.2064 53.4819L55.2739 53.5622C55.3091 53.6118 55.2939 53.5579 55.2787 53.6945C55.2719 53.7549 55.2838 53.6842 55.2734 53.7432L55.2614 53.7909C55.2561 53.8124 55.2487 53.8285 55.1958 53.8422C55.1586 53.8519 55.21 53.864 55.1121 53.8476C55.0027 53.8293 55.1279 53.8189 55.0162 53.8141C55.0168 53.8137 55.0029 53.7158 55.0837 53.8375C55.1619 53.9553 55.0411 53.819 55.1112 53.9094C55.1079 53.9054 55.0662 53.9525 55.1114 53.8381C55.1184 53.8419 55.1537 53.8608 55.1598 53.8637L55.2021 53.8835C55.2097 53.8867 55.2588 53.9021 55.2775 53.9093L55.2776 54.0043C55.2388 53.978 55.3381 53.9782 55.2056 53.9815C55.0462 53.9854 55.1471 53.9671 55.1078 54.0211Z" fill="#001B36"/>
<path fill-rule="evenodd" clip-rule="evenodd" d="M51.6495 55.1788C51.6367 55.2706 51.7398 55.2338 51.8108 55.2167C51.7491 55.3108 51.7587 55.2693 51.7626 55.4294L51.7716 55.6525C51.7926 55.742 51.7833 55.6638 51.7906 55.6661L51.8482 55.6685C51.855 55.6679 51.8764 55.6623 51.8835 55.6618C51.9483 55.657 51.8939 55.6373 51.9535 55.6679L51.9772 55.7057C52.0471 55.6917 52.2698 55.5497 52.309 55.4924C52.2612 55.4429 52.2254 55.5051 52.1198 55.4541C52.1255 55.4025 52.1095 55.4429 52.136 55.3851C52.1761 55.2976 52.1496 55.3566 52.1673 55.3471C52.0998 55.3612 51.9068 55.3896 51.9035 55.2843L51.9212 55.064C51.9154 54.944 51.9491 55.0753 51.9058 55.0282C51.8057 55.0639 51.7042 55.0996 51.6495 55.1789V55.1788Z" fill="#001B36"/>
<path fill-rule="evenodd" clip-rule="evenodd" d="M48.9356 43.2949L49.0766 43.2713C49.0786 43.2785 49.0795 43.2827 49.08 43.2933C49.0804 43.3031 49.0821 43.3098 49.0826 43.3135C49.0831 43.3167 49.0841 43.3273 49.0848 43.3307C49.0864 43.3397 49.0291 43.3792 49.1437 43.3558C49.1506 43.3544 49.1877 43.3446 49.1954 43.3426C49.1517 43.6526 49.1718 43.1672 49.1718 43.6749L49.1956 43.6749C49.1956 43.7813 49.1783 43.8102 49.2421 43.8886C49.1872 43.3744 49.5204 43.268 49.5623 43.0928C49.5595 43.0888 49.5651 43.0795 49.5642 43.0782C49.5629 43.0762 49.5462 43.0758 49.5448 43.0664C49.5423 43.0493 49.5176 43.0613 49.5043 43.0576C49.4359 43.1598 49.3701 43.1846 49.2587 43.1505C49.2157 43.1374 49.2175 43.1511 49.1961 43.0944C49.1952 43.0921 49.1941 43.0845 49.1934 43.0823C49.1928 43.0803 49.1921 43.0732 49.1915 43.0713L49.1753 43.0442C49.1748 43.0436 49.1695 43.0421 49.169 43.039C49.1686 43.0357 49.1638 43.036 49.1621 43.0337C49.2094 43.0199 49.1958 43.0197 49.2145 43.0037C49.2742 42.9523 49.3161 42.8924 49.2967 42.8081C49.2325 42.837 49.2693 42.8086 49.2133 42.8618L49.0892 43.0225C49.0274 43.1048 48.9694 43.1878 48.9355 43.2948L48.9356 43.2949Z" fill="#001B36"/>
<path fill-rule="evenodd" clip-rule="evenodd" d="M45.4438 50.2993L45.4777 50.2551C45.4948 50.208 45.4607 50.2376 45.4423 50.2283L45.4378 50.2375L44.9208 49.8369C44.8764 49.8257 44.9081 49.8413 44.8652 49.8086C44.8015 49.76 44.6831 49.6097 44.577 49.5623C44.5069 49.5646 44.5653 49.5485 44.5413 49.6343L44.9271 49.967C45.0444 50.0574 44.9632 50.0569 45.0517 50.0442L45.0276 50.0849C44.9854 50.1877 45.0152 50.1727 45.0162 50.3233L45.0815 50.3448C45.2053 50.3929 45.2702 50.3708 45.4438 50.3708C45.4822 50.2741 45.4259 50.3901 45.4081 50.2995L45.4438 50.2993Z" fill="#001B36"/>
<path fill-rule="evenodd" clip-rule="evenodd" d="M52.166 52.0255C52.2221 52.0837 52.2707 52.09 52.3465 52.1377C52.4113 52.1784 52.4634 52.2127 52.5185 52.2507C52.6505 52.342 52.7409 52.4212 52.843 52.5263C52.8492 52.5207 52.855 52.5004 52.856 52.5047C52.8562 52.5053 52.9192 52.4504 52.788 52.3604C52.7226 52.3155 52.7885 52.3508 52.7108 52.3192C52.8135 52.2838 52.7705 52.2877 52.7821 52.3189C52.7515 52.2883 52.7646 52.3189 52.7409 52.2677C52.7105 52.2023 52.7305 52.2411 52.711 52.1767L52.8831 52.2064C52.8719 52.2125 52.7968 52.2871 52.7621 52.1315C52.7561 52.1047 52.7585 52.0603 52.7585 52.0342C52.8872 52.1076 52.9414 52.2096 53.1385 52.1615L52.9782 52.0743C52.907 52.0446 52.8638 52.0116 52.8157 51.9696C52.7832 51.9036 52.7889 51.9145 52.7395 51.8727L52.7654 51.8813C52.6921 51.8765 52.7164 51.9604 52.6634 52.034C52.5725 52.034 52.45 52.0554 52.4044 52.0494C52.3115 52.037 52.3 51.9919 52.1661 52.0255H52.166Z" fill="#001B36"/>
<path fill-rule="evenodd" clip-rule="evenodd" d="M56.4434 44.4898L56.4691 44.5263C56.5528 44.5169 56.6763 44.4686 56.7033 44.6104C56.7052 44.6202 56.7034 44.6603 56.6775 44.6718L56.7371 44.7311C56.6268 44.6994 56.683 44.7121 56.7015 44.6006C56.7926 44.6351 56.783 44.6477 56.8009 44.7224L56.8202 44.7903L56.9912 44.7484L56.8678 44.4462C57.0371 44.4608 57.3085 44.4341 57.5325 44.4341C57.4689 44.3551 57.527 44.3816 57.4151 44.359L57.0813 44.3633C56.973 44.3764 56.538 44.4129 56.4434 44.4898H56.4434Z" fill="#001B36"/>
<path fill-rule="evenodd" clip-rule="evenodd" d="M49.2891 42.8201C49.4885 42.8063 49.4359 42.683 49.5265 42.7348C49.5683 42.7587 49.6012 42.9526 49.5897 42.9872C49.5726 43.0385 49.5487 42.976 49.5609 43.093C49.6259 43.0809 49.8972 42.8448 49.9645 42.784C49.9999 42.7521 50.0051 42.7401 50.0235 42.7159C50.0142 42.7077 50.0634 42.6256 49.9314 42.7048C49.9089 42.7183 49.9146 42.7127 49.8864 42.7487C49.8641 42.7771 49.8763 42.7509 49.859 42.7965L49.7931 42.7758C49.7891 42.7757 49.7481 42.7917 49.7402 42.7924C49.7348 42.7864 49.73 42.7774 49.7265 42.7724L49.6196 42.6519C49.615 42.6373 49.6042 42.6383 49.5979 42.6303C49.6565 42.599 49.7399 42.5701 49.6926 42.4879C49.5572 42.5506 49.3611 42.6892 49.2891 42.8201V42.8201Z" fill="#001B36"/>
<path fill-rule="evenodd" clip-rule="evenodd" d="M51.8145 51.3303L51.8386 51.3668C51.9554 51.3641 51.8793 51.3842 51.9762 51.3338L52.0712 51.3219C52.0815 51.3446 52.0877 51.3394 52.0892 51.3844C52.0903 51.4188 52.0715 51.4378 51.9762 51.4642C51.8959 51.4151 51.9265 51.5201 51.9405 51.3457L51.8812 51.4266C51.82 51.4625 51.9284 51.3534 51.8278 51.4406C51.8339 51.4443 51.844 51.4408 51.8473 51.4494C51.8686 51.5055 52.169 51.535 52.269 51.5062C52.3716 51.4767 52.1803 51.4656 52.3801 51.4643L52.38 51.3217C52.3089 51.3087 52.3343 51.3167 52.2969 51.298C52.3025 51.264 52.3108 51.2288 52.3145 51.1893L52.3086 51.1107C52.2085 51.1431 52.1491 51.1845 52.0493 51.2279C51.9753 51.2602 51.8704 51.2791 51.8145 51.3304V51.3303Z" fill="#001B36"/>
<path fill-rule="evenodd" clip-rule="evenodd" d="M49.2905 42.8187L49.2967 42.8069C49.3162 42.8912 49.2741 42.9511 49.2144 43.0024C49.1958 43.0185 49.2094 43.0187 49.1621 43.0325C49.1639 43.0348 49.1686 43.0344 49.169 43.0378C49.1694 43.0408 49.1748 43.0424 49.1753 43.043L49.1915 43.0701C49.1921 43.0719 49.1928 43.0791 49.1934 43.0811C49.1941 43.0833 49.1952 43.0909 49.1961 43.0932C49.2175 43.1499 49.2157 43.1362 49.2587 43.1493C49.3701 43.1834 49.4358 43.1586 49.5043 43.0564C49.5176 43.0601 49.5423 43.0481 49.5448 43.0652C49.5462 43.0746 49.5628 43.075 49.5642 43.077C49.565 43.0783 49.5595 43.0875 49.5623 43.0916C49.5501 42.9746 49.574 43.037 49.5911 42.9858C49.6026 42.9511 49.5697 42.7573 49.5279 42.7334C49.4373 42.6815 49.4899 42.8049 49.2905 42.8187H49.2905Z" fill="#001B36"/>
<path fill-rule="evenodd" clip-rule="evenodd" d="M57.5782 49.6447C57.6219 49.7035 57.5546 49.666 57.6747 49.682C57.7132 49.5968 57.7551 49.5789 57.7698 49.5396L57.7817 49.6703C57.7818 49.504 57.7705 49.6508 57.8409 49.5872C57.8665 49.6215 57.907 49.6234 57.9656 49.6062C58.0722 49.5747 57.878 49.5646 58.0787 49.5633L58.0786 49.4207C58.0257 49.4103 58.0614 49.4354 58.0194 49.3703C58.0156 49.3642 58.014 49.3572 58.0102 49.3508L57.9585 49.2767C57.8874 49.2332 57.928 49.2716 57.9221 49.2769C57.8396 49.3335 57.6109 49.5755 57.5781 49.6446L57.5782 49.6447Z" fill="#001B36"/>
<path fill-rule="evenodd" clip-rule="evenodd" d="M44.9199 49.8383L45.4368 50.2388L45.4896 50.2058L45.1485 49.6832C45.1485 49.6832 45.0646 49.6874 45.1458 49.8139C45.0262 49.7929 45.0819 49.7738 45.0061 49.8095L44.9351 49.8346C44.9333 49.8299 44.9244 49.8356 44.9199 49.8383Z" fill="#001B36"/>
<path fill-rule="evenodd" clip-rule="evenodd" d="M43.2589 49.9162L43.8524 49.8746C43.8372 49.7521 43.8011 49.7527 43.7394 49.6759C43.6739 49.5943 43.6775 49.5802 43.5765 49.5248C43.5377 49.6361 43.5727 49.5797 43.5793 49.6816L43.5438 49.8016L43.2578 49.8179C43.3405 49.8659 43.3672 49.9042 43.4251 49.8725C43.3218 49.8725 43.3166 49.8721 43.2589 49.9162V49.9162Z" fill="#001B36"/>
<path fill-rule="evenodd" clip-rule="evenodd" d="M52.7617 54.5384C52.7864 54.5593 52.8612 54.624 52.8679 54.5521C52.9197 54.5521 52.9823 54.5601 53.0308 54.5463C53.1319 54.5173 52.9413 54.5057 53.1411 54.5044C53.1411 54.4105 53.1286 54.2205 53.1884 54.1718C53.1342 53.9781 53.2126 54.1661 53.1493 54.0969L52.8217 54.4694C52.817 54.4746 52.8029 54.4899 52.7983 54.4951L52.7618 54.5383L52.7617 54.5384Z" fill="#001B36"/>
<path fill-rule="evenodd" clip-rule="evenodd" d="M42.0332 51.8336C42.0914 51.9202 42.2454 51.9887 42.3452 52.0471C42.3883 52.0723 42.4566 52.1141 42.5098 52.1438C42.5821 52.1841 42.6039 52.1746 42.6383 52.2479C42.597 52.3536 42.566 52.2969 42.5018 52.3999C42.5757 52.4223 42.5858 52.4019 42.642 52.3635C42.6843 52.2955 42.6595 52.3607 42.6852 52.3085C42.7009 52.2769 42.7041 52.3497 42.7006 52.2519C42.6945 52.0822 42.3113 52.0087 42.2178 51.8865C42.1315 51.7735 42.2692 51.9092 42.2031 51.8505C42.155 51.8077 42.2166 51.9087 42.1003 51.8154L42.0234 51.7971L42.0333 51.8337L42.0332 51.8336Z" fill="#001B36"/>
<path fill-rule="evenodd" clip-rule="evenodd" d="M59.7807 52.3848C59.7859 52.3803 59.8043 52.3638 59.8278 52.3528C59.8561 52.3395 59.9182 52.343 59.8711 52.3247C59.8908 52.2809 59.8358 52.2313 59.8345 52.2249C59.8319 52.2126 59.8226 52.2129 59.8178 52.206C59.8831 52.1834 59.8843 52.2214 59.8968 52.1124L59.8994 52.0615C59.8025 52.0836 59.8107 52.0947 59.7287 52.1411C59.655 52.183 59.6337 52.1721 59.5996 52.2475C59.6244 52.3113 59.6095 52.2907 59.6592 52.3279C59.6973 52.3564 59.7343 52.3709 59.7807 52.3848Z" fill="#001B36"/>
<path fill-rule="evenodd" clip-rule="evenodd" d="M46.4781 50.4175L46.1333 50.0367C46.1016 50.0038 46.1258 50.0267 46.0846 50.0016C46.0813 50.0681 46.0909 50.1064 46.121 50.1434C46.1652 50.1978 46.1759 50.1731 46.2297 50.2266C46.3017 50.2981 46.2106 50.2605 46.3696 50.375C46.4125 50.4058 46.3787 50.3702 46.4178 50.4212L46.4781 50.4175H46.4781Z" fill="#001B36"/>
<path fill-rule="evenodd" clip-rule="evenodd" d="M51.0636 43.9181L51.1486 43.8695C51.1975 43.9623 51.18 43.9897 51.2479 44.0609C51.3258 44.0475 51.2624 44.0686 51.2867 44.0073C51.2117 43.8431 51.1507 43.7385 51.0156 43.8886C51.0335 43.9389 50.9969 43.8956 51.0636 43.9181Z" fill="#001B36"/>
<path fill-rule="evenodd" clip-rule="evenodd" d="M41.4775 45.3835C41.4879 45.3271 41.4212 45.3568 41.5197 45.25L41.4775 45.2415C41.3872 45.268 41.4045 45.2472 41.3535 45.3133C41.4096 45.374 41.389 45.3533 41.4775 45.3835Z" fill="#001B36"/>
</g>
<defs>
<clipPath id="clip0">
<rect width="47.6135" height="43.0769" fill="white" transform="translate(17.2305 19.6923)"/>
</clipPath>
</defs>
</svg>
