<svg width="80" height="80" viewBox="0 0 80 80" fill="none" xmlns="http://www.w3.org/2000/svg">
<circle cx="40" cy="40" r="40" fill="#55ACE3" fill-opacity="0.1"/>
<ellipse cx="40.1063" cy="40.1073" rx="31.5282" ry="31.5281" fill="#55ACE3" fill-opacity="0.2"/>
<circle cx="40" cy="40" r="20" fill="#55ACE3"/>
<path d="M50.6 34.9C49.9 35.2 49.1 35.4 48.3 35.5C49.1 35 49.8 34.2 50.1 33.3C49.3 33.8 48.5 34.1 47.5 34.3C46.8 33.5 45.7 33 44.6 33C42.4 33 40.6 34.8 40.6 37C40.6 37.3 40.6 37.6 40.7 37.9C37.4 37.7 34.4 36.1 32.4 33.7C32.1 34.3 31.9 35 31.9 35.7C31.9 37.1 32.6 38.3 33.7 39C33 39 32.4 38.8 31.9 38.5C31.9 40.4 33.3 42.1 35.1 42.4C34.8 42.5 34.4 42.5 34 42.5C33.7 42.5 33.5 42.5 33.2 42.4C33.7 44 35.2 45.2 37 45.2C35.6 46.3 33.9 46.9 32 46.9C31.7 46.9 31.4 46.9 31 46.8C32.8 47.9 34.9 48.6 37.2 48.6C44.6 48.6 48.6 42.5 48.6 37.2V36.7C49.4 36.4 50.1 35.7 50.6 34.9Z" fill="white"/>
</svg>
