<svg width="18" height="16" viewBox="0 0 18 16" fill="none" xmlns="http://www.w3.org/2000/svg">
<path opacity="0.598586" d="M17.619 0H10.381C10.1703 0 10 0.170286 10 0.380952V7.61905C10 7.76343 10.0815 7.89524 10.2107 7.96C10.2644 7.98667 10.323 8 10.381 8C10.4617 8 10.5425 7.97448 10.6095 7.92381L13.5554 5.71429H17.619C17.8297 5.71429 18 5.544 18 5.33333V0.380952C18 0.170286 17.8297 0 17.619 0Z" fill="#3A416F"/>
<path d="M8.80115 12.6764C7.985 12.368 6.66308 12 5 12C3.33692 12 2.015 12.368 1.19846 12.6764C0.470769 12.9524 0 13.6138 0 14.3615V15.6364C0 15.8375 0.171923 16 0.384615 16H9.61539C9.82808 16 10 15.8375 10 15.6364V14.3615C10 13.6138 9.52923 12.9524 8.80115 12.6764Z" fill="#3A416F"/>
<path d="M5 11C6.662 11 8 8.87239 8 7.11111C8 5.39572 6.65413 4 5 4C3.34588 4 2 5.39572 2 7.11111C2 8.87239 3.338 11 5 11Z" fill="#3A416F"/>
</svg>
